<svg xmlns="http://www.w3.org/2000/svg" xmlns:xlink="http://www.w3.org/1999/xlink" width="945" height="222" viewBox="0 0 945 222">
  <defs>
    <clipPath id="clip-path">
      <rect id="Rectángulo_401295" data-name="Rectángulo 401295" width="128.312" height="128.273" fill="none" stroke="#01927f" stroke-width="1"/>
    </clipPath>
    <clipPath id="clip-path-6">
      <path id="Rectángulo_401268" data-name="Rectángulo 401268" d="M30,0H886a0,0,0,0,1,0,0V192a30,30,0,0,1-30,30H0a0,0,0,0,1,0,0V30A30,30,0,0,1,30,0Z" fill="#01927f" stroke="#707070" stroke-width="1"/>
    </clipPath>
    <clipPath id="clip-path-7">
      <path id="Trazado_873550" data-name="Trazado 873550" d="M94.334,107.193,1100.726-14.218,990.7,1125.64-15.688,1247.05Z" fill="#01927f"/>
    </clipPath>
    <clipPath id="clip-path-8">
      <path id="Trazado_873019" data-name="Trazado 873019" d="M626.741,18.282c-195.191,69.627-386.7,215.09-530.455,415-36.6,50.921-70.7,106.45-89.949,167.514S-15.491,729.537,9.243,775.6c31.929,59.472,98.945,70.294,168.883,81.166-23.383,15.265-36.641,52.25-32.546,80.586,8.747,60.567,66.026,66.554,114.988,58.823C423.746,970.4,584.506,850.962,726.316,713.342c74.5-72.3,146.644-151.661,203.117-245.751,37.1-61.816,71.084-149.892,31.642-198.929-18.194-22.624-53.62-24.157-79.172,5.765,41.478-54.155,50.32-135.239,28.316-190.115S840.509-.876,788.719-7.933c-19.447-2.653-39.471-2.349-59.765.089C695.212-3.792,660.71,6.164,626.741,18.282" fill="#01927f"/>
    </clipPath>
    <clipPath id="clip-path-9">
      <path id="Trazado_873501" data-name="Trazado 873501" d="M0,0,385.32,28.477l26.455,476.782L26.455,476.782Z" fill="#02dd84"/>
    </clipPath>
    <clipPath id="clip-path-10">
      <path id="Trazado_873026" data-name="Trazado 873026" d="M176.017,4.223c-18.685,5.767-34.73,22.559-38.185,45.8s8.307,52.012,23.592,62.056c-21.863-9.708-43.923-19.478-66.4-23.644s-45.695-2.353-64.182,10.2S-.56,135.75,1.346,163.058c2.214,31.7,22.587,59.523,42.872,82.468,59.208,66.967,129.146,120.012,203.517,151.383,23.625,9.965,50.1,17.569,70.477,5.009,19.478-12,28.44-40.693,26.486-68.782s-13.247-55.522-26.964-80.1-30-47.118-44.557-70.013c12.01,1.374,24.161,2.745,35.714.554s22.629-8.35,28.992-19.653c7.594-13.492,7.391-32.724,2.07-49.611s-15.185-31.72-26.026-44.729c-22.372-26.843-49.75-47.436-78.728-59.215C223.945,5.8,212.262,2.546,200.817,1.7a66.948,66.948,0,0,0-24.8,2.523" fill="#02dd84"/>
    </clipPath>
    <clipPath id="clip-path-11">
      <path id="Trazado_873500" data-name="Trazado 873500" d="M92.129,103.933,926.651-14.561,819.187,876.587-15.335,995.081Z" fill="#01927f"/>
    </clipPath>
    <clipPath id="clip-path-12">
      <path id="Trazado_873019-2" data-name="Trazado 873019" d="M527.374,15.11C364.769,74.118,204.092,192.18,82.154,351.549,51.1,392.145,22.063,436.273,5.231,484.36s-19.962,100.933-.164,136.262c25.557,45.611,80.875,52.436,138.611,59.227-19.581,12.468-31.1,41.632-28.127,63.632,6.351,47.024,53.679,50.312,94.324,43.1,135.461-24.038,270.3-121.062,389.712-231.809C662.322,496.591,723.21,432.96,771.343,358.219c31.624-49.1,61.048-118.613,29.118-155.9-14.728-17.205-44.033-17.546-65.624,6.405,35.132-43.235,43.643-106.684,26.235-148.95S704.617-4.986,661.847-9.241a206.674,206.674,0,0,0-49.475,1.51c-27.992,3.975-56.7,12.571-85,22.84" fill="#01927f"/>
    </clipPath>
    <clipPath id="clip-path-13">
      <rect id="Rectángulo_401571" data-name="Rectángulo 401571" width="67.333" height="63.202" fill="#ff9751"/>
    </clipPath>
  </defs>
  <g id="Grupo_1100226" data-name="Grupo 1100226" transform="translate(15358.974 4281.833)">
    <g id="Grupo_1100187" data-name="Grupo 1100187" transform="translate(-15728.923 -5639.833)">
      <g id="Grupo_1099262" data-name="Grupo 1099262" transform="translate(370 1358)">
        <g id="Grupo_1099261" data-name="Grupo 1099261" transform="translate(-0.051 47.986)">
          <g id="Grupo_1099252" data-name="Grupo 1099252">
            <g id="Grupo_1099251" data-name="Grupo 1099251" clip-path="url(#clip-path)">
              <line id="Línea_723" data-name="Línea 723" y1="42.336" transform="translate(64.165 0)" fill="none" stroke="#01927f" stroke-miterlimit="10" stroke-width="1"/>
              <line id="Línea_724" data-name="Línea 724" y1="42.04" x2="4.996" transform="translate(66.741 0.449)" fill="none" stroke="#01927f" stroke-miterlimit="10" stroke-width="1"/>
            </g>
          </g>
          <line id="Línea_725" data-name="Línea 725" y1="41.157" x2="9.921" transform="translate(69.281 1.787)" fill="none" stroke="#01927f" stroke-miterlimit="10" stroke-width="1"/>
          <line id="Línea_726" data-name="Línea 726" y1="39.699" x2="14.708" transform="translate(71.749 3.997)" fill="none" stroke="#01927f" stroke-miterlimit="10" stroke-width="1"/>
          <line id="Línea_727" data-name="Línea 727" y1="37.686" x2="19.29" transform="translate(74.112 7.048)" fill="none" stroke="#01927f" stroke-miterlimit="10" stroke-width="1"/>
          <line id="Línea_728" data-name="Línea 728" y1="35.146" x2="23.602" transform="translate(76.335 10.897)" fill="none" stroke="#01927f" stroke-miterlimit="10" stroke-width="1"/>
          <line id="Línea_729" data-name="Línea 729" y1="32.116" x2="27.584" transform="translate(78.389 15.49)" fill="none" stroke="#01927f" stroke-miterlimit="10" stroke-width="1"/>
          <line id="Línea_730" data-name="Línea 730" y1="28.637" x2="31.181" transform="translate(80.243 20.763)" fill="none" stroke="#01927f" stroke-miterlimit="10" stroke-width="1"/>
          <line id="Línea_731" data-name="Línea 731" y1="24.757" x2="34.342" transform="translate(81.873 26.643)" fill="none" stroke="#01927f" stroke-miterlimit="10" stroke-width="1"/>
          <line id="Línea_732" data-name="Línea 732" y1="20.532" x2="37.024" transform="translate(83.256 33.047)" fill="none" stroke="#01927f" stroke-miterlimit="10" stroke-width="1"/>
          <line id="Línea_733" data-name="Línea 733" y1="16.02" x2="39.188" transform="translate(84.372 39.886)" fill="none" stroke="#01927f" stroke-miterlimit="10" stroke-width="1"/>
          <line id="Línea_734" data-name="Línea 734" y1="11.284" x2="40.804" transform="translate(85.205 47.064)" fill="none" stroke="#01927f" stroke-miterlimit="10" stroke-width="1"/>
          <g id="Grupo_1099254" data-name="Grupo 1099254">
            <g id="Grupo_1099253" data-name="Grupo 1099253" clip-path="url(#clip-path)">
              <line id="Línea_735" data-name="Línea 735" y1="6.39" x2="41.851" transform="translate(85.745 54.481)" fill="none" stroke="#01927f" stroke-miterlimit="10" stroke-width="1"/>
              <line id="Línea_736" data-name="Línea 736" y1="1.407" x2="42.313" transform="translate(85.983 62.034)" fill="none" stroke="#01927f" stroke-miterlimit="10" stroke-width="1"/>
              <line id="Línea_737" data-name="Línea 737" x2="42.183" y2="3.595" transform="translate(85.916 66.02)" fill="none" stroke="#01927f" stroke-miterlimit="10" stroke-width="1"/>
              <line id="Línea_738" data-name="Línea 738" x2="41.464" y2="8.547" transform="translate(85.546 68.574)" fill="none" stroke="#01927f" stroke-miterlimit="10" stroke-width="1"/>
            </g>
          </g>
          <line id="Línea_739" data-name="Línea 739" x2="40.166" y2="13.38" transform="translate(84.876 71.066)" fill="none" stroke="#01927f" stroke-miterlimit="10" stroke-width="1"/>
          <line id="Línea_740" data-name="Línea 740" x2="38.306" y2="18.026" transform="translate(83.917 73.462)" fill="none" stroke="#01927f" stroke-miterlimit="10" stroke-width="1"/>
          <line id="Línea_741" data-name="Línea 741" x2="35.912" y2="22.42" transform="translate(82.683 75.728)" fill="none" stroke="#01927f" stroke-miterlimit="10" stroke-width="1"/>
          <line id="Línea_742" data-name="Línea 742" x2="33.015" y2="26.501" transform="translate(81.189 77.832)" fill="none" stroke="#01927f" stroke-miterlimit="10" stroke-width="1"/>
          <line id="Línea_743" data-name="Línea 743" x2="29.658" y2="30.212" transform="translate(79.458 79.745)" fill="none" stroke="#01927f" stroke-miterlimit="10" stroke-width="1"/>
          <line id="Línea_744" data-name="Línea 744" x2="25.886" y2="33.5" transform="translate(77.513 81.441)" fill="none" stroke="#01927f" stroke-miterlimit="10" stroke-width="1"/>
          <line id="Línea_745" data-name="Línea 745" x2="21.752" y2="36.321" transform="translate(75.381 82.895)" fill="none" stroke="#01927f" stroke-miterlimit="10" stroke-width="1"/>
          <line id="Línea_746" data-name="Línea 746" x2="17.314" y2="38.634" transform="translate(73.093 84.088)" fill="none" stroke="#01927f" stroke-miterlimit="10" stroke-width="1"/>
          <line id="Línea_747" data-name="Línea 747" x2="12.634" y2="40.407" transform="translate(70.68 85.002)" fill="none" stroke="#01927f" stroke-miterlimit="10" stroke-width="1"/>
          <g id="Grupo_1099256" data-name="Grupo 1099256">
            <g id="Grupo_1099255" data-name="Grupo 1099255" clip-path="url(#clip-path)">
              <line id="Línea_748" data-name="Línea 748" x2="7.778" y2="41.615" transform="translate(68.176 85.626)" fill="none" stroke="#01927f" stroke-miterlimit="10" stroke-width="1"/>
              <line id="Línea_749" data-name="Línea 749" x2="2.813" y2="42.242" transform="translate(65.616 85.949)" fill="none" stroke="#01927f" stroke-miterlimit="10" stroke-width="1"/>
              <line id="Línea_750" data-name="Línea 750" x1="2.191" y2="42.279" transform="translate(60.844 85.968)" fill="none" stroke="#01927f" stroke-miterlimit="10" stroke-width="1"/>
              <line id="Línea_751" data-name="Línea 751" x1="7.164" y2="41.725" transform="translate(53.306 85.682)" fill="none" stroke="#01927f" stroke-miterlimit="10" stroke-width="1"/>
            </g>
          </g>
          <line id="Línea_752" data-name="Línea 752" x1="12.038" y2="40.589" transform="translate(45.919 85.096)" fill="none" stroke="#01927f" stroke-miterlimit="10" stroke-width="1"/>
          <line id="Línea_753" data-name="Línea 753" x1="16.743" y2="38.885" transform="translate(38.788 84.217)" fill="none" stroke="#01927f" stroke-miterlimit="10" stroke-width="1"/>
          <line id="Línea_754" data-name="Línea 754" x1="21.214" y2="36.637" transform="translate(32.012 83.059)" fill="none" stroke="#01927f" stroke-miterlimit="10" stroke-width="1"/>
          <line id="Línea_755" data-name="Línea 755" x1="25.389" y2="33.878" transform="translate(25.684 81.636)" fill="none" stroke="#01927f" stroke-miterlimit="10" stroke-width="1"/>
          <line id="Línea_756" data-name="Línea 756" x1="29.209" y2="30.646" transform="translate(19.894 79.969)" fill="none" stroke="#01927f" stroke-miterlimit="10" stroke-width="1"/>
          <line id="Línea_757" data-name="Línea 757" x1="32.621" y2="26.985" transform="translate(14.723 78.081)" fill="none" stroke="#01927f" stroke-miterlimit="10" stroke-width="1"/>
          <line id="Línea_758" data-name="Línea 758" x1="35.577" y2="22.947" transform="translate(10.242 75.999)" fill="none" stroke="#01927f" stroke-miterlimit="10" stroke-width="1"/>
          <line id="Línea_759" data-name="Línea 759" x1="38.037" y2="18.589" transform="translate(6.514 73.752)" fill="none" stroke="#01927f" stroke-miterlimit="10" stroke-width="1"/>
          <line id="Línea_760" data-name="Línea 760" x1="39.964" y2="13.971" transform="translate(3.593 71.371)" fill="none" stroke="#01927f" stroke-miterlimit="10" stroke-width="1"/>
          <g id="Grupo_1099258" data-name="Grupo 1099258">
            <g id="Grupo_1099257" data-name="Grupo 1099257" clip-path="url(#clip-path)">
              <line id="Línea_761" data-name="Línea 761" x1="41.334" y2="9.158" transform="translate(1.517 68.889)" fill="none" stroke="#01927f" stroke-miterlimit="10" stroke-width="1"/>
              <line id="Línea_762" data-name="Línea 762" x1="42.126" y2="4.216" transform="translate(0.317 66.341)" fill="none" stroke="#01927f" stroke-miterlimit="10" stroke-width="1"/>
              <line id="Línea_763" data-name="Línea 763" x1="42.329" y1="0.784" transform="translate(0.009 62.978)" fill="none" stroke="#01927f" stroke-miterlimit="10" stroke-width="1"/>
              <line id="Línea_764" data-name="Línea 764" x1="41.94" y1="5.773" transform="translate(0.598 55.417)" fill="none" stroke="#01927f" stroke-miterlimit="10" stroke-width="1"/>
            </g>
          </g>
          <line id="Línea_765" data-name="Línea 765" x1="40.966" y1="10.682" transform="translate(2.075 47.977)" fill="none" stroke="#01927f" stroke-miterlimit="10" stroke-width="1"/>
          <line id="Línea_766" data-name="Línea 766" x1="39.42" y1="15.441" transform="translate(4.418 40.764)" fill="none" stroke="#01927f" stroke-miterlimit="10" stroke-width="1"/>
          <line id="Línea_767" data-name="Línea 767" x1="37.322" y1="19.984" transform="translate(7.598 33.878)" fill="none" stroke="#01927f" stroke-miterlimit="10" stroke-width="1"/>
          <line id="Línea_768" data-name="Línea 768" x1="34.703" y1="24.249" transform="translate(11.567 27.414)" fill="none" stroke="#01927f" stroke-miterlimit="10" stroke-width="1"/>
          <line id="Línea_769" data-name="Línea 769" x1="31.6" y1="28.174" transform="translate(16.27 21.465)" fill="none" stroke="#01927f" stroke-miterlimit="10" stroke-width="1"/>
          <line id="Línea_770" data-name="Línea 770" x1="28.055" y1="31.706" transform="translate(21.643 16.111)" fill="none" stroke="#01927f" stroke-miterlimit="10" stroke-width="1"/>
          <line id="Línea_771" data-name="Línea 771" x1="24.117" y1="34.795" transform="translate(27.612 11.43)" fill="none" stroke="#01927f" stroke-miterlimit="10" stroke-width="1"/>
          <line id="Línea_772" data-name="Línea 772" x1="19.843" y1="37.398" transform="translate(34.09 7.484)" fill="none" stroke="#01927f" stroke-miterlimit="10" stroke-width="1"/>
          <line id="Línea_773" data-name="Línea 773" x1="15.292" y1="39.478" transform="translate(40.988 4.332)" fill="none" stroke="#01927f" stroke-miterlimit="10" stroke-width="1"/>
          <line id="Línea_774" data-name="Línea 774" x1="10.527" y1="41.006" transform="translate(48.21 2.016)" fill="none" stroke="#01927f" stroke-miterlimit="10" stroke-width="1"/>
          <g id="Grupo_1099260" data-name="Grupo 1099260">
            <g id="Grupo_1099259" data-name="Grupo 1099259" clip-path="url(#clip-path)">
              <line id="Línea_775" data-name="Línea 775" x1="5.614" y1="41.962" transform="translate(55.656 0.567)" fill="none" stroke="#01927f" stroke-miterlimit="10" stroke-width="1"/>
            </g>
          </g>
        </g>
        <g id="Grupo_1099250" data-name="Grupo 1099250" transform="translate(29)">
          <g id="Enmascarar_grupo_1098675" data-name="Enmascarar grupo 1098675" clip-path="url(#clip-path-6)">
            <path id="Trazado_870126" data-name="Trazado 870126" d="M14.589,0h984.35c8.057,0,14.589,8.906,14.589,19.891v491c0,10.986-6.532,19.891-14.589,19.891H14.589C6.532,530.781,0,521.875,0,510.889v-491C0,8.906,6.532,0,14.589,0Z" transform="translate(-44.331 -104.984)" fill="#01927f"/>
            <g id="Grupo_1099032" data-name="Grupo 1099032" transform="matrix(-0.927, 0.375, -0.375, -0.927, 1583.645, 467.895)" opacity="0.25" style="mix-blend-mode: multiply;isolation: isolate">
              <g id="Grupo_1099028" data-name="Grupo 1099028" transform="translate(0 0)">
                <g id="Grupo_1099027" data-name="Grupo 1099027" clip-path="url(#clip-path-7)">
                  <path id="Trazado_873014" data-name="Trazado 873014" d="M881.9,274.428c41.478-54.155,50.31-135.238,28.316-190.115S840.5-.875,788.718-7.933s-107.577,6.8-161.977,26.2C431.55,87.909,240.027,233.373,96.285,433.277c-36.6,50.909-70.709,106.451-89.949,167.514S-15.49,729.525,9.244,775.59c31.92,59.473,98.944,70.306,168.882,81.177-23.392,15.266-36.64,52.238-32.546,80.586,8.747,60.567,66.017,66.555,114.978,58.824C423.746,970.4,584.507,850.951,726.307,713.343c74.5-72.3,146.644-151.661,203.117-245.751,37.114-61.828,71.093-149.893,31.652-198.941-18.195-22.612-53.621-24.145-79.173,5.777" transform="translate(75.542 133.479)" fill="#01927f"/>
                </g>
              </g>
              <g id="Grupo_1099030" data-name="Grupo 1099030" transform="translate(75.541 133.479)">
                <g id="Grupo_1099029" data-name="Grupo 1099029" transform="translate(0 0)" clip-path="url(#clip-path-8)">
                  <path id="Trazado_873015" data-name="Trazado 873015" d="M-6.864,545.661S485.9,607.092,456.518-5.9" transform="translate(-30.124 55.493)" fill="#01927f"/>
                  <path id="Trazado_873016" data-name="Trazado 873016" d="M-10.659,847.28S421.978,979.972,695.989-8.99" transform="translate(-49.661 -3.567)" fill="#01927f"/>
                  <path id="Trazado_873017" data-name="Trazado 873017" d="M-15.014,1193.485s288.192,4.1,506.849-483.813S725.565-9.372,725.565-9.372" transform="translate(95.369 -107.559)" fill="#01927f"/>
                  <path id="Trazado_873018" data-name="Trazado 873018" d="M427.705-5.524S372.361,415.115-9.283,737.945" transform="translate(527.536 181.325)" fill="#01927f"/>
                </g>
              </g>
            </g>
            <ellipse id="Elipse_11441" data-name="Elipse 11441" cx="255.594" cy="348.487" rx="255.594" ry="348.487" transform="translate(-12.027 -442.23)" fill="#01927f" opacity="0.37" style="mix-blend-mode: multiply;isolation: isolate"/>
            <ellipse id="Elipse_11485" data-name="Elipse 11485" cx="255.594" cy="348.92" rx="255.594" ry="348.92" transform="translate(-267.78 99.595)" fill="#01927f" opacity="0.37" style="mix-blend-mode: multiply;isolation: isolate"/>
            <ellipse id="Elipse_11486" data-name="Elipse 11486" cx="255.911" cy="348.487" rx="255.911" ry="348.487" transform="translate(226.781 221.885)" fill="#01927f" opacity="0.37" style="mix-blend-mode: multiply;isolation: isolate"/>
            <g id="Grupo_1099037" data-name="Grupo 1099037" transform="matrix(-0.978, -0.208, 0.208, -0.978, 1099.997, 465.856)">
              <g id="Grupo_1099034" data-name="Grupo 1099034" transform="translate(0 0)">
                <g id="Grupo_1099033" data-name="Grupo 1099033" clip-path="url(#clip-path-9)">
                  <path id="Trazado_873020" data-name="Trazado 873020" d="M161.426,112.081c-21.863-9.708-43.923-19.478-66.4-23.645s-45.695-2.353-64.182,10.2S-.56,135.75,1.346,163.058c2.213,31.7,22.587,59.523,42.872,82.468,59.209,66.969,129.146,120.012,203.518,151.384,23.624,9.965,50.1,17.569,70.476,5.009,19.478-12,28.44-40.693,26.487-68.782s-13.247-55.522-26.966-80.1-30-47.117-44.557-70.012c12.01,1.374,24.162,2.744,35.714.552s22.631-8.348,28.992-19.652c7.594-13.494,7.391-32.724,2.071-49.611s-15.187-31.721-26.027-44.729c-22.372-26.843-49.75-47.436-78.728-59.215C215.6,2.4,194.7-1.544,176.018,4.223s-34.73,22.558-38.185,45.8,8.305,52.012,23.593,62.056" transform="translate(49.859 42.031)" fill="#02dd84"/>
                </g>
              </g>
              <g id="Grupo_1099036" data-name="Grupo 1099036" transform="translate(49.859 42.031)">
                <g id="Grupo_1099035" data-name="Grupo 1099035" transform="translate(0 0)" clip-path="url(#clip-path-10)">
                  <path id="Trazado_873021" data-name="Trazado 873021" d="M352.088,295.992S284.727-13.256,0,.6" transform="translate(-37.822 162.942)" fill="#02dd84" stroke="#f1e8d5" stroke-linecap="round" stroke-linejoin="round" stroke-width="1"/>
                  <path id="Trazado_873022" data-name="Trazado 873022" d="M39.731.3s-83.007,87.761-6.982,164.506" transform="translate(305.797 235.821)" fill="#02dd84" stroke="#f1e8d5" stroke-linecap="round" stroke-linejoin="round" stroke-width="1"/>
                  <path id="Trazado_873023" data-name="Trazado 873023" d="M293.944,2.231c-3.912,101.48-28.614,110.565-79.366,112.216s-37.3,73.47-121.827,16.765S.081,11.08.081,11.08" transform="translate(38.674 31.885)" fill="#02dd84" stroke="#f1e8d5" stroke-linecap="round" stroke-linejoin="round" stroke-width="1"/>
                  <path id="Trazado_873024" data-name="Trazado 873024" d="M84.482.641s54.926,69.907,23.936,102.265S.255,34.779.255,34.779" transform="translate(131.985 -22.217)" fill="#02dd84" stroke="#f1e8d5" stroke-linecap="round" stroke-linejoin="round" stroke-width="1"/>
                  <path id="Trazado_873025" data-name="Trazado 873025" d="M142.451,124.327C141.911,46.806,68.946-32.119.1,14.025" transform="translate(45.879 260.395)" fill="#02dd84" stroke="#f1e8d5" stroke-linecap="round" stroke-linejoin="round" stroke-width="1"/>
                </g>
              </g>
            </g>
            <ellipse id="Elipse_11487" data-name="Elipse 11487" cx="255.594" cy="348.487" rx="255.594" ry="348.487" transform="translate(156.469 -972.311)" fill="#01927f" opacity="0.18"/>
            <g id="Grupo_1099031" data-name="Grupo 1099031" transform="matrix(0.875, -0.485, 0.485, 0.875, -431.256, -301.626)" opacity="0.11" style="mix-blend-mode: multiply;isolation: isolate">
              <g id="Grupo_1099028-2" data-name="Grupo 1099028" transform="translate(0 0)">
                <g id="Grupo_1099027-2" data-name="Grupo 1099027" clip-path="url(#clip-path-11)">
                  <path id="Trazado_873014-2" data-name="Trazado 873014" d="M734.836,208.72c35.132-43.235,43.635-106.683,26.235-148.95S704.609-4.986,661.847-9.241,572.693-1.342,527.375,15.1C364.768,74.118,204.084,192.181,82.154,351.549,51.1,392.135,22.055,436.274,5.23,484.36s-19.961,100.924-.163,136.253c25.549,45.612,80.874,52.445,138.61,59.236-19.589,12.47-31.1,41.623-28.127,63.632,6.351,47.024,53.671,50.313,94.316,43.1,135.469-24.039,270.305-121.072,389.712-231.809C662.314,496.592,723.2,432.961,771.335,358.22c31.633-49.114,61.055-118.614,29.127-155.915-14.729-17.2-44.034-17.538-65.625,6.414" transform="translate(67.369 108.92)" fill="#01927f"/>
                </g>
              </g>
              <g id="Grupo_1099030-2" data-name="Grupo 1099030" transform="translate(67.369 108.92)">
                <g id="Grupo_1099029-2" data-name="Grupo 1099029" transform="translate(0 0)" clip-path="url(#clip-path-12)">
                  <path id="Trazado_873015-2" data-name="Trazado 873015" d="M-6.708,435.276S400.308,471.3,385-6.05" transform="translate(-23.932 50.412)" fill="#01927f"/>
                  <path id="Trazado_873016-2" data-name="Trazado 873016" d="M-10.412,675.606S345.782,768.657,587.15-9.226" transform="translate(-43.108 -0.187)" fill="#01927f"/>
                  <path id="Trazado_873017-2" data-name="Trazado 873017" d="M-14.583,946.265s238.51-3.753,426.69-389.54S616.163-9.682,616.163-9.682" transform="translate(73.955 -85.341)" fill="#01927f"/>
                  <path id="Trazado_873018-2" data-name="Trazado 873018" d="M363.666-5.714S311.667,323.67-9.01,584.643" transform="translate(433.331 135.749)" fill="#01927f"/>
                </g>
              </g>
            </g>
          </g>
        </g>
      </g>
      <g id="Grupo_1100167" data-name="Grupo 1100167" transform="translate(1247.616 1428.549)">
        <g id="Grupo_1100166" data-name="Grupo 1100166" clip-path="url(#clip-path-13)">
          <path id="Trazado_874976" data-name="Trazado 874976" d="M0,50.8H67.333A33.734,33.734,0,0,0,0,50.8" transform="translate(0 12.4)" fill="#ff9751"/>
          <path id="Trazado_874977" data-name="Trazado 874977" d="M0,31.6H67.333A33.734,33.734,0,0,0,0,31.6" transform="translate(0 0)" fill="#ff9751"/>
        </g>
      </g>
    </g>
  </g>
</svg>
