<svg xmlns="http://www.w3.org/2000/svg" xmlns:xlink="http://www.w3.org/1999/xlink" width="169.063" height="38.434" viewBox="0 0 169.063 38.434">
  <defs>
    <clipPath id="clip-path">
      <rect id="Rect치ngulo_401325" data-name="Rect치ngulo 401325" width="10.4" height="10.4" fill="#ff9751"/>
    </clipPath>
    <clipPath id="clip-path-2">
      <rect id="Rect치ngulo_401570" data-name="Rect치ngulo 401570" width="16.993" height="25.5" transform="translate(0 0)" fill="#02dd84"/>
    </clipPath>
  </defs>
  <g id="img-4" transform="translate(-7020.469 11305.783)">
    <g id="Trazado_875166" data-name="Trazado 875166" transform="translate(7028.4 -11305.783)" fill="none">
      <path d="M15,0H155.931V23.434a15,15,0,0,1-15,15H0V15A15,15,0,0,1,15,0Z" stroke="none"/>
      <path d="M 15 0.9999961853027344 C 11.26045227050781 0.9999961853027344 7.7447509765625 2.456256866455078 5.100494384765625 5.100498199462891 C 2.456253051757812 7.744756698608398 1 11.26045608520508 1 14.99999618530273 L 1 37.43359756469727 L 140.931396484375 37.43359756469727 C 144.6709442138672 37.43359756469727 148.1866455078125 35.97733688354492 150.8309020996094 33.33309555053711 C 153.4751434326172 30.6888370513916 154.931396484375 27.17313766479492 154.931396484375 23.43359756469727 L 154.931396484375 0.9999961853027344 L 15 0.9999961853027344 M 15 -3.814697265625e-06 L 155.931396484375 -3.814697265625e-06 L 155.931396484375 23.43359756469727 C 155.931396484375 31.71785736083984 149.2156524658203 38.43359756469727 140.931396484375 38.43359756469727 L 0 38.43359756469727 L 0 14.99999618530273 C 0 6.715736389160156 6.715713500976562 -3.814697265625e-06 15 -3.814697265625e-06 Z" stroke="none" fill="#01927f"/>
    </g>
    <path id="Trazado_875167" data-name="Trazado 875167" d="M8.467,15.23a1.418,1.418,0,0,0-.5-1.167A6.46,6.46,0,0,0,6.162,13.2a13.713,13.713,0,0,1-3.931-1.831A3.3,3.3,0,0,1,.947,8.57,3.43,3.43,0,0,1,2.441,5.68a6.225,6.225,0,0,1,3.8-1.1,6.267,6.267,0,0,1,3.916,1.138,3.688,3.688,0,0,1,1.436,3.208l-.02.059h-3.2a1.794,1.794,0,0,0-.547-1.46,2.54,2.54,0,0,0-1.65-.454,2.118,2.118,0,0,0-1.416.439A1.368,1.368,0,0,0,4.238,8.59a1.168,1.168,0,0,0,.532,1,10.391,10.391,0,0,0,1.987.942A10.591,10.591,0,0,1,10.5,12.32a3.557,3.557,0,0,1,1.27,2.891A3.421,3.421,0,0,1,10.3,18.146a6.49,6.49,0,0,1-3.887,1.06,7.1,7.1,0,0,1-4.087-1.138A3.917,3.917,0,0,1,.7,14.488l.02-.059H3.936a2.213,2.213,0,0,0,.61,1.763,2.825,2.825,0,0,0,1.87.522,2.426,2.426,0,0,0,1.543-.41A1.315,1.315,0,0,0,8.467,15.23Zm9.59,3.975a4.906,4.906,0,0,1-3.765-1.455,5.174,5.174,0,0,1-1.362-3.682V13.7a5.912,5.912,0,0,1,1.284-3.945A4.562,4.562,0,0,1,17.93,8.238a4.279,4.279,0,0,1,3.315,1.279,4.98,4.98,0,0,1,1.177,3.506v1.729H16.367l-.02.059a2.052,2.052,0,0,0,.615,1.343,2.148,2.148,0,0,0,1.543.513,6.687,6.687,0,0,0,1.577-.156,9.942,9.942,0,0,0,1.44-.5l.791,2.012a6.04,6.04,0,0,1-1.836.84A8.473,8.473,0,0,1,18.057,19.205Zm-.127-8.428a1.362,1.362,0,0,0-1.167.5,2.523,2.523,0,0,0-.435,1.362l.02.049H19.2v-.254a2.2,2.2,0,0,0-.288-1.24A1.1,1.1,0,0,0,17.93,10.777Zm5.439,2.959a6.719,6.719,0,0,1,1.079-3.984A3.518,3.518,0,0,1,27.49,8.238a2.712,2.712,0,0,1,1.465.4,3.492,3.492,0,0,1,1.094,1.118l.215-1.318h2.91V18.883a3.913,3.913,0,0,1-1.431,3.237,6.133,6.133,0,0,1-3.94,1.147,7.086,7.086,0,0,1-1.719-.225,9.6,9.6,0,0,1-1.719-.605L24.932,20a7.845,7.845,0,0,0,1.362.464,6.6,6.6,0,0,0,1.489.151,2.443,2.443,0,0,0,1.567-.42,1.618,1.618,0,0,0,.513-1.328v-.82a2.865,2.865,0,0,1-2.393,1.162,3.552,3.552,0,0,1-3.027-1.445,6.248,6.248,0,0,1-1.074-3.818Zm3.291.205a4.388,4.388,0,0,0,.376,2.007,1.322,1.322,0,0,0,1.274.718,2.326,2.326,0,0,0,.923-.166,1.506,1.506,0,0,0,.63-.5V11.559a1.643,1.643,0,0,0-.625-.581,1.928,1.928,0,0,0-.908-.2,1.326,1.326,0,0,0-1.274.815,4.942,4.942,0,0,0-.4,2.144Zm14.766,3.477a3.473,3.473,0,0,1-1.216,1.323,3.2,3.2,0,0,1-1.724.464,3.129,3.129,0,0,1-2.573-1.152,5.618,5.618,0,0,1-.933-3.564V8.434h3.291v6.074a3.2,3.2,0,0,0,.317,1.7,1.111,1.111,0,0,0,.981.459,2.694,2.694,0,0,0,.928-.146,1.793,1.793,0,0,0,.684-.439V8.434h3.3V19H41.826Zm7.91-8.984.127,1.484a3.825,3.825,0,0,1,1.279-1.235,3.31,3.31,0,0,1,1.7-.444,2.979,2.979,0,0,1,2.427,1.055,5.218,5.218,0,0,1,.874,3.35V19h-3.3V12.633a2.421,2.421,0,0,0-.322-1.431,1.1,1.1,0,0,0-.937-.425,2.32,2.32,0,0,0-.947.186,1.891,1.891,0,0,0-.7.527V19H46.24V8.434Zm7.764,5.3a6.719,6.719,0,0,1,1.079-3.984,3.518,3.518,0,0,1,3.042-1.514,2.623,2.623,0,0,1,1.323.337,3.5,3.5,0,0,1,1.06.962V3.766h3.3V19H64.014l-.225-1.289a3.553,3.553,0,0,1-1.118,1.108,2.79,2.79,0,0,1-1.47.386,3.552,3.552,0,0,1-3.027-1.445A6.248,6.248,0,0,1,57.1,13.941Zm3.3.205a4.388,4.388,0,0,0,.376,2.007,1.314,1.314,0,0,0,1.265.718,2.081,2.081,0,0,0,.913-.19,1.636,1.636,0,0,0,.649-.562V11.646A1.8,1.8,0,0,0,62.959,11a1.77,1.77,0,0,0-.9-.225,1.317,1.317,0,0,0-1.27.811,4.989,4.989,0,0,0-.391,2.148Zm7.939-.322a5.585,5.585,0,0,1,1.348-3.882,5.477,5.477,0,0,1,7.529,0,5.585,5.585,0,0,1,1.348,3.882v.205a5.581,5.581,0,0,1-1.348,3.887,5.49,5.49,0,0,1-7.529,0,5.581,5.581,0,0,1-1.348-3.887Zm3.3.205a4.368,4.368,0,0,0,.415,2.085,1.477,1.477,0,0,0,1.411.757,1.459,1.459,0,0,0,1.387-.762,4.331,4.331,0,0,0,.42-2.08v-.205a4.347,4.347,0,0,0-.42-2.065,1.471,1.471,0,0,0-1.406-.776,1.45,1.45,0,0,0-1.392.781,4.4,4.4,0,0,0-.415,2.061ZM88.457,19H85.146V3.766h3.311Zm8.389-1.582a3.473,3.473,0,0,1-1.216,1.323,3.2,3.2,0,0,1-1.724.464,3.129,3.129,0,0,1-2.573-1.152,5.618,5.618,0,0,1-.933-3.564V8.434h3.291v6.074a3.2,3.2,0,0,0,.317,1.7,1.111,1.111,0,0,0,.981.459,2.694,2.694,0,0,0,.928-.146,1.793,1.793,0,0,0,.684-.439V8.434h3.3V19H97.246Zm4.424-3.682a6.719,6.719,0,0,1,1.079-3.984,3.518,3.518,0,0,1,3.042-1.514,2.712,2.712,0,0,1,1.465.4,3.492,3.492,0,0,1,1.094,1.118l.215-1.318h2.91V18.883a3.913,3.913,0,0,1-1.431,3.237,6.133,6.133,0,0,1-3.94,1.147,7.086,7.086,0,0,1-1.719-.225,9.6,9.6,0,0,1-1.719-.605L102.832,20a7.845,7.845,0,0,0,1.362.464,6.6,6.6,0,0,0,1.489.151,2.443,2.443,0,0,0,1.567-.42,1.618,1.618,0,0,0,.513-1.328v-.82a2.865,2.865,0,0,1-2.393,1.162,3.552,3.552,0,0,1-3.027-1.445,6.248,6.248,0,0,1-1.074-3.818Zm3.291.205a4.388,4.388,0,0,0,.376,2.007,1.322,1.322,0,0,0,1.274.718,2.326,2.326,0,0,0,.923-.166,1.506,1.506,0,0,0,.63-.5V11.559a1.643,1.643,0,0,0-.625-.581,1.928,1.928,0,0,0-.908-.2,1.326,1.326,0,0,0-1.274.815,4.942,4.942,0,0,0-.4,2.144Zm14.5,5.049a3.987,3.987,0,0,1-.317-.752,5.765,5.765,0,0,1-.2-.879,4.038,4.038,0,0,1-1.06,1.343,2.558,2.558,0,0,1-1.646.5,3.659,3.659,0,0,1-2.583-.854,3.019,3.019,0,0,1-.923-2.329,2.817,2.817,0,0,1,1.182-2.427,6.126,6.126,0,0,1,3.584-.854h1.357v-.752a1.505,1.505,0,0,0-.322-1.035,1.255,1.255,0,0,0-.986-.361,1.19,1.19,0,0,0-.854.269,1.114,1.114,0,0,0-.278.835l-3.2-.01-.02-.059A2.756,2.756,0,0,1,114,9.21a5.4,5.4,0,0,1,3.364-.972,4.921,4.921,0,0,1,3.179.977,3.375,3.375,0,0,1,1.216,2.793v3.984a8.129,8.129,0,0,0,.142,1.563A8.367,8.367,0,0,0,122.324,19Zm-2.324-2.139a2.011,2.011,0,0,0,1.069-.283,1.621,1.621,0,0,0,.649-.674V14.5h-1.328a1.492,1.492,0,0,0-1.143.381,1.37,1.37,0,0,0-.352.967.935.935,0,0,0,.308.728A1.141,1.141,0,0,0,116.738,16.852ZM129.4,11.246l-1.074-.01a1.829,1.829,0,0,0-.928.21,1.3,1.3,0,0,0-.537.591V19h-3.3V8.434h3.105l.117,1.553a3.186,3.186,0,0,1,.879-1.289,1.929,1.929,0,0,1,1.279-.459,2.454,2.454,0,0,1,.4.029,3.028,3.028,0,0,1,.371.088Zm3.2,7.754h-3.291V16.227h3.291Zm0-8.555h-3.291V7.672h3.291Z" transform="translate(7040.603 -11298.853)" fill="#12263f"/>
    <g id="Grupo_1099295" data-name="Grupo 1099295" transform="translate(7179.132 -11298.853)" clip-path="url(#clip-path)">
      <path id="Trazado_873887" data-name="Trazado 873887" d="M5.2,10.4A5.2,5.2,0,0,0,0,5.2,5.2,5.2,0,0,0,5.2,0a5.2,5.2,0,0,0,5.2,5.2,5.2,5.2,0,0,0-5.2,5.2" transform="translate(0 0)" fill="#ff9751"/>
    </g>
    <g id="Grupo_1100160" data-name="Grupo 1100160" transform="translate(7020.469 -11298.853)" clip-path="url(#clip-path-2)">
      <path id="Trazado_874970" data-name="Trazado 874970" d="M31.847,72.3h0a8.511,8.511,0,0,0,8.511-8.511A8.511,8.511,0,0,0,31.847,72.3Z" transform="translate(-23.366 -46.804)" fill="#02dd84"/>
      <path id="Trazado_874971" data-name="Trazado 874971" d="M31.847,40.407h0A8.511,8.511,0,0,0,40.358,31.9,8.511,8.511,0,0,0,31.847,40.407Z" transform="translate(-23.366 -23.402)" fill="#02dd84"/>
      <path id="Trazado_874972" data-name="Trazado 874972" d="M31.847,8.511h0A8.511,8.511,0,0,0,40.358,0,8.511,8.511,0,0,0,31.847,8.511Z" transform="translate(-23.366 0)" fill="#02dd84"/>
      <path id="Trazado_874973" data-name="Trazado 874973" d="M8.511,72.3h0A8.511,8.511,0,0,1,0,63.793,8.511,8.511,0,0,1,8.511,72.3Z" transform="translate(0 -46.804)" fill="#02dd84"/>
      <path id="Trazado_874974" data-name="Trazado 874974" d="M8.511,40.407h0A8.511,8.511,0,0,1,0,31.9,8.511,8.511,0,0,1,8.511,40.407Z" transform="translate(0 -23.402)" fill="#02dd84"/>
      <path id="Trazado_874975" data-name="Trazado 874975" d="M8.511,8.511h0A8.511,8.511,0,0,1,0,0,8.511,8.511,0,0,1,8.511,8.511Z" transform="translate(0 0)" fill="#02dd84"/>
    </g>
  </g>
</svg>
