<svg xmlns="http://www.w3.org/2000/svg" xmlns:xlink="http://www.w3.org/1999/xlink" width="103" height="103" viewBox="0 0 103 103">
  <defs>
    <filter id="Elipse_7754" x="0" y="0" width="103" height="103" filterUnits="userSpaceOnUse">
      <feOffset dy="3" input="SourceAlpha"/>
      <feGaussianBlur stdDeviation="3" result="blur"/>
      <feFlood flood-opacity="0.161"/>
      <feComposite operator="in" in2="blur"/>
      <feComposite in="SourceGraphic"/>
    </filter>
  </defs>
  <g id="img-7" transform="translate(-11606 8444.41)">
    <g id="Grupo_1099240" data-name="Grupo 1099240" transform="translate(11382.5 -12315)">
      <g transform="matrix(1, 0, 0, 1, 223.5, 3870.59)" filter="url(#Elipse_7754)">
        <circle id="Elipse_7754-2" data-name="Elipse 7754" cx="42.5" cy="42.5" r="42.5" transform="translate(9 6)" fill="#fff"/>
      </g>
    </g>
    <g id="cerebro" transform="translate(11623.369 -8429.425)">
      <path id="Trazado_874175" data-name="Trazado 874175" d="M33.935.754A33.935,33.935,0,0,0,0,34.688a34.3,34.3,0,0,0,.227,3.925l26.221,29.18A33.937,33.937,0,1,0,33.935.754Zm0,0" transform="translate(0 -0.649)" fill="#43c0ff"/>
      <path id="Trazado_874176" data-name="Trazado 874176" d="M163.889,458.083a5.989,5.989,0,0,0-3.151.649,21.75,21.75,0,0,1-4.058,1.582,33.665,33.665,0,0,0,5.074,1.515,29.987,29.987,0,0,1,5.03-3.518l-.3-.252A15.427,15.427,0,0,1,163.889,458.083Zm0,0" transform="translate(-134.978 -394.613)" fill="#eb5793"/>
      <path id="Trazado_874177" data-name="Trazado 874177" d="M65.342,397.477l-.03.065A33.982,33.982,0,0,0,78.4,406.3a22.08,22.08,0,0,0,3.631-1.461,6,6,0,0,1,3.151-.649c2.724.2,8.068-.091,9.731-5.131-.529.031-1.074.049-1.641.049-14.169,0-10.039-7.64-27.925-1.633Zm0,0" transform="translate(-56.266 -340.438)" fill="#ef75a7"/>
      <path id="Trazado_874178" data-name="Trazado 874178" d="M65.342,397.477l-.03.065A33.982,33.982,0,0,0,78.4,406.3c-3.845-7.044,1.855-10.285,1.855-10.285l-.619-.346c-2.784-.837-6.388-.846-14.288,1.807Zm0,0" transform="translate(-56.266 -340.439)" fill="#eb5793"/>
      <path id="Trazado_874179" data-name="Trazado 874179" d="M67.163,85.109a.551.551,0,0,1-.315-.586A10.456,10.456,0,0,0,64.925,76.5c-3.146-3.855-8.513-2.554-8.513-2.554s-1.073-4.479-7.946-6.882a13.534,13.534,0,0,0-12.415,1.49,11.408,11.408,0,0,0-9.359-2.336c-5.862,1.086-7.77,4.661-8.2,5.68a.441.441,0,0,1-.41.272,12.894,12.894,0,0,0-11.117,5.11C3.07,82.344,4.637,88.356,4.933,89.344a.211.211,0,0,1-.073.228A11.654,11.654,0,0,0,1.368,94.5a33.807,33.807,0,0,0,8.919,19.541c17.849-5.987,13.732,1.644,27.893,1.644,12.919,0,15.722-8.43,16.12-9.939a.193.193,0,0,1,.273-.122c8.194,3.97,10.893-1.958,11.345-3.163a.4.4,0,0,1,.286-.251c1.01-.235,5.27-1.6,5.84-7.9.558-6.176-3.567-8.592-4.88-9.2Zm0,0" transform="translate(-1.178 -56.874)" fill="#eb5793"/>
      <path id="Trazado_874180" data-name="Trazado 874180" d="M25.988,109.091a.44.44,0,0,0-.129-.474c-.833-.73-3.628-3.662-2.82-9.57a11.409,11.409,0,0,1,5.154-8.154,13.533,13.533,0,0,1,2.48-12.256c4.437-5.772,9.027-5.386,9.027-5.386s.41-5.018,4.49-7.018a13.121,13.121,0,0,0-8.142,2.323,11.408,11.408,0,0,0-9.359-2.336c-5.863,1.086-7.77,4.661-8.2,5.68a.44.44,0,0,1-.41.272A12.894,12.894,0,0,0,6.96,77.282C3.066,82.344,4.634,88.355,4.93,89.344a.212.212,0,0,1-.073.228A11.648,11.648,0,0,0,1.364,94.5a33.81,33.81,0,0,0,8.919,19.541c8.475-2.843,12-2.615,14.876-1.592a16.463,16.463,0,0,1,.829-3.36Zm0,0" transform="translate(-1.175 -56.874)" fill="#e7387f"/>
      <path id="Trazado_874181" data-name="Trazado 874181" d="M283.991,273.166c-5.232-4.187-12.372-2.812-12.674-2.751a1.2,1.2,0,0,0,.47,2.345c.063-.013,6.362-1.207,10.71,2.273a11.042,11.042,0,0,1,3.665,6.442.2.2,0,0,1,.146.01,15.354,15.354,0,0,0,2.412.942,13.8,13.8,0,0,0-4.729-9.262Zm0,0" transform="translate(-232.912 -232.733)" fill="#e7387f"/>
      <path id="Trazado_874182" data-name="Trazado 874182" d="M22.287,242.81c-1.585-1.7-5.09-4.551-6.243-7.4a.213.213,0,0,1-.068.092,10,10,0,0,0-1.7,1.749,25.872,25.872,0,0,0,4.951,5.881c1.2,1.158,2.263,2.029,2.415,3.681.115,1.255-.346,2.02-2.493,2.02a1.2,1.2,0,0,0,0,2.391c6.042,0,5.743-5.631,3.141-8.418Zm0,0" transform="translate(-12.296 -202.807)" fill="#e20a62"/>
      <path id="Trazado_874183" data-name="Trazado 874183" d="M445.2,272.653a11.2,11.2,0,0,0-2.509-2.288,1.2,1.2,0,1,0-1.266,2.029c.038.024,3.682,2.343,3.207,5.813a.41.41,0,0,1,.193-.109,6.912,6.912,0,0,0,2.225-1A7.947,7.947,0,0,0,445.2,272.653Zm0,0" transform="translate(-379.803 -232.761)" fill="#e7387f"/>
      <path id="Trazado_874184" data-name="Trazado 874184" d="M421.7,187.183a.551.551,0,0,1-.056-.341,11.8,11.8,0,0,0,.131-2.053,21.2,21.2,0,0,0-7.878,1.393,1.2,1.2,0,1,0,1.011,2.166,18.792,18.792,0,0,1,6.792-1.165Zm0,0" transform="translate(-355.975 -159.194)" fill="#e7387f"/>
      <path id="Trazado_874185" data-name="Trazado 874185" d="M140.156,29.293l-3.833-3.617a1.11,1.11,0,0,1-.34-.976,16.4,16.4,0,0,0,0-5.088,1.11,1.11,0,0,1,.34-.976l3.833-3.617a1.125,1.125,0,0,0,.2-1.38L137.4,8.516A1.123,1.123,0,0,0,136.1,8l-5.053,1.512a1.109,1.109,0,0,1-1.016-.194,16.482,16.482,0,0,0-4.4-2.547,1.11,1.11,0,0,1-.674-.782L123.742.864A1.123,1.123,0,0,0,122.65,0h-5.918a1.123,1.123,0,0,0-1.092.864L114.424,5.99a1.11,1.11,0,0,1-.674.782,16.45,16.45,0,0,0-4.4,2.547,1.11,1.11,0,0,1-1.016.194L103.277,8a1.125,1.125,0,0,0-1.3.516L99.024,13.64a1.123,1.123,0,0,0,.2,1.378l3.833,3.617a1.11,1.11,0,0,1,.34.976,16.4,16.4,0,0,0,0,5.088,1.11,1.11,0,0,1-.34.976l-3.833,3.617a1.125,1.125,0,0,0-.2,1.38l2.957,5.123a1.123,1.123,0,0,0,1.294.515L108.33,34.8a1.111,1.111,0,0,1,1.016.194,16.463,16.463,0,0,0,4.4,2.547,1.11,1.11,0,0,1,.674.782l1.216,5.126a1.123,1.123,0,0,0,1.092.864h5.918a1.123,1.123,0,0,0,1.092-.864l1.216-5.126a1.11,1.11,0,0,1,.674-.782,16.468,16.468,0,0,0,4.4-2.547,1.113,1.113,0,0,1,1.016-.194l5.053,1.512a1.126,1.126,0,0,0,1.3-.517l2.957-5.123A1.123,1.123,0,0,0,140.156,29.293Zm-20.465.807a7.945,7.945,0,1,1,7.945-7.945A7.954,7.954,0,0,1,119.691,30.1Zm0,0" transform="translate(-85.179 0)" fill="#5766ce"/>
      <path id="Trazado_874186" data-name="Trazado 874186" d="M108.33,58.986l-5.053-1.512a1.126,1.126,0,0,0-1.3.516l-2.957,5.123a1.123,1.123,0,0,0,.2,1.379l3.833,3.617a1.112,1.112,0,0,1,.34.977,16.349,16.349,0,0,0,0,5.087,1.113,1.113,0,0,1-.34.977l-3.833,3.617a1.125,1.125,0,0,0-.2,1.38l2.957,5.123a1.123,1.123,0,0,0,1.294.515l5.053-1.512a1.109,1.109,0,0,1,1.016.194,16.457,16.457,0,0,0,4.4,2.547,1.11,1.11,0,0,1,.674.782l1.216,5.126a1.122,1.122,0,0,0,1.092.864h5.917a1.122,1.122,0,0,0,1.092-.864l1.216-5.126a1.11,1.11,0,0,1,.674-.782,16.394,16.394,0,0,0,2.356-1.135c-3.63-.6-3.316-3.339-3-4.53a.612.612,0,0,0-.374-.728,1.906,1.906,0,0,1-1.387-1.881,7.94,7.94,0,0,1-9.014-12.86,1.83,1.83,0,0,1-1.359-2.029.607.607,0,0,0-.538-.644c-3.909-.389-2.974-4.414-2.974-4.414a1.109,1.109,0,0,1-1.016.194Zm0,0" transform="translate(-85.179 -49.473)" fill="#3d4ec6"/>
      <path id="Trazado_874187" data-name="Trazado 874187" d="M182.632,104.118a10.7,10.7,0,1,1,10.7-10.7A10.71,10.71,0,0,1,182.632,104.118Zm0-17.822a7.125,7.125,0,1,0,7.125,7.125A7.133,7.133,0,0,0,182.632,86.3Zm0,0" transform="translate(-148.119 -71.265)" fill="#8c96dd"/>
      <path id="Trazado_874188" data-name="Trazado 874188" d="M187.9,118.629a.621.621,0,0,0-.337-.316,2.077,2.077,0,0,1-1.149-2.955,7.12,7.12,0,0,1-8.153-11.654c-.026,0-.052,0-.078,0-2.167,0-2.426-1.34-2.382-2.156a.626.626,0,0,0-.095-.364A10.691,10.691,0,0,0,187.9,118.629Zm0,0" transform="translate(-148.12 -87.165)" fill="#717ed6"/>
    </g>
  </g>
</svg>
