<svg xmlns="http://www.w3.org/2000/svg" xmlns:xlink="http://www.w3.org/1999/xlink" width="1027.875" height="158" viewBox="0 0 1027.875 158">
  <defs>
    <clipPath id="clip-path">
      <path id="Rectángulo_401268" data-name="Rectángulo 401268" d="M30,0H985a0,0,0,0,1,0,0V128a30,30,0,0,1-30,30H0a0,0,0,0,1,0,0V30A30,30,0,0,1,30,0Z" fill="#01927f" stroke="#707070" stroke-width="1"/>
    </clipPath>
    <clipPath id="clip-path-2">
      <path id="Trazado_873550" data-name="Trazado 873550" d="M0,0,1045.3,47.191l42.765,858.691L42.764,858.691Z" fill="#01927f"/>
    </clipPath>
    <clipPath id="clip-path-3">
      <path id="Trazado_873019" data-name="Trazado 873019" d="M585.169,15.775C388.855,41.956,206.992,126.8,83.132,260.045c-31.537,33.943-59.783,71.769-71.588,115.909S6.45,471.632,38.978,510.4c41.99,50.053,114.234,67.693,189.567,85.778-22.553,8.445-31.391,34.957-23.119,57.255,17.676,47.661,78.967,60.236,129.567,61.133,168.639,2.981,321.67-66.193,452.164-151.95,68.555-45.055,133.639-95.85,180.13-160.125,30.546-42.227,54.133-105.027,5.667-148.125-22.357-19.884-59.962-26-82.761-6.616,36.23-35.744,34.26-96.685,3.386-141.83s-85.453-75.039-141.1-87.67A357.722,357.722,0,0,0,689.412,9.99c-35.049-1.6-70.078,1.229-104.242,5.785" fill="#01927f"/>
    </clipPath>
    <clipPath id="clip-path-4">
      <path id="Trazado_873501" data-name="Trazado 873501" d="M6.555,10.517,468.63-3.877,458.2,436.975-3.878,451.369Z" fill="#01927f"/>
    </clipPath>
    <clipPath id="clip-path-5">
      <path id="Trazado_873026" data-name="Trazado 873026" d="M217.974,2.974c-22.5,7.354-42.849,24.687-48.928,46.683s5.282,47.516,22.413,55.236c-24.905-6.708-50.036-13.452-76.141-14.938s-53.605,2.672-76.461,16.321S-1.337,144.153-1.455,169.361c-.136,29.26,21.448,52.987,43.35,72.18,63.927,56.018,141.7,97.937,226.557,119.218,26.958,6.759,57.473,11.019,82.558-2.837,23.975-13.241,37.011-40.893,37.139-66.823s-10.8-50.257-24.822-71.668-31.252-40.654-46.411-60.411c14.024,0,28.214-.016,42.008-3.285s27.37-10.177,35.84-21.373c10.11-13.363,11.534-31.238,6.729-46.385s-15.137-27.9-26.777-38.854A193.5,193.5,0,0,0,287.132,2.4,151.658,151.658,0,0,0,247.4-2.012a105.31,105.31,0,0,0-29.422,4.986" fill="#01927f"/>
    </clipPath>
    <clipPath id="clip-path-6">
      <path id="Trazado_873500" data-name="Trazado 873500" d="M0,0,828.938,46.652l42.31,698.905L42.31,698.905Z" fill="#01927f"/>
    </clipPath>
    <clipPath id="clip-path-7">
      <path id="Trazado_873019-2" data-name="Trazado 873019" d="M461.3,13.625c-155.4,19.818-298.8,87.491-395.745,195-24.685,27.387-46.723,57.959-55.666,93.8S6.753,380.253,32.909,412.055c33.765,41.057,91.212,55.963,151.112,71.254-17.8,6.7-24.559,28.213-17.79,46.425,14.464,38.926,63.179,49.626,103.307,50.74,133.737,3.706,254.417-51.432,357.073-120.24,53.93-36.15,105.054-77,141.308-128.958,23.82-34.137,41.929-85.07,3.1-120.516-17.914-16.353-47.788-21.615-65.681-6.013,28.389-28.817,26.25-78.432,1.346-115.41s-68.461-61.723-112.7-72.426a279.091,279.091,0,0,0-50.083-7.2c-27.8-1.565-55.551.468-82.6,3.917" fill="#01927f"/>
    </clipPath>
  </defs>
  <g id="img-35" transform="translate(-11787 2782)">
    <g id="Grupo_1100489" data-name="Grupo 1100489" transform="translate(11439.542 -3276)">
      <g id="Enmascarar_grupo_1098675" data-name="Enmascarar grupo 1098675" transform="translate(390.333 494)" clip-path="url(#clip-path)">
        <path id="Trazado_870126" data-name="Trazado 870126" d="M16.22,0h1094.4c8.958,0,16.22,6.327,16.22,14.132V362.97c0,7.8-7.262,14.132-16.22,14.132H16.22C7.262,377.1,0,370.775,0,362.97V14.132C0,6.327,7.262,0,16.22,0Z" transform="translate(-49.287 -74.588)" fill="#01927f"/>
        <g id="Grupo_1099032" data-name="Grupo 1099032" transform="matrix(-0.927, 0.375, -0.375, -0.927, 1618.812, 286.919)" opacity="0.25" style="mix-blend-mode: multiply;isolation: isolate">
          <g id="Grupo_1099028" data-name="Grupo 1099028" transform="translate(0 0)">
            <g id="Grupo_1099027" data-name="Grupo 1099027" clip-path="url(#clip-path-2)">
              <path id="Trazado_873014" data-name="Trazado 873014" d="M890.194,247.756c36.23-35.744,34.25-96.686,3.386-141.83s-85.462-75.039-141.1-87.67-112.6-9.78-167.311-2.486C388.855,41.959,206.983,126.8,83.132,260.048c-31.538,33.934-59.793,71.769-71.588,115.909S6.45,471.625,38.978,510.4c41.981,50.053,114.234,67.7,189.568,85.787-22.562,8.444-31.391,34.948-23.119,57.255,17.676,47.661,78.957,60.236,129.558,61.133,168.649,2.981,321.679-66.2,452.164-151.95C855.7,517.566,920.788,466.77,967.278,402.5c30.555-42.236,54.143-105.026,5.677-148.133-22.356-19.875-59.962-25.989-82.76-6.607" transform="translate(62.722 103.141)" fill="#01927f"/>
            </g>
          </g>
          <g id="Grupo_1099030" data-name="Grupo 1099030" transform="translate(62.722 103.144)">
            <g id="Grupo_1099029" data-name="Grupo 1099029" transform="translate(0 0)" clip-path="url(#clip-path-3)">
              <path id="Trazado_873015" data-name="Trazado 873015" d="M5.324,364.256S533.992,480.05,417.531,5.923" transform="translate(-39.459 5.937)" fill="#01927f"/>
              <path id="Trazado_873016" data-name="Trazado 873016" d="M8.288,567.078S483.425,729.131,634.782,9" transform="translate(-33.237 -14.145)" fill="#01927f"/>
              <path id="Trazado_873017" data-name="Trazado 873017" d="M12.1,827.982S316.854,871.3,479.63,527.653,626.1,8.882,626.1,8.882" transform="translate(145.193 -69.716)" fill="#01927f"/>
              <path id="Trazado_873018" data-name="Trazado 873018" d="M365.115,5.179s.22,314.826-357.6,509.168" transform="translate(588.739 177.171)" fill="#01927f"/>
            </g>
          </g>
        </g>
        <ellipse id="Elipse_11441" data-name="Elipse 11441" cx="284.17" cy="247.589" rx="284.17" ry="247.589" transform="translate(-13.371 -314.189)" fill="#01927f" opacity="0.37" style="mix-blend-mode: multiply;isolation: isolate"/>
        <ellipse id="Elipse_11485" data-name="Elipse 11485" cx="284.17" cy="247.896" rx="284.17" ry="247.896" transform="translate(-297.718 70.759)" fill="#01927f" opacity="0.37" style="mix-blend-mode: multiply;isolation: isolate"/>
        <ellipse id="Elipse_11486" data-name="Elipse 11486" cx="284.523" cy="247.589" rx="284.523" ry="247.589" transform="translate(252.136 157.642)" fill="#01927f" opacity="0.37" style="mix-blend-mode: multiply;isolation: isolate"/>
        <g id="Grupo_1099037" data-name="Grupo 1099037" transform="matrix(-0.978, -0.208, 0.208, -0.978, 1074.5, 365.867)">
          <g id="Grupo_1099034" data-name="Grupo 1099034" transform="translate(0 0)">
            <g id="Grupo_1099033" data-name="Grupo 1099033" clip-path="url(#clip-path-4)">
              <path id="Trazado_873020" data-name="Trazado 873020" d="M196.09,104.831c-25.5-6.713-51.231-13.464-77.961-14.956s-54.888,2.66-78.294,16.3S-1.328,144.047-1.454,169.255c-.145,29.259,21.95,52.991,44.372,72.189A564.8,564.8,0,0,0,274.871,360.712c27.6,6.765,58.844,11.032,84.532-2.818,24.552-13.237,37.905-40.884,38.044-66.815s-11.044-50.259-25.4-71.675-31.989-40.66-47.509-60.419c14.359,0,28.89-.011,43.013-3.277s28.029-10.17,36.7-21.364c10.354-13.362,11.817-31.235,6.9-46.384s-15.5-27.906-27.411-38.86c-24.592-22.6-55.775-38.861-89.669-46.746-22.925-5.334-47.771-6.788-70.812.562s-43.879,24.676-50.109,46.672,5.4,47.518,22.937,55.241" transform="translate(51.542 26.669)" fill="#01927f"/>
            </g>
          </g>
          <g id="Grupo_1099036" data-name="Grupo 1099036" transform="translate(60.551 26.646)">
            <g id="Grupo_1099035" data-name="Grupo 1099035" transform="translate(0 0)" clip-path="url(#clip-path-5)">
              <path id="Trazado_873021" data-name="Trazado 873021" d="M389.01,241.391S336.445-39.214-.034,3.974" transform="translate(-47.581 170.007)" fill="#01927f" stroke="#f1e8d5" stroke-linecap="round" stroke-linejoin="round" stroke-width="1"/>
              <path id="Trazado_873022" data-name="Trazado 873022" d="M53.432-.442s-105.339,90.5-22.454,153.824" transform="translate(344.089 201.177)" fill="#01927f" stroke="#f1e8d5" stroke-linecap="round" stroke-linejoin="round" stroke-width="1"/>
              <path id="Trazado_873023" data-name="Trazado 873023" d="M346.494-2.867C333.107,91.982,303.234,103.064,243.327,110s-50.274,72.335-144.909,28.562S-.315,36.631-.315,36.631" transform="translate(53.302 16.997)" fill="#01927f" stroke="#f1e8d5" stroke-linecap="round" stroke-linejoin="round" stroke-width="1"/>
              <path id="Trazado_873024" data-name="Trazado 873024" d="M101.793-.842s58.631,59.208,19.338,92.616S-.343,39.886-.343,39.886" transform="translate(166.045 -24.494)" fill="#01927f" stroke="#f1e8d5" stroke-linecap="round" stroke-linejoin="round" stroke-width="1"/>
              <path id="Trazado_873025" data-name="Trazado 873025" d="M157.933,104.679C164,32.6,84.912-33.082-.148,17.181" transform="translate(41.619 251.059)" fill="#01927f" stroke="#f1e8d5" stroke-linecap="round" stroke-linejoin="round" stroke-width="1"/>
            </g>
          </g>
        </g>
        <ellipse id="Elipse_11487" data-name="Elipse 11487" cx="284.17" cy="247.589" rx="284.17" ry="247.589" transform="translate(173.963 -690.795)" fill="#01927f" opacity="0.18"/>
        <g id="Grupo_1099031" data-name="Grupo 1099031" transform="matrix(0.875, -0.485, 0.485, 0.875, -333.864, -181.446)" opacity="0.11" style="mix-blend-mode: multiply;isolation: isolate">
          <g id="Grupo_1099028-2" data-name="Grupo 1099028" transform="translate(0 0)">
            <g id="Grupo_1099027-2" data-name="Grupo 1099027" clip-path="url(#clip-path-6)">
              <path id="Trazado_873014-2" data-name="Trazado 873014" d="M705.333,204.75c28.389-28.817,26.243-78.432,1.346-115.41s-68.469-61.723-112.7-72.426S504.61,8.1,461.3,13.62c-155.4,19.825-298.8,87.5-395.744,195.007-24.685,27.38-46.731,57.959-55.666,93.8S6.752,380.248,32.908,412.05c33.758,41.057,91.212,55.97,151.112,71.261-17.809,6.7-24.559,28.206-17.79,46.425,14.464,38.926,63.171,49.625,103.3,50.74,133.745,3.707,254.424-51.439,357.073-120.24,53.93-36.15,105.054-77,141.308-128.958,23.827-34.144,41.937-85.07,3.1-120.523-17.913-16.346-47.787-21.608-65.681-6.006" transform="translate(53.517 88.08)" fill="#01927f"/>
            </g>
          </g>
          <g id="Grupo_1099030-2" data-name="Grupo 1099030" transform="translate(53.517 88.082)">
            <g id="Grupo_1099029-2" data-name="Grupo 1099029" transform="translate(0 0)" clip-path="url(#clip-path-7)">
              <path id="Trazado_873015-2" data-name="Trazado 873015" d="M5.229,294.233S425.487,392.491,328.674,5.714" transform="translate(-31.613 3.152)" fill="#01927f"/>
              <path id="Trazado_873016-2" data-name="Trazado 873016" d="M8.142,458.145S386.394,593.648,499.6,8.686" transform="translate(-25.518 -11.96)" fill="#01927f"/>
              <path id="Trazado_873017-2" data-name="Trazado 873017" d="M11.916,670.541s242.038,37.568,367.855-240.888S491,8.536,491,8.536" transform="translate(117.141 -55.851)" fill="#01927f"/>
              <path id="Trazado_873018-2" data-name="Trazado 873018" d="M286.127,4.974S289.273,261.213,7.4,416.672" transform="translate(469.062 147.025)" fill="#01927f"/>
            </g>
          </g>
        </g>
      </g>
    </g>
    <g id="Grupo_1100550" data-name="Grupo 1100550" transform="translate(11623.264 -13347)">
      <path id="Trazado_874021" data-name="Trazado 874021" d="M52.5,0A52.5,52.5,0,1,1,0,52.5,52.5,52.5,0,0,1,52.5,0Z" transform="translate(163.737 10592)" fill="#02dd84"/>
      <g id="sitio-web" transform="translate(181.396 10615.144)">
        <path id="Trazado_874995" data-name="Trazado 874995" d="M71.5,11.246H11.959A5.073,5.073,0,0,0,6.89,16.323V63.759a5.073,5.073,0,0,0,5.069,5.077H71.5a5.073,5.073,0,0,0,5.069-5.077V16.323A5.073,5.073,0,0,0,71.5,11.246Z" transform="translate(-6.89 -11.246)" fill="#f6f6f6"/>
        <path id="Trazado_874996" data-name="Trazado 874996" d="M71.5,11.246H11.959A5.073,5.073,0,0,0,6.89,16.323v8.4H76.572v-8.4A5.073,5.073,0,0,0,71.5,11.246Z" transform="translate(-6.89 -11.246)" fill="#ccf9e6"/>
        <g id="Grupo_1100179" data-name="Grupo 1100179" transform="translate(7.069 30.046)">
          <path id="Trazado_874997" data-name="Trazado 874997" d="M34.678,60.584a1.068,1.068,0,0,0-1.4.575l-2.7,6.466-2.7-6.466a1.067,1.067,0,0,0-1.97,0l-2.7,6.466-2.7-6.466a1.067,1.067,0,1,0-1.971.82l3.68,8.834a1.068,1.068,0,0,0,1.971,0l2.7-6.47,2.7,6.466a1.067,1.067,0,0,0,1.97,0l3.681-8.834a1.067,1.067,0,0,0-.578-1.392Z" transform="translate(-18.478 -60.502)" fill="#c5c5c5"/>
          <path id="Trazado_874998" data-name="Trazado 874998" d="M66.383,60.584a1.068,1.068,0,0,0-1.4.575l-2.7,6.466-2.7-6.466a1.067,1.067,0,0,0-1.97,0l-2.7,6.466-2.7-6.466a1.068,1.068,0,0,0-1.971.822l3.681,8.833a1.067,1.067,0,0,0,1.97,0l2.7-6.47,2.7,6.466a1.067,1.067,0,0,0,1.97,0l3.681-8.833a1.068,1.068,0,0,0-.575-1.393Z" transform="translate(-30.842 -60.501)" fill="#c5c5c5"/>
          <path id="Trazado_874999" data-name="Trazado 874999" d="M98.087,60.584a1.068,1.068,0,0,0-1.4.575L94,67.626,91.3,61.16a1.067,1.067,0,0,0-1.97,0l-2.7,6.466-2.7-6.466a1.067,1.067,0,1,0-1.971.82l3.681,8.834a1.067,1.067,0,0,0,1.97,0l2.693-6.47,2.7,6.466a1.068,1.068,0,0,0,1.971,0l3.68-8.834a1.067,1.067,0,0,0-.573-1.392Z" transform="translate(-43.207 -60.502)" fill="#c5c5c5"/>
        </g>
        <circle id="Elipse_11585" data-name="Elipse 11585" cx="2.394" cy="2.394" r="2.394" transform="translate(5.344 4.342)" fill="#43c0ff"/>
        <path id="Trazado_875000" data-name="Trazado 875000" d="M33.783,18.364a2.395,2.395,0,1,0,2.395,2.395,2.395,2.395,0,0,0-2.395-2.395Z" transform="translate(-16.444 -14.022)" fill="#02dd84"/>
        <circle id="Elipse_11586" data-name="Elipse 11586" cx="2.394" cy="2.394" r="2.394" transform="translate(24.546 4.342)" fill="#01927f"/>
        <path id="Trazado_875001" data-name="Trazado 875001" d="M29.134,93.546l-5.726,5.726,2.641,2.641,2.641,2.641,5.726-5.726,2.863,2.863,5.211-16.22-16.22,5.211Z" transform="translate(-13.332 -40.193)" fill="#00483f"/>
      </g>
    </g>
  </g>
</svg>
