<svg xmlns="http://www.w3.org/2000/svg" xmlns:xlink="http://www.w3.org/1999/xlink" width="1600" height="220" viewBox="0 0 1600 220">
  <defs>
    <clipPath id="clip-path">
      <path id="Recurso_1" data-name="Recurso 1" d="M0,0H1600V220H0Z" transform="translate(-10898 -13017)" fill="#fff" opacity="0.41"/>
    </clipPath>
    <clipPath id="clip-path-2">
      <path id="Trazado_872907" data-name="Trazado 872907" d="M23.031,0H1577.05a23.017,23.017,0,0,1,23.031,23v567.8a23.017,23.017,0,0,1-23.031,23H23.031A23.017,23.017,0,0,1,0,590.806V23A23.017,23.017,0,0,1,23.031,0Z" fill="#01927f"/>
    </clipPath>
    <clipPath id="clip-path-3">
      <rect id="Rectángulo_401199" data-name="Rectángulo 401199" width="1511.383" height="1369.591" fill="#01927f" stroke="#165b7a" stroke-width="1"/>
    </clipPath>
    <clipPath id="clip-path-4">
      <path id="Trazado_873019" data-name="Trazado 873019" d="M868.68,17.212c-286.372,56.015-556.035,204.762-745.137,426.7-48.15,56.535-91.811,119.04-112.1,190.452S-2.844,787.676,41.5,847.3c57.238,76.983,160.654,99.969,268.517,123.444-33.291,15.127-48.011,58.145-37.633,93.194,22.175,74.914,110.086,90.593,183.348,88.376,244.164-7.4,470.914-129.021,666.2-275.524,102.6-76.969,200.575-162.864,272.583-268.964,47.311-69.706,86.023-171.8,18.9-237.194-30.963-30.172-85.017-37.232-119.453-4.6,55.081-59.752,56.622-157.028,15.14-226.967S1190.683,25.277,1110.954,9.1a456.589,456.589,0,0,0-90.8-8.658C969.482.421,918.518,7.463,868.68,17.212" fill="#01927f"/>
    </clipPath>
    <clipPath id="clip-path-5">
      <path id="Trazado_873503" data-name="Trazado 873503" d="M0,0,1213.43.643l.583,1099.757L.583,1099.757Z" fill="#01927f" stroke="#165b7a" stroke-width="1"/>
    </clipPath>
    <clipPath id="clip-path-6">
      <path id="Trazado_873019-2" data-name="Trazado 873019" d="M697.7,13.895C467.7,58.873,251.127,178.351,99.261,356.633,60.592,402.048,25.529,452.259,9.237,509.627S-2.223,632.792,33.393,680.7c45.978,61.85,129.042,80.324,215.676,99.191-26.737,12.15-38.557,46.708-30.218,74.866,17.816,60.185,88.426,72.788,147.267,71.013,196.106-5.928,378.217-103.615,535.058-221.3,82.4-61.826,161.085-130.824,218.911-216.055,37.994-56,69.079-138.009,15.162-190.552-24.871-24.242-68.286-29.918-95.942-3.708,44.235-48,45.466-126.147,12.143-182.337S956.331,20.4,892.293,7.4A366.659,366.659,0,0,0,819.366.434c-40.7-.022-81.634,5.632-121.662,13.46" fill="#01927f"/>
    </clipPath>
    <clipPath id="clip-path-7">
      <rect id="Rectángulo_401507" data-name="Rectángulo 401507" width="343.916" height="346.104" fill="#006558"/>
    </clipPath>
    <clipPath id="clip-path-8">
      <path id="Trazado_873026" data-name="Trazado 873026" d="M236.6,172.259c-53.764-4.594-110.123,1.8-156.472,27.094S-.711,271.048.266,320.478C1.4,377.852,46.939,425.769,92.914,464.816,227.1,578.782,389.078,665.989,564.645,713.178c55.773,14.988,118.74,25.3,169.664-.257,48.671-24.426,74.146-77.817,73.156-128.66s-24.634-99.253-54.516-142.145-66.241-81.736-98.376-121.455c28.843.9,58.027,1.782,86.24-3.742s55.8-18.2,72.681-39.611c20.147-25.557,22.213-60.52,11.6-90.535s-32.482-55.69-56.951-77.918c-50.5-45.862-113.928-79.688-182.4-97.265C559.155,4.764,531.351.406,503.8.389a220.779,220.779,0,0,0-60.272,7.888" transform="translate(-0.246 -0.389)" fill="#ff9751"/>
    </clipPath>
    <clipPath id="clip-path-9">
      <rect id="Rectángulo_401212" data-name="Rectángulo 401212" width="178.33" height="9.502" fill="none" stroke="#fff" stroke-width="4"/>
    </clipPath>
    <clipPath id="clip-path-11">
      <rect id="Rectángulo_401508" data-name="Rectángulo 401508" width="60.528" height="90.831" fill="#fff"/>
    </clipPath>
    <clipPath id="clip-path-12">
      <rect id="Rectángulo_401509" data-name="Rectángulo 401509" width="610.406" height="544.941" fill="#02dd84"/>
    </clipPath>
    <clipPath id="clip-path-13">
      <path id="Trazado_874723" data-name="Trazado 874723" d="M159.857,383.436C388.719,527.142,532.429,266.343,532.429,266.343L80.019,16.184S-69.007,239.729,159.857,383.436" transform="translate(-32.336 -16.184)" fill="none"/>
    </clipPath>
    <clipPath id="clip-path-14">
      <rect id="Rectángulo_401509-2" data-name="Rectángulo 401509" width="610.406" height="544.941" fill="#43c0ff"/>
    </clipPath>
    <clipPath id="clip-path-16">
      <rect id="Rectángulo_401502" data-name="Rectángulo 401502" width="235.071" height="235" fill="none" stroke="#fff" stroke-width="2"/>
    </clipPath>
  </defs>
  <g id="Grupo_1100221" data-name="Grupo 1100221" transform="translate(10898 12259)">
    <g id="Enmascarar_grupo_1098735" data-name="Enmascarar grupo 1098735" transform="translate(0 758)" clip-path="url(#clip-path)">
      <g id="Enmascarar_grupo_1098662" data-name="Enmascarar grupo 1098662" transform="translate(-10898 -13103.865)" clip-path="url(#clip-path-2)">
        <path id="Trazado_870126" data-name="Trazado 870126" d="M23.031,0H1577.05a23.017,23.017,0,0,1,23.031,23v567.8a23.017,23.017,0,0,1-23.031,23H23.031A23.017,23.017,0,0,1,0,590.806V23A23.017,23.017,0,0,1,23.031,0Z" fill="#01927f"/>
        <g id="Grupo_1099032" data-name="Grupo 1099032" transform="matrix(-0.927, 0.375, -0.375, -0.927, 2576.65, 592.423)" opacity="0.33" style="mix-blend-mode: multiply;isolation: isolate">
          <g id="Grupo_1099028" data-name="Grupo 1099028">
            <g id="Grupo_1099027" data-name="Grupo 1099027" clip-path="url(#clip-path-3)">
              <path id="Trazado_873014" data-name="Trazado 873014" d="M1293.96,366.035c55.081-59.752,56.608-157.028,15.14-226.967S1190.67,25.28,1110.954,9.1,948.492,1.6,868.68,17.2C582.308,73.231,312.631,221.978,123.543,443.915c-48.15,56.521-91.825,119.04-112.1,190.452S-2.844,787.665,41.5,847.294c57.224,76.983,160.654,99.983,268.517,123.457-33.3,15.127-48.011,58.131-37.633,93.194,22.175,74.914,110.072,90.593,183.334,88.376,244.178-7.4,470.928-129.035,666.2-275.524,102.6-76.969,200.575-162.864,272.583-268.964,47.325-69.72,86.037-171.8,18.914-237.208-30.963-30.158-85.017-37.218-119.453-4.59" transform="translate(61.612 126.137)" fill="#01927f" stroke="#165b7a" stroke-width="1"/>
            </g>
          </g>
          <g id="Grupo_1099030" data-name="Grupo 1099030" transform="translate(61.612 126.14)">
            <g id="Grupo_1099029" data-name="Grupo 1099029" transform="translate(0 0)" clip-path="url(#clip-path-4)">
              <path id="Trazado_873015" data-name="Trazado 873015" d="M.262,602.825S758.012,749.784,623.455.271" transform="translate(-54.6 25.624)" fill="#01927f" stroke="#00b0ad" stroke-linecap="round" stroke-linejoin="round" stroke-width="1"/>
              <path id="Trazado_873016" data-name="Trazado 873016" d="M.408,937.72S677.247,1162.49,948.539.412" transform="translate(-54.619 -17.816)" fill="#01927f" stroke="#00b0ad" stroke-linecap="round" stroke-linejoin="round" stroke-width="1"/>
              <path id="Trazado_873017" data-name="Trazado 873017" d="M.589,1354.084s438.5,47.253,699.175-513.822S949.442.412,949.442.412" transform="translate(194.477 -119.093)" fill="#01927f" stroke="#00b0ad" stroke-linecap="round" stroke-linejoin="round" stroke-width="1"/>
              <path id="Trazado_873018" data-name="Trazado 873018" d="M555.3.241S532.908,503.49.365,839.972" transform="translate(835.626 256.649)" fill="#01927f" stroke="#00b0ad" stroke-linecap="round" stroke-linejoin="round" stroke-width="1"/>
            </g>
          </g>
        </g>
        <ellipse id="Elipse_11441" data-name="Elipse 11441" cx="403.5" cy="403" rx="403.5" ry="403" transform="translate(51 -390)" fill="#01927f" opacity="0.37" style="mix-blend-mode: multiply;isolation: isolate"/>
        <circle id="Elipse_11485" data-name="Elipse 11485" cx="403.5" cy="403.5" r="403.5" transform="translate(-179 -193.191)" fill="#01927f" opacity="0.37" style="mix-blend-mode: multiply;isolation: isolate"/>
        <ellipse id="Elipse_11486" data-name="Elipse 11486" cx="404" cy="403" rx="404" ry="403" transform="translate(628 132)" fill="#01927f" opacity="0.37" style="mix-blend-mode: multiply;isolation: isolate"/>
        <g id="Grupo_1099031" data-name="Grupo 1099031" transform="matrix(0.875, -0.485, 0.485, 0.875, -318.2, 9.409)" opacity="0.11" style="mix-blend-mode: multiply;isolation: isolate">
          <g id="Grupo_1099028-2" data-name="Grupo 1099028" transform="translate(0 0)">
            <g id="Grupo_1099027-2" data-name="Grupo 1099027" clip-path="url(#clip-path-5)">
              <path id="Trazado_873014-2" data-name="Trazado 873014" d="M1039.307,294.16c44.235-48,45.454-126.147,12.143-182.337S956.32,20.4,892.293,7.4,761.807,1.354,697.7,13.886c-230,44.99-446.589,164.467-598.444,342.75-38.669,45.4-73.743,95.626-90.024,152.994S-2.223,632.784,33.393,680.691c45.967,61.85,129.042,80.335,215.676,99.2-26.748,12.15-38.557,46.7-30.218,74.866,17.816,60.185,88.414,72.788,147.256,71.013,196.117-5.928,378.228-103.626,535.058-221.3,82.4-61.826,161.085-130.824,218.911-216.055,38.005-56.007,69.09-138.009,15.173-190.564-24.871-24.23-68.286-29.906-95.942-3.7" transform="translate(49.495 101.339)" fill="#01927f" stroke="#165b7a" stroke-width="1"/>
            </g>
          </g>
          <g id="Grupo_1099030-2" data-name="Grupo 1099030" transform="translate(49.495 101.342)">
            <g id="Grupo_1099029-2" data-name="Grupo 1099029" transform="translate(0 0)" clip-path="url(#clip-path-6)">
              <path id="Trazado_873015-2" data-name="Trazado 873015" d="M.257,484.29S608.875,602.41,500.744.265" transform="translate(-43.852 20.582)" fill="#01927f" stroke="#00b0ad" stroke-linecap="round" stroke-linejoin="round" stroke-width="1"/>
              <path id="Trazado_873016-2" data-name="Trazado 873016" d="M.4,753.334S544.038,933.958,761.844.4" transform="translate(-43.87 -14.317)" fill="#01927f" stroke="#00b0ad" stroke-linecap="round" stroke-linejoin="round" stroke-width="1"/>
              <path id="Trazado_873017-2" data-name="Trazado 873017" d="M.577,1087.827s352.2,38,561.521-412.734S762.569.4,762.569.4" transform="translate(156.19 -95.66)" fill="#01927f" stroke="#00b0ad" stroke-linecap="round" stroke-linejoin="round" stroke-width="1"/>
              <path id="Trazado_873018-2" data-name="Trazado 873018" d="M446.007.236S428.058,404.528.358,674.806" transform="translate(671.175 206.247)" fill="#01927f" stroke="#00b0ad" stroke-linecap="round" stroke-linejoin="round" stroke-width="1"/>
            </g>
          </g>
        </g>
        <g id="Grupo_1099912" data-name="Grupo 1099912" transform="translate(895.584 0)">
          <g id="Grupo_1099911" data-name="Grupo 1099911" transform="translate(0 0)" clip-path="url(#clip-path-7)">
            <path id="Trazado_874704" data-name="Trazado 874704" d="M343.5,173c-.231,0-.517-2.947-.869-8.567a201.526,201.526,0,0,0-3.618-24.38c-.165-.891-.385-1.77-.616-2.672s-.451-1.814-.682-2.738c-.473-1.858-.9-3.8-1.529-5.751s-1.243-3.981-1.891-6.059c-.737-2.056-1.463-4.168-2.177-6.356a14.032,14.032,0,0,0-1.133-3.31c-.495-1.089-1.045-2.155-1.595-3.244a37.154,37.154,0,0,1-2.936-6.851c-.473-1.188-.935-2.386-1.507-3.552-.594-1.166-1.21-2.342-1.836-3.519-.649-1.166-1.265-2.364-1.968-3.53s-1.452-2.331-2.177-3.519c-.759-1.166-1.419-2.408-2.155-3.607s-1.507-2.43-2.254-3.673a50.857,50.857,0,0,0-5.191-7.17,20.226,20.226,0,0,1-1.529-1.694c-.495-.572-.957-1.166-1.43-1.77-.9-1.232-1.738-2.529-2.606-3.849l-.649-.979-.693-.946c-.484-.627-.957-1.254-1.485-1.858a21.657,21.657,0,0,0-3.486-3.31c-4.652-4.476-9.226-9.292-14.428-13.779-.572-.638-1.177-1.265-1.793-1.869l-.924-.913c-.33-.286-.671-.561-1.012-.836-1.342-1.111-2.727-2.166-4.168-3.211-1.386-1.078-2.947-1.979-4.443-2.958-.759-.484-1.507-.968-2.254-1.463s-1.518-.99-2.287-1.452q-2.062-1.781-4.344-3.387l-1.122-.8c-.4-.242-.8-.484-1.2-.715-.8-.473-1.606-.935-2.419-1.375a78.367,78.367,0,0,0-10.315-4.7,42.041,42.041,0,0,0-4.916-3.1c-.847-.473-1.715-.924-2.573-1.353-.88-.418-1.814-.77-2.716-1.122a58.177,58.177,0,0,0-5.63-1.858c-1.924-.462-3.9-.858-5.894-1.177-1.869-.671-3.816-1.188-5.729-1.781-1.946-.572-3.86-1.232-5.861-1.672-1.968-.484-3.97-.957-5.993-1.386-2.023-.352-4.091-.616-6.158-.836-1.023-.154-2.034-.374-3.09-.473-1.034-.11-2.067-.231-3.1-.341-1.056-.121-2.1-.231-3.134-.352-.528-.055-1.056-.132-1.573-.165l-1.595-.1c-2.1-.143-4.234-.286-6.367-.462-2.133-.088-4.278-.154-6.422-.275-1.089.1-2.166.121-3.244.264-1.078.11-2.166.22-3.244.3-2.177.2-4.355.231-6.532.451-2.177.165-4.388.275-6.576.352-2.21.176-4.421.308-6.675.385-8.666,2.3-17.529,3.86-26.48,6.1-2.232.6-4.443,1.331-6.62,2.122-2.155.847-4.278,1.825-6.422,2.76l-1.606.715-1.562.781c-1.067.517-2.111,1.023-3.178,1.507-1.056.506-2.166.924-3.233,1.452-1.067.506-2.144.99-3.244,1.43A181.8,181.8,0,0,0,73.087,40.166c-7.995,5.5-15.715,11.888-21.785,19.849A300.188,300.188,0,0,0,32.96,83.934c-4.52,9.149-9.589,17.958-13.977,27.382-3.673,9.655-7.379,19.541-8.786,30.032C8.019,151.686,7.645,162.32,7.161,173a113.831,113.831,0,0,0,3.035,31.66l.462,1.913.517,1.9c.341,1.276.649,2.54.935,3.827l.451,1.913c.143.638.341,1.254.495,1.891.341,1.265.66,2.518,1,3.783.6,2.551,1.43,5.015,2.21,7.5l.594,1.858c.2.616.407,1.232.66,1.825.473,1.21.968,2.419,1.463,3.607.374,1.243.726,2.5,1.2,3.706s.979,2.4,1.507,3.574,1.056,2.353,1.628,3.519l1.847,3.387c.616,1.122,1.243,2.243,1.869,3.365.671,1.089,1.331,2.188,1.99,3.277s1.331,2.188,1.946,3.288c.649,1.1,1.342,2.155,1.99,3.255,5.52,8.512,11.173,16.957,18.343,23.929a252.6,252.6,0,0,0,21.785,19.849c1.067.616,2.166,1.166,3.211,1.792,1.023.627,2.056,1.287,3.046,1.968l1.474,1.034,1.5.99c.99.682,1.957,1.375,2.947,2.078,1.913,1.441,3.937,2.727,5.927,4.025,1.023.638,2.023,1.276,3.046,1.88,1.056.55,2.111,1.089,3.2,1.595,1,.6,2.034,1.2,3.068,1.781s2.1,1.056,3.167,1.562c1.067.484,2.144.979,3.211,1.463l1.628.7c.539.22,1.078.418,1.639.616,2.188.814,4.366,1.65,6.543,2.419,2.221.715,4.421,1.441,6.587,2.221,4.454,1.166,8.787,2.639,13.2,3.717,1.1.286,2.2.572,3.3.847,1.089.242,2.2.44,3.31.649s2.232.385,3.343.55l1.65.22c.572.055,1.133.088,1.683.121,2.21.308,4.432.572,6.631.825,2.188.132,4.41.264,6.587.4,2.2.187,4.388.132,6.554.242,1.089.044,2.177.088,3.255.154,1.089.1,2.166.066,3.244.132,2.144-.253,4.278-.341,6.422-.407,2.133-.154,4.267-.22,6.367-.286l1.606-.055c.528-.022,1.045-.077,1.562-.121,1.067-.088,2.1-.187,3.145-.3s2.089-.231,3.123-.374a28.611,28.611,0,0,0,3.068-.627c2.045-.374,4.069-.748,6.092-1.111,2.023-.462,4.014-.924,5.993-1.375,1.99-.407,3.926-1.023,5.883-1.54,1.924-.55,3.871-1.012,5.762-1.65a52.741,52.741,0,0,0,5.817-1.386c1.891-.638,3.695-1.4,5.5-2.144.9-.4,1.792-.77,2.672-1.188.869-.44,1.738-.88,2.6-1.32,1.716-.891,3.464-1.7,5.147-2.573a107.9,107.9,0,0,0,9.853-5.487c.8-.473,1.606-.946,2.386-1.419l1.2-.693,1.166-.726c1.562-.957,3.156-1.847,4.795-2.65.77-.473,1.529-.979,2.254-1.485.759-.495,1.5-1,2.254-1.5,1.485-1,3.013-1.935,4.388-3.024,1.408-1.056,2.8-2.122,4.157-3.211l1.034-.814.935-.88c.627-.594,1.254-1.188,1.869-1.8.638-.572,1.287-1.122,1.946-1.661s1.342-1.034,1.99-1.584c1.32-1.056,2.65-2.111,3.948-3.156a24.513,24.513,0,0,0,1.891-1.628c.594-.572,1.177-1.166,1.737-1.781a23.492,23.492,0,0,0,2.9-3.959c1.012-1.254,2.067-2.441,3.178-3.585.55-.561,1.111-1.122,1.672-1.683l.825-.836.792-.869c1.056-1.166,2.067-2.331,3-3.552.473-.6.924-1.221,1.342-1.858a20.72,20.72,0,0,0,1.067-2.012,55.652,55.652,0,0,1,4.751-7.467c.858-1.166,1.715-2.32,2.562-3.464a37.245,37.245,0,0,0,2.287-3.541c.7-1.2,1.408-2.386,2.089-3.552.682-1.188,1.276-2.4,1.9-3.574s1.232-2.342,1.847-3.5c.594-1.155,1.1-2.342,1.65-3.486A174.287,174.287,0,0,0,337.012,214.2c.539-2.177,1.067-4.256,1.562-6.268.275-1,.429-1.99.627-2.969s.385-1.924.561-2.848c.825-3.706,1.2-7.148,1.694-10.194.792-6.136,1.254-10.865,1.441-14.065.231-3.2.429-4.861.6-4.861s.308,2.045.385,6.015c0,.99.044,2.111,0,3.332s-.11,2.573-.176,4.036-.11,3.046-.264,4.729c-.176,1.683-.363,3.475-.55,5.388a163.506,163.506,0,0,1-20.531,62.517c-.7,1.232-1.331,2.529-2.045,3.794s-1.441,2.54-2.188,3.838A38.989,38.989,0,0,1,312.819,274l-1.32,1.913c-.451.627-.935,1.254-1.4,1.88-.924,1.276-1.869,2.551-2.8,3.849l-.715.968-.77.924c-.517.627-1.034,1.243-1.583,1.858-1.078,1.221-2.177,2.441-3.365,3.585-3.717,5.6-9.182,9.9-14.6,14.384-.671.572-1.331,1.155-2.012,1.737l-1,.869-1.067.825c-1.419,1.089-2.848,2.177-4.278,3.288-1.419,1.144-2.947,2.144-4.421,3.255-.737.55-1.463,1.1-2.21,1.661s-1.463,1.144-2.232,1.683c-1.485,1.144-3.035,2.21-4.619,3.233l-1.21.77c-.4.242-.814.473-1.232.7-.836.451-1.682.913-2.518,1.375-3.354,1.88-6.906,3.475-10.282,5.476-1.847.726-3.706,1.386-5.553,2.155-.924.374-1.836.759-2.749,1.166-.935.363-1.847.737-2.793,1.111-1.847.748-3.706,1.573-5.586,2.375-1.891.737-3.772,1.529-5.685,2.331-1.99.55-4.014.979-6.026,1.54-2,.539-4,1.21-6.037,1.694-2.034.539-4.091,1.089-6.147,1.628-2.067.462-4.19.869-6.3,1.243-1.078.044-2.144.187-3.244.22-1.078.055-2.144.143-3.244.242-1.078.1-2.144.22-3.222.363-.55.055-1.089.143-1.628.2l-1.639.154c-2.177.22-4.366.484-6.543.759-2.21.2-4.432.363-6.675.528-1.1.055-2.221.176-3.365.154-1.111-.022-2.232-.033-3.365-.055-2.254-.066-4.531-.066-6.8-.319l-6.829-.594c-2.287-.3-4.575-.572-6.884-.8-9.116-1.54-18.464-3.145-27.558-6.169a103.641,103.641,0,0,1-26.931-11.041A145.776,145.776,0,0,1,69,311.239C60.639,305.477,53.3,298.2,46.211,290.664a112.573,112.573,0,0,1-9.8-12.14c-1.595-2.078-3-4.289-4.586-6.4l-1.177-1.573-.6-.781-.583-.8q-1.171-1.6-2.408-3.167A180.308,180.308,0,0,1,12.44,237.3a219.985,219.985,0,0,1-9.2-31.3C2.257,195.024.519,184.17.046,173a142.044,142.044,0,0,1,3.189-33,156.988,156.988,0,0,1,9.2-31.3c3.706-10.183,9.347-19.354,14.615-28.5.671-1.155,1.353-2.287,2.045-3.409l.528-.836.572-.814,1.144-1.617C32.9,71.4,34.4,69.253,36.127,67.263,39.4,63.172,42.9,59.312,46.211,55.331A115.318,115.318,0,0,1,69,34.745c.979-.8,2.045-1.474,3.079-2.2,1.045-.7,2.078-1.4,3.145-2.1l1.573-1.034,1.595-.957c1.078-.649,2.166-1.287,3.233-1.924,2.111-1.331,4.3-2.5,6.433-3.772,1.067-.627,2.1-1.287,3.156-1.946,1.067-.616,2.111-1.254,3.167-1.935,1.078-.583,2.155-1.177,3.222-1.781,1.067-.638,2.177-1.144,3.266-1.727l3.266-1.683,1.639-.825c.561-.264,1.111-.495,1.672-.737,2.243-.957,4.5-1.9,6.8-2.65a57.8,57.8,0,0,1,7.071-1.639A91.366,91.366,0,0,1,135.1,4.284l3.464-.693c1.155-.187,2.3-.374,3.442-.572,1.166-.2,2.3-.418,3.442-.66L147.162,2l1.7-.33c2.342-.011,4.63-.154,6.917-.374,2.3-.132,4.553-.319,6.829-.561,2.254-.286,4.52-.352,6.763-.517,1.133-.055,2.254-.121,3.365-.187,1.133-.066,2.254,0,3.365.022,2.243.11,4.465.22,6.675.363,2.188.22,4.4.429,6.576.649L191,1.2c.539.055,1.067.143,1.606.2,1.1.132,2.177.264,3.244.4s2.166.231,3.244.33c1.067.077,2.144.275,3.211.385,2.133.242,4.267.561,6.345.957,2.089.473,4.157,1,6.18,1.54,2.056.484,4.047,1.188,6.026,1.792,1.99.627,4.014,1.144,5.96,1.814a59.742,59.742,0,0,1,5.883,1.825c1.88.748,3.739,1.606,5.575,2.441.913.429,1.825.814,2.738,1.254.891.451,1.792.891,2.683,1.309,1.793.869,3.629,1.584,5.487,2.309,3.442,1.858,6.961,3.541,10.238,5.52.847.473,1.682.946,2.5,1.419l1.232.715,1.2.781c1.584,1.023,3.167,2.067,4.7,3.123a18.786,18.786,0,0,1,2.562,1.2c.814.451,1.606.935,2.375,1.441a35.414,35.414,0,0,1,4.388,3.332c1.375,1.21,2.705,2.452,4.014,3.673l.99.913.957.935c.638.627,1.287,1.232,1.935,1.825,5.212,4.7,10.92,8.742,14.6,14.373a33.077,33.077,0,0,1,3.618,3.376c.572.594,1.1,1.21,1.639,1.825l.759.924.7.979c.946,1.309,1.825,2.628,2.705,3.948.451.649.869,1.3,1.3,1.957s.836,1.32,1.232,1.968c1.639,2.617,3.541,4.982,5.18,7.467.814,1.221,1.639,2.441,2.408,3.673a30.29,30.29,0,0,1,1.957,3.86,27.743,27.743,0,0,1,2.353,3.53,39.91,39.91,0,0,1,1.759,3.75c.55,1.254,1.067,2.507,1.617,3.717.528,1.221,1.012,2.452,1.628,3.6.814,2.485,1.9,4.784,2.793,7.082.484,1.144.946,2.276,1.419,3.387a32.208,32.208,0,0,1,1.232,3.343q1.254,3.3,2.276,6.466c.583,2.133,1.1,4.234,1.518,6.279.572,2.012.957,3.992,1.353,5.905.209.957.407,1.891.6,2.8s.4,1.825.528,2.727a158.775,158.775,0,0,1,2.463,24.8c-.066,5.685-.2,8.633-.407,8.633" transform="translate(-0.002 -0.002)" fill="#006558"/>
            <path id="Trazado_874705" data-name="Trazado 874705" d="M233.093,120.421c-.6.022-.352-7.863-3.365-21.653-.231-1.155-.583-2.331-.88-3.552-.319-1.221-.616-2.485-1.045-3.772q-.61-1.913-1.287-3.959c-.495-1.342-.979-2.727-1.441-4.168a7.1,7.1,0,0,0-.715-2.188c-.341-.7-.748-1.386-1.144-2.078a14.458,14.458,0,0,1-1.913-4.509,23.878,23.878,0,0,0-.968-2.342c-.374-.77-.781-1.54-1.21-2.3s-.847-1.551-1.309-2.309c-.495-.748-.979-1.507-1.485-2.276s-.935-1.573-1.43-2.364c-.473-.8-.957-1.606-1.452-2.419A26.284,26.284,0,0,0,210,55.859a7.457,7.457,0,0,1-1.078-1.045,12.005,12.005,0,0,1-.946-1.155c-.583-.814-1.089-1.694-1.617-2.584a16.993,16.993,0,0,0-1.781-2.54,9.512,9.512,0,0,0-2.408-2.067c-3.123-2.87-6.092-6.037-9.479-8.984-2.815-3.64-7.1-5.762-11.085-8.281a23.409,23.409,0,0,0-5.839-4.289,41.09,41.09,0,0,0-6.873-2.848,20.8,20.8,0,0,0-3.1-2.276c-.55-.33-1.111-.649-1.683-.935s-1.177-.517-1.771-.748a28.579,28.579,0,0,0-3.728-1.122,35.52,35.52,0,0,0-3.948-.517c-1.221-.44-2.5-.781-3.75-1.177s-2.518-.836-3.816-1.133c-1.287-.33-2.6-.638-3.915-.9-1.331-.22-2.683-.363-4.047-.451-5.377-.77-10.9-1.122-16.539-1.386-1.408.176-2.815.4-4.234.55-1.419.176-2.837.209-4.256.352-1.419.121-2.848.165-4.3.187-1.43.077-2.892.11-4.366.088-5.608,1.847-11.371,2.727-17.3,4.014a37.787,37.787,0,0,0-4.322,1.353c-1.408.561-2.782,1.243-4.157,1.88l-1.045.495-1.012.517c-.682.352-1.375.693-2.067,1.012-1.408.616-2.793,1.276-4.256,1.8A120.554,120.554,0,0,0,55.417,33.722C50.094,37.186,44.926,41.266,41.2,46.687c-4.223,4.96-7.94,10.326-11.954,15.627-2.628,6.158-6.059,11.789-9.105,17.859-2.331,6.312-5.015,12.7-5.729,19.6-1.474,6.741-1.5,13.691-1.979,20.652a63.448,63.448,0,0,0,1.979,20.652c1,3.31,1.7,6.631,2.562,9.93.374,1.661.891,3.288,1.386,4.9a38.079,38.079,0,0,0,1.781,4.762,23.138,23.138,0,0,0,.693,2.452c.286.792.6,1.573.946,2.353s.682,1.54,1.067,2.287l1.232,2.2,1.265,2.177,1.342,2.122c.451.7.869,1.408,1.287,2.133s.869,1.408,1.276,2.133c3.618,5.531,7.137,11.195,11.954,15.627,4.553,4.652,9.413,8.808,14.219,12.976a38.377,38.377,0,0,1,8.017,5c1.232.968,2.507,1.869,3.8,2.738.649.44,1.3.869,1.957,1.265.682.374,1.375.715,2.089,1.034,5.224,3.42,11.206,5.1,16.869,7.049,2.914.726,5.729,1.749,8.6,2.5.726.2,1.43.385,2.144.583.726.165,1.452.3,2.177.429s1.452.242,2.177.341l1.089.132c.363.022.737.033,1.1.044,1.441.209,2.892.385,4.322.539,1.452.066,2.892.143,4.322.209,1.43.11,2.859.077,4.278.154s2.826.187,4.234.275a30.207,30.207,0,0,1,4.2-.352c1.4-.088,2.782-.11,4.168-.11a39.555,39.555,0,0,0,4.135-.231,19.131,19.131,0,0,0,4.036-.693q2.012-.363,3.992-.726c1.309-.3,2.617-.594,3.915-.9,1.3-.264,2.562-.66,3.838-.99,1.265-.352,2.551-.638,3.783-1.045a23.6,23.6,0,0,0,3.871-.737,34.045,34.045,0,0,0,3.607-1.408c.583-.264,1.166-.517,1.727-.8.572-.308,1.133-.6,1.682-.9,1.111-.616,2.243-1.166,3.343-1.749a56.129,56.129,0,0,0,6.411-3.64,49.784,49.784,0,0,1,6.3-3.5c3.959-2.573,8.039-4.927,11.085-8.281a27.956,27.956,0,0,1,2.628-2.078c.9-.66,1.8-1.309,2.683-1.957a14.008,14.008,0,0,0,2.419-2.2,9.915,9.915,0,0,0,1.748-2.749,22.338,22.338,0,0,1,2.1-2.331c.726-.737,1.54-1.4,2.243-2.155a24.552,24.552,0,0,0,2.012-2.287,10.752,10.752,0,0,0,.847-1.243,9.866,9.866,0,0,0,.627-1.386,21.14,21.14,0,0,1,3.024-4.949c.572-.748,1.177-1.474,1.76-2.21a20.913,20.913,0,0,0,1.551-2.287c.473-.781.935-1.562,1.386-2.331s.847-1.562,1.265-2.331.825-1.529,1.221-2.287.737-1.529,1.1-2.276a116.163,116.163,0,0,0,7.06-18.816c.374-1.419.715-2.793,1.067-4.1.33-1.32.55-2.606.814-3.827.572-2.43.847-4.674,1.2-6.686.55-4.025.924-7.148,1.089-9.248.209-2.111.4-3.2.561-3.2.187,0,.33,1.353.44,3.981.011.649.066,1.386.055,2.2-.033.814-.055,1.7-.077,2.672-.044.968-.044,2.012-.132,3.123-.11,1.122-.209,2.309-.33,3.574a106.749,106.749,0,0,1-3.563,18.31,110.371,110.371,0,0,1-9.743,23.214c-.473.825-.869,1.694-1.32,2.551s-.924,1.716-1.386,2.584a19.238,19.238,0,0,1-3.585,4.85c-.3.418-.594.836-.869,1.276-.308.418-.6.836-.913,1.265-.6.858-1.2,1.715-1.825,2.584a34.266,34.266,0,0,1-4.3,4.861c-2.188,3.97-6.059,6.62-9.655,9.589-3.486,3.145-7.577,5.729-11.426,8.885a31.9,31.9,0,0,1-6.345,4.08c-2.243,1.232-4.619,2.243-6.851,3.651-1.232.429-2.5.825-3.717,1.32-.616.231-1.232.484-1.848.748-.616.242-1.232.495-1.847.737-1.243.506-2.463,1.067-3.695,1.639-1.243.517-2.485,1.078-3.739,1.672-1.342.308-2.705.572-4.036.935s-2.65.814-4.014,1.155c-1.353.385-2.705.759-4.069,1.144-1.375.33-2.771.6-4.19.869-1.441.011-2.892.033-4.333.143-1.441.088-2.859.341-4.311.473-1.441.165-2.892.374-4.355.594-1.463.165-2.936.308-4.421.462a33.966,33.966,0,0,1-4.487.11c-1.507-.044-3.024-.055-4.531-.22q-2.26-.214-4.553-.429c-1.518-.2-3.035-.374-4.575-.506-6.059-1.089-12.316-2-18.365-4.08A57.785,57.785,0,0,1,68.239,223.1,90.571,90.571,0,0,1,51.3,212.542c-5.652-3.728-10.425-8.71-15.176-13.7a62.846,62.846,0,0,1-6.455-8.16c-1.045-1.4-1.968-2.881-3.024-4.267-1.078-1.386-2.111-2.8-3.31-4.135a122.193,122.193,0,0,1-9.754-18.992,174.1,174.1,0,0,1-6.147-20.872c-.264-7.379-1.661-14.538-2.111-21.994A86.038,86.038,0,0,1,7.438,98.428a101.357,101.357,0,0,1,6.147-20.872c2.375-6.829,6.378-12.822,9.754-18.992a35.659,35.659,0,0,1,2.826-4.476c1.045-1.408,2.067-2.826,3.222-4.146,2.232-2.694,4.586-5.234,6.741-7.94A65.924,65.924,0,0,1,51.3,28.3a80.259,80.259,0,0,1,8.49-5.366c1.419-.869,2.892-1.628,4.289-2.485.7-.429,1.4-.88,2.078-1.342.7-.429,1.4-.88,2.067-1.364,1.441-.792,2.837-1.672,4.278-2.43.726-.4,1.441-.792,2.166-1.177l1.078-.583c.374-.176.748-.341,1.111-.506a38.631,38.631,0,0,1,4.531-1.77,26.267,26.267,0,0,1,4.795-.869,50.168,50.168,0,0,1,9.2-2.32c.77-.143,1.54-.286,2.3-.418S99.239,7.44,100,7.3s1.529-.275,2.287-.44l1.122-.275,1.144-.253a32.234,32.234,0,0,0,4.619-.088c1.529-.066,3.035-.2,4.542-.374,1.5-.209,3-.3,4.5-.429a34,34,0,0,1,4.487-.154c1.474.1,2.958.187,4.432.308,1.463.165,2.914.33,4.366.473,1.452.11,2.892.363,4.322.495l4.3.4a41.906,41.906,0,0,1,4.245.583c1.386.319,2.749.682,4.1,1.056,1.364.341,2.672.836,4,1.254s2.65.781,3.959,1.21a28.273,28.273,0,0,1,3.926,1.166c1.254.517,2.474,1.122,3.684,1.7.594.3,1.2.583,1.8.88.583.308,1.177.616,1.77.9a29.89,29.89,0,0,0,3.662,1.463c2.3,1.265,4.63,2.375,6.829,3.684a62.544,62.544,0,0,1,6.367,4.047,12.471,12.471,0,0,1,3.42,1.584,17.875,17.875,0,0,1,2.9,2.232c.891.836,1.738,1.7,2.584,2.551.858.825,1.639,1.738,2.507,2.518,3.409,3.178,7.511,5.575,9.666,9.589a14.947,14.947,0,0,1,2.54,2.122,17.712,17.712,0,0,1,2.056,2.5c.6.88,1.166,1.792,1.716,2.683.275.451.539.891.814,1.331.253.462.517.913.781,1.353,1.045,1.77,2.331,3.31,3.431,4.938.572.814,1.122,1.617,1.628,2.441a15.249,15.249,0,0,1,1.232,2.606,13.021,13.021,0,0,1,1.639,2.287,20.46,20.46,0,0,1,1.122,2.518c.33.847.649,1.694.99,2.507a23.454,23.454,0,0,0,1.067,2.386,41.346,41.346,0,0,0,1.793,4.729c.319.759.638,1.507.957,2.232a17.452,17.452,0,0,1,.814,2.221c.583,1.452,1.1,2.87,1.54,4.278.385,1.43.671,2.826.9,4.19.385,1.331.616,2.65.88,3.915s.55,2.474.715,3.673a100.591,100.591,0,0,1,1.43,16.429c-.11,3.761-.275,5.707-.495,5.707" transform="translate(52.561 52.575)" fill="#006558"/>
            <path id="Trazado_874706" data-name="Trazado 874706" d="M30,45.572c-.319.286-1.287-.176-2.771-1.3-.242-.2-.495-.418-.77-.649a2.53,2.53,0,0,1-.858-.748c.209-.66-1.342.022-.913-.88-.055-.506-.517-.726-.968-1s-.275-1.012-1.012-1.133c-1.232.2.407-1.573-1.067-1.265a2.9,2.9,0,0,1-1.067-1.408c.418-.957-.616-1.067-1.078-1.562.572-1.056-.088-1.43-1.056-1.727.946-1.232.517-1.749-1.012-1.891-.33-.671-.066-1.562-.924-2.089a4.93,4.93,0,0,1-.77-2.309,1.554,1.554,0,0,1-.561-2.529,1.572,1.572,0,0,1-.737-1.331,3.384,3.384,0,0,1,.528-1.441,1.716,1.716,0,0,0-.022-1.485,1.348,1.348,0,0,1,.308-1.5c.154-.484.231-1.012.352-1.529a4.736,4.736,0,0,1,.616-1.507,13.8,13.8,0,0,0,1.21-1.188,2.532,2.532,0,0,0,.528-1.65c.517-1.012,1.166-2.144,2.441-2.364a1.9,1.9,0,0,1,1.1-1.5,4.028,4.028,0,0,1,1.825-.231A3.886,3.886,0,0,1,24.96,8.92a2.836,2.836,0,0,0,1.595-.583c1.122-.066,2.221-.8,3.387-.352a5.29,5.29,0,0,0,3.387.352,1.958,1.958,0,0,1,1.683.275,5.206,5.206,0,0,0,1.551.759,1.7,1.7,0,0,0,1.386.979,2.486,2.486,0,0,1,1.551.737,5.017,5.017,0,0,1,1.177,1.232,3.288,3.288,0,0,0,1.254,1.133A4.285,4.285,0,0,1,43.666,16.3c.968.154,1.056.77,1.023,1.364-.066.6-.33,1.2-.044,1.661a2.139,2.139,0,0,0,.033,1.529A3.492,3.492,0,0,1,44.93,22.3a2.234,2.234,0,0,1-.176,1.408,1.49,1.49,0,0,0-.033,1.364c-.253.847.242,1.847-.561,2.529.572,1.034-1.067,1.408-.759,2.309A8.744,8.744,0,0,1,42.478,32c-1.43.187-.759,1.243-1.012,1.9-.44.539,0,1.562-1.056,1.727-.418.506-1.177.781-1.078,1.551-.176.616-2.122.055-1.067,1.408-.066.649-1.661.22-1.067,1.265.528,1.012-.682.792-1,1.144-.341.341-.671.682-.979,1-2.848,2.8-4.839,3.992-5.311,3.574-.561-.506.847-2.936,3.123-6.906.231-.4-.209-1.287.682-1.254.275-.4.033-1.166.726-1.331-.671-1.056.385-1,.726-1.441.242-.495.825-.8.726-1.529-.275-.8.825-.869.693-1.617.913-.22.979-.891.649-1.7.869-.308.319-1.2.55-1.771,1.166-.275.693-1.133.407-1.825-.209-.693.4-1.2.242-1.858a1.715,1.715,0,0,0,.044-.913,1.725,1.725,0,0,1-.044-.913,2,2,0,0,1-.517-.836,1.009,1.009,0,0,1,.231-.891,1.424,1.424,0,0,1-.385-.77,4.172,4.172,0,0,0-.231-.8,1.131,1.131,0,0,1-.517-.649,1.824,1.824,0,0,0-.407-.726c-.264-.121-.242-.528-.352-.847s-.33-.572-.924-.275a2.971,2.971,0,0,1-.726-.506,1.779,1.779,0,0,0-.847-.363,2.129,2.129,0,0,0-1.836-.55c-.44-1.265-1.342-.627-1.979-.2a3.7,3.7,0,0,1-1.979.2c-.6.253-1.232.352-1.825.55a1.284,1.284,0,0,1-.858.352c-.3.066-.638.143-.726.517-.088.352-.363.44-.671.539s-.594.231-.594.583a2.575,2.575,0,0,1-.22.847,1.259,1.259,0,0,1-.7.528,3.583,3.583,0,0,1-.693.638c-.22.242-.308.55.077.935a6.949,6.949,0,0,0,.495.935c.132.3.022.528-.781.8.209.3.011.583-.132.9s-.22.649.132.913c-1.056.792.132,1.265.242,1.858-.1.649-.242,1.4.407,1.836.737.385.143,1.265.561,1.771.869.275-.319,1.474.649,1.694.143.6.594,1.012.693,1.628,1.65-.275.539.968.726,1.518.11.594,1.452.363.726,1.441,1.265-.22.715.748.726,1.342s.946.495.693,1.243c.935-.132.165.979.649,1.144-.187.671.473.671.594,1.056a.9.9,0,0,1,.539.946c.165.308.308.594.451.858.869,1.595,1.2,2.606.88,2.9" transform="translate(144.315 78.378)" fill="#006558"/>
            <path id="Trazado_874707" data-name="Trazado 874707" d="M30.2,20.922c.33.3-.011,1.309-.88,2.9-.143.264-.3.55-.451.858a2.59,2.59,0,0,1-.539.957c-.7-.066.352,1.254-.594,1.045-.462.187-.539.671-.66,1.155s-.836.539-.682,1.243c.649,1.034-1.617.121-.726,1.342a2.465,2.465,0,0,1-.737,1.441c-1.023.022-.572.968-.726,1.529-1.21,0-1.067.781-.7,1.628-1.551-.1-1.606.627-.649,1.7-.2.572-.924.979-.561,1.781a4.011,4.011,0,0,1-.407,1.836c.759.836.66,1.342-.242,1.869.473.363.6.66.539.957a2.122,2.122,0,0,1-.539.891c-.275.308-.011.6.187.88.242.275.462.495.1.88a3.226,3.226,0,0,0,.3.8,2.3,2.3,0,0,1,.319.781,1.777,1.777,0,0,0,0,.99c.1.3.407.473.946.4.572.275,1.133.385,1.287,1.155.539-.242.858-.264,1.067-.055.231.165.341.561.528.935.616.088,1.056,1,1.858.561.638.308,1.353-.286,1.99.2.671.308,1.474.561,2.012-.2a.819.819,0,0,1,.9-.385c.341.022.715.077.946-.176a.6.6,0,0,0,.968-.187c.176-.319.308-.649.638-.693a2.647,2.647,0,0,1,.8-.418.751.751,0,0,0,.484-.737A5.661,5.661,0,0,1,37.289,48a1.433,1.433,0,0,1,.627-.594c-.561-.572-.44-.759-.088-.913.319-.176.781-.363.7-.671a.773.773,0,0,0,.363-.847,1.75,1.75,0,0,1-.077-.913c-.143-.308.044-.6.176-.924a.763.763,0,0,0-.165-.924c.033-.649-.671-1.122-.242-1.869-.869-.4.286-1.386-.418-1.836a8.358,8.358,0,0,1-.55-1.781c.847-1.045-.3-1.221-.649-1.7-.165-.594-1.133-.726-.7-1.617-.2-.55-.011-1.32-.715-1.54-.451-.363.9-1.869-.737-1.43-.517-.275.44-1.562-.726-1.353-1.111.187-.44-.858-.693-1.243-.22-.4-.44-.781-.649-1.144-1.891-3.31-2.98-5.322-2.463-5.773s2.925,1.045,6.279,4.586c.341.341,1.32.275,1.023,1.133.286.44,1.155.517,1.056,1.276,1.243-.132.8.869,1.067,1.408.374.495.363,1.232,1.078,1.562.913.253.33,1.331,1.056,1.727-.3.924.121,1.485,1.012,1.913-.341.924.682,1.331.935,2.089-.77,1.078.176,1.573.77,2.32s.187,1.7.561,2.551a4.151,4.151,0,0,0,.143,1.364,3.847,3.847,0,0,1,.066,1.419,3.457,3.457,0,0,1,.33,1.529,2.507,2.507,0,0,1-.627,1.474,3.609,3.609,0,0,1-.275,1.562c-.231.506-.44,1-.7,1.485a2.931,2.931,0,0,1-.682,1.54c-.341.462-.77.847-1.067,1.331a3.111,3.111,0,0,1-1.4,1.012,1.663,1.663,0,0,0-1.067,1.375,6,6,0,0,1-1.441.935,11.716,11.716,0,0,0-1.518.792,17.159,17.159,0,0,0-3.244,1.045c-1.32-.891-2.232-.121-3.42.341a5.636,5.636,0,0,1-3.4-.352A8.955,8.955,0,0,1,23.565,57.3a3.03,3.03,0,0,1-1.507-.814,3.729,3.729,0,0,0-1.452-.924A2.325,2.325,0,0,1,19.3,54.451a3.284,3.284,0,0,0-1.144-1.276,3.392,3.392,0,0,1-1.749-2.87,4.523,4.523,0,0,1-.242-1.639,1.624,1.624,0,0,0-.737-1.419c-.209-.473-.682-.924-.891-1.43a1.186,1.186,0,0,1,.594-1.562,1.894,1.894,0,0,1,.165-1.419,1.4,1.4,0,0,0,.055-1.364c1.265-.726.308-1.715.561-2.551.4-.781,1.023-1.4.77-2.32s.814-1.353.935-2.089c-.3-.946,1.353-.979,1-1.9.462-.539.517-1.276,1.067-1.727-1.023-1.331.649-1.133,1.078-1.562.506-.4-.231-1.573,1.067-1.419-.671-1.133.517-1.012,1.067-1.265.583-.22.187-1.144,1.012-1.133-.374-.891.935-.484.979-1,.693-.022.539-.671.913-.891a.963.963,0,0,1,.858-.748c.264-.231.528-.44.759-.649,1.5-1.122,2.463-1.595,2.782-1.3" transform="translate(144.269 208.29)" fill="#006558"/>
            <path id="Trazado_874708" data-name="Trazado 874708" d="M20.636,41.4c-.44-.022-.781-1.023-1.045-2.881-.022-.308-.055-.649-.088-1a2.44,2.44,0,0,1-.066-1.133c.6-.319-.979-.935-.022-1.265.308-.4.132-.891.011-1.4s.528-.913.088-1.518c-1-.726,1.4-.825.143-1.639a2.934,2.934,0,0,1,.242-1.76c.968-.385.319-1.188.341-1.869,1.155-.341.946-1.067.473-1.957,1.54-.209,1.595-.869.627-2.056.231-.715,1.056-1.155.825-2.133a4.749,4.749,0,0,1,1.089-2.177,1.554,1.554,0,0,1,1.386-2.188,1.592,1.592,0,0,1,.418-1.452,3.428,3.428,0,0,1,1.4-.66c.539-.11.77-.583,1.034-1.056a1.332,1.332,0,0,1,1.265-.836c.473-.242.88-.561,1.342-.836a4.853,4.853,0,0,1,1.5-.627,12.487,12.487,0,0,0,1.694.011,2.466,2.466,0,0,0,1.54-.792c1.089-.341,2.342-.682,3.409.055a1.905,1.905,0,0,1,1.836-.275,4.05,4.05,0,0,1,1.452,1.133,3.8,3.8,0,0,1,1.474.836,2.942,2.942,0,0,0,1.54.715c.836.748,2.133,1,2.639,2.144a5.334,5.334,0,0,0,2.144,2.639,1.918,1.918,0,0,1,1,1.386,5.1,5.1,0,0,0,.561,1.628,1.675,1.675,0,0,0,.3,1.683,2.509,2.509,0,0,1,.561,1.606,4.677,4.677,0,0,1-.033,1.7,3.181,3.181,0,0,0,.088,1.694,4.334,4.334,0,0,1-.781,3.244,1.1,1.1,0,0,1-.242,1.683c-.484.374-1.1.616-1.21,1.144A2.109,2.109,0,0,0,48.5,34.306a3.883,3.883,0,0,1-.847,1.2,2.265,2.265,0,0,1-1.122.869,1.49,1.49,0,0,0-.99.946c-.77.418-1.144,1.474-2.188,1.4-.319,1.133-1.737.242-2.177,1.089a8.241,8.241,0,0,1-2.122.825c-1.133-.88-1.408.341-2.056.627-.693.077-1.1,1.111-1.968.473-.66.066-1.386-.275-1.858.341-.572.308-1.54-1.463-1.76.242-.506.407-1.32-1.023-1.639.143-.352,1.078-1.045.077-1.518.088-.495.011-.957.011-1.4.022-4-.022-6.246-.594-6.279-1.221-.044-.759,2.661-1.485,7.082-2.694.451-.1.759-1.045,1.364-.4.484-.088.858-.792,1.463-.429.275-1.221.968-.429,1.529-.495.517-.187,1.166.011,1.595-.572.374-.759,1.2-.033,1.639-.649.8.484,1.32.055,1.65-.748.836.385,1.089-.627,1.65-.869,1.012.638,1.3-.308,1.584-1,.33-.638,1.122-.561,1.485-1.144a1.752,1.752,0,0,0,.682-.616,1.725,1.725,0,0,1,.6-.682,1.933,1.933,0,0,1,.231-.946,1.03,1.03,0,0,1,.792-.484,1.374,1.374,0,0,1,.264-.8,3.679,3.679,0,0,0,.407-.726,1.215,1.215,0,0,1,.088-.825,1.6,1.6,0,0,0,.22-.8c-.088-.286.209-.539.363-.847s.176-.638-.451-.847a2.967,2.967,0,0,1-.165-.88,1.812,1.812,0,0,0-.341-.858,2.171,2.171,0,0,0-.9-1.683c.572-1.21-.506-1.386-1.265-1.54a3.54,3.54,0,0,1-1.54-1.265c-.6-.253-1.122-.616-1.683-.9a1.225,1.225,0,0,1-.858-.352c-.264-.154-.55-.352-.869-.143a.83.83,0,0,1-.858-.1c-.275-.143-.583-.253-.836,0a2.869,2.869,0,0,1-.759.44,1.231,1.231,0,0,1-.869-.132,3.5,3.5,0,0,1-.946-.033c-.319.011-.6.165-.594.715a6.965,6.965,0,0,0-.308,1c-.121.308-.363.4-1.122.022-.077.363-.418.429-.748.539-.308.143-.6.308-.539.748-1.309-.187-.814.99-1.144,1.485-.528.4-1.166.814-1,1.584.231.8-.8,1-.869,1.65.418.814-1.276.825-.748,1.661-.319.528-.286,1.133-.649,1.628,1.364.979-.308,1.078-.572,1.595-.33.495.781,1.276-.484,1.54,1.034.737-.033,1.023-.44,1.452s.319,1.023-.4,1.375c.759.561-.583.814-.352,1.265-.6.352-.143.8-.33,1.166a.905.905,0,0,1-.286,1.056c-.1.33-.2.638-.286.924-.506,1.738-.99,2.694-1.43,2.672" transform="translate(190.943 97.925)" fill="#006558"/>
            <path id="Trazado_874709" data-name="Trazado 874709" d="M41.126,20.936c.022.44-.935.924-2.672,1.43-.3.088-.6.187-.924.286a2.534,2.534,0,0,1-1.056.3c-.462-.539-.649,1.144-1.177.319-.44-.2-.847.1-1.265.352s-.979-.209-1.375.4c-.275,1.2-1.221-1.056-1.463.44a2.4,2.4,0,0,1-1.529.495c-.748-.7-1.089.275-1.606.572-.847-.858-1.3-.209-1.639.649-1.034-1.166-1.584-.693-1.661.748-.55.264-1.353.044-1.661.869A4.151,4.151,0,0,1,21.508,28.8c-.055,1.122-.484,1.408-1.5,1.144.088.594-.033.891-.286,1.056a2.019,2.019,0,0,1-1.012.242c-.418.033-.44.429-.484.77s-.033.66-.55.682a2.814,2.814,0,0,0-.363.781,2.458,2.458,0,0,1-.33.781,1.777,1.777,0,0,0-.7.693c-.132.286-.033.627.385.957.22.594.539,1.067.1,1.715.561.22.792.429.792.726a2.96,2.96,0,0,1-.275,1.034c.363.484.033,1.452.9,1.7.242.671,1.166.748,1.287,1.551.242.693.638,1.441,1.551,1.276a.827.827,0,0,1,.913.374c.22.253.451.561.792.539.11.616.473.6.814.561.352-.1.682-.242.935-.044a2.982,2.982,0,0,1,.88.264.7.7,0,0,0,.847-.165,7.686,7.686,0,0,1,.781-.341,1.509,1.509,0,0,1,.88.022c0-.8.22-.847.583-.715.352.11.8.308.968.022a.744.744,0,0,0,.858-.33,1.787,1.787,0,0,1,.594-.7c.11-.319.451-.4.77-.528a.759.759,0,0,0,.539-.77c.473-.44.319-1.265,1.144-1.5-.33-.891,1.188-.77,1.012-1.584a8.245,8.245,0,0,1,.869-1.66c1.342-.132.66-1.067.748-1.661.3-.539-.286-1.309.649-1.639.242-.528.924-.946.572-1.595-.055-.572,1.968-.693.495-1.54-.165-.55,1.419-.781.44-1.463-.9-.649.3-.913.4-1.375.121-.44.242-.858.352-1.265,1-3.673,1.661-5.861,2.331-5.817.693.033,1.331,2.8,1.2,7.687,0,.473.737,1.122-.077,1.518-.11.517.462,1.188-.154,1.65.979.792-.044,1.177-.231,1.748-.088.616-.616,1.122-.352,1.869.462.825-.715,1.177-.473,1.968-.858.44-.968,1.133-.627,2.056-.9.429-.473,1.441-.836,2.144-1.3.231-.979,1.243-1.089,2.188s-1.078,1.331-1.408,2.188a4.121,4.121,0,0,0-.858,1.078,3.8,3.8,0,0,1-.968,1.045,3.428,3.428,0,0,1-.836,1.32,2.532,2.532,0,0,1-1.485.594,3.612,3.612,0,0,1-1.309.913c-.506.2-1.012.385-1.54.55a2.9,2.9,0,0,1-1.573.6c-.572.1-1.144.055-1.7.187a2.977,2.977,0,0,1-1.694-.275,1.708,1.708,0,0,0-1.727.22A5.537,5.537,0,0,1,21.76,51.9a11.676,11.676,0,0,0-1.628-.517A17.591,17.591,0,0,0,17.1,49.825c-.3-1.562-1.5-1.661-2.661-2.166a5.6,5.6,0,0,1-2.155-2.65,9.159,9.159,0,0,1-1.562-3.035,3,3,0,0,1-.495-1.65,3.71,3.71,0,0,0-.374-1.671,2.26,2.26,0,0,1-.132-1.716,3.208,3.208,0,0,0,.077-1.7,3.428,3.428,0,0,1,.792-3.266,4.519,4.519,0,0,1,.99-1.331,1.617,1.617,0,0,0,.484-1.529c.2-.473.176-1.133.385-1.639a1.179,1.179,0,0,1,1.518-.682,1.981,1.981,0,0,1,1.122-.891c.462-.176.869-.374,1.012-.924,1.408.385,1.43-1,2.188-1.408.836-.275,1.715-.264,2.188-1.089s1.54-.385,2.144-.825c.451-.88,1.65.264,2.056-.638.7-.055,1.276-.539,1.968-.462.22-1.672,1.265-.341,1.869-.352.638.088.957-1.265,1.76-.231.319-1.287,1.067-.363,1.639-.154.583.253.946-.682,1.529-.088.363-.88,1.012.33,1.4-.011.506.484.858-.088,1.276.022a.962.962,0,0,1,1.133.066c.352.033.682.066,1,.088,1.847.264,2.859.6,2.881,1.045" transform="translate(96.126 192.924)" fill="#006558"/>
            <path id="Trazado_874710" data-name="Trazado 874710" d="M20.722,30.2c-.286-.319.176-1.287,1.309-2.771.2-.242.407-.495.638-.77a2.654,2.654,0,0,1,.748-.858c.66.2-.011-1.353.88-.913.506-.055.737-.528,1-.968.264-.462,1.012-.286,1.133-1.012-.187-1.232,1.573.407,1.276-1.067a2.788,2.788,0,0,1,1.408-1.067c.957.418,1.067-.616,1.551-1.078,1.056.572,1.43-.088,1.726-1.056,1.232.946,1.748.517,1.9-1.012.66-.33,1.562-.066,2.078-.924a4.851,4.851,0,0,1,2.309-.77,1.563,1.563,0,0,1,2.54-.561,1.543,1.543,0,0,1,1.32-.737,3.427,3.427,0,0,1,1.452.528,1.692,1.692,0,0,0,1.474-.022,1.345,1.345,0,0,1,1.5.308c.495.154,1.012.231,1.529.352A4.736,4.736,0,0,1,50,16.42a12.393,12.393,0,0,0,1.188,1.21,2.542,2.542,0,0,0,1.661.528c1,.517,2.133,1.177,2.364,2.441a1.886,1.886,0,0,1,1.485,1.1,3.749,3.749,0,0,1,.231,1.825,3.886,3.886,0,0,1,.451,1.639,2.865,2.865,0,0,0,.583,1.595c.066,1.122.8,2.221.352,3.387a5.364,5.364,0,0,0-.352,3.387,1.988,1.988,0,0,1-.275,1.694,5.094,5.094,0,0,0-.759,1.529,1.752,1.752,0,0,0-.979,1.4c-.154.561-.231,1.2-.737,1.54a4.691,4.691,0,0,1-1.232,1.188,3.242,3.242,0,0,0-1.133,1.265A4.313,4.313,0,0,1,50,43.869a1.1,1.1,0,0,1-1.353,1.023c-.6-.066-1.21-.341-1.672-.044a2.141,2.141,0,0,0-1.529.033,3.522,3.522,0,0,1-1.452.253,2.209,2.209,0,0,1-1.4-.176,1.48,1.48,0,0,0-1.375-.033c-.836-.253-1.847.242-2.529-.55-1.034.561-1.408-1.067-2.309-.77a8.942,8.942,0,0,1-2.089-.924c-.176-1.43-1.243-.759-1.891-1.012-.55-.44-1.562,0-1.727-1.056-.517-.418-.792-1.177-1.562-1.078-.616-.176-.055-2.122-1.408-1.067-.649-.066-.22-1.661-1.265-1.056-1,.506-.781-.693-1.133-1.023s-.682-.66-1.012-.968c-2.8-2.848-3.992-4.839-3.574-5.311.506-.561,2.936.847,6.906,3.112.407.242,1.287-.2,1.254.693.407.275,1.166.044,1.331.726,1.056-.671,1,.385,1.441.726.495.242.814.825,1.529.726.8-.275.88.825,1.617.693.22.913.9.979,1.7.649.308.869,1.2.319,1.771.55.275,1.166,1.144.693,1.836.407.682-.209,1.188.4,1.847.242a1.877,1.877,0,0,0,.924.044,1.8,1.8,0,0,1,.9-.055,1.824,1.824,0,0,1,.836-.495.994.994,0,0,1,.9.22,1.426,1.426,0,0,1,.77-.385,3.857,3.857,0,0,0,.792-.231,1.131,1.131,0,0,1,.649-.517,1.824,1.824,0,0,0,.726-.407c.132-.275.528-.242.847-.352s.572-.33.286-.924a2.658,2.658,0,0,1,.495-.726,1.589,1.589,0,0,0,.363-.847,2.18,2.18,0,0,0,.561-1.836c1.254-.451.627-1.342.2-1.979a3.5,3.5,0,0,1-.2-1.979c-.253-.6-.363-1.232-.561-1.825a1.224,1.224,0,0,1-.341-.858c-.077-.3-.154-.638-.517-.726s-.44-.374-.539-.671-.231-.594-.6-.594a2.66,2.66,0,0,1-.836-.22,1.259,1.259,0,0,1-.528-.7,3.584,3.584,0,0,1-.638-.693.588.588,0,0,0-.924.077,5.836,5.836,0,0,0-.935.495c-.3.132-.528.022-.8-.781-.308.209-.594.011-.913-.132s-.649-.231-.913.132c-.781-1.045-1.265.121-1.847.242-.66-.1-1.408-.242-1.836.407-.407.737-1.276.143-1.782.561-.275.869-1.474-.319-1.694.638-.594.154-1.012.6-1.617.7.275,1.65-.979.539-1.529.726-.594.1-.352,1.441-1.441.737.22,1.254-.748.7-1.331.715-.6.011-.495.946-1.254.693.143.935-.979.165-1.144.649-.671-.187-.671.462-1.045.594a.921.921,0,0,1-.957.539c-.308.154-.594.308-.858.451-1.584.869-2.606,1.2-2.9.88" transform="translate(206.33 146.348)" fill="#006558"/>
            <path id="Trazado_874711" data-name="Trazado 874711" d="M45.53,30.4c-.3.33-1.309-.011-2.9-.88-.264-.143-.55-.3-.858-.451a2.59,2.59,0,0,1-.957-.539c.066-.693-1.265.352-1.056-.594-.165-.462-.671-.539-1.144-.66s-.539-.836-1.254-.682c-1.023.649-.11-1.617-1.342-.726a2.376,2.376,0,0,1-1.43-.737c-.033-1.023-.968-.572-1.529-.726,0-1.21-.781-1.067-1.628-.7.1-1.551-.627-1.606-1.7-.649-.572-.2-.99-.924-1.781-.561a4.057,4.057,0,0,1-1.847-.407c-.825.759-1.331.649-1.858-.242-.374.484-.66.6-.957.539a2.122,2.122,0,0,1-.891-.539c-.319-.275-.6-.011-.88.2s-.495.44-.869.088a3.031,3.031,0,0,0-.814.308,2.517,2.517,0,0,1-.781.308,1.777,1.777,0,0,0-.99,0c-.3.1-.473.418-.4.946-.286.583-.385,1.133-1.155,1.287.253.539.264.858.055,1.067-.165.231-.561.341-.935.528-.088.616-1,1.056-.561,1.858-.308.638.286,1.353-.2,2-.308.66-.561,1.463.2,2a.819.819,0,0,1,.385.9c-.022.341-.077.715.176.946a.6.6,0,0,0,.176.968c.33.176.66.308.7.638a2.647,2.647,0,0,1,.418.8.731.731,0,0,0,.737.484,7.425,7.425,0,0,1,.792.319,1.433,1.433,0,0,1,.594.627c.561-.572.748-.44.924-.088.165.319.352.781.66.7a.773.773,0,0,0,.847.363,1.75,1.75,0,0,1,.913-.077c.308-.143.6.044.924.176a.765.765,0,0,0,.924-.165c.649.033,1.122-.671,1.858-.242.407-.869,1.4.286,1.847-.418a8.17,8.17,0,0,1,1.781-.55c1.045.847,1.221-.3,1.7-.649.594-.165.726-1.122,1.617-.7.55-.2,1.32-.011,1.54-.715.363-.451,1.869.9,1.43-.737.275-.517,1.551.44,1.342-.726-.176-1.1.869-.44,1.254-.693.4-.231.781-.44,1.144-.649,3.3-1.891,5.311-2.98,5.773-2.474s-1.045,2.936-4.586,6.29c-.341.341-.275,1.32-1.133,1.012-.44.3-.517,1.166-1.276,1.067.132,1.254-.869.8-1.408,1.078-.495.363-1.232.352-1.562,1.067-.253.913-1.331.33-1.737,1.056-.913-.3-1.485.121-1.9,1.023-.924-.341-1.331.671-2.089.913-1.089-.759-1.573.187-2.32.781s-1.7.187-2.551.561a4.121,4.121,0,0,0-1.364.143,3.847,3.847,0,0,1-1.419.066,3.457,3.457,0,0,1-1.529.33,2.45,2.45,0,0,1-1.463-.627,3.707,3.707,0,0,1-1.584-.275c-.495-.231-.99-.44-1.474-.7a2.812,2.812,0,0,1-1.54-.682c-.462-.341-.847-.77-1.331-1.078a3.02,3.02,0,0,1-1.012-1.386,1.663,1.663,0,0,0-1.375-1.067A5.689,5.689,0,0,1,9.944,38.6a12.469,12.469,0,0,0-.792-1.518A16.909,16.909,0,0,0,8.108,33.84c.891-1.32.121-2.232-.352-3.42a5.724,5.724,0,0,1,.363-3.4,9.022,9.022,0,0,1,1.034-3.255,3.031,3.031,0,0,1,.814-1.507,3.535,3.535,0,0,0,.924-1.452A2.291,2.291,0,0,1,12,19.5a3.362,3.362,0,0,0,1.276-1.144,3.388,3.388,0,0,1,2.859-1.749,4.6,4.6,0,0,1,1.639-.242,1.588,1.588,0,0,0,1.419-.748c.484-.2.935-.671,1.441-.88a1.186,1.186,0,0,1,1.562.594,1.894,1.894,0,0,1,1.419.165,1.4,1.4,0,0,0,1.364.055c.726,1.265,1.726.308,2.54.561.792.4,1.408,1.023,2.32.77s1.353.814,2.1.935c.935-.3.979,1.353,1.9,1.012.539.451,1.276.517,1.726,1.056,1.331-1.023,1.133.649,1.562,1.078.4.517,1.573-.22,1.419,1.078,1.133-.682,1.012.506,1.265,1.056.231.583,1.144.187,1.133,1.012.88-.374.484.946,1,.979.022.7.671.539.88.913a.973.973,0,0,1,.759.858c.231.264.44.528.638.77,1.133,1.485,1.595,2.452,1.309,2.771" transform="translate(76.26 146.293)" fill="#006558"/>
            <path id="Trazado_874712" data-name="Trazado 874712" d="M20.663,20.843c.022-.429,1.034-.781,2.881-1.045.308-.022.649-.055.99-.088a2.506,2.506,0,0,1,1.144-.066c.319.6.935-.979,1.265-.033.4.319.891.143,1.4.033.517-.143.913.517,1.518.077.726-1,.814,1.408,1.639.143a2.934,2.934,0,0,1,1.759.242c.385.968,1.188.319,1.858.341.341,1.155,1.078.946,1.968.473.209,1.54.869,1.595,2.056.627.7.231,1.155,1.056,2.133.825a4.915,4.915,0,0,1,2.177,1.089,1.556,1.556,0,0,1,2.188,1.386,1.592,1.592,0,0,1,1.452.418,3.278,3.278,0,0,1,.649,1.4c.121.539.594.77,1.067,1.034a1.332,1.332,0,0,1,.836,1.265c.231.473.561.891.836,1.342a4.853,4.853,0,0,1,.627,1.5,12.48,12.48,0,0,0-.011,1.694,2.481,2.481,0,0,0,.8,1.551,3.775,3.775,0,0,1-.066,3.4,1.905,1.905,0,0,1,.275,1.836,4.051,4.051,0,0,1-1.133,1.452,3.721,3.721,0,0,1-.836,1.474,2.942,2.942,0,0,0-.715,1.54c-.748.836-1,2.133-2.144,2.639a5.3,5.3,0,0,0-2.639,2.155,1.933,1.933,0,0,1-1.386.99,5.01,5.01,0,0,0-1.628.561,1.727,1.727,0,0,0-1.683.3,2.448,2.448,0,0,1-1.606.561,4.676,4.676,0,0,1-1.7-.033A3.18,3.18,0,0,0,34.937,52a4.334,4.334,0,0,1-3.244-.781,1.1,1.1,0,0,1-1.683-.242c-.385-.484-.616-1.1-1.144-1.21a2.148,2.148,0,0,0-1.111-1.056,3.758,3.758,0,0,1-1.2-.847,2.266,2.266,0,0,1-.869-1.122,1.49,1.49,0,0,0-.946-.99c-.418-.77-1.485-1.133-1.4-2.188-1.133-.319-.242-1.737-1.089-2.177a8.241,8.241,0,0,1-.825-2.122c.88-1.133-.341-1.408-.627-2.056-.077-.693-1.1-1.1-.473-1.968-.077-.649.275-1.386-.341-1.858-.319-.561,1.463-1.54-.242-1.759-.407-.506,1.023-1.32-.143-1.639-1.078-.352-.077-1.045-.088-1.518s-.022-.957-.022-1.4c.022-4,.594-6.246,1.221-6.279.759-.044,1.485,2.661,2.683,7.082.11.451,1.045.759.4,1.364.088.484.814.858.44,1.463,1.21.275.429.979.495,1.529.176.517-.011,1.166.572,1.595.759.374.033,1.2.649,1.639-.484.8-.055,1.32.748,1.661-.4.825.627,1.078.858,1.639-.627,1.023.319,1.3,1.012,1.584.638.33.561,1.133,1.133,1.485a1.862,1.862,0,0,0,.627.682,1.813,1.813,0,0,1,.682.6,1.849,1.849,0,0,1,.946.231,1,1,0,0,1,.473.792,1.318,1.318,0,0,1,.814.275,3.973,3.973,0,0,0,.737.4,1.17,1.17,0,0,1,.825.1,1.778,1.778,0,0,0,.792.22c.286-.1.539.2.847.352s.638.176.847-.451a2.967,2.967,0,0,1,.88-.165,1.746,1.746,0,0,0,.858-.341,2.155,2.155,0,0,0,1.683-.9c1.2.572,1.386-.506,1.54-1.265a3.617,3.617,0,0,1,1.265-1.54c.242-.6.616-1.122.891-1.683a1.192,1.192,0,0,1,.363-.847c.154-.264.352-.561.143-.88a.832.832,0,0,1,.1-.858c.143-.275.253-.583,0-.836a3,3,0,0,1-.44-.748,1.254,1.254,0,0,1,.132-.88,3.5,3.5,0,0,1,.033-.946c-.011-.319-.165-.6-.715-.594a6.963,6.963,0,0,0-1-.308c-.308-.121-.4-.363-.022-1.122-.363-.066-.429-.418-.55-.748-.132-.308-.3-.6-.737-.539.187-1.3-.99-.814-1.485-1.144-.4-.528-.814-1.155-1.584-1-.8.231-1-.8-1.65-.869-.814.418-.825-1.276-1.661-.748-.528-.319-1.133-.286-1.628-.649-.979,1.364-1.078-.308-1.595-.561-.495-.341-1.276.77-1.54-.495-.737,1.034-1.023-.033-1.463-.44-.418-.418-1.012.319-1.364-.4-.572.759-.814-.583-1.265-.352-.352-.6-.814-.143-1.177-.319a.894.894,0,0,1-1.045-.3c-.33-.1-.638-.2-.924-.286-1.738-.506-2.694-.99-2.672-1.43" transform="translate(191.015 192.963)" fill="#006558"/>
            <path id="Trazado_874713" data-name="Trazado 874713" d="M41.03,41.324c-.429.022-.924-.935-1.43-2.672l-.286-.935a2.248,2.248,0,0,1-.286-1.045c.528-.451-1.155-.649-.33-1.166.2-.451-.1-.858-.352-1.276s.209-.979-.4-1.375c-1.188-.264,1.056-1.221-.429-1.463a2.36,2.36,0,0,1-.506-1.54c.715-.737-.275-1.078-.572-1.595.858-.847.209-1.3-.649-1.639,1.177-1.034.693-1.584-.748-1.661-.264-.55-.033-1.353-.858-1.661a4.066,4.066,0,0,1-1.012-1.584c-1.122-.055-1.419-.495-1.155-1.5-.594.077-.891-.044-1.056-.3a2.142,2.142,0,0,1-.242-1.012c-.033-.418-.429-.44-.759-.484-.363-.033-.671-.033-.682-.55a3.037,3.037,0,0,0-.792-.363,2.542,2.542,0,0,1-.781-.319,1.676,1.676,0,0,0-.693-.715c-.286-.132-.616-.033-.946.385-.6.22-1.078.539-1.727.1-.209.561-.429.8-.715.792a2.776,2.776,0,0,1-1.045-.286c-.495.374-1.452.044-1.7.913-.671.242-.748,1.166-1.551,1.287-.693.242-1.441.638-1.276,1.551a.831.831,0,0,1-.363.913c-.264.22-.572.451-.55.792-.616.11-.6.473-.55.814.088.352.242.682.033.946a2.5,2.5,0,0,1-.264.858.733.733,0,0,0,.165.869,6.007,6.007,0,0,1,.341.781,1.436,1.436,0,0,1-.022.858c.8.011.847.231.7.594-.11.352-.3.8-.022.968a.779.779,0,0,0,.341.858,1.787,1.787,0,0,1,.7.594c.33.11.4.451.528.77.154.3.341.583.77.539.44.484,1.276.319,1.5,1.144.9-.33.781,1.188,1.595,1.012a8.758,8.758,0,0,1,1.65.869c.132,1.342,1.067.66,1.661.748.539.3,1.309-.275,1.639.649.528.242.946.924,1.606.572.561-.055.682,1.968,1.529.495.561-.165.781,1.419,1.463.44.66-.9.924.3,1.375.4l1.265.352c3.673,1,5.861,1.65,5.828,2.331s-2.815,1.342-7.687,1.21c-.484-.011-1.133.737-1.529-.088-.506-.11-1.177.462-1.639-.143-.792.968-1.188-.055-1.759-.242-.616-.088-1.122-.616-1.869-.352-.814.473-1.177-.7-1.968-.473-.44-.858-1.133-.968-2.056-.627-.418-.9-1.43-.473-2.144-.825-.22-1.309-1.243-.99-2.177-1.1s-1.342-1.078-2.2-1.4a3.787,3.787,0,0,0-1.078-.869,3.93,3.93,0,0,1-1.045-.957,3.679,3.679,0,0,1-1.32-.847,2.5,2.5,0,0,1-.594-1.485A3.751,3.751,0,0,1,11,31.878c-.187-.506-.385-1.012-.55-1.54a2.87,2.87,0,0,1-.6-1.573c-.088-.561-.055-1.144-.187-1.694a3.2,3.2,0,0,1,.275-1.7,1.683,1.683,0,0,0-.22-1.727,5.751,5.751,0,0,1,.363-1.672,12.262,12.262,0,0,0,.506-1.639A17.2,17.2,0,0,0,12.142,17.3c1.562-.3,1.661-1.5,2.166-2.661a5.71,5.71,0,0,1,2.65-2.155,9.158,9.158,0,0,1,3.035-1.562,3.015,3.015,0,0,1,1.639-.495,3.724,3.724,0,0,0,1.683-.374,2.316,2.316,0,0,1,1.716-.132,3.207,3.207,0,0,0,1.7.077A3.433,3.433,0,0,1,30,10.8a4.3,4.3,0,0,1,1.331.979,1.592,1.592,0,0,0,1.529.484c.473.2,1.133.176,1.65.385a1.2,1.2,0,0,1,.671,1.529,1.882,1.882,0,0,1,.891,1.111c.187.462.374.869.924,1.012-.385,1.408,1,1.43,1.408,2.2.275.825.264,1.715,1.089,2.177.836.484.385,1.54.836,2.144.869.451-.275,1.65.627,2.056.055.7.539,1.276.462,1.968,1.672.22.341,1.265.352,1.869-.088.638,1.265.957.242,1.76,1.276.319.363,1.078.143,1.65-.253.572.682.935.088,1.518.891.363-.319,1,.022,1.4-.484.506.077.858-.022,1.276a.98.98,0,0,1-.077,1.133c-.033.352-.066.682-.088,1-.253,1.858-.6,2.859-1.045,2.881" transform="translate(96.1 98.153)" fill="#006558"/>
          </g>
        </g>
      </g>
      <g id="Grupo_1099041" data-name="Grupo 1099041" transform="translate(-8726.221 -13034.13) rotate(146)" style="isolation: isolate">
        <g id="Grupo_1099036" data-name="Grupo 1099036" transform="translate(96.463 46.233)">
          <g id="Grupo_1099035" data-name="Grupo 1099035" transform="translate(0 0)" clip-path="url(#clip-path-8)">
            <path id="Trazado_873023" data-name="Trazado 873023" d="M711.43.549C688.481,185.7,627.575,205.511,504.7,215.263s-99.905,138.627-296.661,46.7S.043,55.719.043,55.719" transform="translate(106.357 40.904)" fill="#ff9751" stroke="#f1e8d5" stroke-linecap="round" stroke-linejoin="round" stroke-width="1"/>
            <path id="Trazado_873024" data-name="Trazado 873024" d="M208.155.161s123.45,119.882,44.25,182.874S.057,73.469.057,73.469" transform="translate(336.321 -44.588)" fill="#ff9751" stroke="#f1e8d5" stroke-linecap="round" stroke-linejoin="round" stroke-width="1"/>
          </g>
        </g>
      </g>
      <path id="Trazado_874714" data-name="Trazado 874714" d="M111.909,251.449c0-.185.974-.363,2.754-.527q.445-.04.957-.082a5.371,5.371,0,0,1,1.086-.079c.383.246.788-.454,1.213-.075a3.186,3.186,0,0,0,1.333-.073c.462-.087.946.155,1.447-.072.5-.476,1.023.531,1.561-.068a5.85,5.85,0,0,1,1.666-.062c.574.364,1.163,0,1.769-.062a1.7,1.7,0,0,0,1.868-.057,1.317,1.317,0,0,0,1.959-.055,5.758,5.758,0,0,0,2.049-.049,10.309,10.309,0,0,1,2.133-.046,2.31,2.31,0,0,1,2.208-.041,1.928,1.928,0,0,1,.568-.221,2.045,2.045,0,0,1,.283-.042c.046,0,.1-.006.144-.006l.241,0a12.787,12.787,0,0,1,2.041.229,7.89,7.89,0,0,0,2.162-.057,5.616,5.616,0,0,1,2.107.023c.408.009.848,0,1.3-.007l.335-.006.243.012.5.018c-.51.378-1.213.891-1.944,1.382-.492.308-.989.618-1.481.923l-.661.431a6.433,6.433,0,0,0-.572.4,10.647,10.647,0,0,0-.871.781c-.064.07-.13.138-.2.208-.048.066-.083.132-.125.2-.079.138-.153.28-.224.432l-.318.411-.079.1-.04.05-.017.031-.071.125c-.094.166-.192.329-.3.485a5.1,5.1,0,0,1-.325.466c-.061.073-.124.145-.193.215s-.132.143-.206.213a3.324,3.324,0,0,1-1,2.1,3.048,3.048,0,0,1-.2.553c-.075.183-.151.369-.226.552a2.586,2.586,0,0,0-.175.571,1.956,1.956,0,0,0-.03.607,4.047,4.047,0,0,0-.094.592,1.928,1.928,0,0,0-.015.3l-.009.474a16.065,16.065,0,0,1-.186,2.468l-.009.072c0,.009,0,.028-.01.03l-.042,0-.167-.013-.329-.025-.642-.046c-.421-.028-.825-.049-1.222-.058-.2,0-.395-.006-.59,0l-.1,0-.084.006-.165.013a3.6,3.6,0,0,0-.667.134c-.886.295-1.766-.123-2.638-.009-.872-.431-1.736.142-2.592-.013a11.466,11.466,0,0,0-2.537-.02,7.746,7.746,0,0,1-2.485-.023c-.817.664-1.625-.171-2.421-.028-.8-.281-1.582.042-2.357-.033-.774.124-1.535-.307-2.285-.036a8.245,8.245,0,0,1-2.211-.042c-.725.329-1.438-.28-2.133-.047a20.261,20.261,0,0,1-2.048-.049c-.669-.519-1.324-.089-1.961-.055-.637-.055-1.261.295-1.867-.057a4.224,4.224,0,0,0-1.77-.061c-.572.076-1.127-.755-1.666-.064-.539.123-1.06-.531-1.561-.068-.5.427-.984-.053-1.447-.069l-1.333-.074c-3.82-.225-6.006-.487-6.006-.764,0-.31,2.7-.6,7.34-.839.463-.024.946-.386,1.447-.072.5,0,1.022-.275,1.561-.066.538-.481,1.093-.089,1.666-.064a6.321,6.321,0,0,0,1.77-.063c.606-.279,1.23.14,1.867-.057a2.37,2.37,0,0,0,1.961-.053c.667.287,1.351-.062,2.048-.051.7.444,1.409.132,2.133-.046.724-.162,1.46.066,2.211-.041.75.084,1.511-.114,2.285-.038a4.113,4.113,0,0,1,2.357-.034,14.042,14.042,0,0,1,2.421-.028,15.764,15.764,0,0,1,2.485-.022c.836-.094,1.683.472,2.537-.02.855-.062,1.72.078,2.592-.013a11.886,11.886,0,0,0,2.638-.007,2.072,2.072,0,0,0,.667.228,2.531,2.531,0,0,0,.316.032.2.2,0,0,0,.087-.012.174.174,0,0,0,.1-.26c-.064-.119-.08-.134-.067-.183l0-.016.025-.177a3.249,3.249,0,0,1,.065-.364l.164-.719a11.391,11.391,0,0,1,.793-2.8,22.952,22.952,0,0,1,1.255-2.563,2.535,2.535,0,0,1,.137-.33,3.526,3.526,0,0,1,.189-.3,6.767,6.767,0,0,1,.448-.543c.307-.316.729-.783.661-.839l.02-.1.009-.044-.009-.016c-.012-.019-.024-.03-.017-.04a1.723,1.723,0,0,1,.351-.128,4.534,4.534,0,0,1,.422-.2l.2-.1.077-.041c.01-.01-.015-.006-.031-.006a2.3,2.3,0,0,0-.559.176,2.581,2.581,0,0,0-.582.271c-.105.064.022.032.2-.306-.126.085-.124,0-.216-.061l-.015-.013-.01-.006-.033-.006-.144-.021c-.094-.011-.189-.018-.283-.02a1.507,1.507,0,0,0-.568.091c-.748-.493-1.485-.024-2.208-.042a4.969,4.969,0,0,0-2.133-.045c-.7.236-1.382-.128-2.049-.05-.669.282-1.321-.369-1.959-.054-.638-.064-1.262.043-1.868-.057-.606.664-1.195,0-1.769-.061-.574-.1-1.13.442-1.666-.063-.538.5-1.059.068-1.561-.068s-.985.211-1.447-.07c-.465.354-.91-.2-1.333-.075-.425-.233-.83-.013-1.213-.075a1.9,1.9,0,0,1-1.086-.079l-.957-.079c-1.78-.167-2.754-.344-2.754-.531" transform="translate(-10210.208 -13382.85)" fill="#fff"/>
      <g id="Grupo_1099916" data-name="Grupo 1099916" transform="translate(-9463.097 -12968.797)">
        <g id="Grupo_1099067" data-name="Grupo 1099067" transform="translate(0 0)" clip-path="url(#clip-path-9)">
          <path id="Trazado_873495" data-name="Trazado 873495" d="M94.106,1c5.572,0,5.572,7.134,11.142,7.134S110.821,1,116.395,1s5.574,7.134,11.149,7.134S133.116,1,138.689,1s5.577,7.134,11.154,7.134S155.421,1,161,1" transform="translate(17.333 0.185)" fill="none" stroke="#fff" stroke-miterlimit="10" stroke-width="4"/>
        </g>
      </g>
      <g id="Grupo_1099917" data-name="Grupo 1099917" transform="translate(-9461.598 -12959.295)">
        <g id="Grupo_1099067-2" data-name="Grupo 1099067" transform="translate(0 0)" clip-path="url(#clip-path-9)">
          <path id="Trazado_873495-2" data-name="Trazado 873495" d="M94.106,1c5.572,0,5.572,7.134,11.142,7.134S110.821,1,116.395,1s5.574,7.134,11.149,7.134S133.116,1,138.689,1s5.577,7.134,11.154,7.134S155.421,1,161,1" transform="translate(17.333 0.185)" fill="none" stroke="#fff" stroke-miterlimit="10" stroke-width="4"/>
        </g>
      </g>
      <g id="Grupo_1099918" data-name="Grupo 1099918" transform="translate(-9431.334 -12873.215) rotate(180)">
        <g id="Grupo_1099918-2" data-name="Grupo 1099918" transform="translate(0 0)" clip-path="url(#clip-path-11)">
          <path id="Trazado_874715" data-name="Trazado 874715" d="M30.318,0h0A30.317,30.317,0,0,0,0,30.318,30.318,30.318,0,0,0,30.318,0Z" transform="translate(0 0)" fill="#fff"/>
          <path id="Trazado_874716" data-name="Trazado 874716" d="M30.318,31.9h0A30.317,30.317,0,0,0,0,62.214,30.318,30.318,0,0,0,30.318,31.9Z" transform="translate(0 -1.639)" fill="#fff"/>
          <path id="Trazado_874717" data-name="Trazado 874717" d="M30.318,63.793h0A30.317,30.317,0,0,0,0,94.111,30.318,30.318,0,0,0,30.318,63.793Z" transform="translate(0 -3.279)" fill="#fff"/>
          <path id="Trazado_874718" data-name="Trazado 874718" d="M31.847,0h0A30.318,30.318,0,0,1,62.165,30.318,30.318,30.318,0,0,1,31.847,0Z" transform="translate(-1.637 0)" fill="#fff"/>
          <path id="Trazado_874719" data-name="Trazado 874719" d="M31.847,31.9h0A30.318,30.318,0,0,1,62.165,62.214,30.318,30.318,0,0,1,31.847,31.9Z" transform="translate(-1.637 -1.639)" fill="#fff"/>
          <path id="Trazado_874720" data-name="Trazado 874720" d="M31.847,63.793h0A30.318,30.318,0,0,1,62.165,94.111,30.318,30.318,0,0,1,31.847,63.793Z" transform="translate(-1.637 -3.279)" fill="#fff"/>
        </g>
      </g>
      <g id="Grupo_1099923" data-name="Grupo 1099923" transform="matrix(-0.921, -0.391, 0.391, -0.921, -10469.534, -12565.141)">
        <g id="Grupo_1099920" data-name="Grupo 1099920">
          <g id="Grupo_1099919" data-name="Grupo 1099919" clip-path="url(#clip-path-12)">
            <path id="Trazado_874721" data-name="Trazado 874721" d="M80.02,16.185S-69.009,239.727,159.856,383.433,532.427,266.341,532.427,266.341Z" transform="translate(69.327 34.701)" fill="#02dd84"/>
          </g>
        </g>
        <g id="Grupo_1099922" data-name="Grupo 1099922" transform="translate(101.664 50.883)">
          <g id="Grupo_1099921" data-name="Grupo 1099921" clip-path="url(#clip-path-13)">
            <path id="Trazado_874722" data-name="Trazado 874722" d="M266.942,27.4C239.63,75.586,205.119,119.152,168.7,160.719c-36.458,41.608-74.944,81.389-111.251,123.132C37.345,306.963,17.934,330.7.1,355.619c-.494.692,1.025.528,1.283.418,28.2-11.969,46-36.235,66.3-57.925,23.737-25.353,47.116-50.826,72.391-74.7,25.561-24.143,52.165-47.157,79.2-69.63,27.1-22.527,55.127-43.916,80.518-68.4C328.766,57.442,355.745,27.473,386.028.9L384.286.859C355.179,65.3,311.226,121.715,264.424,174.2c-48.616,54.517-101.1,105.419-150.079,159.593C88.048,362.876,62.736,392.929,40.124,425c-.478.679,1.009.553,1.283.418,62.644-30.88,118.862-73.378,169.751-120.947,52.6-49.166,99.829-103.856,144.128-160.527,24.363-31.167,47.842-63.009,70.894-95.153-.6-.013-1.2-.028-1.8-.041-29.739,52.989-66.087,101.882-103.212,149.859-37.3,48.21-75.711,95.666-109.993,146.115-18.682,27.488-36.065,55.888-50.967,85.611-.462.918,1.38.4,1.676.182,55.441-41.265,114.536-77.283,172.575-114.706C393.19,277.94,451.386,238.618,503.7,192.09c29.032-25.822,56.1-53.876,79.921-84.6.572-.739-1.254-.45-1.5-.308-42.479,24.724-82.389,53.659-120.689,84.4C422.986,222.436,385.7,255,349.79,288.768c-25.476,23.951-51.769,47-77.563,70.6-29.469,26.969-58.469,54.627-84.819,84.687-23.008,26.249-45.384,55.011-58.23,87.787q-2.07,5.282-3.729,10.705c-.072.239.195.365.374.406,25.819,5.684,52.951-6.159,75.073-18.386,31.824-17.588,60.466-40.869,87.576-64.924,27.953-24.8,54.429-51.232,80.248-78.236,21.769-22.769,42.73-46.358,65.175-68.473,37.194-36.643,77.883-70.567,109.433-112.48q5.725-7.607,10.935-15.575c-.6-.016-1.2-.028-1.8-.041-23.272,43.246-51.816,83.354-81.524,122.368C441.1,346.4,409.932,384.595,380.972,424.461c-15.821,21.779-30.95,44.07-44.651,67.247-.374.632.717.572,1.031.506,45.519-9.5,84.14-40.479,116.762-72.083,38.483-37.278,71.768-79.559,104.928-121.516,16.789-21.244,33.484-42.6,51.26-63.034.56-.645-1.324-.538-1.676-.182-12.139,12.268-21.452,26.708-32.147,40.165-.528.67,1.409.541,1.8.044,10.617-13.359,19.845-27.708,31.9-39.888l-1.676-.179c-32.471,37.335-61.777,77.314-93.342,115.407-32.83,39.624-67.863,79.264-110.282,108.921-20.505,14.337-43.136,26.23-67.785,31.377l1.031.5c24.624-41.655,53.794-80.383,83.429-118.557,30.315-39.052,61.314-77.629,89.434-118.322a741.953,741.953,0,0,0,43.277-69.989c.446-.83-1.471-.544-1.8-.041-26.7,40.847-63.625,73.824-98.763,107.195-24,22.8-46.632,46.711-69.275,70.825-22.206,23.652-44.764,46.99-68.209,69.42-25.746,24.63-52.517,48.452-81.477,69.266-23.483,16.874-49.65,33.647-78.311,39.816a78.533,78.533,0,0,1-17.849,1.89,58.434,58.434,0,0,1-8.212-.7,6.605,6.605,0,0,1-1.971-.352c-.965-.55-.626.05-.638-1.116-.016-1.786,1.481-4.487,2.1-6.169,6.062-16.591,14.94-32.069,24.813-46.663,23.13-34.2,51.958-64.418,81.458-93.141,28.966-28.2,59.327-54.9,89.29-82.024,33.154-30.019,65.625-60.714,99.659-89.765,40.309-34.408,82.109-67.282,126.619-96.115q15.582-10.092,31.622-19.443c-.5-.1-1-.2-1.5-.308-43.114,55.6-96.685,101.932-153.346,143.225-56.4,41.1-115.989,77.5-174.546,115.376-31.758,20.546-63.245,41.551-93.6,64.141.56.06,1.119.119,1.676.182,26.784-53.414,61.437-102.391,97.5-149.862,37.068-48.8,75.94-96.244,111.593-146.115,19.741-27.617,38.461-55.995,55.083-85.611.465-.827-1.462-.512-1.8-.041-40.948,57.1-83.285,113.3-129.429,166.34-46.575,53.533-97.115,104.123-153.833,146.951-31.531,23.81-65.015,45.1-100.473,62.581.428.138.855.28,1.283.418,41.532-58.906,91.811-110.993,141.656-162.806,50.018-52,100.665-103.96,143.439-162.243C349.875,68.848,370.3,35.861,386.22.617c.321-.711-1.531-.223-1.742-.038-26.721,23.445-50.9,49.518-76.091,74.548-12.416,12.331-25.114,24.4-38.511,35.666-13.375,11.249-27.142,22.046-40.639,33.154-53.313,43.875-105.173,89.673-151.331,141.147-11.686,13.032-23.42,26.142-35.38,38.929-12.082,12.909-25.495,24.25-41.91,31.22.428.138.855.277,1.283.418,32.144-44.915,69.325-85.894,106.629-126.524,37.194-40.507,74.771-80.82,108.358-124.43a662.417,662.417,0,0,0,51.857-77.264c.446-.789-1.487-.6-1.8-.041" transform="translate(-101.664 -50.361)" fill="#fff"/>
          </g>
        </g>
      </g>
      <g id="Grupo_1099924" data-name="Grupo 1099924" transform="translate(-10206.594 -13259.511) rotate(60)">
        <g id="Grupo_1099920-2" data-name="Grupo 1099920">
          <g id="Grupo_1099919-2" data-name="Grupo 1099919" clip-path="url(#clip-path-14)">
            <path id="Trazado_874721-2" data-name="Trazado 874721" d="M80.02,16.185S-69.009,239.727,159.856,383.433,532.427,266.341,532.427,266.341Z" transform="translate(69.327 34.701)" fill="#43c0ff"/>
          </g>
        </g>
        <g id="Grupo_1099922-2" data-name="Grupo 1099922" transform="translate(101.664 50.883)">
          <g id="Grupo_1099921-2" data-name="Grupo 1099921" clip-path="url(#clip-path-13)">
            <path id="Trazado_874722-2" data-name="Trazado 874722" d="M266.942,27.4C239.63,75.586,205.119,119.152,168.7,160.719c-36.458,41.608-74.944,81.389-111.251,123.132C37.345,306.963,17.934,330.7.1,355.619c-.494.692,1.025.528,1.283.418,28.2-11.969,46-36.235,66.3-57.925,23.737-25.353,47.116-50.826,72.391-74.7,25.561-24.143,52.165-47.157,79.2-69.63,27.1-22.527,55.127-43.916,80.518-68.4C328.766,57.442,355.745,27.473,386.028.9L384.286.859C355.179,65.3,311.226,121.715,264.424,174.2c-48.616,54.517-101.1,105.419-150.079,159.593C88.048,362.876,62.736,392.929,40.124,425c-.478.679,1.009.553,1.283.418,62.644-30.88,118.862-73.378,169.751-120.947,52.6-49.166,99.829-103.856,144.128-160.527,24.363-31.167,47.842-63.009,70.894-95.153-.6-.013-1.2-.028-1.8-.041-29.739,52.989-66.087,101.882-103.212,149.859-37.3,48.21-75.711,95.666-109.993,146.115-18.682,27.488-36.065,55.888-50.967,85.611-.462.918,1.38.4,1.676.182,55.441-41.265,114.536-77.283,172.575-114.706C393.19,277.94,451.386,238.618,503.7,192.09c29.032-25.822,56.1-53.876,79.921-84.6.572-.739-1.254-.45-1.5-.308-42.479,24.724-82.389,53.659-120.689,84.4C422.986,222.436,385.7,255,349.79,288.768c-25.476,23.951-51.769,47-77.563,70.6-29.469,26.969-58.469,54.627-84.819,84.687-23.008,26.249-45.384,55.011-58.23,87.787q-2.07,5.282-3.729,10.705c-.072.239.195.365.374.406,25.819,5.684,52.951-6.159,75.073-18.386,31.824-17.588,60.466-40.869,87.576-64.924,27.953-24.8,54.429-51.232,80.248-78.236,21.769-22.769,42.73-46.358,65.175-68.473,37.194-36.643,77.883-70.567,109.433-112.48q5.725-7.607,10.935-15.575c-.6-.016-1.2-.028-1.8-.041-23.272,43.246-51.816,83.354-81.524,122.368C441.1,346.4,409.932,384.595,380.972,424.461c-15.821,21.779-30.95,44.07-44.651,67.247-.374.632.717.572,1.031.506,45.519-9.5,84.14-40.479,116.762-72.083,38.483-37.278,71.768-79.559,104.928-121.516,16.789-21.244,33.484-42.6,51.26-63.034.56-.645-1.324-.538-1.676-.182-12.139,12.268-21.452,26.708-32.147,40.165-.528.67,1.409.541,1.8.044,10.617-13.359,19.845-27.708,31.9-39.888l-1.676-.179c-32.471,37.335-61.777,77.314-93.342,115.407-32.83,39.624-67.863,79.264-110.282,108.921-20.505,14.337-43.136,26.23-67.785,31.377l1.031.5c24.624-41.655,53.794-80.383,83.429-118.557,30.315-39.052,61.314-77.629,89.434-118.322a741.953,741.953,0,0,0,43.277-69.989c.446-.83-1.471-.544-1.8-.041-26.7,40.847-63.625,73.824-98.763,107.195-24,22.8-46.632,46.711-69.275,70.825-22.206,23.652-44.764,46.99-68.209,69.42-25.746,24.63-52.517,48.452-81.477,69.266-23.483,16.874-49.65,33.647-78.311,39.816a78.533,78.533,0,0,1-17.849,1.89,58.434,58.434,0,0,1-8.212-.7,6.605,6.605,0,0,1-1.971-.352c-.965-.55-.626.05-.638-1.116-.016-1.786,1.481-4.487,2.1-6.169,6.062-16.591,14.94-32.069,24.813-46.663,23.13-34.2,51.958-64.418,81.458-93.141,28.966-28.2,59.327-54.9,89.29-82.024,33.154-30.019,65.625-60.714,99.659-89.765,40.309-34.408,82.109-67.282,126.619-96.115q15.582-10.092,31.622-19.443c-.5-.1-1-.2-1.5-.308-43.114,55.6-96.685,101.932-153.346,143.225-56.4,41.1-115.989,77.5-174.546,115.376-31.758,20.546-63.245,41.551-93.6,64.141.56.06,1.119.119,1.676.182,26.784-53.414,61.437-102.391,97.5-149.862,37.068-48.8,75.94-96.244,111.593-146.115,19.741-27.617,38.461-55.995,55.083-85.611.465-.827-1.462-.512-1.8-.041-40.948,57.1-83.285,113.3-129.429,166.34-46.575,53.533-97.115,104.123-153.833,146.951-31.531,23.81-65.015,45.1-100.473,62.581.428.138.855.28,1.283.418,41.532-58.906,91.811-110.993,141.656-162.806,50.018-52,100.665-103.96,143.439-162.243C349.875,68.848,370.3,35.861,386.22.617c.321-.711-1.531-.223-1.742-.038-26.721,23.445-50.9,49.518-76.091,74.548-12.416,12.331-25.114,24.4-38.511,35.666-13.375,11.249-27.142,22.046-40.639,33.154-53.313,43.875-105.173,89.673-151.331,141.147-11.686,13.032-23.42,26.142-35.38,38.929-12.082,12.909-25.495,24.25-41.91,31.22.428.138.855.277,1.283.418,32.144-44.915,69.325-85.894,106.629-126.524,37.194-40.507,74.771-80.82,108.358-124.43a662.417,662.417,0,0,0,51.857-77.264c.446-.789-1.487-.6-1.8-.041" transform="translate(-101.664 -50.361)" fill="#fff"/>
          </g>
        </g>
      </g>
      <g id="Grupo_1099914" data-name="Grupo 1099914" transform="translate(-10983.03 -12907)">
        <g id="Grupo_1099901" data-name="Grupo 1099901">
          <g id="Grupo_1099900" data-name="Grupo 1099900" clip-path="url(#clip-path-16)">
            <line id="Línea_882" data-name="Línea 882" y1="77.561" transform="translate(117.552 0)" fill="none" stroke="#fff" stroke-miterlimit="10" stroke-width="2"/>
            <line id="Línea_883" data-name="Línea 883" y1="77.019" x2="9.153" transform="translate(122.271 0.822)" fill="none" stroke="#fff" stroke-miterlimit="10" stroke-width="2"/>
          </g>
        </g>
        <line id="Línea_884" data-name="Línea 884" y1="75.401" x2="18.176" transform="translate(126.924 3.274)" fill="none" stroke="#fff" stroke-miterlimit="10" stroke-width="2"/>
        <line id="Línea_885" data-name="Línea 885" y1="72.73" x2="26.946" transform="translate(131.447 7.322)" fill="none" stroke="#fff" stroke-miterlimit="10" stroke-width="2"/>
        <line id="Línea_886" data-name="Línea 886" y1="69.042" x2="35.34" transform="translate(135.775 12.912)" fill="none" stroke="#fff" stroke-miterlimit="10" stroke-width="2"/>
        <line id="Línea_887" data-name="Línea 887" y1="64.389" x2="43.24" transform="translate(139.848 19.964)" fill="none" stroke="#fff" stroke-miterlimit="10" stroke-width="2"/>
        <line id="Línea_888" data-name="Línea 888" y1="58.837" x2="50.535" transform="translate(143.61 28.378)" fill="none" stroke="#fff" stroke-miterlimit="10" stroke-width="2"/>
        <line id="Línea_889" data-name="Línea 889" y1="52.464" x2="57.125" transform="translate(147.008 38.039)" fill="none" stroke="#fff" stroke-miterlimit="10" stroke-width="2"/>
        <line id="Línea_890" data-name="Línea 890" y1="45.356" x2="62.916" transform="translate(149.995 48.812)" fill="none" stroke="#fff" stroke-miterlimit="10" stroke-width="2"/>
        <line id="Línea_891" data-name="Línea 891" y1="37.615" x2="67.829" transform="translate(152.528 60.543)" fill="none" stroke="#fff" stroke-miterlimit="10" stroke-width="2"/>
        <line id="Línea_892" data-name="Línea 892" y1="29.349" x2="71.794" transform="translate(154.572 73.072)" fill="none" stroke="#fff" stroke-miterlimit="10" stroke-width="2"/>
        <line id="Línea_893" data-name="Línea 893" y1="20.673" x2="74.754" transform="translate(156.099 86.223)" fill="none" stroke="#fff" stroke-miterlimit="10" stroke-width="2"/>
        <g id="Grupo_1099903" data-name="Grupo 1099903">
          <g id="Grupo_1099902" data-name="Grupo 1099902" clip-path="url(#clip-path-16)">
            <line id="Línea_894" data-name="Línea 894" y1="11.707" x2="76.672" transform="translate(157.088 99.812)" fill="none" stroke="#fff" stroke-miterlimit="10" stroke-width="2"/>
            <line id="Línea_895" data-name="Línea 895" y1="2.578" x2="77.519" transform="translate(157.524 113.648)" fill="none" stroke="#fff" stroke-miterlimit="10" stroke-width="2"/>
            <line id="Línea_896" data-name="Línea 896" x2="77.281" y2="6.586" transform="translate(157.401 120.952)" fill="none" stroke="#fff" stroke-miterlimit="10" stroke-width="2"/>
            <line id="Línea_897" data-name="Línea 897" x2="75.963" y2="15.658" transform="translate(156.722 125.63)" fill="none" stroke="#fff" stroke-miterlimit="10" stroke-width="2"/>
          </g>
        </g>
        <line id="Línea_898" data-name="Línea 898" x2="73.585" y2="24.513" transform="translate(155.496 130.195)" fill="none" stroke="#fff" stroke-miterlimit="10" stroke-width="2"/>
        <line id="Línea_899" data-name="Línea 899" x2="70.178" y2="33.024" transform="translate(153.739 134.584)" fill="none" stroke="#fff" stroke-miterlimit="10" stroke-width="2"/>
        <line id="Línea_900" data-name="Línea 900" x2="65.792" y2="41.074" transform="translate(151.477 138.735)" fill="none" stroke="#fff" stroke-miterlimit="10" stroke-width="2"/>
        <line id="Línea_901" data-name="Línea 901" x2="60.484" y2="48.551" transform="translate(148.741 142.591)" fill="none" stroke="#fff" stroke-miterlimit="10" stroke-width="2"/>
        <line id="Línea_902" data-name="Línea 902" x2="54.334" y2="55.349" transform="translate(145.569 146.096)" fill="none" stroke="#fff" stroke-miterlimit="10" stroke-width="2"/>
        <line id="Línea_903" data-name="Línea 903" x2="47.424" y2="61.373" transform="translate(142.005 149.203)" fill="none" stroke="#fff" stroke-miterlimit="10" stroke-width="2"/>
        <line id="Línea_904" data-name="Línea 904" x2="39.85" y2="66.541" transform="translate(138.1 151.867)" fill="none" stroke="#fff" stroke-miterlimit="10" stroke-width="2"/>
        <line id="Línea_905" data-name="Línea 905" x2="31.72" y2="70.779" transform="translate(133.908 154.052)" fill="none" stroke="#fff" stroke-miterlimit="10" stroke-width="2"/>
        <line id="Línea_906" data-name="Línea 906" x2="23.146" y2="74.027" transform="translate(129.487 155.727)" fill="none" stroke="#fff" stroke-miterlimit="10" stroke-width="2"/>
        <g id="Grupo_1099905" data-name="Grupo 1099905">
          <g id="Grupo_1099904" data-name="Grupo 1099904" clip-path="url(#clip-path-16)">
            <line id="Línea_907" data-name="Línea 907" x2="14.25" y2="76.24" transform="translate(124.9 156.869)" fill="none" stroke="#fff" stroke-miterlimit="10" stroke-width="2"/>
            <line id="Línea_908" data-name="Línea 908" x2="5.153" y2="77.389" transform="translate(120.21 157.461)" fill="none" stroke="#fff" stroke-miterlimit="10" stroke-width="2"/>
            <line id="Línea_909" data-name="Línea 909" x1="4.014" y2="77.456" transform="translate(111.468 157.496)" fill="none" stroke="#fff" stroke-miterlimit="10" stroke-width="2"/>
            <line id="Línea_910" data-name="Línea 910" x1="13.125" y2="76.441" transform="translate(97.659 156.973)" fill="none" stroke="#fff" stroke-miterlimit="10" stroke-width="2"/>
          </g>
        </g>
        <line id="Línea_911" data-name="Línea 911" x1="22.054" y2="74.36" transform="translate(84.126 155.899)" fill="none" stroke="#fff" stroke-miterlimit="10" stroke-width="2"/>
        <line id="Línea_912" data-name="Línea 912" x1="30.674" y2="71.238" transform="translate(71.061 154.289)" fill="none" stroke="#fff" stroke-miterlimit="10" stroke-width="2"/>
        <line id="Línea_913" data-name="Línea 913" x1="38.865" y2="67.12" transform="translate(58.646 152.166)" fill="none" stroke="#fff" stroke-miterlimit="10" stroke-width="2"/>
        <line id="Línea_914" data-name="Línea 914" x1="46.513" y2="62.066" transform="translate(47.054 149.559)" fill="none" stroke="#fff" stroke-miterlimit="10" stroke-width="2"/>
        <line id="Línea_915" data-name="Línea 915" x1="53.512" y2="56.144" transform="translate(36.446 146.506)" fill="none" stroke="#fff" stroke-miterlimit="10" stroke-width="2"/>
        <line id="Línea_916" data-name="Línea 916" x1="59.763" y2="49.437" transform="translate(26.972 143.047)" fill="none" stroke="#fff" stroke-miterlimit="10" stroke-width="2"/>
        <line id="Línea_917" data-name="Línea 917" x1="65.178" y2="42.04" transform="translate(18.764 139.233)" fill="none" stroke="#fff" stroke-miterlimit="10" stroke-width="2"/>
        <line id="Línea_918" data-name="Línea 918" x1="69.685" y2="34.056" transform="translate(11.934 135.116)" fill="none" stroke="#fff" stroke-miterlimit="10" stroke-width="2"/>
        <line id="Línea_919" data-name="Línea 919" x1="73.215" y2="25.595" transform="translate(6.583 130.753)" fill="none" stroke="#fff" stroke-miterlimit="10" stroke-width="2"/>
        <g id="Grupo_1099907" data-name="Grupo 1099907">
          <g id="Grupo_1099906" data-name="Grupo 1099906" clip-path="url(#clip-path-16)">
            <line id="Línea_920" data-name="Línea 920" x1="75.725" y2="16.778" transform="translate(2.779 126.206)" fill="none" stroke="#fff" stroke-miterlimit="10" stroke-width="2"/>
            <line id="Línea_921" data-name="Línea 921" x1="77.176" y2="7.724" transform="translate(0.58 121.538)" fill="none" stroke="#fff" stroke-miterlimit="10" stroke-width="2"/>
            <line id="Línea_922" data-name="Línea 922" x1="77.548" y1="1.436" transform="translate(0.016 115.378)" fill="none" stroke="#fff" stroke-miterlimit="10" stroke-width="2"/>
            <line id="Línea_923" data-name="Línea 923" x1="76.835" y1="10.576" transform="translate(1.096 101.525)" fill="none" stroke="#fff" stroke-miterlimit="10" stroke-width="2"/>
          </g>
        </g>
        <line id="Línea_924" data-name="Línea 924" x1="75.051" y1="19.57" transform="translate(3.801 87.895)" fill="none" stroke="#fff" stroke-miterlimit="10" stroke-width="2"/>
        <line id="Línea_925" data-name="Línea 925" x1="72.219" y1="28.288" transform="translate(8.094 74.68)" fill="none" stroke="#fff" stroke-miterlimit="10" stroke-width="2"/>
        <line id="Línea_926" data-name="Línea 926" x1="68.375" y1="36.611" transform="translate(13.919 62.065)" fill="none" stroke="#fff" stroke-miterlimit="10" stroke-width="2"/>
        <line id="Línea_927" data-name="Línea 927" x1="63.577" y1="44.425" transform="translate(21.191 50.223)" fill="none" stroke="#fff" stroke-miterlimit="10" stroke-width="2"/>
        <line id="Línea_928" data-name="Línea 928" x1="57.892" y1="51.616" transform="translate(29.808 39.324)" fill="none" stroke="#fff" stroke-miterlimit="10" stroke-width="2"/>
        <line id="Línea_929" data-name="Línea 929" x1="51.398" y1="58.086" transform="translate(39.651 29.517)" fill="none" stroke="#fff" stroke-miterlimit="10" stroke-width="2"/>
        <line id="Línea_930" data-name="Línea 930" x1="44.183" y1="63.745" transform="translate(50.585 20.94)" fill="none" stroke="#fff" stroke-miterlimit="10" stroke-width="2"/>
        <line id="Línea_931" data-name="Línea 931" x1="36.353" y1="68.514" transform="translate(62.453 13.712)" fill="none" stroke="#fff" stroke-miterlimit="10" stroke-width="2"/>
        <line id="Línea_932" data-name="Línea 932" x1="28.015" y1="72.325" transform="translate(75.091 7.936)" fill="none" stroke="#fff" stroke-miterlimit="10" stroke-width="2"/>
        <line id="Línea_933" data-name="Línea 933" x1="19.286" y1="75.124" transform="translate(88.322 3.693)" fill="none" stroke="#fff" stroke-miterlimit="10" stroke-width="2"/>
        <g id="Grupo_1099909" data-name="Grupo 1099909">
          <g id="Grupo_1099908" data-name="Grupo 1099908" clip-path="url(#clip-path-16)">
            <line id="Línea_934" data-name="Línea 934" x1="10.285" y1="76.876" transform="translate(101.963 1.039)" fill="none" stroke="#fff" stroke-miterlimit="10" stroke-width="2"/>
          </g>
        </g>
      </g>
    </g>
  </g>
</svg>
