<svg xmlns="http://www.w3.org/2000/svg" xmlns:xlink="http://www.w3.org/1999/xlink" width="1320" height="507" viewBox="0 0 1320 507">
  <defs>
    <clipPath id="clip-path">
      <path id="Trazado_872907" data-name="Trazado 872907" d="M19,0H1301a19,19,0,0,1,19,19V488a19,19,0,0,1-19,19H19A19,19,0,0,1,0,488V19A19,19,0,0,1,19,0Z" transform="translate(-12735 -12780)" fill="#01927f"/>
    </clipPath>
    <clipPath id="clip-path-2">
      <rect id="Rectángulo_401199" data-name="Rectángulo 401199" width="1246.556" height="1130.528" fill="#01927f" stroke="#165b7a" stroke-width="1"/>
    </clipPath>
    <clipPath id="clip-path-3">
      <path id="Trazado_873019" data-name="Trazado 873019" d="M721.175,22.99c-236.307,46.363-458.859,169.3-614.968,352.655-39.749,46.707-75.8,98.342-92.565,157.324S1.8,659.586,38.365,708.814c47.2,63.555,132.521,82.5,221.51,101.849-27.474,12.5-39.635,48.036-31.084,76.977,18.27,61.859,90.8,74.776,151.249,72.92,201.463-6.2,388.6-106.72,549.785-227.779,84.679-63.6,165.553-134.572,225.005-222.22,39.062-57.584,71.04-141.908,15.68-195.892-25.537-24.906-70.134-30.717-98.56-3.759,45.469-49.366,46.775-129.7,12.574-187.445S986.858,29.535,921.08,16.2a376.312,376.312,0,0,0-74.914-7.118c-41.812,0-83.866,5.834-124.99,13.9" transform="translate(-4.431 -9.087)" fill="#01927f"/>
    </clipPath>
    <clipPath id="clip-path-4">
      <rect id="Rectángulo_401199-2" data-name="Rectángulo 401199" width="1001.323" height="908.121" fill="#01927f" stroke="#165b7a" stroke-width="1"/>
    </clipPath>
    <clipPath id="clip-path-5">
      <path id="Trazado_873019-2" data-name="Trazado 873019" d="M580.172,20.255C390.353,57.5,211.583,156.25,86.185,303.532c-31.929,37.518-60.885,79-74.355,126.374S2.32,531.615,31.69,571.158C69.6,622.21,138.14,637.43,209.622,652.971c-22.069,10.045-31.837,38.586-24.969,61.834,14.676,49.69,72.937,60.066,121.494,58.574C467.976,768.4,618.3,687.653,747.774,590.41c68.02-51.089,132.984-108.1,180.74-178.5,31.377-46.255,57.064-113.99,12.6-157.355-20.513-20.007-56.337-24.674-79.17-3.02,36.524-39.654,37.573-104.185,10.1-150.569S793.587,25.512,740.749,14.8a302.282,302.282,0,0,0-60.176-5.717c-33.587,0-67.367,4.686-100.4,11.168" transform="translate(-4.431 -9.087)" fill="#01927f"/>
    </clipPath>
    <clipPath id="clip-path-6">
      <path id="Trazado_870126" data-name="Trazado 870126" d="M19,0H1301a19,19,0,0,1,19,19V488a19,19,0,0,1-19,19H19A19,19,0,0,1,0,488V19A19,19,0,0,1,19,0Z" transform="translate(-12735 -12780)" fill="#43c0ff"/>
    </clipPath>
    <clipPath id="clip-path-7">
      <rect id="Rectángulo_401200" data-name="Rectángulo 401200" width="810.602" height="755.136" fill="#02dd84"/>
    </clipPath>
    <clipPath id="clip-path-8">
      <path id="Trazado_873026" data-name="Trazado 873026" d="M418.947,23.239C378.8,34.607,342.94,63.2,332.917,100.567s11.45,81.741,42.563,95.917c-45.045-12.869-90.5-25.814-137.483-29.8s-96.249,1.629-136.772,23.767S30.534,253.165,31.36,296.37c.961,50.149,40.735,92.008,80.9,126.113C229.477,522.026,371,598.164,524.417,639.314,573.154,652.385,628.182,661.367,672.7,639c42.552-21.376,64.846-68.058,64.009-112.5s-21.476-86.742-47.57-124.216-57.851-71.408-85.914-106.108c25.209.774,50.715,1.526,75.376-3.317s48.78-15.938,63.545-34.663c17.622-22.35,19.447-52.912,10.186-79.141s-28.359-48.66-49.733-68.076c-44.111-40.06-99.531-69.592-159.362-84.918C520,20.106,495.706,16.312,471.63,16.312a193.039,193.039,0,0,0-52.682,6.927" transform="translate(-31.344 -16.312)" fill="#02dd84"/>
    </clipPath>
    <clipPath id="clip-path-9">
      <rect id="Rectángulo_401200-2" data-name="Rectángulo 401200" width="946.674" height="881.898" fill="#00483f"/>
    </clipPath>
    <clipPath id="clip-path-10">
      <path id="Trazado_873026-2" data-name="Trazado 873026" d="M484.013,24.4c-46.884,13.276-88.766,46.667-100.471,90.308s13.373,95.463,49.708,112.019c-52.607-15.029-105.689-30.148-160.562-34.8s-112.406,1.9-159.731,27.757S30.4,292.925,31.363,343.383c1.122,58.568,47.573,107.453,94.476,147.283C262.737,606.918,428.012,695.837,607.187,743.9c56.919,15.265,121.184,25.754,173.179-.37,49.7-24.965,75.732-79.483,74.754-131.384s-25.081-101.3-55.556-145.068S732,383.678,699.228,343.153c29.44.9,59.229,1.782,88.03-3.874s56.969-18.614,74.212-40.482c20.581-26.1,22.712-61.794,11.9-92.426s-33.12-56.829-58.082-79.5C763.769,80.083,699.046,45.593,629.172,27.694c-27.137-6.951-55.515-11.382-83.633-11.382a225.443,225.443,0,0,0-61.526,8.09" transform="translate(-31.344 -16.312)" fill="#00483f"/>
    </clipPath>
  </defs>
  <g id="Grupo_1100217" data-name="Grupo 1100217" transform="translate(13128.965 12844)">
    <g id="Enmascarar_grupo_1098662" data-name="Enmascarar grupo 1098662" transform="translate(-393.965 -64)" clip-path="url(#clip-path)">
      <path id="Trazado_870126-2" data-name="Trazado 870126" d="M19,0H1301a19,19,0,0,1,19,19V488a19,19,0,0,1-19,19H19A19,19,0,0,1,0,488V19A19,19,0,0,1,19,0Z" transform="translate(-12735 -12780)" fill="#01927f"/>
      <g id="Grupo_1099032" data-name="Grupo 1099032" transform="matrix(-0.927, 0.375, -0.375, -0.927, -10780.963, -12293.968)" opacity="0.33" style="mix-blend-mode: multiply;isolation: isolate">
        <g id="Grupo_1099028" data-name="Grupo 1099028" transform="translate(0 0)">
          <g id="Grupo_1099027" data-name="Grupo 1099027" clip-path="url(#clip-path-2)">
            <path id="Trazado_873014" data-name="Trazado 873014" d="M1071.95,310.911c45.469-49.366,46.764-129.7,12.574-187.445S986.847,29.537,921.08,16.207s-134.045-6.143-199.9,6.774C484.869,69.355,262.3,192.294,106.207,375.647c-39.749,46.7-75.808,98.342-92.565,157.324S1.8,659.577,38.365,708.806c47.188,63.555,132.521,82.513,221.51,101.86-27.485,12.5-39.635,48.025-31.084,76.977,18.27,61.859,90.788,74.776,151.238,72.919,201.474-6.2,388.61-106.732,549.785-227.779,84.679-63.6,165.553-134.572,225.005-222.22,39.073-57.6,71.051-141.908,15.691-195.9-25.537-24.895-70.134-30.706-98.56-3.748" transform="translate(46.36 95.061)" fill="#01927f" stroke="#165b7a" stroke-width="1"/>
          </g>
        </g>
        <g id="Grupo_1099030" data-name="Grupo 1099030" transform="translate(50.791 104.151)">
          <g id="Grupo_1099029" data-name="Grupo 1099029" clip-path="url(#clip-path-3)">
            <path id="Trazado_873015" data-name="Trazado 873015" d="M.5,508.775S625.669,629.869,514.914,10.935" transform="translate(-45.56 10.246)" fill="#01927f" stroke="#00b0ad" stroke-linecap="round" stroke-linejoin="round" stroke-width="1"/>
            <path id="Trazado_873016" data-name="Trazado 873016" d="M.5,782.217S558.881,967.6,783.142,7.8" transform="translate(-45.56 -22.499)" fill="#01927f" stroke="#00b0ad" stroke-linecap="round" stroke-linejoin="round" stroke-width="1"/>
            <path id="Trazado_873017" data-name="Trazado 873017" d="M18.435,1118.764s361.79,38.867,577.075-424.589S801.822.5,801.822.5" transform="translate(142.071 -98.922)" fill="#01927f" stroke="#00b0ad" stroke-linecap="round" stroke-linejoin="round" stroke-width="1"/>
            <path id="Trazado_873018" data-name="Trazado 873018" d="M522.761,27.553S504.1,443.167,64.578,721.24" transform="translate(624.807 184.099)" fill="#01927f" stroke="#00b0ad" stroke-linecap="round" stroke-linejoin="round" stroke-width="1"/>
          </g>
        </g>
      </g>
      <circle id="Elipse_11441" data-name="Elipse 11441" cx="333" cy="333" r="333" transform="translate(-12693 -13102)" fill="#01927f" opacity="0.37" style="mix-blend-mode: multiply;isolation: isolate"/>
      <circle id="Elipse_11485" data-name="Elipse 11485" cx="333" cy="333" r="333" transform="translate(-12974 -12717)" fill="#01927f" opacity="0.37" style="mix-blend-mode: multiply;isolation: isolate"/>
      <circle id="Elipse_11486" data-name="Elipse 11486" cx="333" cy="333" r="333" transform="translate(-12382 -12468)" fill="#01927f" opacity="0.37" style="mix-blend-mode: multiply;isolation: isolate"/>
      <g id="Grupo_1099031" data-name="Grupo 1099031" transform="matrix(0.875, -0.485, 0.485, 0.875, -13174.043, -12752.404)" opacity="0.11" style="mix-blend-mode: multiply;isolation: isolate">
        <g id="Grupo_1099028-2" data-name="Grupo 1099028" transform="translate(0 0)">
          <g id="Grupo_1099027-2" data-name="Grupo 1099027" clip-path="url(#clip-path-4)">
            <path id="Trazado_873014-2" data-name="Trazado 873014" d="M861.939,251.534c36.524-39.654,37.564-104.185,10.1-150.569s-78.461-75.45-131.29-86.158S633.074,9.872,580.172,20.248c-189.818,37.251-368.6,136-493.986,283.287-31.929,37.509-60.894,79-74.355,126.374S2.32,531.607,31.69,571.151c37.9,51.052,106.45,66.28,177.932,81.822-22.078,10.045-31.837,38.577-24.969,61.833,14.676,49.69,72.928,60.066,121.485,58.574C467.976,768.4,618.3,687.646,747.765,590.412c68.02-51.089,132.984-108.1,180.74-178.5,31.386-46.265,57.073-113.99,12.6-157.364-20.513-20-56.337-24.665-79.17-3.011" transform="translate(36.368 74.572)" fill="#01927f" stroke="#165b7a" stroke-width="1"/>
          </g>
        </g>
        <g id="Grupo_1099030-2" data-name="Grupo 1099030" transform="translate(40.799 83.661)">
          <g id="Grupo_1099029-2" data-name="Grupo 1099029" clip-path="url(#clip-path-5)">
            <path id="Trazado_873015-2" data-name="Trazado 873015" d="M.5,410.836s502.18,97.271,413.214-399.9" transform="translate(-36.696 6.079)" fill="#01927f" stroke="#00b0ad" stroke-linecap="round" stroke-linejoin="round" stroke-width="1"/>
            <path id="Trazado_873016-2" data-name="Trazado 873016" d="M.5,629.868S449.032,778.781,629.174,7.805" transform="translate(-36.696 -19.608)" fill="#01927f" stroke="#00b0ad" stroke-linecap="round" stroke-linejoin="round" stroke-width="1"/>
            <path id="Trazado_873017-2" data-name="Trazado 873017" d="M18.435,898.77S309.05,929.991,481.983,557.71,647.707.5,647.707.5" transform="translate(110.495 -79.559)" fill="#01927f" stroke="#00b0ad" stroke-linecap="round" stroke-linejoin="round" stroke-width="1"/>
            <path id="Trazado_873018-2" data-name="Trazado 873018" d="M432.623,27.553S417.635,361.4,64.578,584.772" transform="translate(489.185 142.461)" fill="#01927f" stroke="#00b0ad" stroke-linecap="round" stroke-linejoin="round" stroke-width="1"/>
          </g>
        </g>
      </g>
    </g>
    <g id="Grupo_1099039" data-name="Grupo 1099039" transform="translate(-393.965 -64)">
      <g id="Grupo_1099038" data-name="Grupo 1099038">
        <g id="Enmascarar_grupo_1098663" data-name="Enmascarar grupo 1098663" clip-path="url(#clip-path-6)">
          <g id="Grupo_1099037" data-name="Grupo 1099037" transform="translate(-12358.969 -12428.171) rotate(-43)">
            <g id="Grupo_1099034" data-name="Grupo 1099034">
              <g id="Grupo_1099033" data-name="Grupo 1099033" clip-path="url(#clip-path-7)">
                <path id="Trazado_873020" data-name="Trazado 873020" d="M375.483,196.485c-45.045-12.869-90.5-25.814-137.486-29.8s-96.249,1.629-136.772,23.767S30.534,253.166,31.36,296.371c.961,50.147,40.735,92.008,80.9,126.113C229.48,522.028,371,598.164,524.419,639.315,573.154,652.385,628.182,661.367,672.7,639c42.552-21.379,64.846-68.059,64.012-112.5s-21.476-86.742-47.573-124.219-57.848-71.405-85.915-106.106c25.209.774,50.718,1.524,75.377-3.32s48.783-15.936,63.545-34.661c17.622-22.352,19.447-52.911,10.189-79.141s-28.362-48.663-49.736-68.076c-44.111-40.06-99.531-69.592-159.362-84.918C502.774,15.691,459.1,11.872,418.95,23.24S342.943,63.2,332.92,100.567s11.448,81.741,42.563,95.917" transform="translate(52.767 23.772)" fill="#02dd84"/>
              </g>
            </g>
            <g id="Grupo_1099036" data-name="Grupo 1099036" transform="translate(84.111 40.084)">
              <g id="Grupo_1099035" data-name="Grupo 1099035" clip-path="url(#clip-path-8)">
                <path id="Trazado_873021" data-name="Trazado 873021" d="M709.609,563.486S603.566,79.594.5,135.1" transform="translate(-83.269 150.337)" fill="#02dd84" stroke="#f1e8d5" stroke-linecap="round" stroke-linejoin="round" stroke-width="1"/>
                <path id="Trazado_873022" data-name="Trazado 873022" d="M357.8,161.1S172.176,310.429,323.774,423.546" transform="translate(360.69 194.699)" fill="#02dd84" stroke="#f1e8d5" stroke-linecap="round" stroke-linejoin="round" stroke-width="1"/>
                <path id="Trazado_873023" data-name="Trazado 873023" d="M687.829,30.987c-20.158,161.848-73.4,179.2-180.8,187.79S419.633,340,247.718,259.758,66.043,79.6,66.043,79.6" transform="translate(27.072 5.074)" fill="#02dd84" stroke="#f1e8d5" stroke-linecap="round" stroke-linejoin="round" stroke-width="1"/>
                <path id="Trazado_873024" data-name="Trazado 873024" d="M322.879.5S430.71,105.22,361.454,160.323,140.96,64.691,140.96,64.691" transform="translate(153.194 -39.355)" fill="#02dd84" stroke="#f1e8d5" stroke-linecap="round" stroke-linejoin="round" stroke-width="1"/>
                <path id="Trazado_873025" data-name="Trazado 873025" d="M349.386,374.956c7.946-123.221-136.933-240.163-287.764-158.688" transform="translate(19.629 235.646)" fill="#02dd84" stroke="#f1e8d5" stroke-linecap="round" stroke-linejoin="round" stroke-width="1"/>
              </g>
            </g>
          </g>
          <g id="Grupo_1099041" data-name="Grupo 1099041" transform="translate(-13508.953 -12364.915) rotate(-43)" opacity="0.18" style="mix-blend-mode: lighten;isolation: isolate">
            <g id="Grupo_1099034-2" data-name="Grupo 1099034">
              <g id="Grupo_1099033-2" data-name="Grupo 1099033" clip-path="url(#clip-path-9)">
                <path id="Trazado_873020-2" data-name="Trazado 873020" d="M433.252,226.73c-52.607-15.029-105.69-30.148-160.565-34.8s-112.406,1.9-159.731,27.757S30.4,292.925,31.363,343.383c1.122,58.565,47.573,107.453,94.476,147.283C262.74,606.921,428.012,695.837,607.19,743.9c56.916,15.265,121.181,25.754,173.176-.37,49.7-24.968,75.732-79.483,74.757-131.384s-25.081-101.3-55.559-145.071-67.559-83.392-100.337-123.917c29.44.9,59.232,1.779,88.03-3.877S844.23,320.665,861.47,298.8c20.581-26.1,22.712-61.794,11.9-92.426s-33.123-56.832-58.085-79.5C763.769,80.083,699.046,45.593,629.172,27.694,581.911,15.586,530.9,11.127,484.016,24.4S395.25,71.066,383.545,114.711s13.369,95.463,49.708,112.019" transform="translate(66.886 30.501)" fill="#00483f"/>
              </g>
            </g>
            <g id="Grupo_1099036-2" data-name="Grupo 1099036" transform="translate(98.23 46.813)">
              <g id="Grupo_1099035-2" data-name="Grupo 1099035" clip-path="url(#clip-path-10)">
                <path id="Trazado_873021-2" data-name="Trazado 873021" d="M828.645,636.142S704.8,71.021.5,135.842" transform="translate(-97.163 197.508)" fill="#00483f" stroke="#f1e8d5" stroke-linecap="round" stroke-linejoin="round" stroke-width="1"/>
                <path id="Trazado_873022-2" data-name="Trazado 873022" d="M373.514,161.1S156.726,335.5,333.772,467.6" transform="translate(465.591 254.427)" fill="#00483f" stroke="#f1e8d5" stroke-linecap="round" stroke-linejoin="round" stroke-width="1"/>
                <path id="Trazado_873023-2" data-name="Trazado 873023" d="M792.206,30.987C768.663,220,706.483,240.268,581.052,250.3s-102.064,141.575-302.837,47.86S66.043,87.758,66.043,87.758" transform="translate(42.703 11.128)" fill="#00483f" stroke="#f1e8d5" stroke-linecap="round" stroke-linejoin="round" stroke-width="1"/>
                <path id="Trazado_873024-2" data-name="Trazado 873024" d="M353.417.5s125.932,122.3,45.051,186.652S140.96,75.466,140.96,75.466" transform="translate(202.572 -45.878)" fill="#00483f" stroke="#f1e8d5" stroke-linecap="round" stroke-linejoin="round" stroke-width="1"/>
                <path id="Trazado_873025-2" data-name="Trazado 873025" d="M397.692,406.138c9.28-143.906-159.919-280.479-336.07-185.326" transform="translate(33.268 306.964)" fill="#00483f" stroke="#f1e8d5" stroke-linecap="round" stroke-linejoin="round" stroke-width="1"/>
              </g>
            </g>
          </g>
          <path id="Trazado_874437" data-name="Trazado 874437" d="M333,0C516.911,0,666,149.089,666,333S516.911,666,333,666,0,516.911,0,333,149.089,0,333,0Z" transform="translate(-12151 -12981)" fill="#e4fbf2" opacity="0.18"/>
        </g>
      </g>
    </g>
    <g id="Grupo_1100215" data-name="Grupo 1100215" transform="translate(-696.72 -899.395)">
      <path id="Trazado_874486" data-name="Trazado 874486" d="M81.6,235.319c-.067-.172.087-.435.424-.762.055-.055.115-.112.18-.171.057-.077.117-.162.211-.178.186.185-.007-.494.242-.189.138.057.2-.079.264-.2s.278.05.295-.206c-.09-.481.452.378.316-.215.065-.17.2-.189.336-.23.283.264.252-.128.351-.252.328.325.378.081.369-.261.415.462.517.3.393-.266.133-.092.391.036.412-.274.127-.112.222-.287.425-.279-.055-.442.1-.517.423-.315-.072-.466.166-.412.442-.321.288.107.108-.515.457-.323.175-.079.268-.282.469-.329.252.035.529.076.455-.366.1-.2.166-.439.465-.37-.117-.485.164-.439.482-.372.12-.174.472-.068.466-.4.2-.083.176-.425.464-.413.249-.032.5-.074.472-.406-.052-.351.37-.2.43-.427.45.156.179-.388.427-.419.1-.171.468-.11.411-.415.061-.2.114-.4.375-.425-.4-.558.368-.178.373-.411.347.03.181-.317.34-.417,0-.213.454-.116.325-.408.14-.113.02-.387.311-.4-.2-.31.4-.144.277-.4a1.09,1.09,0,0,1,.276-.383c.532.1.208-.234.237-.377.114-.111-.15-.378.23-.363.1-.105.362-.149.211-.351-.028-.144.8.017.193-.334-.079-.152.593-.061.181-.315-.375-.236.112-.2.16-.3s.105-.189.156-.277c.43-.8.693-1.293.968-1.293.31,0,.6.757.487,2.021-.009.125.3.358-.039.4-.035.127.172.347-.074.414.4.3-.02.312-.1.447-.032.154-.23.241-.124.462.188.262-.264.244-.159.481-.341.026-.336.216-.179.5-.343.021-.123.344-.227.5-.479-.053-.3.261-.244.524s-.27.295-.289.523c-.184.119-.136.4-.316.531.05.291,0,.525-.345.533-.021.252-.248.352-.388.52,0,.284-.3.329-.4.532-.072.241-.654.009-.448.51-.116.208-.375.277-.472.5a.946.946,0,0,0-.489.506c-.5-.2-.475.171-.531.472a.84.84,0,0,1-.536.465,1.575,1.575,0,0,1-.54.44c-.1.249-.5.107-.555.394s-.491.089-.548.381c-.094.245-.227.438-.535.369-.182.117-.6-.141-.55.312-.122.188,0,.762-.537.3-.084.249-.505-.066-.52.281-.42-.318-.34.182-.51.267-.211.01-.454-.052-.505.219-.045.292-.378.053-.49.2-.02.329-.472-.168-.468.188-.176.018-.268.189-.45.173.159.666-.276.139-.43.154-.167-.015-.068.525-.41.124.089.51-.219.171-.39.1s-.142.295-.366.087c.037.368-.292-.087-.34.068-.193-.17-.2.072-.31.053-.057.113-.152.125-.283.039-.086.01-.172.018-.251.023-.476.028-.761-.039-.833-.211" transform="translate(-11375.453 -11943.184)" fill="#fff"/>
      <path id="Trazado_874487" data-name="Trazado 874487" d="M96.938,205.23c-.117.143-.365.173-.716.1-.059-.013-.119-.027-.182-.045-.08,0-.163,0-.2-.061.1-.233-.4.266-.218-.078.01-.132-.114-.1-.231-.09s-.033-.226-.246-.108c-.369.315.191-.527-.257-.123-.157.042-.213-.049-.273-.136.149-.347-.161-.132-.285-.151.193-.411-.015-.33-.295-.166.288-.54.139-.54-.306-.178-.105-.058-.052-.317-.316-.189-.123-.048-.292-.041-.325-.2-.355.233-.447.135-.335-.215-.377.253-.375.034-.341-.226.045-.276-.455.12-.348-.238-.094-.112-.286-.1-.355-.252,0-.228.006-.476-.36-.258-.184-.011-.391.007-.365-.272-.408.264-.4.007-.369-.279-.169-.038-.086-.391-.369-.286-.081-.158-.377-.042-.375-.3-.037-.211-.079-.414-.372-.3-.307.132-.167-.292-.359-.3.147-.434-.333-.084-.353-.3-.145-.064-.083-.385-.344-.3-.165-.032-.332-.061-.329-.3-.531.428-.119-.313-.319-.292.064-.308-.244-.145-.305-.289-.187.009-.023-.412-.294-.287-.071-.127-.345,0-.285-.28-.3.176-.024-.377-.268-.275-.094-.077-.2-.135-.252-.267.234-.478-.129-.216-.237-.261-.053-.115-.36.086-.222-.255-.061-.1,0-.344-.208-.246-.129,0,.314-.713-.193-.236-.154.036.184-.532-.174-.226-.34.275-.105-.152-.16-.219l-.138-.206c-.39-.6-.529-1.051-.355-1.268.194-.24.751-.163,1.548.17.079.035.373-.194.244.108.068.059.316-.1.258.123.377-.316.208.055.273.138.1.046.08.23.286.149.257-.149.082.244.294.163-.1.3.04.315.305.178-.087.3.227.105.318.193-.181.422.114.26.325.2s.162.217.331.215c.053.151.285.083.345.228.237-.075.4-.049.346.238.2-.023.243.156.355.249.223-.046.216.2.36.26.175.021-.061.555.366.268.157.05.187.252.366.279.084.148.166.3.373.291-.182.476.132.344.373.3.214-.008.292.147.371.3a.916.916,0,0,1,.362.3c.211-.015.11.356.351.3s.1.362.343.3c.2-.015.366.017.328.295.116.093-.049.527.322.294.169.015.623-.323.306.291.213-.045.01.424.295.283-.2.468.193.187.281.281.042.154.035.365.268.274s.112.256.252.268c.27-.144-.046.438.24.262.05.123.2.108.224.255.5-.449.164.135.208.245.018.138.433-.217.192.236.388-.331.189.066.173.228s.27-.056.159.218c.286-.225,0,.252.139.206-.089.23.107.1.12.194.1-.019.135.043.1.183.03.06.058.116.08.17.145.329.169.575.053.721" transform="translate(-11376.104 -11937.774)" fill="#fff"/>
      <path id="Trazado_874488" data-name="Trazado 874488" d="M78.43,201.488c-.159-.094-.231-.321-.222-.655,0-.054,0-.115.009-.174-.012-.072-.029-.152.023-.193.243.071-.325-.344.035-.208.129,0,.08-.12.05-.225s.211-.055.061-.24c-.37-.314.538.129.072-.252-.068-.141.009-.2.082-.266.362.105.1-.16.1-.279.43.141.316-.043.107-.29.572.218.546.081.117-.3.04-.105.3-.08.129-.313.024-.119-.013-.275.137-.322-.288-.307-.209-.4.149-.329-.31-.329-.1-.347.159-.34.274.016-.2-.414.167-.347.09-.1.05-.275.177-.352.222-.025.462-.039.188-.361-.02-.172-.075-.365.2-.365-.325-.356-.077-.371.206-.369.008-.161.361-.117.212-.374.135-.089-.027-.353.222-.376.193-.056.381-.112.224-.373-.179-.277.252-.186.228-.367.441.1.023-.315.227-.354.035-.144.356-.111.227-.347,0-.16,0-.318.228-.336-.5-.454.283-.14.226-.325.308.031.1-.242.224-.311-.042-.172.394-.058.222-.3.112-.078-.06-.32.221-.289-.222-.27.36-.059.218-.273.061-.1.1-.206.216-.262.5.171.184-.14.208-.248.1-.061-.148-.326.205-.232.087-.063.332-.03.2-.216-.017-.12.743.227.2-.2-.061-.138.542.124.187-.183-.325-.288.127-.112.182-.166s.117-.1.172-.152c.513-.419.919-.592,1.159-.449.265.159.288.685.105,1.457-.017.075.255.33-.06.237-.042.07.156.285-.072.253.37.322-.015.2-.082.268-.028.09-.212.094-.1.277.191.229-.22.1-.105.29-.307-.061-.3.07-.117.3-.3-.054-.06.221-.129.311-.438-.128-.23.132-.137.325s-.181.169-.149.329c-.139.061-.029.272-.16.341.116.213.116.365-.167.345.057.186-.111.241-.178.355.082.2-.159.219-.189.358.012.164-.543-.006-.2.366-.017.151-.209.2-.2.37-.126.09-.256.178-.213.371-.49-.122-.309.155-.222.378.046.2-.09.285-.226.373a.785.785,0,0,1-.226.366c.048.194-.323.134-.228.354s-.331.127-.227.346c.05.189.046.344-.23.336-.068.113-.513,0-.226.325.015.158.42.55-.222.313.079.195-.409.05-.222.3-.489-.147-.147.195-.221.287-.142.053-.347.068-.218.276s-.227.128-.215.261c.189.237-.427,0-.208.246-.109.057-.071.2-.208.233.52.427-.1.166-.2.217-.131.032.282.383-.2.2.388.334-.031.182-.188.182s.1.248-.182.168c.265.246-.242.027-.172.149-.239-.061-.082.109-.167.13.037.094-.018.13-.157.111-.053.035-.1.064-.153.093-.288.164-.522.211-.682.115" transform="translate(-11374.719 -11936.467)" fill="#fff"/>
      <path id="Trazado_874489" data-name="Trazado 874489" d="M101.608,198.128c.181.038.018,1.677-.435,4.638-.081.494-.164,1.024-.255,1.591a15.017,15.017,0,0,1-.3,1.8c-.373.58.173,1.39-.344,2.01a8.831,8.831,0,0,0-.391,2.2,4.2,4.2,0,0,1-.105.582c-.035.132-.068.213-.1.33-.067.211-.126.47-.034.587.064,0,.1.016.112.041.219-.06.217.084.375.176a.437.437,0,0,0,.284.07.387.387,0,0,0,.167-.051.519.519,0,0,0,.08-.058c.04-.023.1-.051.144-.083a16.229,16.229,0,0,1,2.8-.064c.962.363,1.954,0,2.973-.061a4.553,4.553,0,0,0,3.139-.059,3.321,3.321,0,0,0,3.294-.053,16.329,16.329,0,0,0,3.445-.05,29.2,29.2,0,0,1,3.584-.046,6.3,6.3,0,0,1,3.717-.041,7.617,7.617,0,0,1,3.845-.038c1.3.241,2.622-.38,3.962-.035,1.339.027,2.7-.1,4.07-.027a10.163,10.163,0,0,0,4.174-.024,17.818,17.818,0,0,1,4.268-.017,9.087,9.087,0,0,1,4.355-.015,36.149,36.149,0,0,0,4.435-.007c1.49.071,2.993-.2,4.506,0,.286.027.571.051.858.076l.827.061a.747.747,0,0,0,.377,0,.7.7,0,0,0-.13-.288l-.081-.084a.731.731,0,0,1-.018-.193l-.009-.277c0-.373.017-.742.044-1.112a14.72,14.72,0,0,0,.072-2.208,4.206,4.206,0,0,0,.163-1.1c0-.181,0-.364-.01-.547,0-.085-.009-.191-.02-.26l-.031-.208a14.635,14.635,0,0,0-.487-1.563,8.944,8.944,0,0,0-.877-1.487,4.114,4.114,0,0,0-1.385-1.208c-.517-.347-1.067-.653-1.615-.951-.257-.134-.512-.271-.766-.408-.06-.043.049-.06-.424-.111-1.375.664-2.732-.17-4.07-.029a25.579,25.579,0,0,0-3.962-.031c-1.3.125-2.583-.308-3.845-.038a22.962,22.962,0,0,1-3.717-.042c-1.218.33-2.412-.277-3.585-.046-1.171,0-2.319.021-3.443-.05-1.123-.517-2.222-.087-3.294-.053-1.074-.057-2.12.295-3.139-.057a11.867,11.867,0,0,0-2.975-.062c-.962.077-1.9-.752-2.8-.064-.9.123-1.778-.53-2.622-.068-.843.428-1.655-.051-2.434-.07s-1.527-.049-2.24-.074c-6.419-.224-10.1-.484-10.1-.763,0-.31,4.542-.6,12.338-.839a5.87,5.87,0,0,1,2.434-.07,11.047,11.047,0,0,1,2.622-.068c.9-.481,1.84-.087,2.8-.064a17.771,17.771,0,0,0,2.975-.061c1.019-.279,2.065.138,3.139-.056a6.518,6.518,0,0,0,3.294-.055,14.45,14.45,0,0,0,3.443-.049,7.007,7.007,0,0,0,3.585-.048c1.216-.162,2.456.066,3.717-.041,1.262.085,2.543-.112,3.845-.036a11.38,11.38,0,0,1,3.962-.034,38.559,38.559,0,0,1,4.07-.028,4.947,4.947,0,0,1,.666-.046l.244-.005c.042,0,.08,0,.122,0l.112.043c.152.057.3.117.451.183l.318.145.258.13c.171.089.337.182.5.28.66.393,1.288.842,1.924,1.306a7.175,7.175,0,0,1,1.663,1.74c.481.676.936,1.348,1.52,2.057a6.409,6.409,0,0,1,.644,2.633l.009.342,0,.283,0,.547c0,.365.01.731.032,1.1-.03.734-.062,1.471-.07,2.208,0,.37,0,.74.011,1.112.024.562.046,1.125.068,1.692a15.591,15.591,0,0,0-.228,1.817,25.635,25.635,0,0,0-2.983.017c-.075,0-.1.005-.135.009l-.108.011-.213.025-.428.054-.858.111a31.908,31.908,0,0,1-4.506,0c-1.49.05-2.97.023-4.435-.007-1.466.142-2.918-.209-4.355-.015s-2.861-.219-4.268-.02a15.267,15.267,0,0,1-4.174-.023c-1.375,0-2.732-.441-4.07-.027-1.34.092-2.66.641-3.962-.032-1.3.166-2.583-.325-3.845-.038-1.26-.493-2.5-.027-3.717-.042a13.771,13.771,0,0,0-3.584-.046,25.325,25.325,0,0,1-3.445-.051c-1.123.284-2.222-.369-3.294-.054-1.072-.064-2.118.044-3.139-.057-1.019.664-2.011,0-2.973-.061-.965-.1-1.9.44-2.8-.064-.052.027-.1.051-.152.074-.079.02-.161.04-.241.058a4.82,4.82,0,0,1-.5.076,6.611,6.611,0,0,1-.986.018,12.447,12.447,0,0,1-1.64-.228c.064-.191.127-.381.189-.57a11.151,11.151,0,0,0,.377-1.863c.024-.154.049-.307.074-.458s.061-.325.09-.439a1.925,1.925,0,0,1,.23-.555c-.186-.836.505-1.454.534-2.178a8.194,8.194,0,0,0,.5-1.978,5.3,5.3,0,0,1,.451-1.771c.148-.553.283-1.071.412-1.555.778-2.9,1.29-4.458,1.471-4.42" transform="translate(-11378.813 -11938.052)" fill="#fff"/>
      <path id="Trazado_874490" data-name="Trazado 874490" d="M50.961,262.139c-.092,0-.193-.17-.3-.485-.057-.155-.1-.349-.169-.574s-.157-.477-.241-.763c-.064-.189-.153-.384-.231-.6-.052-.1-.105-.207-.149-.318a1.6,1.6,0,0,1-.138-.34c.136-.327-.582-.317-.363-.7a.779.779,0,0,0-.15-.4,2.052,2.052,0,0,0-.136-.175c-.057-.053-.113-.105-.171-.16-.229-.2-.169-.619-.562-.741-.286.012-.273-.193-.281-.4s-.059-.4-.394-.329a2.013,2.013,0,0,1-.418-.315,5.007,5.007,0,0,1-.373-.38.46.46,0,0,0-.347-.449c-.184-.07-.391-.1-.565-.184-.084-.555-.541-.645-1.034-.523-.049-.349-.183-.58-.39-.631a.945.945,0,0,0-.748.219c-.2-.064-.386-.149-.584-.23a1.248,1.248,0,0,0-.309-.081.8.8,0,0,0-.336.066c-.216-.008-.43-.019-.648-.013a1.939,1.939,0,0,1-.651-.064,1.151,1.151,0,0,1-.649.322.9.9,0,0,1-.333-.049,1.429,1.429,0,0,1-.355-.141c-.385.478-.814.426-1.337.336a.883.883,0,0,0-.641.3c-.186.164-.355.337-.651.283A1.226,1.226,0,0,0,37,254.8l-.295.212c-.2.132-.38.3-.6.417a3.907,3.907,0,0,0-.377.125,1.951,1.951,0,0,0-.329.2,1.1,1.1,0,0,0-.262.278,1.008,1.008,0,0,0-.112.417c-.129.222-.255.442-.375.663a1.927,1.927,0,0,1-.529.553c.119.668-.259.982-.685,1.38a3.763,3.763,0,0,1-.316.721,1.179,1.179,0,0,0-.114.786,2.728,2.728,0,0,0-.065.792,1.577,1.577,0,0,1-.087.8,4.486,4.486,0,0,0-.112.818,1.4,1.4,0,0,0,.264.772,1.155,1.155,0,0,1,.244.747,1.6,1.6,0,0,0,.186.76.557.557,0,0,0,0,.424,1.216,1.216,0,0,0,.218.332c.162.212.406.362.465.625a7.45,7.45,0,0,1,.372.674,1.039,1.039,0,0,0,.532.542l.291.237a3.389,3.389,0,0,1,.3.224,2.132,2.132,0,0,1,.256.263,1.951,1.951,0,0,1,.234.295.54.54,0,0,1,.694.266c.072.105.135.229.215.334a.439.439,0,0,0,.3.206.975.975,0,0,0,.608.391,2.227,2.227,0,0,1,.684.189,1.454,1.454,0,0,1,.654.249.756.756,0,0,0,.683.087,1.565,1.565,0,0,0,.336.046c.114-.007.226-.024.338-.031a1.136,1.136,0,0,1,.663.117.622.622,0,0,1,.652-.048.7.7,0,0,0,.646-.03c.105-.017.209-.03.313-.05l.306-.081c.2-.054.409-.075.611-.115a.559.559,0,0,0,.661.006c.178-.112.3-.323.477-.42.4-.109.52-.632,1.034-.523.167-.091.355-.154.525-.236a.644.644,0,0,0,.387-.4c.107-.152.363-.131.577-.174s.353-.164.214-.52c.065-.17.286-.2.457-.277s.31-.188.218-.452c-.147-.49.381-.49.562-.741.046-.062.087-.12.133-.181s.072-.127.11-.187c.074-.125.145-.245.214-.364A13.351,13.351,0,0,0,50.5,263.2c.181-.674.322-1.057.465-1.057.077,0,.147.119.211.355.03.119.061.266.087.443.012.087.03.183.037.287s0,.211,0,.327a8.455,8.455,0,0,1-.928,3.931c-.163.306-.037.846-.541.968a3.011,3.011,0,0,0-.264.542.818.818,0,0,1-.436.434.586.586,0,0,1-.277.619,6.759,6.759,0,0,0-.6.332,2.679,2.679,0,0,1-.542.4,1.731,1.731,0,0,0-.507.49.961.961,0,0,1-.584.429,1.707,1.707,0,0,0-.657.347,1.5,1.5,0,0,0-.762.145,2.084,2.084,0,0,0-.644.493,1.29,1.29,0,0,0-.792.138c-.122.062-.249.123-.373.186a1.794,1.794,0,0,1-.4.108,1.057,1.057,0,0,0-.85-.094,7.262,7.262,0,0,0-.833.3,1.984,1.984,0,0,1-.873.013c-.145-.019-.292-.039-.44-.053a2.213,2.213,0,0,0-.445-.038,13.486,13.486,0,0,1-1.8-.364,3.331,3.331,0,0,1-.955-.152,2.072,2.072,0,0,1-.8-.553,1.571,1.571,0,0,1-.455-.176c-.144-.076-.283-.162-.418-.251-.28-.171-.52-.4-.785-.6a1.959,1.959,0,0,1-.436-.249,4.438,4.438,0,0,1-.365-.344l-.344-.366c-.112-.127-.219-.257-.344-.374a2.228,2.228,0,0,1-.54-.865,1.387,1.387,0,0,0-.716-.75,14.576,14.576,0,0,1-.959-1.861c-.085-.345-.2-.679-.277-1.024a7.471,7.471,0,0,0-.326-1.021,1.615,1.615,0,0,0,.094-1.094,8.691,8.691,0,0,0-.3-1.062,4.8,4.8,0,0,1-.024-1.093,9.62,9.62,0,0,1,.234-1.062,7.75,7.75,0,0,1,.226-1.05,9.587,9.587,0,0,1,.378-1,1.308,1.308,0,0,1,.179-.5c.086-.154.184-.3.277-.45a3.453,3.453,0,0,0,.5-.912,1.822,1.822,0,0,1,.6-.842,3.082,3.082,0,0,0,.66-.773c.089-.149.178-.3.28-.436a4.711,4.711,0,0,1,.344-.374,3.128,3.128,0,0,1,.391-.317,2.146,2.146,0,0,1,.473-.207,3.225,3.225,0,0,1,.9-.419,1.726,1.726,0,0,0,.425-.227A1.5,1.5,0,0,0,36,252.1c.268-.179.486-.476.76-.659a.913.913,0,0,1,1-.046,1.815,1.815,0,0,1,.91-.178,1.6,1.6,0,0,0,.885-.187.912.912,0,0,0,.467.143,1.223,1.223,0,0,0,.433-.035,3.029,3.029,0,0,1,.86-.185c.288.061.568.141.843.182a2.021,2.021,0,0,0,.836.021.983.983,0,0,1,.427-.011,2.287,2.287,0,0,1,.388.148,3.336,3.336,0,0,0,.751.3.921.921,0,0,1,.719.308c.211.166.39.368.686.329a7.07,7.07,0,0,1,1.241.777.52.52,0,0,1,.709.224c.138.215.2.491.34.668a1.451,1.451,0,0,0,.57.356.524.524,0,0,1,.3.6.512.512,0,0,1,.564.332c.073.2.077.45.137.644.117.38.6.521.541.968a.366.366,0,0,1,.241.168.564.564,0,0,1,.052.264c.006.19-.021.384.1.5-.067.378.222.581.268.876a.908.908,0,0,1,.165.8c.035.254.075.488.089.708.01.334.012.627.007.88a4.423,4.423,0,0,1-.089.634c-.072.34-.154.511-.248.511" transform="translate(-11364.371 -11949.695)" fill="#fff"/>
      <path id="Trazado_874491" data-name="Trazado 874491" d="M53.848,215.3c-.033.087-.264.1-.669.046-.2-.027-.45-.07-.737-.128s-.615-.138-.994-.2c-.246-.051-.512-.1-.8-.16a5.469,5.469,0,0,1-.9-.178c-.255-.317-.756.28-1.012-.174a1.958,1.958,0,0,0-1.113-.172c-.4.011-.752-.31-1.207-.164-.489.412-.773-.648-1.306-.123a5.005,5.005,0,0,1-1.4-.09.833.833,0,0,0-.716-.2c-.252.028-.509.134-.763.151a.949.949,0,0,0-.761-.285,1.654,1.654,0,0,0-.407.09c-.2.057-.423.125-.662.2-.608-.5-1.012-.517-2.074-.174a2.538,2.538,0,0,0-.24-.234c-.01-.479.043-1,.065-1.491a3.011,3.011,0,0,0-.117-1.276,7.883,7.883,0,0,1-.045-1.834A1.764,1.764,0,0,1,37.951,207a2.092,2.092,0,0,1-.037-1.967c.241-.667-.378-1.343-.032-2.03.025-.684-.1-1.38-.028-2.084a2.743,2.743,0,0,0-.024-2.137,4.738,4.738,0,0,1-.018-2.188,2.494,2.494,0,0,1-.015-2.229c-.075-.75.251-1.509-.009-2.272a14.034,14.034,0,0,1,0-2.306l.013-.074.012-.132.027-.264c.015-.171.03-.346.045-.516.029-.34.049-.671.059-1.005a11.856,11.856,0,0,0-.154-2.225,7.979,7.979,0,0,1-.105-1.259c.482.236,1.009.557,1.5.846a10.45,10.45,0,0,0,1.405.736,5.259,5.259,0,0,0,1.806,1.027,2.929,2.929,0,0,1,1.042.413c.679.29,1.2.877,1.948.993a5.827,5.827,0,0,1,1.9.977.953.953,0,0,1,1.019.306c.132.127.254.266.388.387a1.408,1.408,0,0,0,.209.16l.055.033.077.038c.068.031.138.061.214.088a4.965,4.965,0,0,0,1.02.642c.083.377.188.74.29,1.119q.062.23.12.457a2.4,2.4,0,0,1,.057.326c.253.63-.042,1.357.35,1.936.072.645.461,1.215.333,1.876.445.547-.032,1.266.314,1.81a15.14,15.14,0,0,1,.3,1.738c-.4.667.135,1.134.277,1.665.052.551.5,1.008.258,1.589.063.519-.062,1.06.241,1.505.171.468-.55,1.1.218,1.42.214.43-.341,1,.2,1.328.5.34.114.844.174,1.237s.106.777.154,1.14c.424,3.268.539,5.168.264,5.22-.3.063-1.042-2.162-2.061-6.03-.1-.387-.538-.722-.313-1.209-.083-.425-.445-.808-.329-1.3-.564-.359-.273-.906-.346-1.394a4.665,4.665,0,0,0-.358-1.483c-.377-.457-.072-1.063-.369-1.563a1.788,1.788,0,0,0-.385-1.645c.169-.619-.288-1.13-.395-1.72.318-.675-.108-1.213-.406-1.791-.281-.579-.181-1.247-.413-1.859-.043-.649-.366-1.253-.425-1.924-.052-.1-.105-.2-.152-.306-.024-.046-.049-.117-.065-.14l-.032-.011c-.037-.012-.048-.017-.037-.047s.017-.064.027-.156l-.03.013s-.024,0-.043-.012l-.064-.02c-.08-.028-.162-.061-.241-.094-.159-.07-.312-.147-.463-.23-.306-.166-.609-.349-.922-.505a11.619,11.619,0,0,1-1.922-.935c-.686-.239-1.086-1.07-1.966-.961a9.22,9.22,0,0,1-.98-.494c-.035-.035-.1-.079-.132-.047-.061-.082-.193-.2-.246-.189a.8.8,0,0,0,.068.179c-.242-.26-.288-.14-.249-.019a.485.485,0,0,0,.105.181.421.421,0,0,0,.072.068.169.169,0,0,1,.036.024.084.084,0,0,1,.02.011l.018.074a8.518,8.518,0,0,1,0,2.306,21.668,21.668,0,0,1-.009,2.272c.145.75-.207,1.494-.015,2.229.208.737-.219,1.467-.017,2.188a4.053,4.053,0,0,1-.025,2.137c0,.7-.44,1.4-.027,2.084.094.686.642,1.362-.034,2.03.171.667-.324,1.322-.036,1.967-.494.646-.025,1.281-.042,1.907a3.669,3.669,0,0,0-.045,1.834c.117.408.083.323.034.442-.053.083-.124.226-.084.281.046-.013.067-.009.072.009.08-.013.065.086.117.153s.15.1.273-.028a.489.489,0,0,0,.15.019c.135,0,.271.008.408.013a3.99,3.99,0,0,1,.815.077.635.635,0,0,1,.811-.2,4.392,4.392,0,0,0,.748.374c.491.145,1.049-.353,1.459.226.539-.428.942.069,1.354.267.406.224.894-.042,1.241.315.476-.27.743.344,1.128.325.307.318.7.19,1.012.333a1.347,1.347,0,0,1,.895.336c.274.116.535.222.778.325a9.367,9.367,0,0,1,.935.446c.264.142.485.27.66.38.347.221.513.377.477.465" transform="translate(-11366.03 -11935.439)" fill="#fff"/>
      <path id="Trazado_874492" data-name="Trazado 874492" d="M.03,239.121c-.082-.046,0-.363.249-.939A17.019,17.019,0,0,1,1.53,235.75l.666-1.1a8.327,8.327,0,0,1,.843-1.19c.515-.238.3-1.134.987-1.3a5.923,5.923,0,0,0,1.159-1.373c.373-.513,1.022-.778,1.354-1.413.161-.841,1.377-.518,1.541-1.439a5.886,5.886,0,0,1,.8-.783c.3-.226.619-.44.94-.657a2.054,2.054,0,0,0,1.029-.593c.3-.263.586-.568.919-.815a2.219,2.219,0,0,0,1.181-.459,4.99,4.99,0,0,0,.967-.886,2.193,2.193,0,0,0,1.345-.263,2.769,2.769,0,0,0,1.011-.989,15.867,15.867,0,0,0,2.555-1.128c.43-.206.876-.383,1.332-.551a9.919,9.919,0,0,1,1.409-.425,3.887,3.887,0,0,1,1.376-.67,3.811,3.811,0,0,1,1.545-.1,3.927,3.927,0,0,1,2.272-.592c.268.008.536.024.807.049a2.712,2.712,0,0,0,.8-.053c.13-.027.263-.059.391-.094l.4-.085a3.478,3.478,0,0,1,1.625-.079l.406-.021.411-.009.827-.033a9.824,9.824,0,0,1,1.671.043c.276.057.556.114.833.164s.556.117.836.153a5.452,5.452,0,0,0,1.721-.038,16.129,16.129,0,0,1,1.736.135,6.813,6.813,0,0,1,1.695.467,4.285,4.285,0,0,1,1.789.171,11.074,11.074,0,0,1,1.637.772,11.848,11.848,0,0,1,1.674.669,8.127,8.127,0,0,0,1.7.636c.274.135.556.252.84.362s.56.244.844.364a8.391,8.391,0,0,1,1.623.886c.5.373.99.745,1.505,1.068a8.108,8.108,0,0,0,1.613.875,5.035,5.035,0,0,1,1.512,1.016,13.2,13.2,0,0,0,1.365,1.184,4.291,4.291,0,0,0,1.265,1.259,5.668,5.668,0,0,1,1.342,1.156,6.863,6.863,0,0,1,.6.636c.182.23.363.461.54.689s.367.45.562.66a4.921,4.921,0,0,0,.618.609,13.672,13.672,0,0,1,1.131,1.291,7.115,7.115,0,0,1,.9,1.441,2.129,2.129,0,0,1,1.07,1.3,5.579,5.579,0,0,0,.667,1.527,5.075,5.075,0,0,0,.684,1.474,10.217,10.217,0,0,1,.748,1.416,5.669,5.669,0,0,1,.557,1.474A4.993,4.993,0,0,0,68.3,244c.15.491.374.951.543,1.427a4.235,4.235,0,0,1,.34,1.462,2.967,2.967,0,0,1,.381,1.42,3.742,3.742,0,0,0,.241,1.421c.105.464.175.93.246,1.391a10.625,10.625,0,0,1,.145,1.374,2.114,2.114,0,0,0-.085,1.362c.075.436.215.867.259,1.3.008.434.085.861.127,1.283a2.389,2.389,0,0,1-.13,1.256,9.673,9.673,0,0,0-.181,2.394,3.021,3.021,0,0,1-.358,1.115,1.018,1.018,0,0,0,.05,1.123c.04.749-.753,1.319-.413,2.068a1.188,1.188,0,0,1-.079,1.006,5.781,5.781,0,0,0-.418.887c-.162.6-.375,1.167-.552,1.71a29.986,29.986,0,0,1-2.5,5.4c-.734,1.16-1.2,1.731-1.317,1.665-.068-.038-.03-.272.1-.685.067-.208.156-.458.27-.753s.244-.634.38-1.023a43.292,43.292,0,0,0,1.992-6.719,7.093,7.093,0,0,0,.052-.925,1.649,1.649,0,0,1,.288-.909,8.1,8.1,0,0,1,.263-1.988,1.427,1.427,0,0,1-.083-1.067c.074-.347.2-.7.25-1.064a8.121,8.121,0,0,0,.051-2.265,2.735,2.735,0,0,1-.068-1.178,2.879,2.879,0,0,0-.039-1.206,3.183,3.183,0,0,0,.109-1.251,4.747,4.747,0,0,0-.378-1.236,2.562,2.562,0,0,0-.105-1.293c-.119-.423-.262-.843-.355-1.278a2.34,2.34,0,0,0-.073-1.364c-.157-.43-.391-.846-.593-1.267a7.688,7.688,0,0,1-.442-1.323,6.026,6.026,0,0,0-.458-1.342,6.687,6.687,0,0,0-.532-1.338c-.224-.434-.417-.88-.6-1.334A9.194,9.194,0,0,1,63.816,241a5.488,5.488,0,0,1-.572-1.4,10.274,10.274,0,0,1-.84-1.274c-.252-.445-.531-.879-.814-1.314a10.393,10.393,0,0,1-.962-1.23,9.824,9.824,0,0,0-.948-1.265,4.041,4.041,0,0,1-.487-.634l-.453-.668a4.3,4.3,0,0,0-.517-.626,2.138,2.138,0,0,0-.711-.442c-.406-.358-.768-.764-1.173-1.132a9.479,9.479,0,0,0-1.247-1.074c-.412-.364-.8-.763-1.257-1.093a10.211,10.211,0,0,0-1.4-.921,3.474,3.474,0,0,0-1.284-1.138,16.848,16.848,0,0,0-1.6-.649A12.381,12.381,0,0,1,48,225.434c-.248-.128-.489-.281-.741-.4l-.753-.379c-.528-.193-1.034-.434-1.556-.625l-1.551-.593a7.643,7.643,0,0,1-1.566-.509,6.237,6.237,0,0,0-1.586-.385,6.038,6.038,0,0,1-1.581-.33,4.638,4.638,0,0,0-1.578-.259c-.532-.019-1.061,0-1.581-.046-.261-.02-.519-.058-.775-.1a5.573,5.573,0,0,1-.771-.159c-.516-.025-1.029-.16-1.542-.205a4.133,4.133,0,0,0-.77-.025,2.162,2.162,0,0,0-.382.055,2.221,2.221,0,0,0-.373.141c-.505.077-.994.267-1.481.362a2.986,2.986,0,0,1-.368.049,1.98,1.98,0,0,1-.368.019,1.818,1.818,0,0,1-.766-.208,3.063,3.063,0,0,1-.725.116c-.246.009-.49.005-.734.024a3.326,3.326,0,0,0-1.412.295,2.091,2.091,0,0,0-1.429.129,11.3,11.3,0,0,1-1.312.5c-.45.1-.9.177-1.345.292a3.461,3.461,0,0,0-1.24.534c-.734.553-1.693.506-2.426.966a2.339,2.339,0,0,1-1.163.5,2,2,0,0,0-1.094.577c-.369.17-.719.374-1.064.57a8.026,8.026,0,0,1-1.015.6,1.186,1.186,0,0,1-.83.818,7.589,7.589,0,0,0-1.071.413,3.742,3.742,0,0,0-.8.737,1.31,1.31,0,0,1-.924.528c-.2.83-1,.9-1.551,1.27-.565.345-.773,1.017-1.387,1.247-.147.684-.935.729-1.216,1.216-.563.241-.7.814-1.063,1.155a3.318,3.318,0,0,1-.939,1.053l-.773.972c-.755.887-1.259,1.633-1.653,2.108s-.634.706-.718.661" transform="translate(-11358 -11942.793)" fill="#fff"/>
      <path id="Trazado_874493" data-name="Trazado 874493" d="M59.866,258.785c-.219,0-.267-1.549-.94-4.22-.049-.222-.126-.448-.193-.685s-.13-.483-.219-.729-.193-.5-.282-.759a8.356,8.356,0,0,1-.285-.808c.028-.321-.2-.562-.4-.813a1.178,1.178,0,0,1-.362-.874,3.232,3.232,0,0,0-.4-.913c-.087-.145-.178-.291-.276-.435s-.208-.282-.314-.425a4.108,4.108,0,0,1-.281-.455c-.087-.156-.174-.315-.264-.477a2.72,2.72,0,0,0-.7-.878,1.414,1.414,0,0,1-.693-.93,1.2,1.2,0,0,0-.835-.866c-.649-.505-1.2-1.129-1.839-1.714-.41-.854-1.367-1.116-2.14-1.575a3.187,3.187,0,0,0-2.449-1.352,2.435,2.435,0,0,0-2.731-1.053,7.794,7.794,0,0,0-2.97-.68c-1.035-.128-2.088-.134-3.16-.244a6.388,6.388,0,0,1-3.271.251,8.1,8.1,0,0,1-3.286.793,3.085,3.085,0,0,0-.832.232c-.263.121-.515.272-.771.416a5.08,5.08,0,0,1-1.594.722,26.244,26.244,0,0,0-3,1.938,5.713,5.713,0,0,0-2.681,2.49c-.759.989-1.385,2.049-2.251,2.988a10.382,10.382,0,0,1-1.707,3.406,11.926,11.926,0,0,0-1.075,3.724c-.316,1.28-.167,2.611-.369,3.926a8.077,8.077,0,0,0,.369,3.926,9.068,9.068,0,0,1,.517,1.876c.057.321.134.634.219.946a4.448,4.448,0,0,0,.34.9,2.676,2.676,0,0,0,.222.951c.065.149.133.292.208.435s.167.274.258.41c.171.27.356.533.539.791a7.117,7.117,0,0,1,.48.818,11.318,11.318,0,0,0,2.251,2.987c.89.862,1.837,1.612,2.681,2.49a2.875,2.875,0,0,1,1.572.874c.216.211.439.417.669.606a4.437,4.437,0,0,0,.36.266,2.414,2.414,0,0,0,.4.193,9.956,9.956,0,0,0,3.2,1.37,13.33,13.33,0,0,1,1.628.517,4.641,4.641,0,0,0,.818.226,2.831,2.831,0,0,0,.84.049c1.1.226,2.2,0,3.271.251a2.588,2.588,0,0,1,.8-.123,6.444,6.444,0,0,1,.8.024,5.653,5.653,0,0,0,.8.016,2.184,2.184,0,0,0,.766-.161c1.026-.159,2-.447,2.97-.679a2.264,2.264,0,0,0,.784-.023,3.286,3.286,0,0,0,.691-.271,5.658,5.658,0,0,0,.634-.384c.2-.138.413-.259.621-.378a6.9,6.9,0,0,0,1.2-.741,3.538,3.538,0,0,1,1.246-.609,6.624,6.624,0,0,0,2.14-1.576,4.851,4.851,0,0,1,1.119-.678,1.214,1.214,0,0,0,.72-1.034,3.5,3.5,0,0,1,.9-.814,1.378,1.378,0,0,0,.627-.983,1.72,1.72,0,0,1,.516-1c.129-.136.265-.263.4-.393a2.459,2.459,0,0,0,.334-.421c.092-.151.186-.3.277-.445s.167-.3.249-.45c.167-.294.326-.586.463-.877a24.044,24.044,0,0,0,1.447-3.624,28.238,28.238,0,0,0,.695-2.833c.138-.788.245-1.393.318-1.8s.15-.628.222-.628c.134,0,.348,1.074.231,3.1a20.141,20.141,0,0,1-.6,3.685,21.685,21.685,0,0,1-1.846,4.709,5.622,5.622,0,0,0-.234.531c-.075.182-.149.369-.234.552a2.137,2.137,0,0,1-.758.953,7.41,7.41,0,0,1-1.556,2.045c-.253.979-1.19,1.381-1.917,1.972-.695.652-1.567,1.108-2.282,1.836a3.631,3.631,0,0,1-1.267.858,7.7,7.7,0,0,0-1.385.744,8.651,8.651,0,0,0-3,1.28c-1.139.06-2.14.693-3.3.866a9.836,9.836,0,0,0-3.544.369,18.285,18.285,0,0,1-3.695-.193,25.47,25.47,0,0,1-3.744-.822,7.706,7.706,0,0,1-3.664-1.493,14.822,14.822,0,0,1-3.45-2.159,15.221,15.221,0,0,1-3.093-2.8,8.711,8.711,0,0,1-1.251-1.717,6.314,6.314,0,0,0-1.347-1.67,26.452,26.452,0,0,1-1.982-3.887c-.485-1.392-.833-2.823-1.247-4.262a17.553,17.553,0,0,0-.43-4.492,13.824,13.824,0,0,1,.43-4.492,18.369,18.369,0,0,1,1.247-4.263,29.021,29.021,0,0,1,1.981-3.886,6.869,6.869,0,0,1,1.229-1.761,15.615,15.615,0,0,0,1.37-1.627,9.3,9.3,0,0,1,3.093-2.8,12.254,12.254,0,0,1,1.772-1.031c.3-.164.6-.315.879-.5a4.294,4.294,0,0,0,.408-.3,3.523,3.523,0,0,0,.391-.332c.568-.358,1.111-.777,1.7-1.1a4.283,4.283,0,0,1,.928-.367,2.871,2.871,0,0,1,1.031-.03,6.136,6.136,0,0,1,1.884-.445c.316-.045.634-.083.945-.131a5.116,5.116,0,0,0,.917-.247,3.288,3.288,0,0,0,.954.092,5.713,5.713,0,0,0,.919-.084c.3-.057.605-.094.912-.14a4.6,4.6,0,0,1,.91-.061,34.158,34.158,0,0,0,3.541.368c1.2-.047,2.229.606,3.3.866a2.7,2.7,0,0,1,.81.206,7.217,7.217,0,0,1,.728.4c.237.135.463.287.7.41a2.793,2.793,0,0,0,.762.261,19.155,19.155,0,0,1,2.652,1.6,1.794,1.794,0,0,1,1.351.682c.333.377.6.815.931,1.155.645.68,1.677.975,1.917,1.972a1.863,1.863,0,0,1,1.005.869c.214.383.375.795.55,1.176a5.983,5.983,0,0,0,.694,1,4.407,4.407,0,0,1,.335.484,1.787,1.787,0,0,1,.2.557,1.375,1.375,0,0,1,.385.433,2.652,2.652,0,0,1,.189.526,3.638,3.638,0,0,0,.351,1.014,12.152,12.152,0,0,0,.669,1.86,5.037,5.037,0,0,1,.326.854,4.463,4.463,0,0,1,.121.857c.068.268.105.536.152.788s.094.5.121.741c.369,2.867.05,4.427-.1,4.422" transform="translate(-11361.044 -11946.343)" fill="#fff"/>
      <path id="Trazado_874494" data-name="Trazado 874494" d="M111.909,251.449c0-.185.974-.363,2.754-.527q.445-.04.957-.082a5.371,5.371,0,0,1,1.086-.079c.383.246.788-.454,1.213-.075a3.186,3.186,0,0,0,1.333-.073c.462-.087.946.155,1.447-.072.5-.476,1.023.531,1.561-.068a5.85,5.85,0,0,1,1.666-.062c.574.364,1.163,0,1.769-.062a1.7,1.7,0,0,0,1.868-.057,1.317,1.317,0,0,0,1.959-.055,5.758,5.758,0,0,0,2.049-.049,10.309,10.309,0,0,1,2.133-.046,2.31,2.31,0,0,1,2.208-.041,1.928,1.928,0,0,1,.568-.221,2.045,2.045,0,0,1,.283-.042c.046,0,.1-.006.144-.006l.241,0a12.787,12.787,0,0,1,2.041.229,7.89,7.89,0,0,0,2.162-.057,5.616,5.616,0,0,1,2.107.023c.408.009.848,0,1.3-.007l.335-.006.243.012.5.018c-.51.378-1.213.891-1.944,1.382-.492.308-.989.618-1.481.923l-.661.431a6.433,6.433,0,0,0-.572.4,10.647,10.647,0,0,0-.871.781c-.064.07-.13.138-.2.208-.048.066-.083.132-.125.2-.079.138-.153.28-.224.432l-.318.411-.079.1-.04.05-.017.031-.071.125c-.094.166-.192.329-.3.485a5.1,5.1,0,0,1-.325.466c-.061.073-.124.145-.193.215s-.132.143-.206.213a3.324,3.324,0,0,1-1,2.1,3.048,3.048,0,0,1-.2.553c-.075.183-.151.369-.226.552a2.586,2.586,0,0,0-.175.571,1.956,1.956,0,0,0-.03.607,4.047,4.047,0,0,0-.094.592,1.928,1.928,0,0,0-.015.3l-.009.474a16.065,16.065,0,0,1-.186,2.468l-.009.072c0,.009,0,.028-.01.03l-.042,0-.167-.013-.329-.025-.642-.046c-.421-.028-.825-.049-1.222-.058-.2,0-.395-.006-.59,0l-.1,0-.084.006-.165.013a3.6,3.6,0,0,0-.667.134c-.886.295-1.766-.123-2.638-.009-.872-.431-1.736.142-2.592-.013a11.466,11.466,0,0,0-2.537-.02,7.746,7.746,0,0,1-2.485-.023c-.817.664-1.625-.171-2.421-.028-.8-.281-1.582.042-2.357-.033-.774.124-1.535-.307-2.285-.036a8.245,8.245,0,0,1-2.211-.042c-.725.329-1.438-.28-2.133-.047a20.261,20.261,0,0,1-2.048-.049c-.669-.519-1.324-.089-1.961-.055-.637-.055-1.261.295-1.867-.057a4.224,4.224,0,0,0-1.77-.061c-.572.076-1.127-.755-1.666-.064-.539.123-1.06-.531-1.561-.068-.5.427-.984-.053-1.447-.069l-1.333-.074c-3.82-.225-6.006-.487-6.006-.764,0-.31,2.7-.6,7.34-.839.463-.024.946-.386,1.447-.072.5,0,1.022-.275,1.561-.066.538-.481,1.093-.089,1.666-.064a6.321,6.321,0,0,0,1.77-.063c.606-.279,1.23.14,1.867-.057a2.37,2.37,0,0,0,1.961-.053c.667.287,1.351-.062,2.048-.051.7.444,1.409.132,2.133-.046.724-.162,1.46.066,2.211-.041.75.084,1.511-.114,2.285-.038a4.113,4.113,0,0,1,2.357-.034,14.042,14.042,0,0,1,2.421-.028,15.764,15.764,0,0,1,2.485-.022c.836-.094,1.683.472,2.537-.02.855-.062,1.72.078,2.592-.013a11.886,11.886,0,0,0,2.638-.007,2.072,2.072,0,0,0,.667.228,2.531,2.531,0,0,0,.316.032.2.2,0,0,0,.087-.012.174.174,0,0,0,.1-.26c-.064-.119-.08-.134-.067-.183l0-.016.025-.177a3.249,3.249,0,0,1,.065-.364l.164-.719a11.391,11.391,0,0,1,.793-2.8,22.952,22.952,0,0,1,1.255-2.563,2.535,2.535,0,0,1,.137-.33,3.526,3.526,0,0,1,.189-.3,6.767,6.767,0,0,1,.448-.543c.307-.316.729-.783.661-.839l.02-.1.009-.044-.009-.016c-.012-.019-.024-.03-.017-.04a1.723,1.723,0,0,1,.351-.128,4.534,4.534,0,0,1,.422-.2l.2-.1.077-.041c.01-.01-.015-.006-.031-.006a2.3,2.3,0,0,0-.559.176,2.581,2.581,0,0,0-.582.271c-.105.064.022.032.2-.306-.126.085-.124,0-.216-.061l-.015-.013-.01-.006-.033-.006-.144-.021c-.094-.011-.189-.018-.283-.02a1.507,1.507,0,0,0-.568.091c-.748-.493-1.485-.024-2.208-.042a4.969,4.969,0,0,0-2.133-.045c-.7.236-1.382-.128-2.049-.05-.669.282-1.321-.369-1.959-.054-.638-.064-1.262.043-1.868-.057-.606.664-1.195,0-1.769-.061-.574-.1-1.13.442-1.666-.063-.538.5-1.059.068-1.561-.068s-.985.211-1.447-.07c-.465.354-.91-.2-1.333-.075-.425-.233-.83-.013-1.213-.075a1.9,1.9,0,0,1-1.086-.079l-.957-.079c-1.78-.167-2.754-.344-2.754-.531" transform="translate(-11377.453 -11949.455)" fill="#fff"/>
      <path id="Trazado_874495" data-name="Trazado 874495" d="M171.744,217.378c.185,0,.365.674.529,1.908q.037.308.082.662a2.675,2.675,0,0,1,.077.754c-.243.266.455.546.077.84a1.553,1.553,0,0,0,.073.923c.086.321-.156.657.071,1,.476.349-.531.709.068,1.083a2.84,2.84,0,0,1,.064,1.154c-.365.4,0,.8.06,1.226-.439.421-.249.851.057,1.292-.6.442-.51.9.055,1.359.019.465-.216.936.049,1.42a5.016,5.016,0,0,1,.046,1.477,1.192,1.192,0,0,1,.042,1.533,1.393,1.393,0,0,1,.035,1.583c-.241.538.382,1.082.035,1.635-.027.551.1,1.11.028,1.677a1.817,1.817,0,0,0,.022,1.719,7.906,7.906,0,0,1,.139.876c0,.073.006.145,0,.219l0,.174-.01.21a4.7,4.7,0,0,1-.112.806,5,5,0,0,1,.273,1.88,5.438,5.438,0,0,1-.259,1.446c.015.24.015.462.009.668a2.363,2.363,0,0,1-.062.541c-.328-.248-.644-.491-.939-.69a3.319,3.319,0,0,0-.845-.435,16.8,16.8,0,0,0-1.581-.961c-.266-.143-.531-.245-.8-.391-.129-.069-.266-.147-.385-.221a1.261,1.261,0,0,1-.167-.137,3.054,3.054,0,0,0-.723-.454,1.771,1.771,0,0,0-.4-.128,1.585,1.585,0,0,0-.438.013c-.6.117-1.034-.379-1.6-.376a.848.848,0,0,0-.791-.208,1.851,1.851,0,0,1-.812.05,7.43,7.43,0,0,1-.8-.089,1.209,1.209,0,0,0-.784.1,3.989,3.989,0,0,1-1.538.2.562.562,0,0,1-.695.349c-.132-.016-.272-.049-.406-.062a.838.838,0,0,0-.194,0,.6.6,0,0,0-.1.024c-.052.025-.105.049-.156.079a3.231,3.231,0,0,0-1.288.407,12.235,12.235,0,0,1-1.4.754,4.724,4.724,0,0,1-1.258.542v-.162l.017-.194c.008-.127.015-.248.015-.358a1.422,1.422,0,0,0-.089-.566,10.345,10.345,0,0,0-.055-1.325,4.172,4.172,0,0,1,.1-1.383,1.551,1.551,0,0,1-.1-.649.643.643,0,0,1,.012-.123q.008-.047.019-.092a1.737,1.737,0,0,1,.057-.186.963.963,0,0,0,.059-.732,9.748,9.748,0,0,1,.048-1.42c.519-.462.089-.915.055-1.358.056-.442-.294-.872.057-1.293.042-.421.269-.829.061-1.225-.076-.4.753-.784.064-1.157-.124-.372.53-.732.067-1.082-.427-.347.052-.681.072-1s.049-.628.074-.923c.222-2.646.483-4.163.761-4.163.311,0,.6,1.872.84,5.086.023.322.388.655.07,1,0,.35.277.71.068,1.082.479.373.087.759.062,1.157.025.4-.13.8.062,1.225.279.421-.139.851.057,1.293a1.191,1.191,0,0,0,.055,1.358c-.289.462.061.936.049,1.42a.792.792,0,0,0-.209.732c.012.061.027.123.045.186l.032.092c.01.033.02.066.033.068a.653.653,0,0,0,.146.086c.08.038.065.079.04.15s-.053.167,0,.165a.174.174,0,0,0-.019.109.058.058,0,0,0,.013.023l.01.008c.009-.006.017-.017.027-.025.08-.068.136-.128.159-.1.1-.153.142-.245.164-.267.049-.035.112-.008.222.086l.025-.034a.894.894,0,0,1,.1-.049,2.2,2.2,0,0,1,.214-.086c.144-.051.292-.092.442-.13.3-.079.614-.1.917-.174a5.786,5.786,0,0,1,1.871-.292,2.263,2.263,0,0,1,.967.088,1.214,1.214,0,0,0,.97-.149c.66-.057,1.3.175,1.975.166a11.51,11.51,0,0,0,1.969.446,1.346,1.346,0,0,0,.42.358,1.63,1.63,0,0,0,.465.195c.328.089.7.072,1.045.142.085.02.169.043.251.068.022,0,.025-.009.035-.011a.029.029,0,0,1,.037.009c.02.021.043.074.09.14.028-.016.05,0,.091.033.02.024.02.01.024,0l.017-.016c-.072-.132-.019-.083.027-.088s.085-.051-.013-.129c-.05-.038-.062-.049-.055-.064l.009-.012s.01,0,.015-.049l.039-.219a1.635,1.635,0,0,0,.01-.876,2.676,2.676,0,0,1,.024-1.719c0-.568.442-1.126.03-1.677-.094-.553-.642-1.1.032-1.635-.167-.536.325-1.064.038-1.583.491-.519.023-1.031.042-1.533a2.425,2.425,0,0,0,.045-1.477c-.234-.483.127-.955.05-1.42-.283-.464.369-.917.053-1.359.064-.441-.043-.872.057-1.292-.666-.421,0-.829.061-1.226.094-.4-.439-.782.064-1.154-.5-.374-.067-.734.067-1.083s-.212-.682.072-1c-.355-.323.194-.63.074-.923.232-.294.013-.574.075-.84a.94.94,0,0,1,.079-.754c.028-.236.056-.457.08-.662.166-1.234.344-1.908.529-1.908" transform="translate(-11391.152 -11942.513)" fill="#fff"/>
      <path id="Trazado_874496" data-name="Trazado 874496" d="M141.978,217.378c.186,0,.363.895.529,2.525.025.274.052.566.082.88a4.745,4.745,0,0,1,.077,1c-.244.351.455.722.077,1.113a2.672,2.672,0,0,0,.073,1.222c.086.426-.157.87.071,1.33.476.461-.531.936.067,1.431a4.914,4.914,0,0,1,.065,1.53c-.365.525,0,1.067.06,1.621a1.456,1.456,0,0,0,.057,1.714c-.6.587-.51,1.185.055,1.8a4.865,4.865,0,0,0,.049,1.88,8.766,8.766,0,0,1,.045,1.956,1.984,1.984,0,0,1,.044,2.031,2.353,2.353,0,0,1,.035,2.1,1.938,1.938,0,0,0,.057,1.072,4.332,4.332,0,0,1,.085.854,3.184,3.184,0,0,1-.107.961l0,.123c-.009.035-.064.046-.094.072l-.213.127-.421.262-.821.525-.46.291a2.228,2.228,0,0,1-.234.136l-.255,0-.513,0c-.1,0-.134,0-.181-.006l-.142-.012a3.109,3.109,0,0,0-2.277.023,5.362,5.362,0,0,1-2.331.02,2.814,2.814,0,0,1-2.378.013,10.866,10.866,0,0,0-2.419.009,15.755,15.755,0,0,1-2.46,0,5.007,5.007,0,0,0-2.461,0c-.813.295-1.619-.123-2.419-.009-.8-.43-1.593.142-2.379-.013a9.628,9.628,0,0,0-2.329-.02,6.537,6.537,0,0,1-2.278-.023c-.75.664-1.493-.171-2.222-.028-.733-.281-1.453.042-2.163-.033-.711.123-1.41-.307-2.1-.036-.688-.057-1.363.213-2.027-.043-.667.33-1.318-.278-1.958-.046a17.294,17.294,0,0,1-1.88-.05c-.612-.518-1.213-.088-1.8-.054-.587-.055-1.156.294-1.713-.057a3.562,3.562,0,0,0-1.623-.061c-.527.075-1.035-.755-1.53-.064-.5.123-.97-.531-1.431-.068-.46.427-.9-.053-1.328-.07l-1.223-.074c-3.5-.224-5.514-.487-5.514-.763,0-.312,2.479-.6,6.737-.839.425-.025.869-.389,1.328-.072.461,0,.935-.275,1.431-.066.5-.481,1-.089,1.53-.064a5.3,5.3,0,0,0,1.623-.062c.557-.279,1.126.14,1.713-.057a2.013,2.013,0,0,0,1.8-.053c.614.287,1.241-.062,1.88-.051.64.443,1.292.132,1.958-.046.664-.162,1.339.066,2.027-.042.689.085,1.389-.113,2.1-.038a3.46,3.46,0,0,1,2.163-.034,11.771,11.771,0,0,1,2.222-.028,13.265,13.265,0,0,1,2.278-.022c.768-.094,1.545.472,2.329-.02.786-.062,1.578.078,2.379-.013a10,10,0,0,0,2.419-.007,3.13,3.13,0,0,0,2.461,0,9.682,9.682,0,0,1,2.46,0c.813-.049,1.621-.024,2.419.007.8-.143,1.593.208,2.378.013s1.562.221,2.331.02a4.623,4.623,0,0,1,2.277.022c.047,0,.1,0,.142.006s.105.007.1.013l.056.043c.053.042.06.064.1.078.061-.02.073-.013.1-.025a.123.123,0,0,0,.061-.038c.024-.039.04-.086-.064-.171a.305.305,0,0,0-.129-.12c-.055-.048-.108.038-.144-.219a1.137,1.137,0,0,1,.307-1.072c-.167-.711.325-1.409.039-2.1.491-.688.023-1.367.042-2.031a4.206,4.206,0,0,0,.045-1.956c-.236-.639.127-1.268.05-1.88-.282-.615.369-1.213.053-1.8.064-.585-.043-1.156.056-1.714-.664-.554,0-1.1.063-1.621.094-.526-.439-1.035.064-1.53-.5-.5-.067-.971.067-1.431s-.212-.9.071-1.33c-.355-.427.2-.832.074-1.222.233-.391.013-.762.076-1.113a1.6,1.6,0,0,1,.079-1c.029-.314.056-.606.081-.88.165-1.63.343-2.525.528-2.525" transform="translate(-11376.786 -11942.513)" fill="#fff"/>
      <path id="Trazado_874497" data-name="Trazado 874497" d="M169.556,251.207c.055-.075.31.006.761.237.225.119.48.295.79.5.154.108.306.234.477.366a6.81,6.81,0,0,1,.52.445c.121.109.243.222.372.341s.246.255.377.389a4.473,4.473,0,0,1,.781.9c.023.237.224.361.43.494s.4.292.344.6a2.594,2.594,0,0,0,.316.645c.126.21.278.416.427.631.283.443.266,1.019.649,1.474.326.188.271.511.237.821s-.067.611.286.841a3.833,3.833,0,0,1,.163.432c.038.149.068.3.1.457s.045.311.064.468.016.319.025.479a1.224,1.224,0,0,0-.108.494,1.96,1.96,0,0,0,.038.487c.031.163.075.328.117.495a3.829,3.829,0,0,1,.067.509,1.572,1.572,0,0,0-.3,1.014,4.162,4.162,0,0,0,.159,1.086,1.852,1.852,0,0,0-.4.476,1.541,1.541,0,0,0-.211.506,2.183,2.183,0,0,0,.171,1.2,12.648,12.648,0,0,0-.819,2.181,9.284,9.284,0,0,1-.491,1.1,5.4,5.4,0,0,1-.674,1.03,2.8,2.8,0,0,1-.512,1.194,2.962,2.962,0,0,1-1.044.8,2.155,2.155,0,0,1-.753,1.1,4.417,4.417,0,0,1-.546.388c-.2.106-.411.2-.624.287a4.208,4.208,0,0,0-1.067.819,4.481,4.481,0,0,1-.541.431,1.356,1.356,0,0,1-.651.241c-.421.186-.821.421-1.24.624a11.108,11.108,0,0,1-1.321.485,13.42,13.42,0,0,0-1.424.165c-.227.058-.461.09-.691.163a3.1,3.1,0,0,0-.681.3,7.661,7.661,0,0,1-1.447.255,4,4,0,0,1-.739.017,4.749,4.749,0,0,1-.738-.148,2.885,2.885,0,0,1-.766.191,3.071,3.071,0,0,1-.758-.071,5.246,5.246,0,0,1-.736-.207,4.551,4.551,0,0,1-.7-.334,5.4,5.4,0,0,1-1.439-.488,7.148,7.148,0,0,0-1.447-.5,6.81,6.81,0,0,0-.694-.34c-.117-.053-.241-.1-.358-.153l-.345-.178c-.231-.119-.46-.244-.681-.384a3.341,3.341,0,0,1-.321-.222,3.774,3.774,0,0,1-.281-.28,15.193,15.193,0,0,0-2.329-2.041c-.931-.556-1.236-1.633-1.868-2.405a2.125,2.125,0,0,0-.249-.726c-.121-.219-.277-.416-.4-.626a4.134,4.134,0,0,1-.713-1.309,9.528,9.528,0,0,1-.417-1.413,4.8,4.8,0,0,0-.421-1.394c-.123-.469-.228-.94-.308-1.414a3.254,3.254,0,0,1-.043-.715,5.571,5.571,0,0,1,.057-.715,1.475,1.475,0,0,1-.175-1.413c.061-.232.164-.457.23-.682a2.363,2.363,0,0,0,.117-.681,2.811,2.811,0,0,0,.219-.656c.047-.22.092-.442.122-.666a5.508,5.508,0,0,1,.29-1.31c.171-.895.88-1.538,1.034-2.409a6.451,6.451,0,0,1,1.355-2.137,1.857,1.857,0,0,1,.751-.972c.164-.127.325-.253.473-.389a1.537,1.537,0,0,0,.384-.461c.271-.291.571-.545.855-.81a8.59,8.59,0,0,1,.927-.688,1.689,1.689,0,0,0,1.056-.442c.286-.229.538-.516.841-.718a9.424,9.424,0,0,0,.917-.567,1.7,1.7,0,0,1,1.016-.283c.331-.094.669-.15,1-.216a2.454,2.454,0,0,0,.924-.327,2.048,2.048,0,0,1,.98.058.737.737,0,0,0,.872-.333,1.789,1.789,0,0,1,.9.077.827.827,0,0,0,.847-.123.845.845,0,0,1,.829-.109,7.789,7.789,0,0,0,.775.249,13.493,13.493,0,0,1,1.452.287,12.7,12.7,0,0,1,4.4,1.993,5.814,5.814,0,0,1,.964.825c.2.211.277.347.236.4s-.237.026-.559-.1c-.162-.06-.353-.149-.581-.248s-.5-.2-.792-.321-.641-.229-1-.366-.783-.229-1.217-.364a16.372,16.372,0,0,0-3.058-.442,2.8,2.8,0,0,0-.707.12.96.96,0,0,1-.723-.111,4.138,4.138,0,0,0-.748.136,1.4,1.4,0,0,1-.777.028.9.9,0,0,1-.755.34,6.191,6.191,0,0,0-.835.019c-.267.078-.547.134-.828.2a2.306,2.306,0,0,0-.793.377,1.543,1.543,0,0,1-.8.408,1.709,1.709,0,0,0-.811.417,1.921,1.921,0,0,0-.9.327,2.313,2.313,0,0,0-.657.741,1.591,1.591,0,0,0-.81.557c-.208.266-.406.536-.637.78a1.332,1.332,0,0,0-.5.224,1.583,1.583,0,0,0-.341.388,5.353,5.353,0,0,0-.443.973c-.266.653-.841,1.126-1.067,1.823a12.438,12.438,0,0,0-.795,2.026,7.318,7.318,0,0,1-.1,1.115,4.792,4.792,0,0,1-.141.538,3.037,3.037,0,0,1-.217.534c.043.765-.138,1.514-.089,2.3a3.132,3.132,0,0,1,.1.578c.016.192.008.388.037.581a9.508,9.508,0,0,0,.144,1.172,4.174,4.174,0,0,1,.162,1.2,1.615,1.615,0,0,0,.557,1.089c.172.365.353.727.5,1.1a3.179,3.179,0,0,0,.286.544,5.648,5.648,0,0,0,.345.511,5.928,5.928,0,0,0,1.534,1.952,2.042,2.042,0,0,0,.105.336,1.677,1.677,0,0,0,.175.276,2.564,2.564,0,0,0,.46.449c.086.064.174.126.263.185s.2.1.3.145l.6.266c.766.38,1.442.857,2.175,1.268.377.182.78.284,1.161.44a11.192,11.192,0,0,0,1.174.381,5.964,5.964,0,0,1,.6.108c.2.04.4.1.593.15a4.949,4.949,0,0,0,.6.135,2.453,2.453,0,0,0,.611-.03,2.033,2.033,0,0,1,.6-.023c.2.017.4.02.6.042a2.322,2.322,0,0,0,1.188-.085c.191-.066.378-.127.568-.178s.38-.088.564-.149a3.792,3.792,0,0,1,1.161-.147,7.487,7.487,0,0,1,1.146-.244,1.671,1.671,0,0,0,.974-.622,1.842,1.842,0,0,0,.426-.386,4.937,4.937,0,0,1,.4-.41,1.35,1.35,0,0,1,1.074-.383,1.7,1.7,0,0,1,.424-.349c.144-.109.3-.206.46-.3a1.562,1.562,0,0,0,.756-.774,1.309,1.309,0,0,0,.858-.674,6.106,6.106,0,0,1,.505-.939,10.152,10.152,0,0,0,.659-.808,1.933,1.933,0,0,0,.388-.944c.1-.683.623-1.174.781-1.807a1.377,1.377,0,0,1,.273-.918,1.907,1.907,0,0,0,.211-.437.864.864,0,0,0-.016-.478,5.551,5.551,0,0,0,.145-.9,4.711,4.711,0,0,1,.086-.893.778.778,0,0,1-.257-.438.821.821,0,0,1,.025-.426c.04-.142.107-.285.159-.431a1.431,1.431,0,0,0,.089-.428,1.073,1.073,0,0,0-.059-.414l-.162-.389a1.029,1.029,0,0,1-.084-.39.715.715,0,0,1,.123-.428.818.818,0,0,1-.384-.7c-.008-.259.067-.542.044-.795-.016-.526-.532-.829-.454-1.358a.648.648,0,0,1-.34-.583,1.007,1.007,0,0,0-.2-.625.916.916,0,0,0-.23-.586,2.846,2.846,0,0,1-.348-.48,2.24,2.24,0,0,1-.6-.915c-.1-.141-.189-.281-.286-.411l-.286-.37c-1.114-1.428-1.905-2.1-1.777-2.27" transform="translate(-11388.954 -11948.934)" fill="#fff"/>
      <path id="Trazado_874498" data-name="Trazado 874498" d="M166.707,261.314c.055-.076.181-.089.385-.039a2.577,2.577,0,0,1,.358.127,4.133,4.133,0,0,1,.439.262,1.961,1.961,0,0,1,.331.255,1.037,1.037,0,0,1,.351.326c-.112.266.568.053.343.412.007.212.178.336.333.494s.033.439.306.579c.261.035.172.193.092.334s-.152.276.161.332a.845.845,0,0,1,.159.356,1.357,1.357,0,0,1,.022.392.3.3,0,0,0-.108.4,1.5,1.5,0,0,1,.193.41c-.226.132-.292.261-.271.4a1.106,1.106,0,0,0,.246.469c-.63.2-.617.438-.156.913-.092.311-.4.521-.314.923a1.788,1.788,0,0,1-.467.91.715.715,0,0,1-.079.612.749.749,0,0,1-.557.244.567.567,0,0,1-.216.577.9.9,0,0,1-.264.134,2.235,2.235,0,0,1-.318.057c-.226.016-.311.208-.436.374s-.256.343-.514.273a4.665,4.665,0,0,0-.52.283,2.129,2.129,0,0,1-.564.2,2.535,2.535,0,0,0-.634-.043.778.778,0,0,0-.557.328,2.387,2.387,0,0,1-.615.188.878.878,0,0,1-.634-.123.823.823,0,0,1-.34.211.645.645,0,0,1-.335-.007,1.359,1.359,0,0,1-.6-.376,1.4,1.4,0,0,1-.606-.245,1.022,1.022,0,0,0-.634-.177c-.362-.242-.9-.237-1.15-.667-.286-.376-.5-.745-1-.873a.691.691,0,0,1-.476-.459,1.656,1.656,0,0,0-.319-.574.581.581,0,0,0-.224-.607c-.151-.156-.348-.307-.353-.535a1.94,1.94,0,0,1-.134-.617.9.9,0,0,0-.214-.585,3.163,3.163,0,0,1-.182-.6,1.094,1.094,0,0,1,.07-.616c-.35-.19-.289-.411-.169-.605s.3-.373.259-.572c.35-.33.087-.766.293-1.11a.785.785,0,0,1,.254-.5.566.566,0,0,0,.2-.512,3.063,3.063,0,0,0,.217-.5.616.616,0,0,1,.37-.391c-.024-.233.144-.333.314-.411a1.46,1.46,0,0,0,.239-.127.29.29,0,0,0,.145-.208c.12-.115.236-.232.355-.343a1.954,1.954,0,0,1,.412-.259c.285.115.4.036.509-.077a2.711,2.711,0,0,1,.292-.388c.281-.089.424-.526.817-.32.289-.051.6.081.8-.189.123-.064.292.094.432.183s.258.1.336-.26c.116-.07.251.053.373.136s.23.124.341-.113c.231-.428.452.06.648.1a5.322,5.322,0,0,1,.577.158,4.1,4.1,0,0,1,1.66.99c.311.321.4.568.318.674-.043.064-.144.089-.285.086a5.194,5.194,0,0,1-.559-.084c-.23-.041-.5-.089-.818-.128A6.879,6.879,0,0,0,164,261.16c-.16.01-.316.369-.473.051-.167.012-.305.3-.5.1-.1.505-.311.15-.5.158-.162.07-.39-.011-.505.223-.035.17-.127.176-.232.174s-.225-.016-.262.123c-.311-.157-.475.026-.463.373a.213.213,0,0,0-.295.127c-.042.114-.057.248-.135.314a.446.446,0,0,0-.264-.03.182.182,0,0,0-.109.126,1.5,1.5,0,0,0,0,.412.377.377,0,0,1-.141.295c-.075.079-.169.155-.159.282a.547.547,0,0,0-.127.3.684.684,0,0,1-.087.322c.112.277.178.483-.123.669a.6.6,0,0,1,.039.349,1.349,1.349,0,0,0-.049.345.441.441,0,0,1,.086.346.977.977,0,0,0,.017.354c.075.1-.01.246-.045.387s0,.27.27.292c.152.193.138.477.348.64a.8.8,0,0,0,.462.578c-.171.52.261.505.567.491a1.177,1.177,0,0,1,.642.378,5.9,5.9,0,0,1,.691.248.468.468,0,0,1,.351.094.608.608,0,0,0,.176.074.271.271,0,0,0,.187-.051c.124-.094.236-.032.358.012s.252.109.356-.018a.944.944,0,0,1,.318-.186.44.44,0,0,1,.372.061c.105-.041.252.022.388.038s.246-.049.256-.279c.083-.086.09-.3.144-.4s.148-.14.44.062a.176.176,0,0,1,.119-.119.961.961,0,0,1,.181-.048c.123-.025.256-.064.221-.249.251.086.343,0,.371-.119s0-.279.071-.358c.185-.125.461-.239.35-.527s.273-.33.276-.551c-.111-.137,0-.2.112-.279s.215-.164.069-.287a.667.667,0,0,0,.058-.285.506.506,0,0,1,.055-.284c-.322-.1-.322-.179-.241-.27s.259-.19.283-.285c.048-.1-.074-.172-.151-.245s-.1-.15.135-.285c-.51-.057-.153-.29-.068-.5s-.306-.217-.107-.465c-.193,0-.176-.079-.135-.181s.088-.213,0-.246c.123-.239-.129-.248-.149-.386-.145-.057-.193-.167-.163-.341a2.357,2.357,0,0,0-.159-.3c-.079-.139-.146-.274-.206-.389a2.238,2.238,0,0,1-.159-.3c-.079-.178-.1-.312-.046-.387" transform="translate(-11391.469 -11951.465)" fill="#fff"/>
    </g>
  </g>
</svg>
