<svg xmlns="http://www.w3.org/2000/svg" width="85.966" height="86.994" viewBox="0 0 85.966 86.994">
  <g id="img-4" transform="translate(-5666 4496)">
    <g id="Grupo_1100377" data-name="Grupo 1100377" transform="translate(16811.473 7332.883)">
      <path id="Trazado_874499" data-name="Trazado 874499" d="M259.906,106.562a25.587,25.587,0,0,1,3.7,2.779l1.247,1.012c.452.351.933.724,1.411,1.155.392.53,1.178.658,1.57,1.294a14.879,14.879,0,0,0,1.722,1.426,23.937,23.937,0,0,0,1.869,1.556c.823.335,1.094,1.358,2.009,1.679a27.37,27.37,0,0,1,2.144,1.8,11.632,11.632,0,0,0,2.272,1.912,7.5,7.5,0,0,0,2.4,2.02,5.337,5.337,0,0,0,2.511,2.123,27.141,27.141,0,0,0,2.624,2.222c.9.746,1.849,1.475,2.73,2.316a9.637,9.637,0,0,1,1.509,1.066c.118.1.233.2.347.311l.169.161.083.083.157.146c.423.4.821.794,1.167,1.16a34.627,34.627,0,0,1,2.74,2.152c-1.342,0-2.818-.064-4.119-.137-.3-.017-.59-.028-.876-.032H288.9l-.245,0c-.327.012-.656.038-.986.062a8.729,8.729,0,0,1-1.991-.014c-1.337-.015-2.693.06-4.065.017a16.937,16.937,0,0,0-4.167.014,30.066,30.066,0,0,1-4.261.01,15.123,15.123,0,0,1-4.348.008c-1.463.045-2.94-.149-4.427,0-1.49-.043-2.989.122-4.5,0a27.755,27.755,0,0,0-4.5,0c-1.487.175-2.964-.073-4.427,0a38.4,38.4,0,0,0-4.349-.008c-1.435.025-2.857-.148-4.261-.01a36.584,36.584,0,0,1-4.167-.014c-1.373.4-2.728-.1-4.065-.017a12.634,12.634,0,0,0-1.992-.054l-.986.034-.245.006-.4,0c-.293,0-.585,0-.87-.007-.644.021-1.284.016-1.887,0l-1.721-.055a28.146,28.146,0,0,0,2.23-1.964c.431-.36.84-.717,1.252-1.083l.236-.213.172-.158.343-.314a12.018,12.018,0,0,1,1.431-1.158c.792-.942,1.932-1.448,2.728-2.316.887-.763,1.746-1.522,2.624-2.222a11.041,11.041,0,0,0,2.511-2.124,18.711,18.711,0,0,1,2.4-2.019,19.983,19.983,0,0,0,2.273-1.912c.7-.662,1.727-.9,2.142-1.8.637-.646,1.552-.922,2.011-1.679.47-.742,1.271-1.056,1.867-1.556l1.722-1.426c2.471-2.043,4.427-3.633,5.779-4.7a11.215,11.215,0,0,1,2.154-1.541,15.048,15.048,0,0,1-2.281,2.316c-1.541,1.439-3.823,3.509-6.724,6.1a9.774,9.774,0,0,1-1.813,1.619,18.655,18.655,0,0,1-1.957,1.74,8.727,8.727,0,0,1-2.095,1.856,29.373,29.373,0,0,0-2.224,1.965c-.664.791-1.616,1.285-2.352,2.073a10.731,10.731,0,0,0-2.47,2.171,23.98,23.98,0,0,0-2.585,2.267,11.641,11.641,0,0,0-2.695,2.358,17.979,17.979,0,0,1-1.376,1.22c-.218.18-.435.359-.653.541a.662.662,0,0,0-.138.141,1.057,1.057,0,0,0-.267.236,1.631,1.631,0,0,1,.448-.018c.041-.016.074-.03.1-.043l.019-.009.009-.006c.005,0,.037,0,.054,0l.245-.016c.327-.02.655-.032.984-.036a16.184,16.184,0,0,1,1.993.093c1.336-.085,2.692-.017,4.065-.017,1.371-.1,2.761.014,4.167-.014a25.712,25.712,0,0,0,4.261-.01c1.435-.037,2.886.045,4.349-.008,1.462.036,2.94.076,4.427,0a16.986,16.986,0,0,0,4.5,0c1.51-.083,3.009-.041,4.5,0,1.487-.029,2.964-.014,4.427,0,1.463-.085,2.913.123,4.348.008s2.856.13,4.261.01a25.766,25.766,0,0,1,4.167.014,22.552,22.552,0,0,0,4.065.017c.668-.028,1.332-.122,1.991-.162a7.6,7.6,0,0,1,.986,0c.082.006.163.014.245.025a.427.427,0,0,1,.054.008l0,.01a.146.146,0,0,0,.01.021.492.492,0,0,0,.115.118.254.254,0,0,1,.182-.012c.085.014.21.04.347.059a.289.289,0,0,0-.1-.12.835.835,0,0,0-.251-.144c.054-.052.01-.139-.058-.217-.01-.01-.014-.017-.029-.031l-.087-.079-.176-.153c-.119-.1-.24-.2-.362-.291-.49-.38-1-.73-1.455-1.131a23.3,23.3,0,0,0-2.693-2.358c-.977-.658-1.7-1.569-2.585-2.268-.959-.6-1.538-1.615-2.471-2.171-.785-.728-1.618-1.362-2.35-2.073-1.029-.365-1.52-1.312-2.226-1.965-.692-.672-1.605-1.039-2.095-1.856a6.081,6.081,0,0,1-1.957-1.74,23.964,23.964,0,0,1-1.814-1.619c-.727-.349-1.078-1.083-1.665-1.492a13.855,13.855,0,0,0-1.51-1.362,8.806,8.806,0,0,1-1.351-1.226l-1.185-1.085a25.415,25.415,0,0,1-3.294-3.254" transform="translate(-11362.222 -11935.439)" fill="#43c0ff"/>
      <path id="Trazado_874500" data-name="Trazado 874500" d="M285.091,204.5a5.889,5.889,0,0,1-.162-1.562c-.052-1.025-.1-2.542-.151-4.5q-.024-.98-.048-2.107c-.03-.75-.061-1.549-.047-2.393.144-.845-.27-1.735-.046-2.671a25.6,25.6,0,0,0-.043-2.935c-.052-1.023.092-2.086-.043-3.191-.283-1.105.315-2.253-.04-3.437-.076-1.186-.055-2.411-.039-3.673a20,20,0,0,0-.036-3.9,12.833,12.833,0,0,0-.034-4.114,9.114,9.114,0,0,0-.032-4.319c-.011-1.471.128-2.977-.029-4.512-.023-1.536-.091-3.1-.027-4.7a17.887,17.887,0,0,1-.026-4.873,15.078,15.078,0,0,1-.157-2.5c.006-.42.022-.842.046-1.265.014-.211.027-.423.041-.636.014-.29.031-.229.048-.3a.712.712,0,0,0,.031-.163.871.871,0,0,0-.141,0l-.072.008-.034.005h-.04l-.071,0-1.143.061a13.684,13.684,0,0,1-2.307-.03c-1.755-.015-3.535.06-5.336.017a29.082,29.082,0,0,0-5.471.015,51.774,51.774,0,0,1-5.594.01,26.007,26.007,0,0,1-5.708.008c-1.921.045-3.858-.149-5.813,0-.976-.021-1.957.009-2.94.03-.494.01-.986.018-1.479.016l-.37,0H247.7l-.01,0-.021,0c-.03-.008-.067-.017-.116-.032a.651.651,0,0,0-.031.1l-.006.031,0,.017,0,.083-.013.37c-.016.494-.03.988-.034,1.479-.011.985.009,1.965.09,2.942.175,1.953-.074,3.891,0,5.812-.257,1.92.083,3.823-.009,5.708.026,1.884-.148,3.749-.01,5.594.047,1.844.1,3.668-.014,5.47.394,1.8-.1,3.581-.016,5.336-.168,1.755.025,3.487-.02,5.193.074,1.7-.182,3.385-.023,5.037-.034,1.652.128,3.277-.025,4.873.2,1.6-.164,3.163-.027,4.7v2.281c0,.376,0,.75-.008,1.122l0,.279,0,.139c0,.061,0,.061,0,.076l-.012.177a1.1,1.1,0,0,0-.069.195.915.915,0,0,0,.381.078l.226,0,.248,0c.164,0,.329-.01.492-.017.655-.031,1.3-.089,1.944-.1a31.834,31.834,0,0,1,4.114.034,34.433,34.433,0,0,0,3.9.036c1.262-.045,2.487.448,3.673.038,1.186-.073,2.332.316,3.437.041a12.877,12.877,0,0,1,3.191.041l2.936.043c4.206.068,7.515.14,9.772.216a18.953,18.953,0,0,1,3.462.239,25.709,25.709,0,0,1-4.254.264c-2.765.085-6.808.163-11.917.233a16.783,16.783,0,0,1-3.191.043,31.781,31.781,0,0,1-3.437.039,14.943,14.943,0,0,1-3.673.038c-1.262.015-2.562-.077-3.9.037-1.336.166-2.708-.083-4.114.034a15.323,15.323,0,0,0-1.944-.112c-.163,0-.327,0-.49.008s-.345.013-.518.021c-.529.017-1.078.042-1.669.075-.013-.208-.027-.418-.04-.629.021-.327.037-.642.048-.95l.012-.338L246,203c0-.372,0-.747-.019-1.122-.031-.752-.08-1.512-.078-2.281a19.973,19.973,0,0,0-.027-4.7c-.1-1.6.04-3.221-.025-4.873.052-1.652-.067-3.332-.023-5.037a32.943,32.943,0,0,1-.019-5.193c-.085-1.755-.017-3.534-.017-5.336-.105-1.8.014-3.626-.013-5.47a44.407,44.407,0,0,0-.012-5.594c-.038-1.885.045-3.788-.009-5.708.037-1.921.076-3.858,0-5.812a17.456,17.456,0,0,0,.149-2.942c-.011-.492-.034-.986-.063-1.479l-.021-.37-.005-.1-.005-.17-.011-.343q-.022-.7-.045-1.411h0l2.4-.041c.494-.007.986-.008,1.479,0,.984,0,1.964.026,2.94.047,1.955-.029,3.892-.014,5.813,0,1.92-.085,3.823.123,5.708.008s3.748.13,5.594.01a44.375,44.375,0,0,1,5.471.014,38.828,38.828,0,0,0,5.336.017c.774-.024,1.543-.1,2.307-.145.382-.022.763-.036,1.143-.031l.466.008.559.016c.367.012.725.032,1.06.059-.027.417-.065.826-.113,1.212.026.92.026,1.161.015,1.62-.01.423-.032.845-.052,1.265a16.822,16.822,0,0,0,.014,2.5,28.069,28.069,0,0,0-.024,4.873,39.878,39.878,0,0,0-.027,4.7c.14,1.536-.077,3.041-.03,4.512.167,1.473-.219,2.913-.033,4.319-.038,1.406.026,2.778-.033,4.114.394,1.335,0,2.635-.037,3.9a18.4,18.4,0,0,1-.038,3.673,10.458,10.458,0,0,1-.039,3.437c-.087,1.1.125,2.168-.043,3.191a20.492,20.492,0,0,1-.044,2.935,23.714,23.714,0,0,0-.045,2.671,15.214,15.214,0,0,1-.047,2.393c-.017.752-.032,1.454-.049,2.107-.048,1.962-.1,3.478-.151,4.5a5.723,5.723,0,0,1-.162,1.562" transform="translate(-11368.362 -11947.423)" fill="#43c0ff"/>
      <path id="Trazado_874501" data-name="Trazado 874501" d="M298.493,231.058a8.856,8.856,0,0,1-2.689.314l-.934.049a8.608,8.608,0,0,1-1.062.046c-.374-.145-.769.27-1.183.045a5.1,5.1,0,0,0-1.3.044,8.136,8.136,0,0,0-1.414.042c-.49.284-1-.315-1.525.039a9.19,9.19,0,0,1-1.628.039,3.973,3.973,0,0,0-1.728.036,2.6,2.6,0,0,0-1.823.034,1.9,1.9,0,0,0-1.915.032,9.256,9.256,0,0,0-2,.03,16.377,16.377,0,0,1-2.083.027,3.58,3.58,0,0,1-2.161.025,4.319,4.319,0,0,1-2.233.023c-.757-.144-1.523.225-2.3.02-.777-.016-1.567.058-2.365.017a5.77,5.77,0,0,0-2.426.013,10.14,10.14,0,0,1-2.48.011,5.187,5.187,0,0,1-2.532.008,20.249,20.249,0,0,0-2.576.006c-.867-.043-1.74.12-2.618,0a9.452,9.452,0,0,0-2.618,0,20.929,20.929,0,0,1-2.578-.006,12.974,12.974,0,0,0-2.531-.008,18.346,18.346,0,0,0-2.481-.011,12.58,12.58,0,0,1-2.425-.013c-.8.394-1.587-.1-2.365-.017a14.559,14.559,0,0,0-2.3-.02,19.58,19.58,0,0,0-2.234-.023,13,13,0,0,1-2.161-.025c-.708.2-1.4-.164-2.083-.027-.682,0-1.348.012-2-.03a3.8,3.8,0,0,0-1.914-.032,6.293,6.293,0,0,1-1.825-.034,6.763,6.763,0,0,0-1.728-.036c-.559.045-1.1-.447-1.627-.039-.527.074-1.035-.315-1.525-.039-.49.253-.962-.031-1.415-.042l-1.3-.044c-3.73-.133-5.868-.288-5.868-.454,0-.184,2.64-.354,7.17-.5a3.345,3.345,0,0,1,1.415-.041,6.309,6.309,0,0,1,1.525-.041c.525-.285,1.068-.051,1.627-.036a10.075,10.075,0,0,0,1.728-.037c.593-.166,1.2.083,1.825-.034a3.686,3.686,0,0,0,1.914-.033,8.14,8.14,0,0,0,2-.028,4,4,0,0,0,2.083-.027c.708-.1,1.428.039,2.161-.025.732.05,1.477-.067,2.234-.022a6.484,6.484,0,0,1,2.3-.021,22.025,22.025,0,0,1,2.365-.017c.8-.1,1.609.013,2.425-.014a8.7,8.7,0,0,0,2.481-.011c.835-.037,1.679.046,2.531-.008a19.085,19.085,0,0,0,2.578-.005,5.791,5.791,0,0,0,2.618,0,18.28,18.28,0,0,1,2.618,0c.866-.028,1.724-.014,2.576.005.852-.085,1.7.123,2.532.008s1.662.131,2.48.011a8.707,8.707,0,0,1,2.426.014,7.646,7.646,0,0,0,2.365.017c.779-.056,1.546-.381,2.3.021.757-.1,1.5.193,2.233.022a5.579,5.579,0,0,0,2.161.025,7.981,7.981,0,0,0,2.083.027,14.34,14.34,0,0,1,2,.028c.653-.168,1.292.22,1.915.033.623.038,1.23-.025,1.823.034.591-.395,1.169,0,1.728.037.561.056,1.1-.263,1.628.036.526-.3,1.034-.04,1.525.041s.961-.125,1.414.041c.454-.209.888.117,1.3.045a4.676,4.676,0,0,0,1.183.045,3.022,3.022,0,0,1,1.062.047l.934.047a8.913,8.913,0,0,1,2.689.314" transform="translate(-11358 -11973.995)" fill="#43c0ff"/>
      <path id="Trazado_874502" data-name="Trazado 874502" d="M240.456,196.485c0,.111-.162.216-.459.314-.049.017-.1.032-.158.048a.279.279,0,0,1-.182.047c-.063-.145-.131.27-.2.045-.069-.065-.143,0-.221.044s-.157-.092-.24.041c-.083.283-.171-.314-.26.04a.291.291,0,0,1-.277.039c-.095-.216-.193,0-.294.037-.1-.262-.2-.148-.309.033-.106-.358-.215-.3-.327.032-.11.012-.224-.128-.34.03-.115.023-.233.09-.354.028-.12.239-.242.229-.368.024-.124.257-.251.155-.38.023s-.259.225-.391.019c-.133-.016-.267.059-.4.016-.137-.105-.274-.223-.413.015-.139.063-.28.15-.422.011-.142.274-.286.153-.432.008-.143.045-.29-.149-.438,0-.146-.043-.3.121-.444,0-.151-.083-.3-.162-.446,0-.148.176-.294-.072-.439,0-.144-.257-.288.084-.431-.008-.142.025-.283-.149-.421-.011-.14.047-.279.1-.414-.015-.136.4-.27-.1-.4-.016-.132-.166-.263.024-.393-.019-.128.074-.255-.182-.379-.023-.125-.032-.248.128-.369-.024-.12.2-.237-.165-.354-.028a.949.949,0,0,1-.34-.03c-.111-.307-.22-.053-.325-.032-.106-.033-.21.175-.312-.033-.1-.026-.2-.162-.293-.037-.1.046-.188-.448-.277-.039-.089.074-.176-.315-.259-.04-.084.254-.164-.032-.241-.041l-.221-.044c-.636-.133-1-.288-1-.454,0-.184.449-.355,1.22-.5.077-.013.158-.229.241-.041.083,0,.17-.164.259-.04.089-.286.182-.053.277-.038.095-.013.193.078.293-.036.1-.166.206.082.312-.034.105.175.215.129.325-.032.112.171.226-.036.34-.03.117.263.235.079.354-.028s.244.041.369-.024c.124.05.251-.067.379-.023.129-.123.261-.169.393-.019.132-.085.267-.016.4-.016.135-.1.274.013.414-.014.138-.054.279.279.421-.011.142-.037.286.045.431-.008a.576.576,0,0,0,.439-.006c.147.287.3.11.446,0a.549.549,0,0,1,.444,0,1.355,1.355,0,0,1,.438.006c.146-.085.29.123.432.008s.283.131.422.011c.139-.084.276-.129.413.014.136,0,.27.261.4.016.132-.056.263-.381.391.019.129-.1.256.193.38.023.126.292.248.014.368.024.121.058.239.156.354.028s.23.076.34.03c.112-.169.221.219.327.032.105.038.208-.025.309.034.1-.395.2,0,.294.036.1.057.188-.261.277.038.089-.3.176-.041.26.04s.164-.127.24.041c.078-.209.152.117.221.044.071.139.139.008.2.046.064-.048.125-.03.182.045l.158.049c.3.1.459.2.459.314" transform="translate(-11362.151 -11963.199)" fill="#43c0ff"/>
      <path id="Trazado_874503" data-name="Trazado 874503" d="M240.456,212.441c0,.111-.162.217-.459.314-.049.017-.1.034-.158.049a.279.279,0,0,1-.182.047c-.063-.145-.131.271-.2.045-.069-.065-.143,0-.221.045s-.157-.093-.24.041c-.083.285-.171-.314-.26.041a.293.293,0,0,1-.277.038c-.095-.215-.193,0-.294.037-.1-.261-.2-.147-.309.034-.106-.358-.215-.3-.327.031-.11.012-.224-.128-.34.03-.115.023-.233.089-.354.028-.12.239-.242.229-.368.024-.124.256-.251.155-.38.023s-.259.224-.391.02c-.133-.017-.267.058-.4.015-.137-.105-.274-.223-.413.014-.139.065-.28.151-.422.012-.142.274-.286.153-.432.008-.143.045-.29-.149-.438.006-.146-.043-.3.12-.444,0-.151-.084-.3-.162-.446,0-.148.175-.294-.074-.439-.006-.144-.257-.288.085-.431-.008-.142.025-.283-.149-.421-.012-.14.047-.279.1-.414-.014-.136.4-.27-.1-.4-.015-.132-.168-.263.024-.393-.02-.128.074-.255-.182-.379-.023-.125-.033-.248.128-.369-.024-.12.2-.237-.165-.354-.028a.95.95,0,0,1-.34-.03c-.111-.307-.22-.052-.325-.031-.106-.034-.21.175-.312-.034-.1-.025-.2-.162-.293-.037-.1.046-.188-.447-.277-.038-.089.074-.176-.315-.259-.041-.084.255-.164-.03-.241-.041l-.221-.045c-.636-.133-1-.287-1-.454,0-.184.449-.355,1.22-.5.077-.014.158-.23.241-.042.083,0,.17-.164.259-.039.089-.286.182-.054.277-.039.095-.014.193.078.293-.036.1-.165.206.083.312-.033.105.175.215.129.325-.033.112.171.226-.036.34-.029.117.263.235.078.354-.028s.244.041.369-.024c.124.051.251-.066.379-.023.129-.123.261-.169.393-.019.132-.085.267-.016.4-.016.135-.1.274.012.414-.014.138-.055.279.28.421-.012.142-.036.286.047.431-.008a.573.573,0,0,0,.439,0c.147.287.3.109.446,0a.555.555,0,0,1,.444,0,1.356,1.356,0,0,1,.438,0c.146-.085.29.124.432.008s.283.132.422.012c.139-.084.276-.129.413.014.136,0,.27.261.4.016.132-.056.263-.381.391.019.129-.1.256.195.38.023.126.293.248.015.368.024.121.057.239.155.354.028s.23.076.34.029c.112-.168.221.219.327.033.105.036.208-.026.309.033.1-.393.2,0,.294.036.1.057.188-.261.277.039.089-.3.176-.041.26.039s.164-.126.24.042c.078-.21.152.117.221.044.071.14.139.008.2.046.064-.048.125-.03.182.046.056.015.109.032.158.048.3.1.459.2.459.313" transform="translate(-11362.151 -11968.181)" fill="#43c0ff"/>
      <path id="Trazado_874504" data-name="Trazado 874504" d="M230.687,210.94c-.11,0-.217-.243-.314-.687-.017-.074-.032-.153-.048-.239a.577.577,0,0,1-.047-.27c.146-.1-.27-.2-.045-.3.065-.107.006-.216-.044-.333s.092-.235-.043-.36c-.282-.126.316-.254-.039-.389a.623.623,0,0,1-.038-.415c.216-.144,0-.29-.037-.442.262-.152.148-.306-.034-.465.358-.16.3-.323-.032-.49-.01-.166.128-.336-.029-.511a1.1,1.1,0,0,1-.028-.532.312.312,0,0,1-.025-.551c-.256-.187-.155-.378-.022-.571s-.225-.389-.019-.588a4.768,4.768,0,0,1-.017-.6c.105-.2.223-.41-.014-.618a.7.7,0,0,1-.012-.633c-.273-.214-.153-.429-.006-.646-.046-.218.147-.437-.006-.658.043-.221-.12-.444,0-.668a.66.66,0,0,0,0-.669c-.175-.221.073-.441.006-.658.255-.217-.085-.433.006-.645-.024-.214.149-.425.012-.634a.837.837,0,0,1,.014-.619c-.4-.2.1-.406.017-.6.166-.2-.025-.394.019-.588-.073-.193.183-.382.022-.569.033-.187-.127-.371.025-.552-.2-.181.165-.358.028-.532a2.043,2.043,0,0,1,.029-.511c.307-.166.052-.329.032-.488.034-.159-.175-.315.034-.466.025-.151.162-.3.037-.442-.046-.142.447-.281.038-.415-.073-.135.315-.264.039-.39-.253-.124.032-.246.043-.361s.029-.226.044-.333c.133-.951.288-1.5.454-1.5.184,0,.354.673.5,1.83.014.116.23.237.042.361,0,.126.164.255.04.39.285.133.053.272.038.415.014.144-.078.29.036.442.166.151-.082.307.034.466-.175.159-.13.322.032.488-.171.167.036.338.03.511-.263.174-.079.351.027.532s-.039.365.025.552c-.051.187.066.377.021.569a.471.471,0,0,1,.02.588,1.444,1.444,0,0,1,.017.6c.1.2-.012.41.014.619.054.209-.28.42.012.634.036.213-.047.428.007.645a1.272,1.272,0,0,0,.005.658c-.287.221-.11.444,0,.669a1.224,1.224,0,0,1,0,.668,3.007,3.007,0,0,1-.005.658c.085.217-.124.432-.007.646s-.132.425-.012.633a.607.607,0,0,1-.014.618c0,.2-.261.406-.017.6.056.2.381.4-.02.588.1.193-.192.384-.021.571-.292.187-.015.371-.025.551-.057.181-.156.358-.027.532s-.077.345-.03.511c.168.167-.219.331-.032.49-.038.159.025.313-.034.465.4.151,0,.3-.036.442-.057.142.261.281-.038.415.3.135.041.263-.04.389s.127.245-.042.36c.21.117-.116.226-.044.333-.14.105-.007.206-.045.3a.222.222,0,0,1-.046.27c-.017.085-.032.165-.048.239-.1.444-.2.687-.314.687" transform="translate(-11363.343 -11961.178)" fill="#43c0ff"/>
      <path id="Trazado_874505" data-name="Trazado 874505" d="M302.946,196.513c0-.11.162-.216.457-.314.05-.016.1-.032.159-.048a.28.28,0,0,1,.18-.047c.065.145.131-.27.2-.045.071.065.144,0,.222-.044s.157.092.241-.042c.083-.283.169.314.259-.04a.294.294,0,0,1,.279-.039c.095.217.193,0,.293-.036.1.261.2.147.311-.034.106.358.215.3.326-.032.111-.011.224.128.34-.03.116-.023.235-.089.354-.027.121-.239.243-.228.368-.025.125-.257.252-.155.381-.022s.259-.226.391-.019c.132.015.267-.058.4-.016.136.105.274.224.413-.014.139-.063.28-.149.422-.011.142-.273.286-.152.431-.009.144-.045.292.149.438,0,.148.043.3-.12.446,0,.151.083.3.162.446,0s.294.073.438,0c.145.257.29-.083.432.009.141-.025.283.149.421.011a.39.39,0,0,1,.414.014c.135-.395.27.1.4.016.132.167.263-.025.392.019.128-.074.254.182.38.022.125.034.247-.127.368.025.12-.2.239.166.354.027a.976.976,0,0,1,.34.03c.111.307.219.053.327.032.106.034.209-.175.31.034.1.025.2.161.294.036.095-.045.188.448.277.039.089-.073.176.315.259.04.084-.253.163.032.241.042l.221.044c.634.133,1,.288,1,.453,0,.184-.449.356-1.22.5-.078.014-.157.23-.241.041-.083,0-.17.164-.259.041-.089.285-.182.052-.277.039-.095.014-.193-.078-.294.036-.1.166-.2-.083-.31.034-.107-.176-.215-.13-.327.032-.111-.172-.224.036-.34.03-.116-.265-.235-.078-.354.027s-.243-.039-.368.025c-.125-.051-.252.067-.38.022-.129.123-.26.171-.392.019-.132.085-.267.017-.4.017-.137.105-.275-.013-.414.014-.138.055-.28-.28-.421.012-.142.036-.287-.046-.432.008a.563.563,0,0,0-.438,0c-.148-.288-.3-.111-.446,0a.558.558,0,0,1-.446,0,1.377,1.377,0,0,1-.438,0c-.144.084-.288-.123-.431-.008s-.283-.131-.422-.012c-.139.083-.277.129-.413-.014-.135,0-.27-.261-.4-.017-.132.056-.263.381-.391-.019-.129.1-.256-.193-.381-.022-.124-.293-.247-.015-.368-.025-.12-.056-.239-.155-.354-.027s-.23-.077-.34-.03c-.111.168-.22-.22-.326-.032-.107-.039-.21.024-.311-.034-.1.394-.2,0-.293-.036-.1-.058-.188.261-.279-.039-.089.3-.176.04-.259-.041s-.164.127-.241-.041c-.078.209-.151-.117-.222-.044-.071-.139-.138-.008-.2-.045-.062.047-.123.03-.18-.047-.056-.016-.109-.032-.159-.049-.3-.1-.457-.2-.457-.314" transform="translate(-11386.231 -11963.2)" fill="#43c0ff"/>
      <path id="Trazado_874506" data-name="Trazado 874506" d="M302.946,212.47c0-.11.162-.217.457-.314.05-.017.1-.032.159-.048a.267.267,0,0,1,.18-.046c.065.144.131-.27.2-.046.071.065.144,0,.222-.044s.157.093.241-.041c.083-.283.169.315.259-.041a.3.3,0,0,1,.279-.038c.095.216.193,0,.293-.036.1.261.2.149.311-.033.106.357.215.3.326-.033.111-.01.224.129.34-.028.116-.024.235-.091.354-.029.121-.238.243-.228.368-.024.125-.257.252-.155.381-.023s.259-.225.391-.019c.132.016.267-.058.4-.017.136.105.274.224.413-.014.139-.063.28-.15.422-.011.142-.274.286-.152.431-.009.144-.045.292.149.438,0,.148.042.3-.12.446,0,.151.082.3.161.446,0,.147-.175.294.072.438,0,.145.257.29-.083.432.009.141-.025.283.148.421.011a.39.39,0,0,1,.414.014c.135-.395.27.1.4.017.132.167.263-.025.392.019.128-.073.254.183.38.023.125.033.247-.127.368.024.12-.195.239.166.354.029a.975.975,0,0,1,.34.028c.111.309.219.053.327.032.106.034.209-.173.31.034.1.025.2.161.294.036.095-.045.188.448.277.038.089-.072.176.315.259.041.084-.253.163.032.241.041l.221.044c.634.133,1,.289,1,.454,0,.184-.449.355-1.22.5-.078.015-.157.23-.241.042-.083,0-.17.164-.259.04-.089.286-.182.053-.277.039-.095.014-.193-.078-.294.036-.1.166-.2-.082-.31.034-.107-.175-.215-.13-.327.032-.111-.171-.224.037-.34.03-.116-.263-.235-.078-.354.027s-.243-.039-.368.025c-.125-.051-.252.067-.38.023-.129.123-.26.17-.392.019-.132.085-.267.017-.4.017-.137.105-.275-.013-.414.014-.138.055-.28-.28-.421.011-.142.037-.287-.045-.432.008a.563.563,0,0,0-.438,0c-.148-.287-.3-.11-.446,0a.555.555,0,0,1-.446,0,1.356,1.356,0,0,1-.438,0c-.144.084-.288-.123-.431-.008s-.283-.131-.422-.011c-.139.083-.277.129-.413-.014-.135,0-.27-.261-.4-.017-.132.056-.263.381-.391-.019-.129.1-.256-.193-.381-.023-.124-.292-.247-.014-.368-.025-.12-.056-.239-.155-.354-.027s-.23-.076-.34-.03c-.111.169-.22-.219-.326-.032-.107-.038-.21.026-.311-.034-.1.4-.2,0-.293-.036-.1-.057-.188.261-.279-.039-.089.3-.176.041-.259-.04s-.164.127-.241-.042c-.078.21-.151-.116-.222-.044-.071-.138-.138-.007-.2-.045-.062.047-.123.031-.18-.046-.056-.016-.109-.032-.159-.049-.3-.1-.457-.2-.457-.314" transform="translate(-11386.231 -11968.182)" fill="#43c0ff"/>
      <path id="Trazado_874507" data-name="Trazado 874507" d="M318.447,210.94c-.11,0-.215-.243-.313-.687-.015-.074-.032-.153-.048-.239a.576.576,0,0,1-.047-.27c.146-.1-.27-.2-.045-.3.065-.107,0-.216-.043-.333s.092-.235-.043-.36c-.283-.126.315-.254-.039-.389a.627.627,0,0,1-.038-.415c.216-.144,0-.29-.038-.442.261-.152.149-.306-.033-.465.357-.16.3-.323-.033-.49-.01-.166.128-.336-.029-.511a1.1,1.1,0,0,1-.027-.532c-.24-.18-.23-.364-.025-.551-.257-.187-.155-.378-.022-.571s-.226-.389-.021-.588a4.768,4.768,0,0,1-.017-.6c.105-.2.224-.41-.014-.618a.7.7,0,0,1-.011-.633c-.274-.214-.152-.429-.008-.646-.046-.218.148-.437,0-.658.041-.221-.121-.444,0-.668a.664.664,0,0,0,0-.669c-.176-.221.072-.441,0-.658.257-.217-.085-.433.008-.645-.025-.214.148-.425.011-.634a.84.84,0,0,1,.014-.619c-.395-.2.1-.406.017-.6.167-.2-.025-.394.021-.588-.074-.193.182-.382.022-.569.032-.187-.128-.371.025-.552-.2-.181.165-.358.027-.532a2.218,2.218,0,0,1,.029-.511c.309-.166.053-.329.033-.488.032-.159-.175-.315.033-.466.025-.151.161-.3.038-.442-.047-.142.447-.281.038-.415-.074-.135.314-.264.039-.39-.254-.124.032-.246.043-.361s.029-.226.043-.333c.132-.951.288-1.5.453-1.5.185,0,.355.673.5,1.83.014.116.23.237.041.361,0,.126.165.255.041.39.284.133.052.272.037.415.014.144-.078.29.036.442.167.151-.082.307.034.466-.175.159-.129.322.032.488-.171.167.036.338.03.511-.263.174-.078.351.027.532s-.04.365.024.552c-.051.187.067.377.023.569a.472.472,0,0,1,.019.588,1.433,1.433,0,0,1,.017.6c.1.2-.014.41.013.619.056.209-.28.42.012.634.037.213-.046.428.008.645a1.265,1.265,0,0,0,.006.658c-.288.221-.111.444,0,.669a1.224,1.224,0,0,1,0,.668,3.149,3.149,0,0,1-.006.658c.085.217-.124.432-.008.646s-.131.425-.012.633a.607.607,0,0,1-.013.618c0,.2-.262.406-.017.6.056.2.382.4-.019.588.1.193-.193.384-.023.571-.292.187-.015.371-.024.551-.057.181-.155.358-.027.532s-.076.345-.03.511c.167.167-.219.331-.032.49-.038.159.026.313-.034.465.395.151,0,.3-.036.442-.056.142.262.281-.037.415.3.135.04.263-.041.389s.126.245-.041.36c.209.117-.117.226-.043.333-.14.105-.009.206-.047.3a.223.223,0,0,1-.047.27c-.017.085-.032.165-.047.239-.1.444-.2.687-.315.687" transform="translate(-11390.744 -11961.178)" fill="#43c0ff"/>
      <path id="Trazado_874508" data-name="Trazado 874508" d="M281.1,218.617a12.476,12.476,0,0,1-.314-3.2c-.014-.345-.031-.717-.049-1.113a12.61,12.61,0,0,1-.045-1.264c.144-.447-.27-.917-.046-1.411a7.138,7.138,0,0,0-.044-1.552,11.461,11.461,0,0,0-.041-1.686c-.283-.583.315-1.19-.04-1.816a13.232,13.232,0,0,1-.039-1.941,5.629,5.629,0,0,0-.036-2.059,3.648,3.648,0,0,0-.034-2.173,2.637,2.637,0,0,0-.032-2.281,13.066,13.066,0,0,0-.029-2.384,23.074,23.074,0,0,1-.027-2.482,4.605,4.605,0,0,1-.173-1.028c-.019-.048,0-.052.051-.159a.191.191,0,0,0-.024-.1.971.971,0,0,0-.094.08l-.027.028s0,0-.009.007l-.041.006-.083.01a5.075,5.075,0,0,1-.663.025,10.945,10.945,0,0,1-1.342-.134c-.9-.144-1.816.225-2.744.019-.926-.015-1.867.06-2.818.017a8.167,8.167,0,0,0-2.891.014,14.466,14.466,0,0,1-2.954.011,7.328,7.328,0,0,1-3.016.008,28.956,28.956,0,0,0-3.071,0c-.516-.021-1.034.009-1.554.03l-.556.016a.449.449,0,0,1-.124-.043.219.219,0,0,0-.058.1l-.011.038,0,.01,0,.045-.006.1-.012.39a8.955,8.955,0,0,0,.089,1.553,29.51,29.51,0,0,1,0,3.071,18.4,18.4,0,0,0-.009,3.016,26.01,26.01,0,0,0-.01,2.955,17.533,17.533,0,0,1-.014,2.889c.394.953-.1,1.892-.016,2.82a20.542,20.542,0,0,0-.02,2.743c.074.9-.182,1.788-.023,2.66a18.555,18.555,0,0,1-.025,2.575,2.359,2.359,0,0,1,.056.4l0,.1v.063a.224.224,0,0,1-.008.043c-.016.058-.054.143-.082.249a.292.292,0,0,0,.261,0H259.4c.4,0,.79.009,1.181.03a5.363,5.363,0,0,0,2.28.032,8.912,8.912,0,0,1,2.173.034,9.638,9.638,0,0,0,2.06.036c.666-.045,1.314.448,1.939.038.628-.073,1.233.316,1.817.041.583-.253,1.147.031,1.685.041l1.552.043c4.445.134,6.992.29,6.992.455,0,.184-3.146.355-8.543.5a4.711,4.711,0,0,1-1.685.043,8.9,8.9,0,0,1-1.817.039,4.207,4.207,0,0,1-1.939.038,14.4,14.4,0,0,0-2.06.037c-.706.166-1.43-.083-2.173.034a5.2,5.2,0,0,0-2.28.032,4.044,4.044,0,0,0-1.181-.046c-.2.016-.4.034-.6.051-.1.007-.2.014-.3.019l-.151.006H258.1a7.429,7.429,0,0,0-1.42-.135,16.168,16.168,0,0,0-.162-2.215c-.1-.844.04-1.7-.025-2.574.052-.873-.067-1.761-.023-2.662a9.205,9.205,0,0,1-.019-2.743c-.085-.928-.017-1.867-.017-2.82-.105-.951.014-1.915-.013-2.889a12.391,12.391,0,0,0-.011-2.955c-.039-1,.045-2-.009-3.016a26.929,26.929,0,0,0,0-3.071,4.959,4.959,0,0,0,.149-1.553c-.051-.82-.1-1.649-.152-2.479,2.363-.083,2.9-.041,4.034,0,1.032-.03,2.056-.014,3.071.006,1.014-.085,2.019.123,3.016.008s1.981.131,2.954.01a12.385,12.385,0,0,1,2.891.014,10.868,10.868,0,0,0,2.818.017,5.577,5.577,0,0,1,2.744.02,6.724,6.724,0,0,1,1.342.037c.221.02.443.038.663.04l.193,0,.287-.009c.193-.008.389-.023.595-.044a5.883,5.883,0,0,0,.789.111c-.021.315-.025.6-.021.889s.019.576.036.857a9.316,9.316,0,0,1,.072,1.028,11.242,11.242,0,0,0-.027,2.482,20.022,20.022,0,0,1-.03,2.384c.169.777-.219,1.538-.032,2.281-.038.743.026,1.467-.033,2.173.394.706,0,1.392-.037,2.059-.056.667.261,1.315-.039,1.941a2.961,2.961,0,0,1-.039,1.816,11.632,11.632,0,0,1-.042,1.686c.21.541-.116,1.057-.044,1.552a6.688,6.688,0,0,0-.045,1.411,4.26,4.26,0,0,1-.046,1.263c-.017.4-.033.769-.049,1.114a12.438,12.438,0,0,1-.314,3.2" transform="translate(-11371.684 -11961.539)" fill="#43c0ff"/>
      <path id="Trazado_874509" data-name="Trazado 874509" d="M257.712,191.657c.083-.072.426.162.981.653.092.083.189.172.294.267a1.5,1.5,0,0,1,.329.309c-.007.214.417.068.361.347a.933.933,0,0,0,.394.388c.164.111.186.355.423.423.35-.03.038.525.452.46a1.7,1.7,0,0,1,.479.495c-.009.321.312.364.5.529-.034.36.222.479.532.56-.1.434.118.6.554.589.188.2.269.506.576.62a3,3,0,0,1,.6.646.711.711,0,0,1,.617.674c.4.066.525.369.634.7s.591.338.652.721c.2.259.477.462.666.743.141.324.276.661.682.766a1.838,1.838,0,0,1,.695.785c.439.088.58.435.706.8.27.242.36.643.717.818.206.3.571.477.725.835a1.719,1.719,0,0,0,.723.836c.372.161.422.6.708.827.042.439.533.486.695.812.25.25.347.628.678.8a2.238,2.238,0,0,1,.66.783c.519,0,.362.573.641.766.089.357.446.478.622.748.266.192.278.6.6.727.179.256.5.382.58.706.343.1.263.555.556.683a5.922,5.922,0,0,1,.531.657c-.053.41.317.448.506.632.147.221.473.28.478.605.145.2.2.478.451.576.189.149-.034.646.421.545.2.118.048.535.391.512.327-.009.243.327.36.479s.223.3.327.443c.931,1.278,1.405,2.061,1.28,2.17s-1-.609-2.359-1.962c-.136-.135-.429-.144-.422-.424-.135-.158-.4-.212-.453-.461-.36.019-.334-.307-.479-.493-.164-.171-.256-.415-.506-.53-.289-.08-.269-.437-.53-.559a.712.712,0,0,0-.554-.59c-.051-.321-.392-.4-.576-.62.011-.39-.32-.49-.6-.646s-.365-.483-.616-.673c-.165-.268-.459-.429-.634-.7a1.2,1.2,0,0,1-.651-.724,3.931,3.931,0,0,1-.668-.742c-.3-.188-.435-.522-.682-.766-.266-.224-.243-.708-.694-.785-.258-.241-.43-.565-.706-.8a3.42,3.42,0,0,0-.715-.819c-.023-.463-.4-.626-.726-.834a3.313,3.313,0,0,1-.724-.836,8.383,8.383,0,0,1-.709-.827c-.3-.217-.376-.622-.694-.812s-.361-.617-.678-.8a1.583,1.583,0,0,1-.66-.783c-.221-.253-.241-.678-.642-.766-.257-.211-.715-.243-.621-.747-.285-.175-.27-.6-.6-.727.019-.427-.391-.475-.58-.706-.152-.264-.269-.55-.554-.682s-.315-.481-.532-.658c-.307-.1-.191-.556-.506-.631-.143-.225-.36-.378-.478-.606-.464.069-.322-.374-.451-.575-.112-.217-.5-.18-.422-.545-.371.028-.316-.3-.391-.512s-.362-.225-.36-.479c-.284-.008-.158-.359-.327-.444-.009-.224-.218-.263-.293-.407a.56.56,0,0,1-.259-.37l-.222-.329c-.406-.618-.589-.991-.506-1.064" transform="translate(-11372.102 -11962.007)" fill="#43c0ff"/>
      <path id="Trazado_874510" data-name="Trazado 874510" d="M257.742,219.094c-.083-.072.1-.445.507-1.063.069-.1.143-.213.223-.329a1.515,1.515,0,0,1,.258-.37c.213-.025.009-.422.294-.407a.92.92,0,0,0,.326-.444c.087-.178.326-.235.36-.479-.078-.342.513-.112.393-.512a1.657,1.657,0,0,1,.421-.545c.318-.037.315-.362.45-.576.361-.018.444-.285.479-.6.442.036.577-.2.505-.632.171-.215.462-.338.531-.658a2.971,2.971,0,0,1,.556-.683.708.708,0,0,1,.578-.706c.01-.4.292-.573.6-.728s.251-.633.623-.748c.226-.238.388-.538.641-.766.3-.186.614-.367.66-.783a1.846,1.846,0,0,1,.678-.8c.024-.446.349-.635.693-.812.2-.3.586-.45.71-.826.271-.249.39-.635.723-.837a1.729,1.729,0,0,0,.725-.834c.108-.392.532-.5.717-.819.428-.1.406-.6.706-.8.212-.283.572-.433.693-.785a2.252,2.252,0,0,1,.682-.765c-.077-.513.516-.44.666-.744.342-.138.41-.508.653-.721.154-.29.553-.36.634-.7.228-.212.306-.547.616-.673.049-.354.512-.34.6-.647a5.89,5.89,0,0,1,.576-.62c.414-.006.4-.378.554-.589.2-.177.208-.508.53-.56.183-.173.445-.268.505-.528.121-.209.644-.058.479-.495.09-.217.523-.123.452-.46-.056-.322.289-.286.422-.424l.393-.387c1.132-1.1,1.842-1.684,1.966-1.576.14.12-.461,1.075-1.607,2.614-.114.154-.082.446-.36.479-.135.155-.151.426-.391.512.07.356-.255.376-.422.545-.144.188-.373.312-.451.575-.039.3-.394.33-.478.606a.708.708,0,0,0-.506.631c-.31.1-.338.445-.531.658-.388.045-.44.388-.556.682s-.425.43-.58.706c-.241.2-.358.514-.6.727a1.2,1.2,0,0,1-.622.748,3.967,3.967,0,0,1-.642.765c-.142.324-.455.5-.661.783-.185.3-.666.342-.678.8-.2.29-.5.505-.693.812a3.39,3.39,0,0,0-.71.827c-.455.088-.563.483-.722.836a3.291,3.291,0,0,1-.726.835,8.072,8.072,0,0,1-.715.819c-.172.327-.562.461-.706.8s-.56.445-.694.785a1.6,1.6,0,0,1-.682.766c-.222.254-.638.335-.668.743-.173.285-.139.743-.651.723-.133.306-.561.351-.635.7-.424.041-.412.453-.615.673-.239.188-.505.345-.6.646s-.43.38-.576.619c-.054.318-.522.268-.553.59-.2.174-.32.411-.53.56.134.448-.324.372-.506.528-.2.142-.108.523-.48.5.081.363-.254.356-.45.46s-.171.39-.423.424c.033.282-.333.207-.393.387-.219.041-.231.253-.362.349a.568.568,0,0,1-.329.308l-.3.267c-.554.49-.9.725-.981.652" transform="translate(-11372.11 -11962.008)" fill="#43c0ff"/>
    </g>
  </g>
</svg>
