<svg xmlns="http://www.w3.org/2000/svg" xmlns:xlink="http://www.w3.org/1999/xlink" width="153" height="38.434" viewBox="0 0 153 38.434">
  <defs>
    <clipPath id="clip-path">
      <rect id="Rect치ngulo_401325" data-name="Rect치ngulo 401325" width="10.4" height="10.4" fill="#ff9751"/>
    </clipPath>
    <clipPath id="clip-path-2">
      <rect id="Rect치ngulo_401570" data-name="Rect치ngulo 401570" width="16.993" height="25.5" transform="translate(0 0)" fill="#02dd84"/>
    </clipPath>
  </defs>
  <g id="img-6" transform="translate(-7353.969 11325)">
    <g id="Trazado_875170" data-name="Trazado 875170" transform="translate(7361.9 -11325)" fill="none">
      <path d="M15,0H139.868V23.434a15,15,0,0,1-15,15H0V15A15,15,0,0,1,15,0Z" stroke="none"/>
      <path d="M 15.00000762939453 0.9999961853027344 C 11.26048278808594 0.9999961853027344 7.744766235351562 2.456253051757812 5.100509643554688 5.100505828857422 C 2.456253051757812 7.744760513305664 1 11.26046943664551 1 14.99999618530273 L 1 37.43359756469727 L 124.8684768676758 37.43359756469727 C 128.6080017089844 37.43359756469727 132.1237182617188 35.97734069824219 134.7679748535156 33.33308792114258 C 137.4122314453125 30.68883323669434 138.8684844970703 27.17312431335449 138.8684844970703 23.43359756469727 L 138.8684844970703 0.9999961853027344 L 15.00000762939453 0.9999961853027344 M 15.00000762939453 -3.814697265625e-06 L 139.8684844970703 -3.814697265625e-06 L 139.8684844970703 23.43359756469727 C 139.8684844970703 31.71786880493164 133.1527557373047 38.43359756469727 124.8684768676758 38.43359756469727 L 0 38.43359756469727 L 0 14.99999618530273 C 0 6.715724945068359 6.715728759765625 -3.814697265625e-06 15.00000762939453 -3.814697265625e-06 Z" stroke="none" fill="#01927f"/>
    </g>
    <path id="Trazado_875171" data-name="Trazado 875171" d="M12.051,14.205l.02.059A4.57,4.57,0,0,1,10.7,17.95a5.82,5.82,0,0,1-4,1.255,5.694,5.694,0,0,1-4.233-1.611,5.734,5.734,0,0,1-1.6-4.219V10.406A5.861,5.861,0,0,1,2.407,6.192,5.354,5.354,0,0,1,6.475,4.576a6.268,6.268,0,0,1,4.185,1.26A4.441,4.441,0,0,1,12.1,9.5l-.029.059H8.857A2.613,2.613,0,0,0,8.3,7.682a2.484,2.484,0,0,0-1.826-.566,1.931,1.931,0,0,0-1.709.894,4.225,4.225,0,0,0-.6,2.378v2.988a3.977,3.977,0,0,0,.654,2.393,2.179,2.179,0,0,0,1.875.9A2.088,2.088,0,0,0,8.335,16.1a2.84,2.84,0,0,0,.5-1.895Zm8.018,3.213a3.473,3.473,0,0,1-1.216,1.323,3.2,3.2,0,0,1-1.724.464,3.129,3.129,0,0,1-2.573-1.152,5.618,5.618,0,0,1-.933-3.564V8.434h3.291v6.074a3.2,3.2,0,0,0,.317,1.7,1.111,1.111,0,0,0,.981.459,2.694,2.694,0,0,0,.928-.146,1.793,1.793,0,0,0,.684-.439V8.434h3.3V19H20.469ZM31.045,18.99a3.986,3.986,0,0,1-.317-.752,5.765,5.765,0,0,1-.2-.879,4.038,4.038,0,0,1-1.06,1.343,2.558,2.558,0,0,1-1.646.5,3.659,3.659,0,0,1-2.583-.854,3.019,3.019,0,0,1-.923-2.329A2.817,2.817,0,0,1,25.5,13.595a6.126,6.126,0,0,1,3.584-.854h1.357v-.752a1.505,1.505,0,0,0-.322-1.035,1.255,1.255,0,0,0-.986-.361,1.19,1.19,0,0,0-.854.269A1.114,1.114,0,0,0,28,11.7l-3.2-.01-.02-.059A2.756,2.756,0,0,1,25.981,9.21a5.4,5.4,0,0,1,3.364-.972,4.921,4.921,0,0,1,3.179.977,3.375,3.375,0,0,1,1.216,2.793v3.984a8.128,8.128,0,0,0,.142,1.563A8.368,8.368,0,0,0,34.307,19Zm-2.324-2.139a2.011,2.011,0,0,0,1.069-.283,1.621,1.621,0,0,0,.649-.674V14.5H29.111a1.492,1.492,0,0,0-1.143.381,1.37,1.37,0,0,0-.352.967.935.935,0,0,0,.308.728A1.141,1.141,0,0,0,28.721,16.852Zm12.666-5.605-1.074-.01a1.829,1.829,0,0,0-.928.21,1.3,1.3,0,0,0-.537.591V19h-3.3V8.434h3.105l.117,1.553A3.186,3.186,0,0,1,39.648,8.7a1.929,1.929,0,0,1,1.279-.459,2.454,2.454,0,0,1,.4.029,3.029,3.029,0,0,1,.371.088Zm5.166-5.439V8.434h1.67v2.285h-1.67v4.844a1.185,1.185,0,0,0,.229.815.8.8,0,0,0,.62.249,3.318,3.318,0,0,0,.405-.02,3.509,3.509,0,0,0,.386-.078l.225,2.441a7.968,7.968,0,0,1-.9.181,7.236,7.236,0,0,1-.947.054,3.3,3.3,0,0,1-2.476-.869,3.836,3.836,0,0,1-.845-2.754V10.719H41.777V8.434h1.475V5.807Zm2.832,7.813a5.585,5.585,0,0,1,1.348-3.882,5.477,5.477,0,0,1,7.529,0,5.585,5.585,0,0,1,1.348,3.882v.205a5.581,5.581,0,0,1-1.348,3.887,4.792,4.792,0,0,1-3.75,1.494,4.829,4.829,0,0,1-3.779-1.494,5.581,5.581,0,0,1-1.348-3.887Zm3.3.205a4.368,4.368,0,0,0,.415,2.085,1.477,1.477,0,0,0,1.411.757A1.459,1.459,0,0,0,55.9,15.9a4.331,4.331,0,0,0,.42-2.08v-.205a4.347,4.347,0,0,0-.42-2.065,1.471,1.471,0,0,0-1.406-.776,1.45,1.45,0,0,0-1.392.781,4.4,4.4,0,0,0-.415,2.061ZM69.5,19H66.191V3.766H69.5Zm8.389-1.582a3.473,3.473,0,0,1-1.216,1.323,3.2,3.2,0,0,1-1.724.464,3.129,3.129,0,0,1-2.573-1.152,5.618,5.618,0,0,1-.933-3.564V8.434h3.291v6.074a3.2,3.2,0,0,0,.317,1.7,1.111,1.111,0,0,0,.981.459,2.694,2.694,0,0,0,.928-.146,1.793,1.793,0,0,0,.684-.439V8.434h3.3V19H78.291Zm4.424-3.682a6.719,6.719,0,0,1,1.079-3.984,3.518,3.518,0,0,1,3.042-1.514,2.712,2.712,0,0,1,1.465.4,3.492,3.492,0,0,1,1.094,1.118l.215-1.318h2.91V18.883a3.913,3.913,0,0,1-1.431,3.237,6.133,6.133,0,0,1-3.94,1.147,7.086,7.086,0,0,1-1.719-.225,9.6,9.6,0,0,1-1.719-.605L83.877,20a7.845,7.845,0,0,0,1.362.464,6.6,6.6,0,0,0,1.489.151,2.443,2.443,0,0,0,1.567-.42,1.618,1.618,0,0,0,.513-1.328v-.82a2.865,2.865,0,0,1-2.393,1.162,3.552,3.552,0,0,1-3.027-1.445,6.248,6.248,0,0,1-1.074-3.818Zm3.291.205a4.388,4.388,0,0,0,.376,2.007,1.322,1.322,0,0,0,1.274.718,2.326,2.326,0,0,0,.923-.166,1.506,1.506,0,0,0,.63-.5V11.559a1.643,1.643,0,0,0-.625-.581,1.928,1.928,0,0,0-.908-.2A1.326,1.326,0,0,0,86,11.593a4.942,4.942,0,0,0-.4,2.144Zm14.5,5.049a3.987,3.987,0,0,1-.317-.752,5.765,5.765,0,0,1-.2-.879A4.038,4.038,0,0,1,98.53,18.7a2.558,2.558,0,0,1-1.646.5,3.659,3.659,0,0,1-2.583-.854,3.019,3.019,0,0,1-.923-2.329,2.817,2.817,0,0,1,1.182-2.427,6.126,6.126,0,0,1,3.584-.854H99.5v-.752a1.505,1.505,0,0,0-.322-1.035,1.255,1.255,0,0,0-.986-.361,1.19,1.19,0,0,0-.854.269,1.114,1.114,0,0,0-.278.835l-3.2-.01-.02-.059A2.756,2.756,0,0,1,95.044,9.21a5.4,5.4,0,0,1,3.364-.972,4.921,4.921,0,0,1,3.179.977,3.375,3.375,0,0,1,1.216,2.793v3.984a8.129,8.129,0,0,0,.142,1.563A8.367,8.367,0,0,0,103.369,19Zm-2.324-2.139a2.011,2.011,0,0,0,1.069-.283,1.621,1.621,0,0,0,.649-.674V14.5H98.174a1.492,1.492,0,0,0-1.143.381,1.37,1.37,0,0,0-.352.967.935.935,0,0,0,.308.728A1.141,1.141,0,0,0,97.783,16.852Zm12.666-5.605-1.074-.01a1.829,1.829,0,0,0-.928.21,1.3,1.3,0,0,0-.537.591V19h-3.3V8.434h3.105l.117,1.553a3.186,3.186,0,0,1,.879-1.289,1.929,1.929,0,0,1,1.279-.459,2.454,2.454,0,0,1,.4.029,3.029,3.029,0,0,1,.371.088Zm3.2,7.754h-3.291V16.227h3.291Zm0-8.555h-3.291V7.672h3.291Z" transform="translate(7374.103 -11318.069)" fill="#12263f"/>
    <g id="Grupo_1099295" data-name="Grupo 1099295" transform="translate(7496.569 -11318.069)" clip-path="url(#clip-path)">
      <path id="Trazado_873887" data-name="Trazado 873887" d="M5.2,10.4A5.2,5.2,0,0,0,0,5.2,5.2,5.2,0,0,0,5.2,0a5.2,5.2,0,0,0,5.2,5.2,5.2,5.2,0,0,0-5.2,5.2" transform="translate(0 0)" fill="#ff9751"/>
    </g>
    <g id="Grupo_1100160" data-name="Grupo 1100160" transform="translate(7353.969 -11318.069)" clip-path="url(#clip-path-2)">
      <path id="Trazado_874970" data-name="Trazado 874970" d="M31.847,72.3h0a8.511,8.511,0,0,0,8.511-8.511A8.511,8.511,0,0,0,31.847,72.3Z" transform="translate(-23.366 -46.804)" fill="#02dd84"/>
      <path id="Trazado_874971" data-name="Trazado 874971" d="M31.847,40.407h0A8.511,8.511,0,0,0,40.358,31.9,8.511,8.511,0,0,0,31.847,40.407Z" transform="translate(-23.366 -23.402)" fill="#02dd84"/>
      <path id="Trazado_874972" data-name="Trazado 874972" d="M31.847,8.511h0A8.511,8.511,0,0,0,40.358,0,8.511,8.511,0,0,0,31.847,8.511Z" transform="translate(-23.366 0)" fill="#02dd84"/>
      <path id="Trazado_874973" data-name="Trazado 874973" d="M8.511,72.3h0A8.511,8.511,0,0,1,0,63.793,8.511,8.511,0,0,1,8.511,72.3Z" transform="translate(0 -46.804)" fill="#02dd84"/>
      <path id="Trazado_874974" data-name="Trazado 874974" d="M8.511,40.407h0A8.511,8.511,0,0,1,0,31.9,8.511,8.511,0,0,1,8.511,40.407Z" transform="translate(0 -23.402)" fill="#02dd84"/>
      <path id="Trazado_874975" data-name="Trazado 874975" d="M8.511,8.511h0A8.511,8.511,0,0,1,0,0,8.511,8.511,0,0,1,8.511,8.511Z" transform="translate(0 0)" fill="#02dd84"/>
    </g>
  </g>
</svg>
