<svg xmlns="http://www.w3.org/2000/svg" xmlns:xlink="http://www.w3.org/1999/xlink" width="103" height="103" viewBox="0 0 103 103">
  <defs>
    <filter id="Elipse_7754" x="0" y="0" width="103" height="103" filterUnits="userSpaceOnUse">
      <feOffset dy="3" input="SourceAlpha"/>
      <feGaussianBlur stdDeviation="3" result="blur"/>
      <feFlood flood-opacity="0.161"/>
      <feComposite operator="in" in2="blur"/>
      <feComposite in="SourceGraphic"/>
    </filter>
  </defs>
  <g id="img-10" transform="translate(-12341 8444.41)">
    <g id="Grupo_1099243" data-name="Grupo 1099243" transform="translate(11382.5 -12315)">
      <g transform="matrix(1, 0, 0, 1, 958.5, 3870.59)" filter="url(#Elipse_7754)">
        <circle id="Elipse_7754-2" data-name="Elipse 7754" cx="42.5" cy="42.5" r="42.5" transform="translate(9 6)" fill="#fff"/>
      </g>
    </g>
    <g id="obediente" transform="translate(12358.564 -8432.473)">
      <path id="Trazado_874206" data-name="Trazado 874206" d="M18.277,76.932l48.049,5.34a33.934,33.934,0,1,0-48.049-5.34Z" transform="translate(-10.998 -18.949)" fill="#43c0ff"/>
      <path id="Trazado_874207" data-name="Trazado 874207" d="M211.155,0A4.155,4.155,0,0,0,207,4.155V8.31h8.311V4.155A4.155,4.155,0,0,0,211.155,0Z" transform="translate(-179.852 0)" fill="#bec8f7"/>
      <ellipse id="Elipse_11546" data-name="Elipse 11546" cx="1.827" cy="1.827" rx="1.827" ry="1.827" transform="translate(29.477 2.121)" fill="#d3dcfb"/>
      <path id="Trazado_874208" data-name="Trazado 874208" d="M234.346,55.786H211.158l1.42,2.309a2.985,2.985,0,0,0-1.527,1.52,1.961,1.961,0,0,0,.259,1.694c.954,1.58,2.079,3.2,2.511,3.812a4.539,4.539,0,0,0-1.507.746A4.869,4.869,0,0,0,210.5,70v41.693l23.95,2.338a34.059,34.059,0,0,0,3.745-2.645V59.636a3.862,3.862,0,0,0-3.85-3.85Z" transform="translate(-182.868 -48.059)" fill="#9181f2"/>
      <path id="Trazado_874209" data-name="Trazado 874209" d="M87.572,65.256S86.1,63.21,84.888,61.2s1.391-3.014,1.391-3.014l-1.477-2.4H67.4a3.861,3.861,0,0,0-3.85,3.85v46.406a34.13,34.13,0,0,0,3.741,4.025l16.821,1.642V70c0-4.248,3.463-4.742,3.463-4.742Z" transform="translate(-56.268 -48.06)" fill="#816ae2"/>
      <path id="Trazado_874210" data-name="Trazado 874210" d="M232.276,92.477H211.092a2.748,2.748,0,0,0,.217.44c.954,1.58,2.079,3.2,2.511,3.812a4.539,4.539,0,0,0-1.507.746,4.869,4.869,0,0,0-1.814,4.129v41.777a10.326,10.326,0,0,0,2.058,6.242,9.646,9.646,0,0,0,.653.77,34.327,34.327,0,0,0,3.591.19,33.774,33.774,0,0,0,17.653-4.948V94.656A2.179,2.179,0,0,0,232.276,92.477Z" transform="translate(-182.867 -79.668)" fill="#deeeff"/>
      <path id="Trazado_874211" data-name="Trazado 874211" d="M109.386,149.5a10.068,10.068,0,0,1-2.015-6.116V101.605c0-4.248,3.463-4.742,3.463-4.742s-1.472-2.045-2.684-4.054a2.566,2.566,0,0,1-.17-.333H99.967a4.854,4.854,0,0,0-.665.047c-.645.385-1.548,1.338-1.548,3.66v1.527a1.974,1.974,0,0,1-1.972,1.972H93.952a6.8,6.8,0,0,0-2.106.358,2.48,2.48,0,0,0-1.189.838,4.835,4.835,0,0,0-.109,1.017v39.78a33.806,33.806,0,0,0,19.65,8.753A9.234,9.234,0,0,1,109.386,149.5Z" transform="translate(-79.53 -79.668)" fill="#d3dcfb"/>
      <path id="Trazado_874212" data-name="Trazado 874212" d="M222.563,38.453H211.448a2.494,2.494,0,0,0,0,4.8h11.115a2.4,2.4,0,0,0,0-4.8Z" transform="translate(-182.118 -33.127)" fill="#deeeff"/>
      <path id="Trazado_874213" data-name="Trazado 874213" d="M161.516,40.855a2.408,2.408,0,0,1,2.4-2.4h-7.849a2.4,2.4,0,1,0,0,4.8h7.849A2.408,2.408,0,0,1,161.516,40.855Z" transform="translate(-133.906 -33.128)" fill="#d3dcfb"/>
      <g id="Grupo_1099540" data-name="Grupo 1099540" transform="translate(22.947 7.676)">
        <path id="Trazado_874214" data-name="Trazado 874214" d="M185.024,64.937a3.743,3.743,0,0,1-3.377-2.1.538.538,0,0,0-.475-.316h-1.533a2.975,2.975,0,0,1-2.971-2.971V56.525a1.108,1.108,0,1,1,2.216,0v3.024a.756.756,0,0,0,.755.755h1.533a2.739,2.739,0,0,1,2.462,1.551,1.549,1.549,0,0,0,2.78,0,1.108,1.108,0,0,1,1.987.981A3.743,3.743,0,0,1,185.024,64.937Z" transform="translate(-176.667 -55.417)" fill="#49b1f7"/>
      </g>
      <g id="Grupo_1099541" data-name="Grupo 1099541" transform="translate(32.579 7.676)">
        <path id="Trazado_874215" data-name="Trazado 874215" d="M247.316,63.454a1.109,1.109,0,0,1-.993-1.6,2.74,2.74,0,0,1,2.462-1.551h1.533a.756.756,0,0,0,.755-.755V56.525a1.108,1.108,0,0,1,2.216,0v3.024a2.975,2.975,0,0,1-2.971,2.971h-1.533a.538.538,0,0,0-.475.316A1.108,1.108,0,0,1,247.316,63.454Z" transform="translate(-246.208 -55.417)" fill="#73c3f9"/>
      </g>
      <path id="Trazado_874216" data-name="Trazado 874216" d="M96.543,93.9a4.842,4.842,0,0,1,3.424-1.418c1.284,0-2.006.311-2.006,3.706v1.527a2.179,2.179,0,0,1-2.179,2.179h-1.83c-.883.02-3.4.232-3.4,2.006a4.842,4.842,0,0,1,1.418-3.424Z" transform="translate(-79.53 -79.668)" fill="#bec8f7"/>
      <g id="Grupo_1099542" data-name="Grupo 1099542" transform="translate(27.371 25.763)">
        <path id="Trazado_874217" data-name="Trazado 874217" d="M226.985,189.1H210.153a1.546,1.546,0,0,1,0-3.091h16.832a1.546,1.546,0,0,1,0,3.091Z" transform="translate(-208.607 -186.004)" fill="#bec8f7"/>
        <path id="Trazado_874218" data-name="Trazado 874218" d="M226.985,232.168H210.153a1.546,1.546,0,0,1,0-3.091h16.832a1.546,1.546,0,0,1,0,3.091Z" transform="translate(-208.607 -223.111)" fill="#bec8f7"/>
        <path id="Trazado_874219" data-name="Trazado 874219" d="M226.985,295.752H210.153a1.546,1.546,0,0,1,0-3.091h16.832a1.546,1.546,0,0,1,0,3.091Z" transform="translate(-208.607 -277.888)" fill="#bec8f7"/>
        <path id="Trazado_874220" data-name="Trazado 874220" d="M226.985,338.826H210.153a1.546,1.546,0,0,1,0-3.091h16.832a1.546,1.546,0,0,1,0,3.091Z" transform="translate(-208.607 -314.996)" fill="#bec8f7"/>
        <path id="Trazado_874221" data-name="Trazado 874221" d="M226.985,402.411H210.153a1.546,1.546,0,0,1,0-3.091h16.832a1.546,1.546,0,0,1,0,3.091Z" transform="translate(-208.607 -369.774)" fill="#bec8f7"/>
        <path id="Trazado_874222" data-name="Trazado 874222" d="M226.985,445.484H210.153a1.546,1.546,0,0,1,0-3.091h16.832a1.546,1.546,0,0,1,0,3.091Z" transform="translate(-208.607 -406.881)" fill="#bec8f7"/>
      </g>
      <path id="Trazado_874223" data-name="Trazado 874223" d="M127.213,194.5h-4.919a1.8,1.8,0,0,1-1.79-1.79v-4.919a1.8,1.8,0,0,1,1.79-1.79h4.919a1.8,1.8,0,0,1,1.79,1.79v4.919a1.8,1.8,0,0,1-1.79,1.79Z" transform="translate(-105.336 -160.24)" fill="#88ce65"/>
      <g id="Grupo_1099543" data-name="Grupo 1099543" transform="translate(15.763 28.096)">
        <path id="Trazado_874224" data-name="Trazado 874224" d="M127.519,207.363l-2.345-2.345a1.271,1.271,0,0,1,1.8-1.8l2.345,2.344a1.271,1.271,0,1,1-1.8,1.8Z" transform="translate(-124.803 -202.849)" fill="#d3dcfb"/>
      </g>
      <g id="Grupo_1099544" data-name="Grupo 1099544" transform="translate(18.108 27.042)">
        <path id="Trazado_874225" data-name="Trazado 874225" d="M142.1,200.8a1.271,1.271,0,0,1,0-1.8l3.4-3.4a1.271,1.271,0,1,1,1.8,1.8l-3.4,3.4A1.271,1.271,0,0,1,142.1,200.8Z" transform="translate(-141.73 -195.236)" fill="#deeeff"/>
      </g>
      <path id="Trazado_874226" data-name="Trazado 874226" d="M127.213,301.159h-4.919a1.8,1.8,0,0,1-1.79-1.79v-4.919a1.8,1.8,0,0,1,1.79-1.79h4.919a1.8,1.8,0,0,1,1.79,1.79v4.919a1.8,1.8,0,0,1-1.79,1.79Z" transform="translate(-105.336 -252.125)" fill="#88ce65"/>
      <g id="Grupo_1099545" data-name="Grupo 1099545" transform="translate(15.763 42.869)">
        <path id="Trazado_874227" data-name="Trazado 874227" d="M127.519,314.021l-2.345-2.345a1.271,1.271,0,0,1,1.8-1.8l2.345,2.344a1.271,1.271,0,1,1-1.8,1.8Z" transform="translate(-124.803 -309.507)" fill="#d3dcfb"/>
      </g>
      <g id="Grupo_1099546" data-name="Grupo 1099546" transform="translate(18.108 41.815)">
        <path id="Trazado_874228" data-name="Trazado 874228" d="M142.1,307.463a1.271,1.271,0,0,1,0-1.8l3.4-3.4a1.271,1.271,0,0,1,1.8,1.8l-3.4,3.4A1.271,1.271,0,0,1,142.1,307.463Z" transform="translate(-141.73 -301.894)" fill="#deeeff"/>
      </g>
      <path id="Trazado_874229" data-name="Trazado 874229" d="M127.213,407.817h-4.919a1.8,1.8,0,0,1-1.79-1.79v-4.919a1.8,1.8,0,0,1,1.79-1.79h4.919a1.8,1.8,0,0,1,1.79,1.79v4.919a1.8,1.8,0,0,1-1.79,1.79Z" transform="translate(-105.336 -344.01)" fill="#88ce65"/>
      <g id="Grupo_1099547" data-name="Grupo 1099547" transform="translate(15.763 57.642)">
        <path id="Trazado_874230" data-name="Trazado 874230" d="M127.519,420.679l-2.345-2.345a1.271,1.271,0,0,1,1.8-1.8l2.345,2.344a1.271,1.271,0,1,1-1.8,1.8Z" transform="translate(-124.803 -416.165)" fill="#d3dcfb"/>
      </g>
      <g id="Grupo_1099548" data-name="Grupo 1099548" transform="translate(18.108 56.588)">
        <path id="Trazado_874231" data-name="Trazado 874231" d="M142.1,414.121a1.271,1.271,0,0,1,0-1.8l3.4-3.4a1.271,1.271,0,0,1,1.8,1.8l-3.4,3.4A1.271,1.271,0,0,1,142.1,414.121Z" transform="translate(-141.73 -408.552)" fill="#deeeff"/>
      </g>
      <path id="Trazado_874232" data-name="Trazado 874232" d="M368.116,167.077a9.018,9.018,0,0,1-2.466-.344l3.327,10.706a.87.87,0,0,0,1.089.573l2.033-.632-3.212-10.338C368.632,167.063,368.375,167.077,368.116,167.077Z" transform="translate(-316.527 -143.639)" fill="#e80054"/>
      <path id="Trazado_874233" data-name="Trazado 874233" d="M416.2,160.781l-3.189-10.263a9.032,9.032,0,0,1-2.587,1.779l3.171,10.2,2.033-.632A.87.87,0,0,0,416.2,160.781Z" transform="translate(-355.098 -129.67)" fill="#ff7186"/>
      <path id="Trazado_874234" data-name="Trazado 874234" d="M386.976,163.424l3.231,10.4,3.451-1.072-3.182-10.241A8.963,8.963,0,0,1,386.976,163.424Z" transform="translate(-334.9 -139.999)" fill="#ff4155"/>
      <path id="Trazado_874235" data-name="Trazado 874235" d="M358.682,167.077c-.26,0-.516-.014-.77-.035L354.7,177.38l2.033.632a.87.87,0,0,0,1.089-.573l3.327-10.706A9.024,9.024,0,0,1,358.682,167.077Z" transform="translate(-307.094 -143.639)" fill="#ff7186"/>
      <path id="Trazado_874236" data-name="Trazado 874236" d="M317.723,150.519l-3.189,10.263a.87.87,0,0,0,.573,1.089l2.033.632,3.171-10.2a9.041,9.041,0,0,1-2.587-1.779Z" transform="translate(-272.458 -129.671)" fill="#e80054"/>
      <path id="Trazado_874237" data-name="Trazado 874237" d="M334.87,162.508l-3.182,10.241,3.451,1.072,3.231-10.4A8.962,8.962,0,0,1,334.87,162.508Z" transform="translate(-287.27 -139.999)" fill="#ff4155"/>
      <path id="Trazado_874238" data-name="Trazado 874238" d="M332.229,56.079a2.725,2.725,0,0,1-.679-2.14l0-.031-.006-.031c-.057-.322-1.436-7.915-4.075-9.607a1.875,1.875,0,0,1-1.056-1.438c-.016-.907,1.051-1.655,1.062-1.662l.049-.034.057-.131c-.075,0-.149-.006-.224-.006A9.018,9.018,0,1,0,333.6,56.528,2.057,2.057,0,0,1,332.229,56.079Z" transform="translate(-275.774 -35.321)" fill="#ffdd40"/>
      <path id="Trazado_874239" data-name="Trazado 874239" d="M376.287,44.446c2.592,1.663,3.982,9.468,3.982,9.468s-.324,2.64,2.042,2.813A9.017,9.017,0,0,0,376.287,41S373.695,42.783,376.287,44.446Z" transform="translate(-324.698 -35.321)" fill="#ffe98d"/>
      <ellipse id="Elipse_11547" data-name="Elipse 11547" cx="5.572" cy="5.572" rx="5.572" ry="5.572" transform="translate(46.016 9.125)" fill="#ffb332"/>
      <ellipse id="Elipse_11548" data-name="Elipse 11548" cx="2.932" cy="2.932" rx="2.932" ry="2.932" transform="translate(50.258 14.985) rotate(-76.825)" fill="#ffc839"/>
    </g>
  </g>
</svg>
