<svg xmlns="http://www.w3.org/2000/svg" xmlns:xlink="http://www.w3.org/1999/xlink" width="148" height="38.434" viewBox="0 0 148 38.434">
  <defs>
    <clipPath id="clip-path">
      <rect id="Rect치ngulo_401325" data-name="Rect치ngulo 401325" width="10.4" height="10.4" fill="#ff9751"/>
    </clipPath>
    <clipPath id="clip-path-2">
      <rect id="Rect치ngulo_401570" data-name="Rect치ngulo 401570" width="16.993" height="25.5" transform="translate(0 0)" fill="#02dd84"/>
    </clipPath>
  </defs>
  <g id="img-5" transform="translate(-7162 11325)">
    <g id="Trazado_875168" data-name="Trazado 875168" transform="translate(7169.932 -11325)" fill="none">
      <path d="M15,0H134.868V23.434a15,15,0,0,1-15,15H0V15A15,15,0,0,1,15,0Z" stroke="none"/>
      <path d="M 15 0.9999961853027344 C 11.26046752929688 0.9999961853027344 7.744758605957031 2.456253051757812 5.100509643554688 5.100505828857422 C 2.456253051757812 7.744760513305664 1 11.26046943664551 1 14.99999618530273 L 1 37.43359756469727 L 119.8684692382812 37.43359756469727 C 123.6080017089844 37.43359756469727 127.1237106323242 35.97734069824219 129.7679595947266 33.33308792114258 C 132.4122161865234 30.68883323669434 133.8684692382812 27.17312431335449 133.8684692382812 23.43359756469727 L 133.8684692382812 0.9999961853027344 L 15 0.9999961853027344 M 15 -3.814697265625e-06 L 134.8684692382812 -3.814697265625e-06 L 134.8684692382812 23.43359756469727 C 134.8684692382812 31.71786880493164 128.1527404785156 38.43359756469727 119.8684692382812 38.43359756469727 L 0 38.43359756469727 L 0 14.99999618530273 C 0 6.715724945068359 6.715728759765625 -3.814697265625e-06 15 -3.814697265625e-06 Z" stroke="none" fill="#01927f"/>
    </g>
    <path id="Trazado_875169" data-name="Trazado 875169" d="M11.025,7.32H7.266V19h-3.3V7.32H.273V4.781H11.025Zm4.961,11.885a4.906,4.906,0,0,1-3.765-1.455,5.174,5.174,0,0,1-1.362-3.682V13.7a5.912,5.912,0,0,1,1.284-3.945,4.562,4.562,0,0,1,3.716-1.514,4.279,4.279,0,0,1,3.315,1.279,4.98,4.98,0,0,1,1.177,3.506v1.729H14.3l-.02.059a2.052,2.052,0,0,0,.615,1.343,2.148,2.148,0,0,0,1.543.513,6.687,6.687,0,0,0,1.577-.156,9.942,9.942,0,0,0,1.44-.5l.791,2.012a6.04,6.04,0,0,1-1.836.84A8.473,8.473,0,0,1,15.986,19.205Zm-.127-8.428a1.362,1.362,0,0,0-1.167.5,2.523,2.523,0,0,0-.435,1.362l.02.049h2.852v-.254a2.2,2.2,0,0,0-.288-1.24A1.1,1.1,0,0,0,15.859,10.777Zm11.729.469-1.074-.01a1.829,1.829,0,0,0-.928.21,1.3,1.3,0,0,0-.537.591V19h-3.3V8.434h3.105l.117,1.553A3.186,3.186,0,0,1,25.85,8.7a1.929,1.929,0,0,1,1.279-.459,2.454,2.454,0,0,1,.4.029,3.029,3.029,0,0,1,.371.088Zm5.547,5.42a1.291,1.291,0,0,0,1.006-.366,1.526,1.526,0,0,0,.332-1.06H37.48l.02.059a3.469,3.469,0,0,1-1.2,2.817,4.616,4.616,0,0,1-3.169,1.089,4.675,4.675,0,0,1-3.716-1.489,5.679,5.679,0,0,1-1.3-3.882v-.225a5.7,5.7,0,0,1,1.3-3.877,4.64,4.64,0,0,1,3.7-1.494,4.545,4.545,0,0,1,3.218,1.118A3.857,3.857,0,0,1,37.5,12.418l-.02.059H34.473a2.045,2.045,0,0,0-.342-1.226,1.172,1.172,0,0,0-1.016-.474,1.357,1.357,0,0,0-1.333.767,4.74,4.74,0,0,0-.376,2.065v.225a4.723,4.723,0,0,0,.376,2.08A1.378,1.378,0,0,0,33.135,16.666Zm10.4,2.539a4.906,4.906,0,0,1-3.765-1.455,5.174,5.174,0,0,1-1.362-3.682V13.7a5.912,5.912,0,0,1,1.284-3.945,4.562,4.562,0,0,1,3.716-1.514,4.279,4.279,0,0,1,3.315,1.279A4.98,4.98,0,0,1,47.9,13.023v1.729H41.846l-.02.059a2.052,2.052,0,0,0,.615,1.343,2.148,2.148,0,0,0,1.543.513,6.687,6.687,0,0,0,1.577-.156,9.942,9.942,0,0,0,1.44-.5l.791,2.012a6.04,6.04,0,0,1-1.836.84A8.473,8.473,0,0,1,43.535,19.205Zm-.127-8.428a1.362,1.362,0,0,0-1.167.5,2.523,2.523,0,0,0-.435,1.362l.02.049h2.852v-.254a2.2,2.2,0,0,0-.288-1.24A1.1,1.1,0,0,0,43.408,10.777Zm11.729.469-1.074-.01a1.829,1.829,0,0,0-.928.21,1.3,1.3,0,0,0-.537.591V19H49.3V8.434H52.4l.117,1.553A3.186,3.186,0,0,1,53.4,8.7a1.929,1.929,0,0,1,1.279-.459,2.454,2.454,0,0,1,.4.029,3.029,3.029,0,0,1,.371.088ZM64.785,19H61.475V3.766h3.311Zm8.389-1.582a3.473,3.473,0,0,1-1.216,1.323,3.2,3.2,0,0,1-1.724.464,3.129,3.129,0,0,1-2.573-1.152,5.618,5.618,0,0,1-.933-3.564V8.434H70.02v6.074a3.2,3.2,0,0,0,.317,1.7,1.111,1.111,0,0,0,.981.459,2.694,2.694,0,0,0,.928-.146,1.793,1.793,0,0,0,.684-.439V8.434h3.3V19H73.574ZM77.6,13.736a6.719,6.719,0,0,1,1.079-3.984,3.518,3.518,0,0,1,3.042-1.514,2.712,2.712,0,0,1,1.465.4,3.492,3.492,0,0,1,1.094,1.118l.215-1.318H87.4V18.883a3.913,3.913,0,0,1-1.431,3.237,6.133,6.133,0,0,1-3.94,1.147,7.086,7.086,0,0,1-1.719-.225,9.6,9.6,0,0,1-1.719-.605L79.16,20a7.845,7.845,0,0,0,1.362.464,6.6,6.6,0,0,0,1.489.151,2.443,2.443,0,0,0,1.567-.42,1.618,1.618,0,0,0,.513-1.328v-.82A2.865,2.865,0,0,1,81.7,19.205a3.552,3.552,0,0,1-3.027-1.445A6.248,6.248,0,0,1,77.6,13.941Zm3.291.205a4.388,4.388,0,0,0,.376,2.007,1.322,1.322,0,0,0,1.274.718,2.326,2.326,0,0,0,.923-.166,1.506,1.506,0,0,0,.63-.5V11.559a1.643,1.643,0,0,0-.625-.581,1.928,1.928,0,0,0-.908-.2,1.326,1.326,0,0,0-1.274.815,4.942,4.942,0,0,0-.4,2.144Zm14.5,5.049a3.987,3.987,0,0,1-.317-.752,5.765,5.765,0,0,1-.2-.879,4.038,4.038,0,0,1-1.06,1.343,2.558,2.558,0,0,1-1.646.5,3.659,3.659,0,0,1-2.583-.854,3.019,3.019,0,0,1-.923-2.329,2.817,2.817,0,0,1,1.182-2.427,6.126,6.126,0,0,1,3.584-.854h1.357v-.752a1.505,1.505,0,0,0-.322-1.035,1.255,1.255,0,0,0-.986-.361,1.19,1.19,0,0,0-.854.269,1.114,1.114,0,0,0-.278.835l-3.2-.01-.02-.059A2.756,2.756,0,0,1,90.327,9.21a5.4,5.4,0,0,1,3.364-.972,4.921,4.921,0,0,1,3.179.977,3.375,3.375,0,0,1,1.216,2.793v3.984a8.129,8.129,0,0,0,.142,1.563A8.367,8.367,0,0,0,98.652,19Zm-2.324-2.139a2.011,2.011,0,0,0,1.069-.283,1.621,1.621,0,0,0,.649-.674V14.5H93.457a1.492,1.492,0,0,0-1.143.381,1.37,1.37,0,0,0-.352.967.935.935,0,0,0,.308.728A1.141,1.141,0,0,0,93.066,16.852Zm12.666-5.605-1.074-.01a1.829,1.829,0,0,0-.928.21,1.3,1.3,0,0,0-.537.591V19h-3.3V8.434H103l.117,1.553a3.186,3.186,0,0,1,.879-1.289,1.929,1.929,0,0,1,1.279-.459,2.454,2.454,0,0,1,.4.029,3.029,3.029,0,0,1,.371.088Zm3.2,7.754h-3.291V16.227h3.291Zm0-8.555h-3.291V7.672h3.291Z" transform="translate(7182.134 -11318.069)" fill="#12263f"/>
    <g id="Grupo_1099295" data-name="Grupo 1099295" transform="translate(7299.601 -11318.069)" clip-path="url(#clip-path)">
      <path id="Trazado_873887" data-name="Trazado 873887" d="M5.2,10.4A5.2,5.2,0,0,0,0,5.2,5.2,5.2,0,0,0,5.2,0a5.2,5.2,0,0,0,5.2,5.2,5.2,5.2,0,0,0-5.2,5.2" transform="translate(0 0)" fill="#ff9751"/>
    </g>
    <g id="Grupo_1100160" data-name="Grupo 1100160" transform="translate(7162 -11318.069)" clip-path="url(#clip-path-2)">
      <path id="Trazado_874970" data-name="Trazado 874970" d="M31.847,72.3h0a8.511,8.511,0,0,0,8.511-8.511A8.511,8.511,0,0,0,31.847,72.3Z" transform="translate(-23.366 -46.804)" fill="#02dd84"/>
      <path id="Trazado_874971" data-name="Trazado 874971" d="M31.847,40.407h0A8.511,8.511,0,0,0,40.358,31.9,8.511,8.511,0,0,0,31.847,40.407Z" transform="translate(-23.366 -23.402)" fill="#02dd84"/>
      <path id="Trazado_874972" data-name="Trazado 874972" d="M31.847,8.511h0A8.511,8.511,0,0,0,40.358,0,8.511,8.511,0,0,0,31.847,8.511Z" transform="translate(-23.366 0)" fill="#02dd84"/>
      <path id="Trazado_874973" data-name="Trazado 874973" d="M8.511,72.3h0A8.511,8.511,0,0,1,0,63.793,8.511,8.511,0,0,1,8.511,72.3Z" transform="translate(0 -46.804)" fill="#02dd84"/>
      <path id="Trazado_874974" data-name="Trazado 874974" d="M8.511,40.407h0A8.511,8.511,0,0,1,0,31.9,8.511,8.511,0,0,1,8.511,40.407Z" transform="translate(0 -23.402)" fill="#02dd84"/>
      <path id="Trazado_874975" data-name="Trazado 874975" d="M8.511,8.511h0A8.511,8.511,0,0,1,0,0,8.511,8.511,0,0,1,8.511,8.511Z" transform="translate(0 0)" fill="#02dd84"/>
    </g>
  </g>
</svg>
