<svg xmlns="http://www.w3.org/2000/svg" width="105" height="105" viewBox="0 0 105 105">
  <g id="Grupo_1100213" data-name="Grupo 1100213" transform="translate(-1224 9592)">
    <g id="Grupo_1100180" data-name="Grupo 1100180" transform="translate(1224 -9592)">
      <path id="Trazado_874021" data-name="Trazado 874021" d="M52.5,0A52.5,52.5,0,1,1,0,52.5,52.5,52.5,0,0,1,52.5,0Z" fill="#02dd84"/>
      <g id="sitio-web" transform="translate(17.659 23.144)">
        <path id="Trazado_874995" data-name="Trazado 874995" d="M71.5,11.246H11.959A5.073,5.073,0,0,0,6.89,16.323V63.759a5.073,5.073,0,0,0,5.069,5.077H71.5a5.073,5.073,0,0,0,5.069-5.077V16.323A5.073,5.073,0,0,0,71.5,11.246Z" transform="translate(-6.89 -11.246)" fill="#f6f6f6"/>
        <path id="Trazado_874996" data-name="Trazado 874996" d="M71.5,11.246H11.959A5.073,5.073,0,0,0,6.89,16.323v8.4H76.572v-8.4A5.073,5.073,0,0,0,71.5,11.246Z" transform="translate(-6.89 -11.246)" fill="#ccf9e6"/>
        <g id="Grupo_1100179" data-name="Grupo 1100179" transform="translate(7.069 30.046)">
          <path id="Trazado_874997" data-name="Trazado 874997" d="M34.678,60.584a1.068,1.068,0,0,0-1.4.575l-2.7,6.466-2.7-6.466a1.067,1.067,0,0,0-1.97,0l-2.7,6.466-2.7-6.466a1.067,1.067,0,1,0-1.971.82l3.68,8.834a1.068,1.068,0,0,0,1.971,0l2.7-6.47,2.7,6.466a1.067,1.067,0,0,0,1.97,0l3.681-8.834a1.067,1.067,0,0,0-.578-1.392Z" transform="translate(-18.478 -60.502)" fill="#c5c5c5"/>
          <path id="Trazado_874998" data-name="Trazado 874998" d="M66.383,60.584a1.068,1.068,0,0,0-1.4.575l-2.7,6.466-2.7-6.466a1.067,1.067,0,0,0-1.97,0l-2.7,6.466-2.7-6.466a1.068,1.068,0,0,0-1.971.822l3.681,8.833a1.067,1.067,0,0,0,1.97,0l2.7-6.47,2.7,6.466a1.067,1.067,0,0,0,1.97,0l3.681-8.833a1.068,1.068,0,0,0-.575-1.393Z" transform="translate(-30.842 -60.501)" fill="#c5c5c5"/>
          <path id="Trazado_874999" data-name="Trazado 874999" d="M98.087,60.584a1.068,1.068,0,0,0-1.4.575L94,67.626,91.3,61.16a1.067,1.067,0,0,0-1.97,0l-2.7,6.466-2.7-6.466a1.067,1.067,0,1,0-1.971.82l3.681,8.834a1.067,1.067,0,0,0,1.97,0l2.693-6.47,2.7,6.466a1.068,1.068,0,0,0,1.971,0l3.68-8.834a1.067,1.067,0,0,0-.573-1.392Z" transform="translate(-43.207 -60.502)" fill="#c5c5c5"/>
        </g>
        <circle id="Elipse_11585" data-name="Elipse 11585" cx="2.394" cy="2.394" r="2.394" transform="translate(5.344 4.342)" fill="#43c0ff"/>
        <path id="Trazado_875000" data-name="Trazado 875000" d="M33.783,18.364a2.395,2.395,0,1,0,2.395,2.395,2.395,2.395,0,0,0-2.395-2.395Z" transform="translate(-16.444 -14.022)" fill="#02dd84"/>
        <circle id="Elipse_11586" data-name="Elipse 11586" cx="2.394" cy="2.394" r="2.394" transform="translate(24.546 4.342)" fill="#01927f"/>
        <path id="Trazado_875001" data-name="Trazado 875001" d="M29.134,93.546l-5.726,5.726,2.641,2.641,2.641,2.641,5.726-5.726,2.863,2.863,5.211-16.22-16.22,5.211Z" transform="translate(-13.332 -40.193)" fill="#00483f"/>
      </g>
    </g>
  </g>
</svg>
