<svg xmlns="http://www.w3.org/2000/svg" xmlns:xlink="http://www.w3.org/1999/xlink" width="1030" height="143" viewBox="0 0 1030 143">
  <defs>
    <clipPath id="clip-path">
      <rect id="Rectángulo_401295" data-name="Rectángulo 401295" width="128.312" height="128.273" fill="#43c0ff" stroke="#00483f" stroke-width="1"/>
    </clipPath>
    <clipPath id="clip-path-6">
      <path id="Rectángulo_401268" data-name="Rectángulo 401268" d="M30,0H976a0,0,0,0,1,0,0V113a30,30,0,0,1-30,30H0a0,0,0,0,1,0,0V30A30,30,0,0,1,30,0Z" transform="translate(0 0.137)" fill="#01927f" stroke="#707070" stroke-width="1"/>
    </clipPath>
    <clipPath id="clip-path-7">
      <path id="Trazado_873550" data-name="Trazado 873550" d="M0,0,1024.687,74.151l67.2,789.409L67.2,789.409Z" fill="#01927f"/>
    </clipPath>
    <clipPath id="clip-path-8">
      <path id="Trazado_873019" data-name="Trazado 873019" d="M568.392,24.783C376.984,43.022,201.453,115.53,84.131,234.175,54.259,264.4,27.724,298.285,17.469,338.45A135.289,135.289,0,0,0,48.293,462.662c42.583,47.18,113.825,65.5,188.106,84.324-21.829,7.086-29.7,31.159-20.943,51.87,18.709,44.267,79.081,57.617,128.643,59.934,165.176,7.711,312.944-51.266,438.161-126.128,65.782-39.331,128-84.034,171.613-141.656,28.657-37.857,49.9-94.8,1.178-135.789-22.472-18.91-59.466-25.631-81.213-8.514,34.413-31.738,30.686-87.731-.869-130.079s-85.867-71.4-140.716-84.63a381.573,381.573,0,0,0-61.984-9.445c-34.358-2.5-68.566-.94-101.877,2.235" fill="#01927f"/>
    </clipPath>
    <clipPath id="clip-path-9">
      <path id="Trazado_873501" data-name="Trazado 873501" d="M9.005,8.868l414.2-17-15.79,313.848-414.2,17Z" fill="#00483f"/>
    </clipPath>
    <clipPath id="clip-path-10">
      <path id="Trazado_873026" data-name="Trazado 873026" d="M201.212-.366c-20.751,5.566-39.674,18.2-45.577,33.943s4.142,33.733,19.743,38.972c-22.748-4.4-45.7-8.831-69.628-9.5s-49.216,2.7-70.385,12.746S-2.068,103.34-2.549,121.279C-3.107,142.1,16.342,158.665,36.151,172c57.816,38.913,128.538,67.59,206.073,81.476,24.631,4.41,52.561,6.989,75.779-3.241,22.19-9.777,34.559-29.646,35.06-48.1s-9.16-35.6-21.71-50.629-28.068-28.465-41.682-42.3c12.865-.207,25.883-.429,38.585-2.959s25.259-7.647,33.2-15.739A30.561,30.561,0,0,0,368.31,57.4c-4.181-10.707-13.474-19.629-23.989-27.251-21.7-15.724-49.4-26.836-79.655-31.952A176.2,176.2,0,0,0,228.277-4.35,124.08,124.08,0,0,0,201.212-.366" fill="#00483f"/>
    </clipPath>
    <clipPath id="clip-path-11">
      <path id="Trazado_873500" data-name="Trazado 873500" d="M0,0,806.5,73.048l66.249,648.634-806.5-73.049Z" fill="#02dc84"/>
    </clipPath>
    <clipPath id="clip-path-12">
      <path id="Trazado_873019-2" data-name="Trazado 873019" d="M443.557,22.438C293.389,35.191,156.606,92.685,66.352,188.734c-22.98,24.468-43.276,51.981-50.668,84.839a117.256,117.256,0,0,0,26.3,102.339c34.261,39.23,90.573,55.1,149.28,71.416-17.042,5.564-22.828,25.238-15.6,42.343,15.445,36.562,63.128,48.224,102.128,50.7,129.979,8.248,245.161-38.458,342.352-98.469,51.059-31.529,99.223-67.509,132.551-114.312,21.9-30.749,37.645-77.256-1.335-111.473-17.981-15.786-47.176-21.734-63.986-7.933,26.525-25.659,22.662-71.674-2.85-106.809S615.832,41.762,572.493,30.26a293.026,293.026,0,0,0-48.885-8.474c-27.052-2.45-53.917-1.567-80.051.652" fill="#02dc84"/>
    </clipPath>
    <clipPath id="clip-path-13">
      <rect id="Rectángulo_401563" data-name="Rectángulo 401563" width="53.813" height="80.754" fill="#ff9751"/>
    </clipPath>
  </defs>
  <g id="img-2" transform="translate(-5237 4839)">
    <g id="Grupo_1100386" data-name="Grupo 1100386">
      <g id="Grupo_1100372" data-name="Grupo 1100372" transform="translate(4847 -9015)">
        <g id="Grupo_1099261" data-name="Grupo 1099261" transform="translate(390 4190.727)">
          <g id="Grupo_1099252" data-name="Grupo 1099252">
            <g id="Grupo_1099251" data-name="Grupo 1099251" clip-path="url(#clip-path)">
              <line id="Línea_723" data-name="Línea 723" y1="42.336" transform="translate(64.165 0)" fill="none" stroke="#00483f" stroke-miterlimit="10" stroke-width="1"/>
              <line id="Línea_724" data-name="Línea 724" y1="42.04" x2="4.996" transform="translate(66.741 0.449)" fill="none" stroke="#00483f" stroke-miterlimit="10" stroke-width="1"/>
            </g>
          </g>
          <line id="Línea_725" data-name="Línea 725" y1="41.157" x2="9.921" transform="translate(69.281 1.787)" fill="none" stroke="#00483f" stroke-miterlimit="10" stroke-width="1"/>
          <line id="Línea_726" data-name="Línea 726" y1="39.699" x2="14.708" transform="translate(71.749 3.997)" fill="none" stroke="#00483f" stroke-miterlimit="10" stroke-width="1"/>
          <line id="Línea_727" data-name="Línea 727" y1="37.686" x2="19.29" transform="translate(74.112 7.048)" fill="none" stroke="#00483f" stroke-miterlimit="10" stroke-width="1"/>
          <line id="Línea_728" data-name="Línea 728" y1="35.146" x2="23.602" transform="translate(76.335 10.897)" fill="none" stroke="#00483f" stroke-miterlimit="10" stroke-width="1"/>
          <line id="Línea_729" data-name="Línea 729" y1="32.116" x2="27.584" transform="translate(78.389 15.49)" fill="none" stroke="#00483f" stroke-miterlimit="10" stroke-width="1"/>
          <line id="Línea_730" data-name="Línea 730" y1="28.637" x2="31.181" transform="translate(80.243 20.763)" fill="none" stroke="#00483f" stroke-miterlimit="10" stroke-width="1"/>
          <line id="Línea_731" data-name="Línea 731" y1="24.757" x2="34.342" transform="translate(81.873 26.643)" fill="none" stroke="#00483f" stroke-miterlimit="10" stroke-width="1"/>
          <line id="Línea_732" data-name="Línea 732" y1="20.532" x2="37.024" transform="translate(83.256 33.047)" fill="none" stroke="#00483f" stroke-miterlimit="10" stroke-width="1"/>
          <line id="Línea_733" data-name="Línea 733" y1="16.02" x2="39.188" transform="translate(84.372 39.886)" fill="none" stroke="#00483f" stroke-miterlimit="10" stroke-width="1"/>
          <line id="Línea_734" data-name="Línea 734" y1="11.284" x2="40.804" transform="translate(85.205 47.064)" fill="none" stroke="#00483f" stroke-miterlimit="10" stroke-width="1"/>
          <g id="Grupo_1099254" data-name="Grupo 1099254">
            <g id="Grupo_1099253" data-name="Grupo 1099253" clip-path="url(#clip-path)">
              <line id="Línea_735" data-name="Línea 735" y1="6.39" x2="41.851" transform="translate(85.745 54.481)" fill="none" stroke="#00483f" stroke-miterlimit="10" stroke-width="1"/>
              <line id="Línea_736" data-name="Línea 736" y1="1.407" x2="42.313" transform="translate(85.983 62.034)" fill="none" stroke="#00483f" stroke-miterlimit="10" stroke-width="1"/>
              <line id="Línea_737" data-name="Línea 737" x2="42.183" y2="3.595" transform="translate(85.916 66.02)" fill="none" stroke="#00483f" stroke-miterlimit="10" stroke-width="1"/>
              <line id="Línea_738" data-name="Línea 738" x2="41.464" y2="8.547" transform="translate(85.546 68.574)" fill="none" stroke="#00483f" stroke-miterlimit="10" stroke-width="1"/>
            </g>
          </g>
          <line id="Línea_739" data-name="Línea 739" x2="40.166" y2="13.38" transform="translate(84.876 71.066)" fill="none" stroke="#00483f" stroke-miterlimit="10" stroke-width="1"/>
          <line id="Línea_740" data-name="Línea 740" x2="38.306" y2="18.026" transform="translate(83.917 73.462)" fill="none" stroke="#00483f" stroke-miterlimit="10" stroke-width="1"/>
          <line id="Línea_741" data-name="Línea 741" x2="35.912" y2="22.42" transform="translate(82.683 75.728)" fill="none" stroke="#00483f" stroke-miterlimit="10" stroke-width="1"/>
          <line id="Línea_742" data-name="Línea 742" x2="33.015" y2="26.501" transform="translate(81.189 77.832)" fill="none" stroke="#00483f" stroke-miterlimit="10" stroke-width="1"/>
          <line id="Línea_743" data-name="Línea 743" x2="29.658" y2="30.212" transform="translate(79.458 79.745)" fill="none" stroke="#00483f" stroke-miterlimit="10" stroke-width="1"/>
          <line id="Línea_744" data-name="Línea 744" x2="25.886" y2="33.5" transform="translate(77.513 81.441)" fill="none" stroke="#00483f" stroke-miterlimit="10" stroke-width="1"/>
          <line id="Línea_745" data-name="Línea 745" x2="21.752" y2="36.321" transform="translate(75.381 82.895)" fill="none" stroke="#00483f" stroke-miterlimit="10" stroke-width="1"/>
          <line id="Línea_746" data-name="Línea 746" x2="17.314" y2="38.634" transform="translate(73.093 84.088)" fill="none" stroke="#00483f" stroke-miterlimit="10" stroke-width="1"/>
          <line id="Línea_747" data-name="Línea 747" x2="12.634" y2="40.407" transform="translate(70.68 85.002)" fill="none" stroke="#00483f" stroke-miterlimit="10" stroke-width="1"/>
          <g id="Grupo_1099256" data-name="Grupo 1099256">
            <g id="Grupo_1099255" data-name="Grupo 1099255" clip-path="url(#clip-path)">
              <line id="Línea_748" data-name="Línea 748" x2="7.778" y2="41.615" transform="translate(68.176 85.626)" fill="none" stroke="#00483f" stroke-miterlimit="10" stroke-width="1"/>
              <line id="Línea_749" data-name="Línea 749" x2="2.813" y2="42.242" transform="translate(65.616 85.949)" fill="none" stroke="#00483f" stroke-miterlimit="10" stroke-width="1"/>
              <line id="Línea_750" data-name="Línea 750" x1="2.191" y2="42.279" transform="translate(60.844 85.968)" fill="none" stroke="#00483f" stroke-miterlimit="10" stroke-width="1"/>
              <line id="Línea_751" data-name="Línea 751" x1="7.164" y2="41.725" transform="translate(53.306 85.682)" fill="none" stroke="#00483f" stroke-miterlimit="10" stroke-width="1"/>
            </g>
          </g>
          <line id="Línea_752" data-name="Línea 752" x1="12.038" y2="40.589" transform="translate(45.919 85.096)" fill="none" stroke="#00483f" stroke-miterlimit="10" stroke-width="1"/>
          <line id="Línea_753" data-name="Línea 753" x1="16.743" y2="38.885" transform="translate(38.788 84.217)" fill="none" stroke="#00483f" stroke-miterlimit="10" stroke-width="1"/>
          <line id="Línea_754" data-name="Línea 754" x1="21.214" y2="36.637" transform="translate(32.012 83.059)" fill="none" stroke="#00483f" stroke-miterlimit="10" stroke-width="1"/>
          <line id="Línea_755" data-name="Línea 755" x1="25.389" y2="33.878" transform="translate(25.684 81.636)" fill="none" stroke="#00483f" stroke-miterlimit="10" stroke-width="1"/>
          <line id="Línea_756" data-name="Línea 756" x1="29.209" y2="30.646" transform="translate(19.894 79.969)" fill="none" stroke="#00483f" stroke-miterlimit="10" stroke-width="1"/>
          <line id="Línea_757" data-name="Línea 757" x1="32.621" y2="26.985" transform="translate(14.723 78.081)" fill="none" stroke="#00483f" stroke-miterlimit="10" stroke-width="1"/>
          <line id="Línea_758" data-name="Línea 758" x1="35.577" y2="22.947" transform="translate(10.242 75.999)" fill="none" stroke="#00483f" stroke-miterlimit="10" stroke-width="1"/>
          <line id="Línea_759" data-name="Línea 759" x1="38.037" y2="18.589" transform="translate(6.514 73.752)" fill="none" stroke="#00483f" stroke-miterlimit="10" stroke-width="1"/>
          <line id="Línea_760" data-name="Línea 760" x1="39.964" y2="13.971" transform="translate(3.593 71.371)" fill="none" stroke="#00483f" stroke-miterlimit="10" stroke-width="1"/>
          <g id="Grupo_1099258" data-name="Grupo 1099258">
            <g id="Grupo_1099257" data-name="Grupo 1099257" clip-path="url(#clip-path)">
              <line id="Línea_761" data-name="Línea 761" x1="41.334" y2="9.158" transform="translate(1.517 68.889)" fill="none" stroke="#00483f" stroke-miterlimit="10" stroke-width="1"/>
              <line id="Línea_762" data-name="Línea 762" x1="42.126" y2="4.216" transform="translate(0.317 66.341)" fill="none" stroke="#00483f" stroke-miterlimit="10" stroke-width="1"/>
              <line id="Línea_763" data-name="Línea 763" x1="42.329" y1="0.784" transform="translate(0.009 62.978)" fill="none" stroke="#00483f" stroke-miterlimit="10" stroke-width="1"/>
              <line id="Línea_764" data-name="Línea 764" x1="41.94" y1="5.773" transform="translate(0.598 55.417)" fill="none" stroke="#00483f" stroke-miterlimit="10" stroke-width="1"/>
            </g>
          </g>
          <line id="Línea_765" data-name="Línea 765" x1="40.966" y1="10.682" transform="translate(2.075 47.977)" fill="none" stroke="#00483f" stroke-miterlimit="10" stroke-width="1"/>
          <line id="Línea_766" data-name="Línea 766" x1="39.42" y1="15.441" transform="translate(4.418 40.764)" fill="none" stroke="#00483f" stroke-miterlimit="10" stroke-width="1"/>
          <line id="Línea_767" data-name="Línea 767" x1="37.322" y1="19.984" transform="translate(7.598 33.878)" fill="none" stroke="#00483f" stroke-miterlimit="10" stroke-width="1"/>
          <line id="Línea_768" data-name="Línea 768" x1="34.703" y1="24.249" transform="translate(11.567 27.414)" fill="none" stroke="#00483f" stroke-miterlimit="10" stroke-width="1"/>
          <line id="Línea_769" data-name="Línea 769" x1="31.6" y1="28.174" transform="translate(16.27 21.465)" fill="none" stroke="#00483f" stroke-miterlimit="10" stroke-width="1"/>
          <line id="Línea_770" data-name="Línea 770" x1="28.055" y1="31.706" transform="translate(21.643 16.111)" fill="none" stroke="#00483f" stroke-miterlimit="10" stroke-width="1"/>
          <line id="Línea_771" data-name="Línea 771" x1="24.117" y1="34.795" transform="translate(27.612 11.43)" fill="none" stroke="#00483f" stroke-miterlimit="10" stroke-width="1"/>
          <line id="Línea_772" data-name="Línea 772" x1="19.843" y1="37.398" transform="translate(34.09 7.484)" fill="none" stroke="#00483f" stroke-miterlimit="10" stroke-width="1"/>
          <line id="Línea_773" data-name="Línea 773" x1="15.292" y1="39.478" transform="translate(40.988 4.332)" fill="none" stroke="#00483f" stroke-miterlimit="10" stroke-width="1"/>
          <line id="Línea_774" data-name="Línea 774" x1="10.527" y1="41.006" transform="translate(48.21 2.016)" fill="none" stroke="#00483f" stroke-miterlimit="10" stroke-width="1"/>
          <g id="Grupo_1099260" data-name="Grupo 1099260">
            <g id="Grupo_1099259" data-name="Grupo 1099259" clip-path="url(#clip-path)">
              <line id="Línea_775" data-name="Línea 775" x1="5.614" y1="41.962" transform="translate(55.656 0.567)" fill="none" stroke="#00483f" stroke-miterlimit="10" stroke-width="1"/>
            </g>
          </g>
        </g>
        <g id="Grupo_1099250" data-name="Grupo 1099250" transform="translate(424 4175.863)">
          <g id="Enmascarar_grupo_1098675" data-name="Enmascarar grupo 1098675" transform="translate(0)" clip-path="url(#clip-path-6)">
            <path id="Trazado_870126" data-name="Trazado 870126" d="M16.071,0h1084.4c8.876,0,16.072,5.732,16.072,12.8V328.825c0,7.071-7.2,12.8-16.072,12.8H16.071C7.2,341.627,0,335.9,0,328.825V12.8C0,5.732,7.2,0,16.071,0Z" transform="translate(-48.837 -67.571)" fill="#01927f"/>
            <g id="Grupo_1099032" data-name="Grupo 1099032" transform="matrix(-0.927, 0.375, -0.375, -0.927, 1604.021, 259.928)" opacity="0.25" style="mix-blend-mode: multiply;isolation: isolate">
              <g id="Grupo_1099028" data-name="Grupo 1099028" transform="translate(0 0)">
                <g id="Grupo_1099027" data-name="Grupo 1099027" clip-path="url(#clip-path-7)">
                  <path id="Trazado_873014" data-name="Trazado 873014" d="M873.838,246.7c34.413-31.738,30.677-87.732-.869-130.079S787.092,45.23,732.253,32,621.738,19.7,568.391,24.778c-191.408,18.247-366.948,90.754-484.26,209.4C54.259,264.394,27.715,298.287,17.47,338.453a135.273,135.273,0,0,0,30.823,124.2c42.573,47.179,113.826,65.51,188.107,84.332-21.838,7.085-29.7,31.151-20.943,51.87,18.709,44.267,79.071,57.616,128.633,59.933C509.275,666.5,657.042,607.518,782.25,532.663c65.782-39.331,128-84.034,171.613-141.656,28.666-37.865,49.9-94.8,1.187-135.8-22.472-18.9-59.466-25.623-81.213-8.506" transform="translate(69.365 103.476)" fill="#01927f"/>
                </g>
              </g>
              <g id="Grupo_1099030" data-name="Grupo 1099030" transform="translate(69.365 103.479)">
                <g id="Grupo_1099029" data-name="Grupo 1099029" transform="translate(0 0)" clip-path="url(#clip-path-8)">
                  <path id="Trazado_873015" data-name="Trazado 873015" d="M11.736,330.135S532.689,452.012,404.693,13.4" transform="translate(-39.153 1.68)" fill="#01927f"/>
                  <path id="Trazado_873016" data-name="Trazado 873016" d="M18.276,514.111S488.19,676.868,615.115,20.367" transform="translate(-31.31 -14.298)" fill="#01927f"/>
                  <path id="Trazado_873017" data-name="Trazado 873017" d="M26.792,753.685s299.614,48.747,448.825-261.863S603.7,19.989,603.7,19.989" transform="translate(144.637 -60.031)" fill="#01927f"/>
                  <path id="Trazado_873018" data-name="Trazado 873018" d="M351.7,11.645s9.5,288.969-335.048,456.789" transform="translate(582.528 176.905)" fill="#01927f"/>
                </g>
              </g>
            </g>
            <ellipse id="Elipse_11441" data-name="Elipse 11441" cx="281.574" cy="224.298" rx="281.574" ry="224.298" transform="translate(-13.249 -284.633)" fill="#01927f" opacity="0.37" style="mix-blend-mode: multiply;isolation: isolate"/>
            <ellipse id="Elipse_11485" data-name="Elipse 11485" cx="281.574" cy="224.576" rx="281.574" ry="224.576" transform="translate(-294.997 64.102)" fill="#01927f" opacity="0.37" style="mix-blend-mode: multiply;isolation: isolate"/>
            <ellipse id="Elipse_11486" data-name="Elipse 11486" cx="281.923" cy="224.298" rx="281.923" ry="224.298" transform="translate(249.833 142.812)" fill="#01927f" opacity="0.37" style="mix-blend-mode: multiply;isolation: isolate"/>
            <g id="Grupo_1099037" data-name="Grupo 1099037" transform="matrix(-0.978, -0.208, 0.208, -0.978, 1107.045, 268.714)">
              <g id="Grupo_1099034" data-name="Grupo 1099034" transform="translate(0 0)">
                <g id="Grupo_1099033" data-name="Grupo 1099033" clip-path="url(#clip-path-9)">
                  <path id="Trazado_873020" data-name="Trazado 873020" d="M175.38,72.549c-22.748-4.4-45.7-8.831-69.63-9.5s-49.216,2.7-70.385,12.746S-2.068,103.34-2.549,121.279C-3.107,142.1,16.342,158.665,36.151,172c57.817,38.914,128.538,67.59,206.074,81.476,24.629,4.41,52.56,6.989,75.777-3.241,22.19-9.778,34.559-29.646,35.061-48.1s-9.16-35.6-21.712-50.63-28.066-28.464-41.682-42.3c12.865-.207,25.884-.43,38.586-2.96s25.26-7.646,33.2-15.738A30.564,30.564,0,0,0,368.312,57.4c-4.182-10.707-13.475-19.63-23.991-27.251-21.7-15.724-49.4-26.837-79.655-31.952-20.461-3.46-42.7-4.132-63.452,1.435s-39.674,18.2-45.577,33.943,4.14,33.733,19.743,38.972" transform="translate(47.848 18.882)" fill="#00483f"/>
                </g>
              </g>
              <g id="Grupo_1099036" data-name="Grupo 1099036" transform="translate(47.848 18.882)">
                <g id="Grupo_1099035" data-name="Grupo 1099035" transform="translate(0 0)" clip-path="url(#clip-path-10)">
                  <path id="Trazado_873021" data-name="Trazado 873021" d="M353.322,166.2S309.253-32.687-.064,3.027" transform="translate(-44.9 122.222)" fill="#00483f" stroke="#f1e8d5" stroke-linecap="round" stroke-linejoin="round" stroke-width="1"/>
                  <path id="Trazado_873022" data-name="Trazado 873022" d="M49.759-.956S-48.216,65,26.883,108.833" transform="translate(313.238 138.65)" fill="#00483f" stroke="#f1e8d5" stroke-linecap="round" stroke-linejoin="round" stroke-width="1"/>
                  <path id="Trazado_873023" data-name="Trazado 873023" d="M318.168-6.112c-13.685,67.69-41.254,76.017-96.314,81.84S174.663,127.944,88.5,98.2-.57,27.13-.57,27.13" transform="translate(49.678 10.991)" fill="#00483f" stroke="#f1e8d5" stroke-linecap="round" stroke-linejoin="round" stroke-width="1"/>
                  <path id="Trazado_873024" data-name="Trazado 873024" d="M93.7-1.8s52.91,41.262,16.369,65.616S-.6,28.694-.6,28.694" transform="translate(153.679 -19.45)" fill="#00483f" stroke="#f1e8d5" stroke-linecap="round" stroke-linejoin="round" stroke-width="1"/>
                  <path id="Trazado_873025" data-name="Trazado 873025" d="M143.463,72.328C150.1,20.948,78.515-24.617-.261,12.409" transform="translate(35.628 178.594)" fill="#00483f" stroke="#f1e8d5" stroke-linecap="round" stroke-linejoin="round" stroke-width="1"/>
                </g>
              </g>
            </g>
            <ellipse id="Elipse_11487" data-name="Elipse 11487" cx="281.574" cy="224.298" rx="281.574" ry="224.298" transform="translate(172.373 -625.811)" fill="#01927f" opacity="0.18"/>
            <g id="Grupo_1099031" data-name="Grupo 1099031" transform="matrix(0.875, -0.485, 0.485, 0.875, -294.389, -139.917)" opacity="0.11" style="mix-blend-mode: multiply;isolation: isolate">
              <g id="Grupo_1099028-2" data-name="Grupo 1099028" transform="translate(0 0)">
                <g id="Grupo_1099027-2" data-name="Grupo 1099027" clip-path="url(#clip-path-11)">
                  <path id="Trazado_873014-2" data-name="Trazado 873014" d="M687.374,208.188c26.525-25.659,22.655-71.675-2.85-106.809s-68.7-59.615-112.03-71.117-87.084-11.38-128.937-7.828C293.389,35.193,156.6,92.686,66.352,188.737,43.371,213.2,23.068,240.718,15.683,273.576a117.242,117.242,0,0,0,26.3,102.333c34.254,39.23,90.573,55.107,149.281,71.422-17.05,5.564-22.829,25.231-15.6,42.343,15.445,36.562,63.12,48.223,102.121,50.7,129.986,8.249,245.168-38.464,342.352-98.469,51.059-31.529,99.224-67.509,132.552-114.312,21.9-30.755,37.653-77.255-1.328-111.479-17.981-15.78-47.175-21.727-63.985-7.926" transform="translate(59.94 90.27)" fill="#02dc84"/>
                </g>
              </g>
              <g id="Grupo_1099030-2" data-name="Grupo 1099030" transform="translate(59.94 90.272)">
                <g id="Grupo_1099029-2" data-name="Grupo 1099029" transform="translate(0 0)" clip-path="url(#clip-path-12)">
                  <path id="Trazado_873015-2" data-name="Trazado 873015" d="M11.534,268.344S423.1,374.456,315.175,12.856" transform="translate(-31.248 -0.739)" fill="#02dc84"/>
                  <path id="Trazado_873016-2" data-name="Trazado 873016" d="M17.966,417.988S390.09,557.071,478.938,19.536" transform="translate(-23.575 -12.284)" fill="#02dc84"/>
                  <path id="Trazado_873017-2" data-name="Trazado 873017" d="M26.424,614.77S262.772,658.27,374.9,404.981s92.83-385.9,92.83-385.9" transform="translate(116.208 -47.775)" fill="#02dc84"/>
                  <path id="Trazado_873018-2" data-name="Trazado 873018" d="M272.214,11.1S284.5,248.466,16.43,382.253" transform="translate(461.665 150.038)" fill="#02dc84"/>
                </g>
              </g>
            </g>
          </g>
        </g>
        <g id="Grupo_1100139" data-name="Grupo 1100139" transform="translate(1366.187 4207.123)">
          <g id="Grupo_1100135" data-name="Grupo 1100135" clip-path="url(#clip-path-13)">
            <path id="Trazado_874914" data-name="Trazado 874914" d="M31.847,90.747h0A26.954,26.954,0,0,0,58.8,63.793,26.954,26.954,0,0,0,31.847,90.747Z" transform="translate(-4.989 -9.993)" fill="#ff9751"/>
            <path id="Trazado_874915" data-name="Trazado 874915" d="M31.847,58.85h0A26.954,26.954,0,0,0,58.8,31.9,26.954,26.954,0,0,0,31.847,58.85Z" transform="translate(-4.989 -4.996)" fill="#ff9751"/>
            <path id="Trazado_874916" data-name="Trazado 874916" d="M31.847,26.954h0A26.954,26.954,0,0,0,58.8,0,26.954,26.954,0,0,0,31.847,26.954Z" transform="translate(-4.989 0)" fill="#ff9751"/>
            <path id="Trazado_874917" data-name="Trazado 874917" d="M26.954,90.747h0A26.954,26.954,0,0,1,0,63.793,26.954,26.954,0,0,1,26.954,90.747Z" transform="translate(0 -9.993)" fill="#ff9751"/>
            <path id="Trazado_874918" data-name="Trazado 874918" d="M26.954,58.85h0A26.954,26.954,0,0,1,0,31.9,26.954,26.954,0,0,1,26.954,58.85Z" transform="translate(0 -4.996)" fill="#ff9751"/>
            <path id="Trazado_874919" data-name="Trazado 874919" d="M26.954,26.954h0A26.954,26.954,0,0,1,0,0,26.954,26.954,0,0,1,26.954,26.954Z" transform="translate(0 0)" fill="#ff9751"/>
          </g>
        </g>
      </g>
    </g>
  </g>
</svg>
