<svg xmlns="http://www.w3.org/2000/svg" xmlns:xlink="http://www.w3.org/1999/xlink" width="252" height="424" viewBox="0 0 252 424">
  <defs>
    <clipPath id="clip-path">
      <rect id="Rectángulo_401486" data-name="Rectángulo 401486" width="252" height="424" transform="translate(687.125 9905.465)" fill="#fff" stroke="#707070" stroke-width="1"/>
    </clipPath>
    <linearGradient id="linear-gradient" x1="-28.305" y1="1.141" x2="-28.305" y2="0.463" gradientUnits="objectBoundingBox">
      <stop offset="0.19" stop-color="#df8666" stop-opacity="0"/>
      <stop offset="0.76" stop-color="#de7152"/>
    </linearGradient>
    <linearGradient id="linear-gradient-2" x1="0.5" y1="0.157" x2="0.5" y2="0.799" gradientUnits="objectBoundingBox">
      <stop offset="0" stop-color="#e8f9f8"/>
      <stop offset="1" stop-color="#c1e6e4"/>
    </linearGradient>
    <linearGradient id="linear-gradient-3" x1="0" y1="0.499" x2="0.999" y2="0.499" xlink:href="#linear-gradient-2"/>
    <linearGradient id="linear-gradient-4" x1="0" y1="0.5" x2="1" y2="0.5" xlink:href="#linear-gradient-2"/>
    <linearGradient id="linear-gradient-5" x1="-145.139" y1="0.499" x2="-144.139" y2="0.499" xlink:href="#linear-gradient"/>
    <linearGradient id="linear-gradient-6" x1="-0.001" y1="0.501" x2="0.999" y2="0.501" gradientUnits="objectBoundingBox">
      <stop offset="0.02" stop-color="#f46a2b"/>
      <stop offset="0.98" stop-color="#e85629"/>
    </linearGradient>
    <linearGradient id="linear-gradient-7" x1="0.001" y1="0.501" x2="1.002" y2="0.501" xlink:href="#linear-gradient-6"/>
    <linearGradient id="linear-gradient-8" x1="0" y1="0.5" x2="1" y2="0.5" xlink:href="#linear-gradient-6"/>
    <linearGradient id="linear-gradient-9" x1="0" y1="0.499" x2="1" y2="0.499" xlink:href="#linear-gradient-6"/>
  </defs>
  <g id="Enmascarar_grupo_1098730" data-name="Enmascarar grupo 1098730" transform="translate(-687.125 -9905.465)" clip-path="url(#clip-path)">
    <g id="Grupo_1099583" data-name="Grupo 1099583" transform="translate(687.42 9920.114)">
      <g id="OBJECTS" transform="translate(0 0)">
        <g id="Grupo_1099582" data-name="Grupo 1099582">
          <g id="Grupo_1099558" data-name="Grupo 1099558" transform="translate(14.362 274.971)">
            <g id="Grupo_1099554" data-name="Grupo 1099554" transform="translate(111.985 345.305)">
              <path id="Trazado_874250" data-name="Trazado 874250" d="M105.347,328.52c-4.482-.57-8.944-1.215-13.407-1.88l.171,30.421h36.726s1.12-9.893,2.905-26.224C122.836,330.419,114.006,329.621,105.347,328.52Z" transform="translate(-43.693 -326.64)" fill="#e29579"/>
              <path id="Trazado_874251" data-name="Trazado 874251" d="M152.455,370.563c2.45-7.1,1.9-14.869.532-22.256-.38-2.051-.722-6.323-.722-6.38,0,0-3.247-.095-4.007.684s-1.215,1.8-1.956,2.621c-2.222,2.45-6.115,2.165-9.3,1.329a44.8,44.8,0,0,1-14.052-6.457c-2.146-1.481-4.614-3.247-7.1-2.488a6.116,6.116,0,0,0-3.437,3.437c-.7,1.519-1.1,3.152-1.842,4.652-2.089,4.2-6.551,6.589-10.748,8.7-1.728.873-3.456,1.747-5.2,2.62a32.177,32.177,0,0,1-7.064,2.905c-2.962.7-6.039.57-9.077.741s-6.191.741-8.6,2.583c-2.412,1.861-4.216,4.349-2.886,7.083l85.434.228Z" transform="translate(-66.533 -316.937)" fill="#4660b8"/>
            </g>
            <g id="Grupo_1099555" data-name="Grupo 1099555" transform="translate(0 319.574)">
              <path id="Trazado_874252" data-name="Trazado 874252" d="M40.832,313.09c-3.361,27.687-5.412,45.841-5.412,45.841l32.225,5.621L78.127,325.11Q59.242,319.841,40.832,313.09Z" transform="translate(17.484 -313.09)" fill="#da8c70"/>
              <path id="Trazado_874253" data-name="Trazado 874253" d="M90.6,371.379c4.045-6.323,5.355-14,5.754-21.5.114-2.089.779-6.323.8-6.38,0,0-3.133-.855-4.045-.285-.93.57-1.614,1.462-2.507,2.07-2.734,1.861-6.437.665-9.343-.912a45,45,0,0,1-12.134-9.59c-1.728-1.937-3.722-4.235-6.3-4.083a6.027,6.027,0,0,0-4.14,2.545c-1.044,1.31-1.823,2.81-2.886,4.083-3.019,3.589-7.919,4.861-12.5,5.925-1.88.437-3.779.892-5.659,1.329a32.948,32.948,0,0,1-7.539,1.158c-3.038,0-6-.874-9-1.424s-6.191-.741-8.963.494-5.127,3.228-4.463,6.21l82.965,20.357Z" transform="translate(-7.56 -297.263)" fill="#4660b8"/>
            </g>
            <g id="Grupo_1099557" data-name="Grupo 1099557" transform="translate(51.518)">
              <path id="Trazado_874254" data-name="Trazado 874254" d="M199.879,144.819s12.666,32.282,10.767,57.6-24.838,304.458-24.838,304.458l-48.746,1.9,4.6-287.368L76.144,505.923,34.69,493.732s42.1-286.513,59.494-345.76L199.9,144.8Z" transform="translate(-34.69 -144.8)" fill="#0f1956"/>
              <g id="Grupo_1099556" data-name="Grupo 1099556" transform="translate(98.726 20.433)" opacity="0.5">
                <path id="Trazado_874255" data-name="Trazado 874255" d="M113.749,155.56a39.364,39.364,0,0,0,18.477,30.953,29.066,29.066,0,0,1-18.458-30.953Z" transform="translate(-62.63 -155.56)" fill="#0f1956"/>
                <path id="Trazado_874256" data-name="Trazado 874256" d="M86.68,189.506a4.939,4.939,0,0,1,1.918-1.5c.7-.361,1.405-.722,2.127-1.025,1.424-.665,2.886-1.215,4.368-1.747a41.162,41.162,0,0,1,9.172-2.184,41.464,41.464,0,0,1-8.545,3.969c-1.481.494-2.981.968-4.5,1.348-.76.19-1.538.361-2.3.513a7.611,7.611,0,0,0-2.222.627Z" transform="translate(-86.68 -130.848)" fill="#0f1956"/>
              </g>
            </g>
          </g>
          <g id="Grupo_1099573" data-name="Grupo 1099573" transform="translate(0 70.264)">
            <g id="Grupo_1099559" data-name="Grupo 1099559" transform="translate(34.922 61.051)">
              <path id="Trazado_874257" data-name="Trazado 874257" d="M45.433,175.55c-3.133,9.552-5.7,17.28-7.368,22.332A52.611,52.611,0,0,0,19.722,211.82c-2.032,2.3-1.329,4.083-.589,5.032a.961.961,0,0,0,1.481.076c2.07-2.051,6.684-5.3,8.621-4.368,2.184,1.044-9.95,20.262-7.482,22.465.987.893,9.988-12.552,9.988-12.552S24.83,238.709,27.128,238.8c2.317.095,10.254-13.407,10.254-13.407s-4.956,17.034-2.6,16.16c2.355-.892,8.071-13.5,8.071-13.5-1.139,6.418-.684,9.191-.152,10.387a.7.7,0,0,0,1.272.076c3.019-5.222,4.633-17.28,5.431-25.655l.209.133c5.26-5.583,10.216-11.432,14.888-17.451-6.475-6.57-12.856-13.2-19.084-19.977Z" transform="translate(-18.387 26.498)" fill="#e29579"/>
              <path id="Trazado_874258" data-name="Trazado 874258" d="M115.4,69.15S99.891,74.22,92.618,87.513,28.68,289.751,28.68,289.751l20.262,14.565s44.3-60.14,56.646-102.543,9.818-132.6,9.818-132.6Z" transform="translate(-9.135 -69.15)" fill="#4660b8"/>
            </g>
            <g id="Grupo_1099566" data-name="Grupo 1099566" transform="translate(121.231)">
              <g id="Grupo_1099560" data-name="Grupo 1099560" transform="translate(5.149)">
                <path id="Trazado_874259" data-name="Trazado 874259" d="M78.437,118.142c15.173,8.792,32.643,14.755,50.341,12.172,15.647-2.279,29.927-9.115,43.068-18.116a25.168,25.168,0,0,0-7.121-12.875,22.568,22.568,0,0,0-14.755-5.868,31.846,31.846,0,0,1-12.457-2.791c-5.45-17.034-.133-49.145.57-53.228a3.507,3.507,0,0,0,.076-.437L94.085,61.781a11.509,11.509,0,0,1,1.329,4.861h0a54.086,54.086,0,0,1-.949,13.5c-.893,5.108-2.089,9.628-2.6,11.47-4.614,5.583-11.109,7.672-20.547,13.35a14.45,14.45,0,0,0-4.766,4.557c4.937,4.026,6.988,5.792,11.887,8.621Z" transform="translate(-66.55 -37)" fill="#e29579"/>
                <path id="Trazado_874260" data-name="Trazado 874260" d="M81.259,72.341c23.965,3.019,36.1-25.6,36.536-26.661a28.24,28.24,0,0,1-17.11,12.267,46.609,46.609,0,0,1-18.344.93.228.228,0,0,1-.152-.038,54,54,0,0,1-.949,13.483Z" transform="translate(-53.344 -29.197)" fill="url(#linear-gradient)"/>
              </g>
              <g id="Grupo_1099565" data-name="Grupo 1099565" transform="translate(0 44.827)">
                <path id="Trazado_874261" data-name="Trazado 874261" d="M92.933,65.439S80.59,76.111,72.994,79.681,63.613,95.234,63.86,99.26s.475,136.838.475,136.838h9.134l12.856-14.964,10.52,14.831s85.282.532,84.731,0c-.532-.532-14-71.438-13.293-81.294s11.033-57.8,7.6-66.463-7.6-22.427-36.441-24.1L115.36,75.58,92.914,65.42Z" transform="translate(-63.839 -57.456)" fill="#4660b8"/>
                <g id="Grupo_1099564" data-name="Grupo 1099564" transform="translate(18.954)">
                  <path id="Trazado_874262" data-name="Trazado 874262" d="M81.85,77.9l12.343,81.655,22.787-90.523-17.793,4.14L83.122,66.81Z" transform="translate(-66.601 -55.029)" fill="url(#linear-gradient-2)"/>
                  <g id="Grupo_1099563" data-name="Grupo 1099563">
                    <g id="Grupo_1099561" data-name="Grupo 1099561" transform="translate(0 2.705)">
                      <path id="Trazado_874263" data-name="Trazado 874263" d="M106.957,77.449,97.766,65.9s-17.527-4.311-17.508-3.836c0,.475-6.437,11.413-6.437,11.413L89.733,90.229,98.3,75.7l8.678,1.766Z" transform="translate(-73.82 -62.031)" fill="url(#linear-gradient-3)"/>
                      <path id="Trazado_874264" data-name="Trazado 874264" d="M99.423,71.957l-9-3.817L82.2,84.7l9.969-12.685Z" transform="translate(-66.287 -56.539)" fill="#c2cfff"/>
                    </g>
                    <g id="Grupo_1099562" data-name="Grupo 1099562" transform="translate(32.586)">
                      <path id="Trazado_874265" data-name="Trazado 874265" d="M90.98,78.748l8.6-12.476s17.261-6.115,17.28-5.64c0,.475,6.988,10.71,6.988,10.71l-15.04,18.344-9.248-13.6L91,78.748Z" transform="translate(-90.98 -60.606)" fill="url(#linear-gradient-4)"/>
                      <path id="Trazado_874266" data-name="Trazado 874266" d="M90.98,72.4l8.811-4.728,9.02,15.666L98.234,71.715Z" transform="translate(-90.98 -54.256)" fill="#c2cfff"/>
                    </g>
                  </g>
                </g>
              </g>
            </g>
            <g id="Grupo_1099572" data-name="Grupo 1099572" transform="translate(0 55.354)">
              <g id="Grupo_1099568" data-name="Grupo 1099568" transform="translate(0 44.568)">
                <rect id="Rectángulo_401379" data-name="Rectángulo 401379" width="149.257" height="6.988" transform="translate(9.082 64.963)" fill="#bae5e6"/>
                <rect id="Rectángulo_401380" data-name="Rectángulo 401380" width="95.194" height="6.988" transform="translate(9.082 64.963)" fill="#8dbebf"/>
                <g id="Grupo_1099567" data-name="Grupo 1099567">
                  <path id="Trazado_874267" data-name="Trazado 874267" d="M104.274,154.583H9.307L.04,93.855A3.684,3.684,0,0,1,3.686,89.62H91.209a3.694,3.694,0,0,1,3.646,3.133Z" transform="translate(0.003 -89.62)" fill="#bae5e6"/>
                  <path id="Trazado_874268" data-name="Trazado 874268" d="M27.837,101.4H41.7a.334.334,0,0,1,.266.532l-9.1,11.508a.334.334,0,0,0,.266.532h5.7a.323.323,0,0,1,.228.551L22.1,131.478a.333.333,0,0,1-.551-.342L25.293,119.8a.333.333,0,0,0-.3-.437H20.526a.332.332,0,0,1-.3-.456l7.33-17.318a.357.357,0,0,1,.3-.209Z" transform="translate(18.16 -79.048)" fill="#fff"/>
                </g>
              </g>
              <g id="Grupo_1099571" data-name="Grupo 1099571" transform="translate(101.048)">
                <path id="Trazado_874269" data-name="Trazado 874269" d="M94.037,141.786c.456-3.19.949-6.361,1.481-9.533.513-3.152,1.044-6.285,1.614-9.419l-15.856,1.709s-6.684-3.589-11.868-2.412c-5.07,1.158-4.994,3.494-4.994,3.494s9.969-.874,9.552,2.013-20.755,4.937-20.755,4.937a3.917,3.917,0,0,0,1.139,1.291,8.55,8.55,0,0,0,5.431,1.519,9.539,9.539,0,0,0,4.083,1.861,27.576,27.576,0,0,0,4.5.437,3.3,3.3,0,0,0,3.437.665,7.755,7.755,0,0,0,2.279.3.749.749,0,0,0,.532-.171l16.654,3.038,2.734.285Z" transform="translate(-53.21 -16.038)" fill="#e29579"/>
                <g id="Grupo_1099570" data-name="Grupo 1099570" transform="translate(19.489)">
                  <path id="Trazado_874270" data-name="Trazado 874270" d="M151.378,66.15s13.919,3.475,21.211,21.838c7.273,18.363,24.06,80.382,10.121,95.574S70.35,202.229,70.35,202.229V173.118l69.634-19.939L128.914,97.16l22.465-31.01Z" transform="translate(-57.291 -66.15)" fill="#4660b8"/>
                  <g id="Grupo_1099569" data-name="Grupo 1099569" transform="translate(0 15.021)" opacity="0.5">
                    <path id="Trazado_874271" data-name="Trazado 874271" d="M71.1,134.487c6.323-2.431,12.723-4.671,19.122-6.855,6.4-2.222,12.837-4.311,19.274-6.38,6.456-2.032,12.913-4.064,19.407-5.963l9.761-2.829c3.266-.873,6.532-1.823,9.818-2.64-3.152,1.234-6.361,2.355-9.533,3.532l-9.59,3.342c-6.4,2.222-12.837,4.311-19.274,6.38-6.456,2.032-12.913,4.064-19.407,5.963-6.494,1.918-13.008,3.8-19.559,5.488Z" transform="translate(-56.617 -41.914)" fill="#4660b8"/>
                    <path id="Trazado_874272" data-name="Trazado 874272" d="M102.35,86.06c1.025,3.893,1.842,7.824,2.621,11.754.8,3.931,1.462,7.881,2.127,11.83.608,3.969,1.215,7.919,1.69,11.906l.684,5.982c.152,1.994.38,3.988.494,6-.532-1.937-.93-3.912-1.405-5.868l-1.215-5.887c-.8-3.931-1.462-7.881-2.108-11.83-.608-3.969-1.215-7.919-1.671-11.906-.475-3.988-.931-7.957-1.177-11.982Z" transform="translate(-28.524 -63.273)" fill="#4660b8"/>
                    <path id="Trazado_874273" data-name="Trazado 874273" d="M71.618,142.238c7.8-.911,15.628-1.709,23.433-2.507l23.433-2.374c7.824-.722,15.609-1.614,23.4-2.507,3.893-.456,7.786-.931,11.66-1.519,3.893-.513,7.748-1.215,11.584-2.032-7.5,2.45-15.306,3.741-23.053,4.994-7.786,1.177-15.59,2.051-23.414,2.943-7.824.7-15.647,1.424-23.509,1.937-7.843.494-15.685.911-23.566,1.063Z" transform="translate(-56.185 -22.604)" fill="#4660b8"/>
                    <path id="Trazado_874274" data-name="Trazado 874274" d="M79.512,74.06c-.741,4.823-1.481,9.647-2.146,14.451-.7,4.823-1.272,9.647-1.633,14.47-.057,1.2-.171,2.412-.133,3.589a13.16,13.16,0,0,0,.076,1.747l.076.855c.038.266.133.475.19.722a16.206,16.206,0,0,0,1.69,3.019c.646,1.006,1.348,2.013,2.032,3,2.829,3.931,5.659,7.9,8.621,11.755a.9.9,0,0,1,.076.968c-1.481,2.621-2.905,5.317-4.235,8.014a48.631,48.631,0,0,0-3.513,8.241c-.133.7-.323,1.386,0,1.766.38.608.817,1.234,1.253,1.861l2.659,3.684,5.431,7.33c-2.051-2.26-4.026-4.557-6-6.893-.987-1.158-1.975-2.317-2.905-3.532-.475-.608-.93-1.2-1.386-1.861L79.493,147a3.863,3.863,0,0,1-.171-.418,3.218,3.218,0,0,1-.076-.722,6.468,6.468,0,0,1,.152-1.253,47.983,47.983,0,0,1,3.247-8.678c1.31-2.772,2.7-5.469,4.159-8.165l.076.949c-3-3.874-6.02-7.71-8.754-11.773-.684-1.006-1.367-2.032-2.032-3.076a16.759,16.759,0,0,1-1.8-3.38,7.664,7.664,0,0,1-.266-1.044l-.076-.968a15.977,15.977,0,0,1-.057-1.9c0-1.253.114-2.488.19-3.722.456-4.9,1.348-9.7,2.222-14.508q1.4-7.178,3.19-14.28Z" transform="translate(-54.11 -74.06)" fill="#4660b8"/>
                    <path id="Trazado_874275" data-name="Trazado 874275" d="M94.1,136.211l2.013-5.64c.684-1.861,1.386-3.741,1.994-5.621.589-1.88,1.253-3.76,1.728-5.64a21.946,21.946,0,0,0,.551-2.791,4.234,4.234,0,0,0-.038-1.139,1.711,1.711,0,0,0-.057-.285,2.434,2.434,0,0,1-.133-.57,3.961,3.961,0,0,1,0-.949,23.727,23.727,0,0,1,1.937-5.944c.855-1.842,1.728-3.646,2.716-5.393a100.33,100.33,0,0,1,6.361-10.178L106.12,102.9c-.8,1.823-1.652,3.608-2.374,5.431a23.388,23.388,0,0,0-1.709,5.412,1.776,1.776,0,0,0,0,.551l.133.589a5.61,5.61,0,0,1,.076,1.842,22.045,22.045,0,0,1-.665,3.076,51.975,51.975,0,0,1-2.108,5.678A92.749,92.749,0,0,1,94.1,136.211Z" transform="translate(-35.941 -57.879)" fill="#4660b8"/>
                    <path id="Trazado_874276" data-name="Trazado 874276" d="M64.189,150.3c-.361-5.108-.494-10.216-.608-15.325-.133-5.108-.114-10.216-.095-15.305.057-5.108.133-10.2.342-15.306l.323-7.653c.171-2.545.285-5.108.532-7.653.19,2.545.266,5.108.4,7.653l.209,7.653c.133,5.108.114,10.216.095,15.306-.057,5.108-.133,10.2-.342,15.305-.19,5.108-.418,10.2-.855,15.306Z" transform="translate(-63.473 -60.576)" fill="#4660b8"/>
                  </g>
                </g>
              </g>
            </g>
          </g>
          <g id="Grupo_1099581" data-name="Grupo 1099581" transform="translate(130.647)">
            <g id="Grupo_1099579" data-name="Grupo 1099579" transform="translate(0.869 7.817)">
              <path id="Trazado_874277" data-name="Trazado 874277" d="M76.025,18.177c5.754-14.793,32.89-20.566,51.8-4.121,8.792,7.634,10.653,21.5,10.121,34.124a6.914,6.914,0,0,1,1.12-.456c3.855-.968,7.71,1.937,8.868,5.564a10.428,10.428,0,0,1-1.348,8.678,13.035,13.035,0,0,1-5.963,4.975,17,17,0,0,1-5.127.513,38.054,38.054,0,0,1-12.609,21.439,34.543,34.543,0,0,1-29.377,7.444c-8.184-1.69-20.3-6.95-23.319-15.438a21.85,21.85,0,0,1-.893-6.95c-.228-17.907.114-38.852,6.7-55.791Z" transform="translate(-69.255 -4.115)" fill="#e29579"/>
              <g id="Grupo_1099578" data-name="Grupo 1099578" transform="translate(1.206 24.52)">
                <g id="Grupo_1099574" data-name="Grupo 1099574" transform="translate(7.14 14.038)">
                  <path id="Trazado_874278" data-name="Trazado 874278" d="M78.625,29.528c0,2.829-1.12,5.108-2.488,5.108s-2.488-2.279-2.488-5.108,1.12-5.108,2.488-5.108S78.625,26.7,78.625,29.528Z" transform="translate(-73.65 -24.42)" fill="#0f1956"/>
                  <path id="Trazado_874279" data-name="Trazado 874279" d="M85.02,29.528c0,2.829,1.12,5.108,2.488,5.108S90,32.358,90,29.528s-1.12-5.108-2.488-5.108S85.02,26.7,85.02,29.528Z" transform="translate(-63.429 -24.42)" fill="#0f1956"/>
                </g>
                <g id="Grupo_1099575" data-name="Grupo 1099575" transform="translate(11.033 34.604)">
                  <path id="Trazado_874280" data-name="Trazado 874280" d="M75.719,35.25a12.282,12.282,0,0,0,3.76,4.273,9.653,9.653,0,0,0,5.583,1.861,9.785,9.785,0,0,0,5.564-1.918,17.189,17.189,0,0,0,2.146-1.918c.589-.76,1.158-1.519,1.671-2.3-.779.57-1.481,1.158-2.184,1.747-.779.475-1.481,1.063-2.279,1.462a10.393,10.393,0,0,1-4.937,1.405,10.212,10.212,0,0,1-4.956-1.329A21.581,21.581,0,0,1,75.7,35.269Z" transform="translate(-75.7 -35.25)" fill="#d66849"/>
                  <path id="Trazado_874281" data-name="Trazado 874281" d="M79.26,40.02a4.168,4.168,0,0,0,2.621.893A4.284,4.284,0,0,0,84.5,40.02a14.427,14.427,0,0,1-2.621.3A10.489,10.489,0,0,1,79.26,40.02Z" transform="translate(-72.5 -30.962)" fill="#d66849"/>
                </g>
                <g id="Grupo_1099576" data-name="Grupo 1099576" transform="translate(16.613 11.342)">
                  <path id="Trazado_874282" data-name="Trazado 874282" d="M81.533,23.457a12.688,12.688,0,0,1-.418,5.488c-.513,1.576-1.044,3.152-1.557,4.728a11.656,11.656,0,0,0-.589,2.3,4.055,4.055,0,0,0,.323,2.336,2.63,2.63,0,0,0,.494.684,3.44,3.44,0,0,0,1.785,1.158c.665.133,1.2.532,1.728-.019,0,0,2.089-.361,2.564-1.2S83.736,26.419,81.609,23.02l-.076.475Z" transform="translate(-78.378 -22.982)" fill="url(#linear-gradient-5)"/>
                  <path id="Trazado_874283" data-name="Trazado 874283" d="M81.87,23c-.437,1.918-.76,3.836-1.12,5.735-.361,1.88-.722,3.779-1.253,5.564-.133.456-.266.893-.418,1.31a4.82,4.82,0,0,0-.437,1.652,3.335,3.335,0,0,0,1.785,3.019,4.062,4.062,0,0,0,3.247.171,8.185,8.185,0,0,0,2.583-1.538c-1.785.665-3.874,1.2-5.146.247a2.013,2.013,0,0,1-.892-1.823A3.936,3.936,0,0,1,80.6,36.2c.19-.475.361-.949.513-1.443a26.05,26.05,0,0,0,.93-5.868A30.535,30.535,0,0,0,81.851,23Z" transform="translate(-78.639 -23)" fill="#d66849"/>
                </g>
                <path id="Trazado_874284" data-name="Trazado 874284" d="M113.809,32.862a4.1,4.1,0,0,0-1.272-3.228,3.82,3.82,0,0,0-3.684-.361,6.918,6.918,0,0,0-2.962,2.165,10.889,10.889,0,0,0-1.842,3.114.819.819,0,0,0,1.348.874l.057-.057a7.261,7.261,0,0,1,2.734-1.937,1.232,1.232,0,0,1,1.139.133,3.074,3.074,0,0,1,.817,1.272c.418,1.063.665,2.317-.247,2.81a6.009,6.009,0,0,1-3.608.247,5.727,5.727,0,0,0,3.969.532,2.247,2.247,0,0,0,1.405-1.861,5.849,5.849,0,0,0-.228-2.165,4.086,4.086,0,0,0-1.158-1.994,2.734,2.734,0,0,0-2.488-.513,7.724,7.724,0,0,0-3.551,2.393l1.386.817a8.685,8.685,0,0,1,3.741-4.671,3.063,3.063,0,0,1,2.772-.171,4.132,4.132,0,0,1,1.709,2.6Z" transform="translate(-39.237 -6.291)" fill="#d66849"/>
                <g id="Grupo_1099577" data-name="Grupo 1099577">
                  <path id="Trazado_874285" data-name="Trazado 874285" d="M83.539,18.552c.228.171.4.323.551.456a1.973,1.973,0,0,1-.076-.741,1.457,1.457,0,0,1,.836-1.177,4.722,4.722,0,0,1,.038.7,1.426,1.426,0,0,1,.817-.475c-.019.152-.057.266-.076.4a6.425,6.425,0,0,1,2.772-.684,11.843,11.843,0,0,1,4.121.589,10.553,10.553,0,0,1,6.1,5.241,1.182,1.182,0,0,1-.456,1.614,1.2,1.2,0,0,1-1.386-.171l-.095-.095a15.485,15.485,0,0,0-2.469-1.956,8.658,8.658,0,0,0-2.715-1.12,10.14,10.14,0,0,0-2.943-.285,11.259,11.259,0,0,1-3.152-.19l-.323-.076-.19-.095a1.534,1.534,0,0,1-1.044-.551,1.464,1.464,0,0,1-.285-1.424Z" transform="translate(-57.675 -17.027)" fill="url(#linear-gradient-6)"/>
                  <path id="Trazado_874286" data-name="Trazado 874286" d="M85.12,18.552c-.228.171-.4.323-.551.456a1.974,1.974,0,0,0,.076-.741,1.457,1.457,0,0,0-.836-1.177,4.723,4.723,0,0,0-.038.7,1.425,1.425,0,0,0-.817-.475c.019.152.057.266.076.4a6.425,6.425,0,0,0-2.772-.684,11.843,11.843,0,0,0-4.121.589,10.553,10.553,0,0,0-6.1,5.241,1.182,1.182,0,0,0,.456,1.614,1.2,1.2,0,0,0,1.386-.171l.095-.095a15.485,15.485,0,0,1,2.469-1.956,8.658,8.658,0,0,1,2.715-1.12,10.14,10.14,0,0,1,2.943-.285,11.259,11.259,0,0,0,3.152-.19l.323-.076.19-.095a1.534,1.534,0,0,0,1.044-.551,1.464,1.464,0,0,0,.285-1.424Z" transform="translate(-69.89 -17.027)" fill="url(#linear-gradient-7)"/>
                </g>
              </g>
            </g>
            <g id="Grupo_1099580" data-name="Grupo 1099580">
              <path id="Trazado_874287" data-name="Trazado 874287" d="M149.2,27.916c-2.393-4.633-7.216-6.76-12.229-8.241a9.82,9.82,0,0,0,1.082-7.387,9.344,9.344,0,0,0-4.633-5.3,19.323,19.323,0,0,0-6.893-1.975c-6.931-.855-14.071-.038-20.793-1.88-1.842-.494-3.627-1.2-5.469-1.747A28.938,28.938,0,0,0,83.323,1.16,20.89,20.89,0,0,0,70.581,11.984a22.516,22.516,0,0,0-1.576,12A44.7,44.7,0,0,0,72.347,35.74a.275.275,0,0,1,.133-.038,90.91,90.91,0,0,1,2.564-9.894,12.406,12.406,0,0,0,3.418,2.165,20.7,20.7,0,0,0,4.254,1.139,20.031,20.031,0,0,0,9.723-.323c3.1-1.063,6.21-2.127,9.3-3.19a32.306,32.306,0,0,1,7.159-1.861,11.045,11.045,0,0,1,7.121,1.443c2.07,1.348,4.311,4.349,3.361,6.627a18.306,18.306,0,0,0,5.754,21.04,26.071,26.071,0,0,1,2.924,2.26,9.473,9.473,0,0,1,2.241,3.912,1.6,1.6,0,0,0,.38.76c.494.437,1.253.095,1.785-.285a23.969,23.969,0,0,0,7.121-8.052,6.726,6.726,0,0,1,4.994.855c1.272-3.95,3.323-7.634,4.671-11.584,1.424-4.14,1.975-8.868-.038-12.761Z" transform="translate(-68.791 0.002)" fill="url(#linear-gradient-8)"/>
              <path id="Trazado_874288" data-name="Trazado 874288" d="M70.132,24.828c1.348-.266,2.715-.513,4.083-.722.266-.968.532-1.937.836-2.886a12.407,12.407,0,0,0,3.418,2.165,2.935,2.935,0,0,0,.437.133,84.714,84.714,0,0,1,15.666-.038c2.393-.817,4.785-1.652,7.178-2.469a32.305,32.305,0,0,1,7.159-1.861,11.045,11.045,0,0,1,7.121,1.443c2.07,1.348,4.311,4.349,3.361,6.627a15.844,15.844,0,0,0-.968,3.361c8.583,3.741,17,6.836,26.167,1.766a61.015,61.015,0,0,0,5.906-3.76,12.12,12.12,0,0,0-1.291-5.222c-2.393-4.633-7.216-6.76-12.229-8.241a11.207,11.207,0,0,0,1.386-4.652c-5.488-3.4-11.128-6.058-18.572-5.241-7.349.817-14.489,4.8-21.781,6.229a67.506,67.506,0,0,1-20.49,1.082,58.828,58.828,0,0,1-8.146-1.5,24.439,24.439,0,0,0-.38,8.393,34.648,34.648,0,0,0,1.12,5.412Z" transform="translate(-68.797 4.571)" opacity="0.5" fill="url(#linear-gradient-9)"/>
            </g>
          </g>
        </g>
      </g>
    </g>
  </g>
</svg>
